<?xml version="1.0" encoding="UTF-8" standalone="no"?>
<!DOCTYPE svg PUBLIC "-//W3C//DTD SVG 1.1//EN"
 "http://www.w3.org/Graphics/SVG/1.1/DTD/svg11.dtd">
<!-- Generated by graphviz version 2.26.0 (20091210.2329)
 -->
<!-- Title: Example Pages: 1 -->
<svg width="162pt" height="254pt"
 viewBox="0.00 0.00 162.00 254.00" xmlns="http://www.w3.org/2000/svg" xmlns:xlink="http://www.w3.org/1999/xlink">
<g id="graph1" class="graph" transform="scale(1 1) rotate(0) translate(4 250)">
<title>Example</title>
<polygon fill="none" stroke="none" points="-4,5 -4,-250 159,-250 159,5 -4,5"/>
<g id="graph2" class="cluster"><title>cluster_1</title>
<polygon fill="none" stroke="orange" stroke-dasharray="5,2" points="8,-8 8,-106 82,-106 82,-8 8,-8"/>
<text text-anchor="middle" x="45" y="-35.4" font-family="sans" font-size="14.00" fill="orange">Faulty</text>
<text text-anchor="middle" x="45" y="-17.4" font-family="sans" font-size="14.00" fill="orange">Task</text>
</g>
<!-- baz -->
<g id="node2" class="node"><title>baz</title>
<ellipse fill="none" stroke="black" cx="45" cy="-79" rx="28.9914" ry="18.3848"/>
<text text-anchor="middle" x="45" y="-75.4" font-family="sans" font-size="14.00">baz</text>
</g>
<!-- foo -->
<g id="node3" class="node"><title>foo</title>
<ellipse fill="none" stroke="black" cx="84" cy="-227" rx="27" ry="18.3848"/>
<text text-anchor="middle" x="84" y="-223.4" font-family="sans" font-size="14.00">foo</text>
</g>
<!-- bar -->
<g id="node5" class="node"><title>bar</title>
<ellipse fill="none" stroke="black" cx="84" cy="-153" rx="27.7881" ry="18.3848"/>
<text text-anchor="middle" x="84" y="-149.4" font-family="sans" font-size="14.00">bar</text>
</g>
<!-- foo&#45;&gt;bar -->
<g id="edge3" class="edge"><title>foo&#45;&gt;bar</title>
<path fill="none" stroke="black" d="M84,-208.327C84,-200.264 84,-190.648 84,-181.711"/>
<polygon fill="black" stroke="black" points="87.5001,-181.667 84,-171.667 80.5001,-181.667 87.5001,-181.667"/>
</g>
<!-- bar&#45;&gt;baz -->
<g id="edge4" class="edge"><title>bar&#45;&gt;baz</title>
<path fill="none" stroke="black" d="M74.7575,-135.463C70.0804,-126.589 64.3027,-115.626 59.0863,-105.728"/>
<polygon fill="black" stroke="black" points="62.07,-103.882 54.3113,-96.6675 55.8774,-107.146 62.07,-103.882"/>
</g>
<!-- pub -->
<g id="node7" class="node"><title>pub</title>
<ellipse fill="none" stroke="black" cx="123" cy="-79" rx="31.1127" ry="18.3848"/>
<text text-anchor="middle" x="123" y="-75.4" font-family="sans" font-size="14.00">pub</text>
</g>
<!-- bar&#45;&gt;pub -->
<g id="edge6" class="edge"><title>bar&#45;&gt;pub</title>
<path fill="none" stroke="black" d="M93.2425,-135.463C97.9196,-126.589 103.697,-115.626 108.914,-105.728"/>
<polygon fill="black" stroke="black" points="112.123,-107.146 113.689,-96.6675 105.93,-103.882 112.123,-107.146"/>
</g>
</g>
</svg>
