<?xml version="1.0" encoding="UTF-8" standalone="no"?>
<!DOCTYPE svg PUBLIC "-//W3C//DTD SVG 1.1//EN"
 "http://www.w3.org/Graphics/SVG/1.1/DTD/svg11.dtd">
<!-- Generated by graphviz version 2.26.0 (20091210.2329)
 -->
<!-- Title: Example Pages: 1 -->
<svg width="144pt" height="274pt"
 viewBox="0.00 0.00 143.88 274.00" xmlns="http://www.w3.org/2000/svg" xmlns:xlink="http://www.w3.org/1999/xlink">
<g id="graph1" class="graph" transform="scale(1 1) rotate(0) translate(4 270)">
<title>Example</title>
<polygon fill="none" stroke="none" points="-4,5 -4,-270 140.881,-270 140.881,5 -4,5"/>
<g id="graph2" class="cluster"><title>cluster_1</title>
<polygon fill="none" stroke="red" stroke-dasharray="5,2" points="8,-66 8,-146 124,-146 124,-66 8,-66"/>
<text text-anchor="middle" x="66" y="-129.4" font-family="sans" font-size="14.00" fill="red">:fail</text>
</g>
<!-- recover -->
<g id="node2" class="node"><title>recover</title>
<ellipse fill="none" stroke="black" cx="66" cy="-93" rx="50.2046" ry="18.3848"/>
<text text-anchor="middle" x="66" y="-89.4" font-family="sans" font-size="14.00">recover</text>
</g>
<!-- baz -->
<g id="node8" class="node"><title>baz</title>
<ellipse fill="none" stroke="black" cx="105" cy="-19" rx="28.9914" ry="18.3848"/>
<text text-anchor="middle" x="105" y="-15.4" font-family="sans" font-size="14.00">baz</text>
</g>
<!-- recover&#45;&gt;baz -->
<g id="edge7" class="edge"><title>recover&#45;&gt;baz</title>
<path fill="none" stroke="black" d="M75.6405,-74.7079C80.2899,-65.8857 85.9543,-55.138 91.0628,-45.445"/>
<polygon fill="none" stroke="black" points="94.1729,-47.0506 95.739,-36.5721 87.9803,-43.7869 94.1729,-47.0506"/>
</g>
<!-- foo -->
<g id="node3" class="node"><title>foo</title>
<ellipse fill="none" stroke="black" cx="105" cy="-247" rx="27" ry="18.3848"/>
<text text-anchor="middle" x="105" y="-243.4" font-family="sans" font-size="14.00">foo</text>
</g>
<!-- bar -->
<g id="node5" class="node"><title>bar</title>
<ellipse fill="none" stroke="black" cx="105" cy="-173" rx="27.7881" ry="18.3848"/>
<text text-anchor="middle" x="105" y="-169.4" font-family="sans" font-size="14.00">bar</text>
</g>
<!-- foo&#45;&gt;bar -->
<g id="edge3" class="edge"><title>foo&#45;&gt;bar</title>
<path fill="none" stroke="black" d="M105,-228.327C105,-220.264 105,-210.648 105,-201.711"/>
<polygon fill="black" stroke="black" points="108.5,-201.667 105,-191.667 101.5,-201.667 108.5,-201.667"/>
</g>
<!-- bar&#45;&gt;recover -->
<g id="edge5" class="edge"><title>bar&#45;&gt;recover</title>
<path fill="none" stroke="black" d="M96.3446,-155.245C91.3656,-145.032 85.0034,-131.981 79.3918,-120.47"/>
<polygon fill="black" stroke="black" points="82.4297,-118.715 74.9016,-111.26 76.1376,-121.782 82.4297,-118.715"/>
</g>
<!-- bar&#45;&gt;baz -->
<g id="edge9" class="edge"><title>bar&#45;&gt;baz</title>
<path fill="none" stroke="black" d="M121.191,-157.654C123.979,-154.116 126.468,-150.16 128,-146 140.285,-112.634 136.021,-100.639 128,-66 126.403,-59.1024 123.646,-52.0484 120.584,-45.5726"/>
<polygon fill="none" stroke="black" points="123.654,-43.8881 115.98,-36.584 117.424,-47.0799 123.654,-43.8881"/>
</g>
</g>
</svg>
