<?xml version="1.0" encoding="UTF-8" standalone="no"?>
<!DOCTYPE svg PUBLIC "-//W3C//DTD SVG 1.1//EN"
 "http://www.w3.org/Graphics/SVG/1.1/DTD/svg11.dtd">
<!-- Generated by graphviz version 2.26.0 (20091210.2329)
 -->
<!-- Title: example Pages: 1 -->
<svg width="504pt" height="107pt"
 viewBox="0.00 0.00 504.00 106.85" xmlns="http://www.w3.org/2000/svg" xmlns:xlink="http://www.w3.org/1999/xlink">
<g id="graph1" class="graph" transform="scale(0.472795 0.472795) rotate(0) translate(4 222)">
<title>example</title>
<polygon fill="none" stroke="none" points="-4,5 -4,-222 1063,-222 1063,5 -4,5"/>
<g id="graph2" class="cluster"><title>cluster_T00</title>
<polygon fill="none" stroke="black" stroke-dasharray="5,2" points="8,-106 8,-210 298,-210 298,-106 8,-106"/>
<text text-anchor="middle" x="153" y="-193.4" font-family="sans" font-size="14.00">+PT0H</text>
</g>
<g id="graph3" class="cluster"><title>cluster_T03</title>
<polygon fill="none" stroke="black" stroke-dasharray="5,2" points="760,-106 760,-210 1050,-210 1050,-106 760,-106"/>
<text text-anchor="middle" x="905" y="-193.4" font-family="sans" font-size="14.00">+PT3H</text>
</g>
<g id="graph4" class="cluster"><title>cluster_T06</title>
<polygon fill="none" stroke="black" stroke-dasharray="5,2" points="306,-8 306,-210 752,-210 752,-8 306,-8"/>
<text text-anchor="middle" x="529" y="-193.4" font-family="sans" font-size="14.00">+PT6H</text>
</g>
<!-- observations.t00 -->
<g id="node2" class="node"><title>observations.t00</title>
<ellipse fill="none" stroke="black" cx="153" cy="-145" rx="137.179" ry="31.1127"/>
<text text-anchor="middle" x="153" y="-150.4" font-family="sans" font-size="14.00">consolidate observations</text>
<text text-anchor="middle" x="153" y="-132.4" font-family="sans" font-size="14.00">+PT0H</text>
</g>
<!-- forecast.t06 -->
<g id="node6" class="node"><title>forecast.t06</title>
<ellipse fill="none" stroke="black" cx="563" cy="-47" rx="51.8276" ry="31.1127"/>
<text text-anchor="middle" x="563" y="-52.4" font-family="sans" font-size="14.00">forecast</text>
<text text-anchor="middle" x="563" y="-34.4" font-family="sans" font-size="14.00">+PT6H</text>
</g>
<!-- observations.t00&#45;&gt;forecast.t06 -->
<g id="edge5" class="edge"><title>observations.t00&#45;&gt;forecast.t06</title>
<path fill="none" stroke="black" d="M241.513,-121.308C261.382,-116.136 282.386,-110.782 302,-106 371.113,-89.1484 450.931,-71.3465 503.918,-59.7607"/>
<polygon fill="black" stroke="black" points="504.795,-63.1519 513.818,-57.6 503.302,-56.3128 504.795,-63.1519"/>
</g>
<!-- observations.t03 -->
<g id="node4" class="node"><title>observations.t03</title>
<ellipse fill="none" stroke="black" cx="905" cy="-145" rx="137.179" ry="31.1127"/>
<text text-anchor="middle" x="905" y="-150.4" font-family="sans" font-size="14.00">consolidate observations</text>
<text text-anchor="middle" x="905" y="-132.4" font-family="sans" font-size="14.00">+PT3H</text>
</g>
<!-- observations.t03&#45;&gt;forecast.t06 -->
<g id="edge7" class="edge"><title>observations.t03&#45;&gt;forecast.t06</title>
<path fill="none" stroke="black" d="M820.021,-120.649C757.632,-102.772 674.586,-78.9749 620.001,-63.3337"/>
<polygon fill="black" stroke="black" points="620.729,-59.9015 610.152,-60.5114 618.801,-66.6306 620.729,-59.9015"/>
</g>
<!-- get_rainfall.t06 -->
<g id="node7" class="node"><title>get_rainfall.t06</title>
<ellipse fill="none" stroke="black" cx="675" cy="-145" rx="68.7979" ry="31.1127"/>
<text text-anchor="middle" x="675" y="-150.4" font-family="sans" font-size="14.00">get_rainfall</text>
<text text-anchor="middle" x="675" y="-132.4" font-family="sans" font-size="14.00">+PT6H</text>
</g>
<!-- get_rainfall.t06&#45;&gt;forecast.t06 -->
<g id="edge11" class="edge"><title>get_rainfall.t06&#45;&gt;forecast.t06</title>
<path fill="none" stroke="black" d="M643.205,-117.179C629.781,-105.434 614.06,-91.6777 600.11,-79.4716"/>
<polygon fill="black" stroke="black" points="602.399,-76.8236 592.569,-72.8725 597.79,-82.0916 602.399,-76.8236"/>
</g>
<!-- observations.t06 -->
<g id="node8" class="node"><title>observations.t06</title>
<ellipse fill="none" stroke="black" cx="451" cy="-145" rx="137.179" ry="31.1127"/>
<text text-anchor="middle" x="451" y="-150.4" font-family="sans" font-size="14.00">consolidate observations</text>
<text text-anchor="middle" x="451" y="-132.4" font-family="sans" font-size="14.00">+PT6H</text>
</g>
<!-- observations.t06&#45;&gt;forecast.t06 -->
<g id="edge9" class="edge"><title>observations.t06&#45;&gt;forecast.t06</title>
<path fill="none" stroke="black" d="M485.518,-114.797C498.292,-103.619 512.824,-90.9037 525.825,-79.5282"/>
<polygon fill="black" stroke="black" points="528.471,-81.8634 533.692,-72.6443 523.862,-76.5954 528.471,-81.8634"/>
</g>
</g>
</svg>
