<?xml version="1.0" encoding="UTF-8" standalone="no"?>
<!DOCTYPE svg PUBLIC "-//W3C//DTD SVG 1.1//EN"
 "http://www.w3.org/Graphics/SVG/1.1/DTD/svg11.dtd">
<!-- Generated by graphviz version 2.26.0 (20091210.2329)
 -->
<!-- Title: Mini_Cylc Pages: 1 -->
<svg width="394pt" height="268pt"
 viewBox="0.00 0.00 394.00 268.00" xmlns="http://www.w3.org/2000/svg" xmlns:xlink="http://www.w3.org/1999/xlink">
<g id="graph1" class="graph" transform="scale(1 1) rotate(0) translate(4 264)">
<title>Mini_Cylc</title>
<polygon fill="none" stroke="none" points="-4,5 -4,-264 391,-264 391,5 -4,5"/>
<!-- pre_heat_oven -->
<g id="node1" class="node"><title>pre_heat_oven</title>
<ellipse fill="none" stroke="black" cx="86" cy="-167" rx="85.7684" ry="18.3848"/>
<text text-anchor="middle" x="86" y="-163.4" font-family="sans" font-size="14.00">pre_heat_oven</text>
</g>
<!-- bake_bread -->
<g id="node3" class="node"><title>bake_bread</title>
<ellipse fill="none" stroke="black" cx="175" cy="-93" rx="70.0036" ry="18.3848"/>
<text text-anchor="middle" x="175" y="-89.4" font-family="sans" font-size="14.00">bake_bread</text>
</g>
<!-- pre_heat_oven&#45;&gt;bake_bread -->
<g id="edge2" class="edge"><title>pre_heat_oven&#45;&gt;bake_bread</title>
<path fill="none" stroke="black" d="M107.544,-149.087C119.023,-139.543 133.308,-127.665 145.773,-117.301"/>
<polygon fill="black" stroke="black" points="148.202,-119.833 153.654,-110.748 143.727,-114.45 148.202,-119.833"/>
</g>
<!-- sell_bread -->
<g id="node4" class="node"><title>sell_bread</title>
<ellipse fill="none" stroke="black" cx="100" cy="-19" rx="63.8479" ry="18.3848"/>
<text text-anchor="middle" x="100" y="-15.4" font-family="sans" font-size="14.00">sell_bread</text>
</g>
<!-- bake_bread&#45;&gt;sell_bread -->
<g id="edge6" class="edge"><title>bake_bread&#45;&gt;sell_bread</title>
<path fill="none" stroke="black" d="M156.845,-75.0867C147.426,-65.7933 135.764,-54.2876 125.46,-44.1206"/>
<polygon fill="black" stroke="black" points="127.825,-41.5369 118.248,-37.0049 122.908,-46.5198 127.825,-41.5369"/>
</g>
<!-- clean_oven -->
<g id="node6" class="node"><title>clean_oven</title>
<ellipse fill="none" stroke="black" cx="250" cy="-19" rx="68.0887" ry="18.3848"/>
<text text-anchor="middle" x="250" y="-15.4" font-family="sans" font-size="14.00">clean_oven</text>
</g>
<!-- bake_bread&#45;&gt;clean_oven -->
<g id="edge4" class="edge"><title>bake_bread&#45;&gt;clean_oven</title>
<path fill="none" stroke="black" d="M193.155,-75.0867C202.574,-65.7933 214.236,-54.2876 224.54,-44.1206"/>
<polygon fill="black" stroke="black" points="227.092,-46.5198 231.752,-37.0049 222.175,-41.5369 227.092,-46.5198"/>
</g>
<!-- purchase_ingredients -->
<g id="node8" class="node"><title>purchase_ingredients</title>
<ellipse fill="none" stroke="black" cx="265" cy="-241" rx="121.122" ry="18.3848"/>
<text text-anchor="middle" x="265" y="-237.4" font-family="sans" font-size="14.00">purchase_ingredients</text>
</g>
<!-- make_dough -->
<g id="node10" class="node"><title>make_dough</title>
<ellipse fill="none" stroke="black" cx="265" cy="-167" rx="75.1594" ry="18.3848"/>
<text text-anchor="middle" x="265" y="-163.4" font-family="sans" font-size="14.00">make_dough</text>
</g>
<!-- purchase_ingredients&#45;&gt;make_dough -->
<g id="edge8" class="edge"><title>purchase_ingredients&#45;&gt;make_dough</title>
<path fill="none" stroke="black" d="M265,-222.327C265,-214.264 265,-204.648 265,-195.711"/>
<polygon fill="black" stroke="black" points="268.5,-195.667 265,-185.667 261.5,-195.667 268.5,-195.667"/>
</g>
<!-- make_dough&#45;&gt;bake_bread -->
<g id="edge10" class="edge"><title>make_dough&#45;&gt;bake_bread</title>
<path fill="none" stroke="black" d="M243.214,-149.087C231.606,-139.543 217.161,-127.665 204.555,-117.301"/>
<polygon fill="black" stroke="black" points="206.533,-114.396 196.586,-110.748 202.087,-119.803 206.533,-114.396"/>
</g>
</g>
</svg>
