<?xml version="1.0" encoding="UTF-8" standalone="no"?>
<!DOCTYPE svg PUBLIC "-//W3C//DTD SVG 1.1//EN"
 "http://www.w3.org/Graphics/SVG/1.1/DTD/svg11.dtd">
<!-- Generated by graphviz version 2.26.0 (20091210.2329)
 -->
<!-- Title: Example Pages: 1 -->
<svg width="244pt" height="194pt"
 viewBox="0.00 0.00 244.00 194.00" xmlns="http://www.w3.org/2000/svg" xmlns:xlink="http://www.w3.org/1999/xlink">
<g id="graph1" class="graph" transform="scale(1 1) rotate(0) translate(4 190)">
<title>Example</title>
<polygon fill="none" stroke="none" points="-4,5 -4,-190 241,-190 241,5 -4,5"/>
<!-- fcm_make_spaceship -->
<g id="node1" class="node"><title>fcm_make_spaceship</title>
<ellipse fill="none" stroke="black" cx="118" cy="-167" rx="118.087" ry="18.3848"/>
<text text-anchor="middle" x="118" y="-163.4" font-family="sans" font-size="14.00">fcm_make_spaceship</text>
</g>
<!-- spaceship -->
<g id="node3" class="node"><title>spaceship</title>
<ellipse fill="none" stroke="black" cx="118" cy="-93" rx="62.2254" ry="18.3848"/>
<text text-anchor="middle" x="118" y="-89.4" font-family="sans" font-size="14.00">spaceship</text>
</g>
<!-- fcm_make_spaceship&#45;&gt;spaceship -->
<g id="edge2" class="edge"><title>fcm_make_spaceship&#45;&gt;spaceship</title>
<path fill="none" stroke="black" d="M118,-148.327C118,-140.264 118,-130.648 118,-121.711"/>
<polygon fill="black" stroke="black" points="121.5,-121.667 118,-111.667 114.5,-121.667 121.5,-121.667"/>
</g>
<!-- rose_ana_position -->
<g id="node4" class="node"><title>rose_ana_position</title>
<ellipse fill="none" stroke="black" cx="118" cy="-19" rx="102.03" ry="18.3848"/>
<text text-anchor="middle" x="118" y="-15.4" font-family="sans" font-size="14.00">rose_ana_position</text>
</g>
<!-- spaceship&#45;&gt;rose_ana_position -->
<g id="edge3" class="edge"><title>spaceship&#45;&gt;rose_ana_position</title>
<path fill="none" stroke="black" d="M118,-74.3267C118,-66.2639 118,-56.6477 118,-47.7115"/>
<polygon fill="black" stroke="black" points="121.5,-47.6673 118,-37.6674 114.5,-47.6674 121.5,-47.6673"/>
</g>
</g>
</svg>
