<?xml version="1.0" encoding="UTF-8" standalone="no"?>
<!DOCTYPE svg PUBLIC "-//W3C//DTD SVG 1.1//EN"
 "http://www.w3.org/Graphics/SVG/1.1/DTD/svg11.dtd">
<!-- Generated by graphviz version 2.26.0 (20091210.2329)
 -->
<!-- Title: Example Pages: 1 -->
<svg width="319pt" height="660pt"
 viewBox="0.00 0.00 319.00 660.00" xmlns="http://www.w3.org/2000/svg" xmlns:xlink="http://www.w3.org/1999/xlink">
<g id="graph1" class="graph" transform="scale(1 1) rotate(0) translate(4 656)">
<title>Example</title>
<polygon fill="none" stroke="none" points="-4,5 -4,-656 316,-656 316,5 -4,5"/>
<g id="graph2" class="cluster"><title>cluster_1</title>
<polygon fill="none" stroke="black" stroke-dasharray="5,2" points="19,-330 19,-644 303,-644 303,-330 19,-330"/>
<text text-anchor="middle" x="161" y="-627.4" font-family="sans" font-size="14.00">1</text>
</g>
<g id="graph3" class="cluster"><title>cluster_a</title>
<polygon fill="none" stroke="red" stroke-dasharray="5,2" points="167,-338 167,-442 295,-442 295,-338 167,-338"/>
<text text-anchor="middle" x="231" y="-425.4" font-family="sans" font-size="14.00" fill="red">:fail</text>
</g>
<g id="graph4" class="cluster"><title>cluster_b</title>
<polygon fill="none" stroke="green" stroke-dasharray="5,2" points="27,-338 27,-442 159,-442 159,-338 27,-338"/>
<text text-anchor="middle" x="93" y="-425.4" font-family="sans" font-size="14.00" fill="green">:success</text>
</g>
<g id="graph5" class="cluster"><title>cluster_2</title>
<polygon fill="none" stroke="black" stroke-dasharray="5,2" points="8,-8 8,-322 292,-322 292,-8 8,-8"/>
<text text-anchor="middle" x="150" y="-305.4" font-family="sans" font-size="14.00">2</text>
</g>
<g id="graph6" class="cluster"><title>cluster_c</title>
<polygon fill="none" stroke="red" stroke-dasharray="5,2" points="156,-16 156,-120 284,-120 284,-16 156,-16"/>
<text text-anchor="middle" x="220" y="-103.4" font-family="sans" font-size="14.00" fill="red">:fail</text>
</g>
<g id="graph7" class="cluster"><title>cluster_d</title>
<polygon fill="none" stroke="green" stroke-dasharray="5,2" points="16,-16 16,-120 148,-120 148,-16 16,-16"/>
<text text-anchor="middle" x="82" y="-103.4" font-family="sans" font-size="14.00" fill="green">:success</text>
</g>
<!-- make_cake_mixture.1 -->
<g id="node2" class="node"><title>make_cake_mixture.1</title>
<ellipse fill="none" stroke="black" cx="161" cy="-579" rx="111.222" ry="31.1127"/>
<text text-anchor="middle" x="161" y="-584.4" font-family="sans" font-size="14.00">make_cake_mixture</text>
<text text-anchor="middle" x="161" y="-566.4" font-family="sans" font-size="14.00">1</text>
</g>
<!-- bake_cake.1 -->
<g id="node3" class="node"><title>bake_cake.1</title>
<ellipse fill="none" stroke="black" cx="161" cy="-481" rx="63.1385" ry="31.1127"/>
<text text-anchor="middle" x="161" y="-486.4" font-family="sans" font-size="14.00">bake_cake</text>
<text text-anchor="middle" x="161" y="-468.4" font-family="sans" font-size="14.00">1</text>
</g>
<!-- make_cake_mixture.1&#45;&gt;bake_cake.1 -->
<g id="edge3" class="edge"><title>make_cake_mixture.1&#45;&gt;bake_cake.1</title>
<path fill="none" stroke="black" d="M161,-547.992C161,-539.859 161,-530.959 161,-522.378"/>
<polygon fill="black" stroke="black" points="164.5,-522.142 161,-512.142 157.5,-522.142 164.5,-522.142"/>
</g>
<!-- sell_cake.1 -->
<g id="node6" class="node"><title>sell_cake.1</title>
<ellipse fill="none" stroke="green" cx="93" cy="-377" rx="57.9828" ry="31.1127"/>
<text text-anchor="middle" x="93" y="-382.4" font-family="sans" font-size="14.00" fill="green">sell_cake</text>
<text text-anchor="middle" x="93" y="-364.4" font-family="sans" font-size="14.00" fill="green">1</text>
</g>
<!-- bake_cake.1&#45;&gt;sell_cake.1 -->
<g id="edge5" class="edge"><title>bake_cake.1&#45;&gt;sell_cake.1</title>
<path fill="none" stroke="black" stroke-dasharray="5,2" d="M141.696,-451.476C133.943,-439.619 124.929,-425.832 116.778,-413.367"/>
<ellipse fill="black" stroke="black" cx="114.541" cy="-409.946" rx="4.00002" ry="4.00002"/>
</g>
<!-- eat_cake.1 -->
<g id="node8" class="node"><title>eat_cake.1</title>
<ellipse fill="none" stroke="red" cx="231" cy="-377" rx="56.0679" ry="31.1127"/>
<text text-anchor="middle" x="231" y="-382.4" font-family="sans" font-size="14.00" fill="red">eat_cake</text>
<text text-anchor="middle" x="231" y="-364.4" font-family="sans" font-size="14.00" fill="red">1</text>
</g>
<!-- bake_cake.1&#45;&gt;eat_cake.1 -->
<g id="edge7" class="edge"><title>bake_cake.1&#45;&gt;eat_cake.1</title>
<path fill="none" stroke="black" stroke-dasharray="5,2" d="M186.219,-452.582C194.923,-440.707 204.451,-426.752 212.535,-414.086"/>
<ellipse fill="black" stroke="black" cx="214.734" cy="-410.589" rx="4.00002" ry="4.00002"/>
</g>
<!-- make_cake_mixture.2 -->
<g id="node13" class="node"><title>make_cake_mixture.2</title>
<ellipse fill="none" stroke="black" cx="150" cy="-257" rx="111.222" ry="31.1127"/>
<text text-anchor="middle" x="150" y="-262.4" font-family="sans" font-size="14.00">make_cake_mixture</text>
<text text-anchor="middle" x="150" y="-244.4" font-family="sans" font-size="14.00">2</text>
</g>
<!-- sell_cake.1&#45;&gt;make_cake_mixture.2 -->
<g id="edge26" class="edge"><title>sell_cake.1&#45;&gt;make_cake_mixture.2</title>
<path fill="none" stroke="black" d="M107.384,-346.719C114.496,-331.744 123.179,-313.466 130.846,-297.324"/>
<polygon fill="none" stroke="black" points="134.095,-298.642 135.224,-288.108 127.772,-295.639 134.095,-298.642"/>
</g>
<!-- eat_cake.1&#45;&gt;bake_cake.1 -->
<g id="edge9" class="edge"><title>eat_cake.1&#45;&gt;bake_cake.1</title>
<path fill="none" stroke="black" stroke-dasharray="5,2" d="M206.027,-405.084C197.301,-416.969 187.723,-430.986 179.589,-443.719"/>
<ellipse fill="black" stroke="black" cx="177.365" cy="-447.254" rx="4.00002" ry="4.00002"/>
</g>
<!-- eat_cake.1&#45;&gt;make_cake_mixture.2 -->
<g id="edge24" class="edge"><title>eat_cake.1&#45;&gt;make_cake_mixture.2</title>
<path fill="none" stroke="black" d="M211.392,-347.951C200.946,-332.476 187.946,-313.217 176.602,-296.411"/>
<polygon fill="none" stroke="black" points="179.339,-294.209 170.843,-287.879 173.537,-298.125 179.339,-294.209"/>
</g>
<!-- bake_cake.2 -->
<g id="node14" class="node"><title>bake_cake.2</title>
<ellipse fill="none" stroke="black" cx="150" cy="-159" rx="63.1385" ry="31.1127"/>
<text text-anchor="middle" x="150" y="-164.4" font-family="sans" font-size="14.00">bake_cake</text>
<text text-anchor="middle" x="150" y="-146.4" font-family="sans" font-size="14.00">2</text>
</g>
<!-- make_cake_mixture.2&#45;&gt;bake_cake.2 -->
<g id="edge14" class="edge"><title>make_cake_mixture.2&#45;&gt;bake_cake.2</title>
<path fill="none" stroke="black" d="M150,-225.992C150,-217.859 150,-208.959 150,-200.378"/>
<polygon fill="black" stroke="black" points="153.5,-200.142 150,-190.142 146.5,-200.142 153.5,-200.142"/>
</g>
<!-- sell_cake.2 -->
<g id="node17" class="node"><title>sell_cake.2</title>
<ellipse fill="none" stroke="green" cx="82" cy="-55" rx="57.9828" ry="31.1127"/>
<text text-anchor="middle" x="82" y="-60.4" font-family="sans" font-size="14.00" fill="green">sell_cake</text>
<text text-anchor="middle" x="82" y="-42.4" font-family="sans" font-size="14.00" fill="green">2</text>
</g>
<!-- bake_cake.2&#45;&gt;sell_cake.2 -->
<g id="edge16" class="edge"><title>bake_cake.2&#45;&gt;sell_cake.2</title>
<path fill="none" stroke="black" stroke-dasharray="5,2" d="M130.696,-129.476C122.943,-117.619 113.929,-103.832 105.778,-91.3666"/>
<ellipse fill="black" stroke="black" cx="103.541" cy="-87.9458" rx="4.00002" ry="4.00002"/>
</g>
<!-- eat_cake.2 -->
<g id="node19" class="node"><title>eat_cake.2</title>
<ellipse fill="none" stroke="red" cx="220" cy="-55" rx="56.0679" ry="31.1127"/>
<text text-anchor="middle" x="220" y="-60.4" font-family="sans" font-size="14.00" fill="red">eat_cake</text>
<text text-anchor="middle" x="220" y="-42.4" font-family="sans" font-size="14.00" fill="red">2</text>
</g>
<!-- bake_cake.2&#45;&gt;eat_cake.2 -->
<g id="edge18" class="edge"><title>bake_cake.2&#45;&gt;eat_cake.2</title>
<path fill="none" stroke="black" stroke-dasharray="5,2" d="M175.219,-130.582C183.923,-118.707 193.451,-104.752 201.535,-92.0859"/>
<ellipse fill="black" stroke="black" cx="203.734" cy="-88.5894" rx="4.00002" ry="4.00002"/>
</g>
<!-- eat_cake.2&#45;&gt;bake_cake.2 -->
<g id="edge20" class="edge"><title>eat_cake.2&#45;&gt;bake_cake.2</title>
<path fill="none" stroke="black" stroke-dasharray="5,2" d="M195.027,-83.0839C186.301,-94.9693 176.723,-108.986 168.589,-121.719"/>
<ellipse fill="black" stroke="black" cx="166.365" cy="-125.254" rx="4.00002" ry="4.00002"/>
</g>
</g>
</svg>
