<?xml version="1.0" encoding="UTF-8" standalone="no"?>
<!DOCTYPE svg PUBLIC "-//W3C//DTD SVG 1.1//EN"
 "http://www.w3.org/Graphics/SVG/1.1/DTD/svg11.dtd">
<!-- Generated by graphviz version 2.26.0 (20091210.2329)
 -->
<!-- Title: example Pages: 1 -->
<svg width="324pt" height="576pt"
 viewBox="0.00 0.00 324.00 575.71" xmlns="http://www.w3.org/2000/svg" xmlns:xlink="http://www.w3.org/1999/xlink">
<g id="graph1" class="graph" transform="scale(0.435484 0.435484) rotate(0) translate(4 1318)">
<title>example</title>
<polygon fill="none" stroke="none" points="-4,5 -4,-1318 741,-1318 741,5 -4,5"/>
<g id="graph2" class="cluster"><title>cluster_1</title>
<polygon fill="none" stroke="black" stroke-dasharray="5,2" points="8,-902 8,-1306 364,-1306 364,-902 8,-902"/>
<text text-anchor="middle" x="186" y="-1289.4" font-family="sans" font-size="14.00">1</text>
</g>
<g id="graph3" class="cluster"><title>cluster_2</title>
<polygon fill="none" stroke="black" stroke-dasharray="5,2" points="372,-602 372,-1006 728,-1006 728,-602 372,-602"/>
<text text-anchor="middle" x="550" y="-989.4" font-family="sans" font-size="14.00">2</text>
</g>
<g id="graph4" class="cluster"><title>cluster_3</title>
<polygon fill="none" stroke="black" stroke-dasharray="5,2" points="8,-302 8,-706 364,-706 364,-302 8,-302"/>
<text text-anchor="middle" x="186" y="-689.4" font-family="sans" font-size="14.00">3</text>
</g>
<g id="graph5" class="cluster"><title>cluster_4</title>
<polygon fill="none" stroke="black" stroke-dasharray="5,2" points="372,-8 372,-406 728,-406 728,-8 372,-8"/>
<text text-anchor="middle" x="550" y="-389.4" font-family="sans" font-size="14.00">4</text>
</g>
<!-- pur.1 -->
<g id="node2" class="node"><title>pur.1</title>
<ellipse fill="none" stroke="black" cx="235" cy="-1241" rx="121.122" ry="31.1127"/>
<text text-anchor="middle" x="235" y="-1246.4" font-family="sans" font-size="14.00">purchase_ingredients</text>
<text text-anchor="middle" x="235" y="-1228.4" font-family="sans" font-size="14.00">1</text>
</g>
<!-- mak.1 -->
<g id="node3" class="node"><title>mak.1</title>
<ellipse fill="none" stroke="black" cx="281" cy="-1143" rx="75.1594" ry="31.1127"/>
<text text-anchor="middle" x="281" y="-1148.4" font-family="sans" font-size="14.00">make_dough</text>
<text text-anchor="middle" x="281" y="-1130.4" font-family="sans" font-size="14.00">1</text>
</g>
<!-- pur.1&#45;&gt;mak.1 -->
<g id="edge6" class="edge"><title>pur.1&#45;&gt;mak.1</title>
<path fill="none" stroke="black" d="M249.555,-1209.99C253.618,-1201.34 258.09,-1191.81 262.354,-1182.72"/>
<polygon fill="black" stroke="black" points="265.617,-1184.01 266.697,-1173.47 259.28,-1181.04 265.617,-1184.01"/>
</g>
<!-- bak.1 -->
<g id="node4" class="node"><title>bak.1</title>
<ellipse fill="none" stroke="black" cx="209" cy="-1045" rx="70.0036" ry="31.1127"/>
<text text-anchor="middle" x="209" y="-1050.4" font-family="sans" font-size="14.00">bake_bread</text>
<text text-anchor="middle" x="209" y="-1032.4" font-family="sans" font-size="14.00">1</text>
</g>
<!-- mak.1&#45;&gt;bak.1 -->
<g id="edge7" class="edge"><title>mak.1&#45;&gt;bak.1</title>
<path fill="none" stroke="black" d="M259.202,-1113.33C252.153,-1103.74 244.239,-1092.96 236.815,-1082.86"/>
<polygon fill="black" stroke="black" points="239.465,-1080.55 230.724,-1074.57 233.824,-1084.7 239.465,-1080.55"/>
</g>
<!-- sel.1 -->
<g id="node5" class="node"><title>sel.1</title>
<ellipse fill="none" stroke="black" cx="137" cy="-941" rx="63.8479" ry="31.1127"/>
<text text-anchor="middle" x="137" y="-946.4" font-family="sans" font-size="14.00">sell_bread</text>
<text text-anchor="middle" x="137" y="-928.4" font-family="sans" font-size="14.00">1</text>
</g>
<!-- bak.1&#45;&gt;sel.1 -->
<g id="edge8" class="edge"><title>bak.1&#45;&gt;sel.1</title>
<path fill="none" stroke="black" d="M188.368,-1015.2C180.543,-1003.9 171.526,-990.871 163.252,-978.92"/>
<polygon fill="black" stroke="black" points="165.956,-976.677 157.386,-970.447 160.201,-980.661 165.956,-976.677"/>
</g>
<!-- cle.1 -->
<g id="node6" class="node"><title>cle.1</title>
<ellipse fill="none" stroke="black" cx="287" cy="-941" rx="68.0887" ry="31.1127"/>
<text text-anchor="middle" x="287" y="-946.4" font-family="sans" font-size="14.00">clean_oven</text>
<text text-anchor="middle" x="287" y="-928.4" font-family="sans" font-size="14.00">1</text>
</g>
<!-- bak.1&#45;&gt;cle.1 -->
<g id="edge11" class="edge"><title>bak.1&#45;&gt;cle.1</title>
<path fill="none" stroke="black" d="M231.143,-1015.48C239.706,-1004.06 249.612,-990.851 258.682,-978.757"/>
<polygon fill="black" stroke="black" points="261.602,-980.698 264.802,-970.598 256.002,-976.498 261.602,-980.698"/>
</g>
<!-- pur.3 -->
<g id="node16" class="node"><title>pur.3</title>
<ellipse fill="none" stroke="black" cx="137" cy="-641" rx="121.122" ry="31.1127"/>
<text text-anchor="middle" x="137" y="-646.4" font-family="sans" font-size="14.00">purchase_ingredients</text>
<text text-anchor="middle" x="137" y="-628.4" font-family="sans" font-size="14.00">3</text>
</g>
<!-- sel.1&#45;&gt;pur.3 -->
<g id="edge15" class="edge"><title>sel.1&#45;&gt;pur.3</title>
<path fill="none" stroke="black" d="M137,-909.744C137,-855.267 137,-742.95 137,-682.192"/>
<polygon fill="black" stroke="black" points="140.5,-682.186 137,-672.186 133.5,-682.186 140.5,-682.186"/>
</g>
<!-- pre.2 -->
<g id="node14" class="node"><title>pre.2</title>
<ellipse fill="none" stroke="black" cx="466" cy="-843" rx="85.7684" ry="31.1127"/>
<text text-anchor="middle" x="466" y="-848.4" font-family="sans" font-size="14.00">pre_heat_oven</text>
<text text-anchor="middle" x="466" y="-830.4" font-family="sans" font-size="14.00">2</text>
</g>
<!-- cle.1&#45;&gt;pre.2 -->
<g id="edge13" class="edge"><title>cle.1&#45;&gt;pre.2</title>
<path fill="none" stroke="black" d="M330.788,-917.027C354.583,-903.999 384.27,-887.746 409.76,-873.791"/>
<polygon fill="black" stroke="black" points="411.494,-876.832 418.585,-868.959 408.132,-870.692 411.494,-876.832"/>
</g>
<!-- pre.1 -->
<g id="node7" class="node"><title>pre.1</title>
<ellipse fill="none" stroke="black" cx="102" cy="-1143" rx="85.7684" ry="31.1127"/>
<text text-anchor="middle" x="102" y="-1148.4" font-family="sans" font-size="14.00">pre_heat_oven</text>
<text text-anchor="middle" x="102" y="-1130.4" font-family="sans" font-size="14.00">1</text>
</g>
<!-- pre.1&#45;&gt;bak.1 -->
<g id="edge10" class="edge"><title>pre.1&#45;&gt;bak.1</title>
<path fill="none" stroke="black" d="M133.525,-1114.13C145.266,-1103.37 158.717,-1091.05 170.98,-1079.82"/>
<polygon fill="black" stroke="black" points="173.426,-1082.33 178.437,-1072.99 168.698,-1077.17 173.426,-1082.33"/>
</g>
<!-- pur.2 -->
<g id="node9" class="node"><title>pur.2</title>
<ellipse fill="none" stroke="black" cx="599" cy="-941" rx="121.122" ry="31.1127"/>
<text text-anchor="middle" x="599" y="-946.4" font-family="sans" font-size="14.00">purchase_ingredients</text>
<text text-anchor="middle" x="599" y="-928.4" font-family="sans" font-size="14.00">2</text>
</g>
<!-- mak.2 -->
<g id="node10" class="node"><title>mak.2</title>
<ellipse fill="none" stroke="black" cx="645" cy="-843" rx="75.1594" ry="31.1127"/>
<text text-anchor="middle" x="645" y="-848.4" font-family="sans" font-size="14.00">make_dough</text>
<text text-anchor="middle" x="645" y="-830.4" font-family="sans" font-size="14.00">2</text>
</g>
<!-- pur.2&#45;&gt;mak.2 -->
<g id="edge17" class="edge"><title>pur.2&#45;&gt;mak.2</title>
<path fill="none" stroke="black" d="M613.555,-909.992C617.618,-901.335 622.09,-891.809 626.354,-882.723"/>
<polygon fill="black" stroke="black" points="629.617,-884.01 630.697,-873.471 623.28,-881.036 629.617,-884.01"/>
</g>
<!-- bak.2 -->
<g id="node11" class="node"><title>bak.2</title>
<ellipse fill="none" stroke="black" cx="532" cy="-745" rx="70.0036" ry="31.1127"/>
<text text-anchor="middle" x="532" y="-750.4" font-family="sans" font-size="14.00">bake_bread</text>
<text text-anchor="middle" x="532" y="-732.4" font-family="sans" font-size="14.00">2</text>
</g>
<!-- mak.2&#45;&gt;bak.2 -->
<g id="edge18" class="edge"><title>mak.2&#45;&gt;bak.2</title>
<path fill="none" stroke="black" d="M612.619,-814.917C599.862,-803.853 585.085,-791.038 571.694,-779.425"/>
<polygon fill="black" stroke="black" points="573.843,-776.656 563.995,-772.748 569.257,-781.944 573.843,-776.656"/>
</g>
<!-- sel.2 -->
<g id="node12" class="node"><title>sel.2</title>
<ellipse fill="none" stroke="black" cx="598" cy="-641" rx="63.8479" ry="31.1127"/>
<text text-anchor="middle" x="598" y="-646.4" font-family="sans" font-size="14.00">sell_bread</text>
<text text-anchor="middle" x="598" y="-628.4" font-family="sans" font-size="14.00">2</text>
</g>
<!-- bak.2&#45;&gt;sel.2 -->
<g id="edge19" class="edge"><title>bak.2&#45;&gt;sel.2</title>
<path fill="none" stroke="black" d="M551.09,-714.919C558.128,-703.828 566.2,-691.109 573.641,-679.384"/>
<polygon fill="black" stroke="black" points="576.778,-680.973 579.181,-670.654 570.867,-677.222 576.778,-680.973"/>
</g>
<!-- cle.2 -->
<g id="node13" class="node"><title>cle.2</title>
<ellipse fill="none" stroke="black" cx="448" cy="-641" rx="68.0887" ry="31.1127"/>
<text text-anchor="middle" x="448" y="-646.4" font-family="sans" font-size="14.00">clean_oven</text>
<text text-anchor="middle" x="448" y="-628.4" font-family="sans" font-size="14.00">2</text>
</g>
<!-- bak.2&#45;&gt;cle.2 -->
<g id="edge22" class="edge"><title>bak.2&#45;&gt;cle.2</title>
<path fill="none" stroke="black" d="M508.378,-715.753C498.984,-704.122 488.061,-690.6 478.11,-678.279"/>
<polygon fill="black" stroke="black" points="480.742,-675.968 471.736,-670.387 475.297,-680.366 480.742,-675.968"/>
</g>
<!-- pur.4 -->
<g id="node23" class="node"><title>pur.4</title>
<ellipse fill="none" stroke="black" cx="598" cy="-341" rx="121.122" ry="31.1127"/>
<text text-anchor="middle" x="598" y="-346.4" font-family="sans" font-size="14.00">purchase_ingredients</text>
<text text-anchor="middle" x="598" y="-328.4" font-family="sans" font-size="14.00">4</text>
</g>
<!-- sel.2&#45;&gt;pur.4 -->
<g id="edge26" class="edge"><title>sel.2&#45;&gt;pur.4</title>
<path fill="none" stroke="black" d="M598,-609.744C598,-555.267 598,-442.95 598,-382.192"/>
<polygon fill="black" stroke="black" points="601.5,-382.186 598,-372.186 594.5,-382.186 601.5,-382.186"/>
</g>
<!-- pre.3 -->
<g id="node21" class="node"><title>pre.3</title>
<ellipse fill="none" stroke="black" cx="270" cy="-543" rx="85.7684" ry="31.1127"/>
<text text-anchor="middle" x="270" y="-548.4" font-family="sans" font-size="14.00">pre_heat_oven</text>
<text text-anchor="middle" x="270" y="-530.4" font-family="sans" font-size="14.00">3</text>
</g>
<!-- cle.2&#45;&gt;pre.3 -->
<g id="edge24" class="edge"><title>cle.2&#45;&gt;pre.3</title>
<path fill="none" stroke="black" d="M404.456,-617.027C380.795,-603.999 351.274,-587.746 325.926,-573.791"/>
<polygon fill="black" stroke="black" points="327.599,-570.716 317.15,-568.959 324.223,-576.848 327.599,-570.716"/>
</g>
<!-- pre.2&#45;&gt;bak.2 -->
<g id="edge21" class="edge"><title>pre.2&#45;&gt;bak.2</title>
<path fill="none" stroke="black" d="M486.341,-812.797C492.61,-803.489 499.597,-793.113 506.183,-783.334"/>
<polygon fill="black" stroke="black" points="509.157,-785.184 511.84,-774.935 503.351,-781.274 509.157,-785.184"/>
</g>
<!-- mak.3 -->
<g id="node17" class="node"><title>mak.3</title>
<ellipse fill="none" stroke="black" cx="91" cy="-543" rx="75.1594" ry="31.1127"/>
<text text-anchor="middle" x="91" y="-548.4" font-family="sans" font-size="14.00">make_dough</text>
<text text-anchor="middle" x="91" y="-530.4" font-family="sans" font-size="14.00">3</text>
</g>
<!-- pur.3&#45;&gt;mak.3 -->
<g id="edge28" class="edge"><title>pur.3&#45;&gt;mak.3</title>
<path fill="none" stroke="black" d="M122.445,-609.992C118.382,-601.335 113.91,-591.809 109.646,-582.723"/>
<polygon fill="black" stroke="black" points="112.72,-581.036 105.303,-573.471 106.383,-584.01 112.72,-581.036"/>
</g>
<!-- bak.3 -->
<g id="node18" class="node"><title>bak.3</title>
<ellipse fill="none" stroke="black" cx="204" cy="-445" rx="70.0036" ry="31.1127"/>
<text text-anchor="middle" x="204" y="-450.4" font-family="sans" font-size="14.00">bake_bread</text>
<text text-anchor="middle" x="204" y="-432.4" font-family="sans" font-size="14.00">3</text>
</g>
<!-- mak.3&#45;&gt;bak.3 -->
<g id="edge29" class="edge"><title>mak.3&#45;&gt;bak.3</title>
<path fill="none" stroke="black" d="M123.381,-514.917C136.138,-503.853 150.915,-491.038 164.306,-479.425"/>
<polygon fill="black" stroke="black" points="166.743,-481.944 172.005,-472.748 162.157,-476.656 166.743,-481.944"/>
</g>
<!-- sel.3 -->
<g id="node19" class="node"><title>sel.3</title>
<ellipse fill="none" stroke="black" cx="138" cy="-341" rx="63.8479" ry="31.1127"/>
<text text-anchor="middle" x="138" y="-346.4" font-family="sans" font-size="14.00">sell_bread</text>
<text text-anchor="middle" x="138" y="-328.4" font-family="sans" font-size="14.00">3</text>
</g>
<!-- bak.3&#45;&gt;sel.3 -->
<g id="edge30" class="edge"><title>bak.3&#45;&gt;sel.3</title>
<path fill="none" stroke="black" d="M184.91,-414.919C177.872,-403.828 169.8,-391.109 162.359,-379.384"/>
<polygon fill="black" stroke="black" points="165.133,-377.222 156.819,-370.654 159.222,-380.973 165.133,-377.222"/>
</g>
<!-- cle.3 -->
<g id="node20" class="node"><title>cle.3</title>
<ellipse fill="none" stroke="black" cx="288" cy="-341" rx="68.0887" ry="31.1127"/>
<text text-anchor="middle" x="288" y="-346.4" font-family="sans" font-size="14.00">clean_oven</text>
<text text-anchor="middle" x="288" y="-328.4" font-family="sans" font-size="14.00">3</text>
</g>
<!-- bak.3&#45;&gt;cle.3 -->
<g id="edge33" class="edge"><title>bak.3&#45;&gt;cle.3</title>
<path fill="none" stroke="black" d="M227.622,-415.753C237.016,-404.122 247.939,-390.6 257.89,-378.279"/>
<polygon fill="black" stroke="black" points="260.703,-380.366 264.264,-370.387 255.258,-375.968 260.703,-380.366"/>
</g>
<!-- pre.4 -->
<g id="node28" class="node"><title>pre.4</title>
<ellipse fill="none" stroke="black" cx="466" cy="-243" rx="85.7684" ry="31.1127"/>
<text text-anchor="middle" x="466" y="-248.4" font-family="sans" font-size="14.00">pre_heat_oven</text>
<text text-anchor="middle" x="466" y="-230.4" font-family="sans" font-size="14.00">4</text>
</g>
<!-- cle.3&#45;&gt;pre.4 -->
<g id="edge35" class="edge"><title>cle.3&#45;&gt;pre.4</title>
<path fill="none" stroke="black" d="M331.544,-317.027C355.205,-303.999 384.726,-287.746 410.074,-273.791"/>
<polygon fill="black" stroke="black" points="411.777,-276.848 418.85,-268.959 408.401,-270.716 411.777,-276.848"/>
</g>
<!-- pre.3&#45;&gt;bak.3 -->
<g id="edge32" class="edge"><title>pre.3&#45;&gt;bak.3</title>
<path fill="none" stroke="black" d="M249.659,-512.797C243.39,-503.489 236.403,-493.113 229.817,-483.334"/>
<polygon fill="black" stroke="black" points="232.649,-481.274 224.16,-474.935 226.843,-485.184 232.649,-481.274"/>
</g>
<!-- mak.4 -->
<g id="node24" class="node"><title>mak.4</title>
<ellipse fill="none" stroke="black" cx="645" cy="-243" rx="75.1594" ry="31.1127"/>
<text text-anchor="middle" x="645" y="-248.4" font-family="sans" font-size="14.00">make_dough</text>
<text text-anchor="middle" x="645" y="-230.4" font-family="sans" font-size="14.00">4</text>
</g>
<!-- pur.4&#45;&gt;mak.4 -->
<g id="edge37" class="edge"><title>pur.4&#45;&gt;mak.4</title>
<path fill="none" stroke="black" d="M612.871,-309.992C617.023,-301.335 621.592,-291.809 625.949,-282.723"/>
<polygon fill="black" stroke="black" points="629.218,-284.001 630.387,-273.471 622.906,-280.974 629.218,-284.001"/>
</g>
<!-- bak.4 -->
<g id="node25" class="node"><title>bak.4</title>
<ellipse fill="none" stroke="black" cx="530" cy="-145" rx="70.0036" ry="31.1127"/>
<text text-anchor="middle" x="530" y="-150.4" font-family="sans" font-size="14.00">bake_bread</text>
<text text-anchor="middle" x="530" y="-132.4" font-family="sans" font-size="14.00">4</text>
</g>
<!-- mak.4&#45;&gt;bak.4 -->
<g id="edge38" class="edge"><title>mak.4&#45;&gt;bak.4</title>
<path fill="none" stroke="black" d="M612.046,-214.917C599.063,-203.853 584.024,-191.038 570.396,-179.425"/>
<polygon fill="black" stroke="black" points="572.443,-176.57 562.562,-172.748 567.903,-181.898 572.443,-176.57"/>
</g>
<!-- sel.4 -->
<g id="node26" class="node"><title>sel.4</title>
<ellipse fill="none" stroke="black" cx="473" cy="-47" rx="63.8479" ry="31.1127"/>
<text text-anchor="middle" x="473" y="-52.4" font-family="sans" font-size="14.00">sell_bread</text>
<text text-anchor="middle" x="473" y="-34.4" font-family="sans" font-size="14.00">4</text>
</g>
<!-- bak.4&#45;&gt;sel.4 -->
<g id="edge39" class="edge"><title>bak.4&#45;&gt;sel.4</title>
<path fill="none" stroke="black" d="M512.433,-114.797C507.074,-105.583 501.106,-95.3228 495.469,-85.6302"/>
<polygon fill="black" stroke="black" points="498.464,-83.8192 490.411,-76.9347 492.413,-87.3386 498.464,-83.8192"/>
</g>
<!-- cle.4 -->
<g id="node27" class="node"><title>cle.4</title>
<ellipse fill="none" stroke="black" cx="623" cy="-47" rx="68.0887" ry="31.1127"/>
<text text-anchor="middle" x="623" y="-52.4" font-family="sans" font-size="14.00">clean_oven</text>
<text text-anchor="middle" x="623" y="-34.4" font-family="sans" font-size="14.00">4</text>
</g>
<!-- bak.4&#45;&gt;cle.4 -->
<g id="edge42" class="edge"><title>bak.4&#45;&gt;cle.4</title>
<path fill="none" stroke="black" d="M557.149,-116.391C567.081,-105.925 578.447,-93.9485 588.908,-82.9247"/>
<polygon fill="black" stroke="black" points="591.633,-85.1382 595.978,-75.4752 586.555,-80.3197 591.633,-85.1382"/>
</g>
<!-- pre.4&#45;&gt;bak.4 -->
<g id="edge41" class="edge"><title>pre.4&#45;&gt;bak.4</title>
<path fill="none" stroke="black" d="M485.724,-212.797C491.803,-203.489 498.579,-193.113 504.966,-183.334"/>
<polygon fill="black" stroke="black" points="507.913,-185.221 510.451,-174.935 502.052,-181.394 507.913,-185.221"/>
</g>
</g>
</svg>
