<?xml version="1.0" encoding="UTF-8" standalone="no"?>
<!DOCTYPE svg PUBLIC "-//W3C//DTD SVG 1.1//EN"
 "http://www.w3.org/Graphics/SVG/1.1/DTD/svg11.dtd">
<!-- Generated by graphviz version 2.26.0 (20091210.2329)
 -->
<!-- Title: Example Pages: 1 -->
<svg width="218pt" height="332pt"
 viewBox="0.00 0.00 218.00 332.00" xmlns="http://www.w3.org/2000/svg" xmlns:xlink="http://www.w3.org/1999/xlink">
<g id="graph1" class="graph" transform="scale(1 1) rotate(0) translate(4 328)">
<title>Example</title>
<polygon fill="none" stroke="none" points="-4,5 -4,-328 215,-328 215,5 -4,5"/>
<!-- AIRPLANE -->
<g id="node1" class="node"><title>AIRPLANE</title>
<polygon fill="powderblue" stroke="royalblue" points="86,-108 4.26326e-14,-108 0,-72 86,-72 86,-108"/>
<text text-anchor="middle" x="43" y="-86.4" font-family="sans" font-size="14.00">AIRPLANE</text>
</g>
<!-- a380 -->
<g id="node2" class="node"><title>a380</title>
<polygon fill="powderblue" stroke="royalblue" points="70,-36 16,-36 16,-1.77636e-14 70,-3.55271e-15 70,-36"/>
<text text-anchor="middle" x="43" y="-14.4" font-family="sans" font-size="14.00">a380</text>
</g>
<!-- AIRPLANE&#45;&gt;a380 -->
<g id="edge2" class="edge"><title>AIRPLANE&#45;&gt;a380</title>
<path fill="none" stroke="royalblue" d="M43,-71.8314C43,-64.131 43,-54.9743 43,-46.4166"/>
<polygon fill="royalblue" stroke="royalblue" points="46.5001,-46.4132 43,-36.4133 39.5001,-46.4133 46.5001,-46.4132"/>
</g>
<!-- HELICOPTER -->
<g id="node4" class="node"><title>HELICOPTER</title>
<polygon fill="powderblue" stroke="royalblue" points="210,-108 104,-108 104,-72 210,-72 210,-108"/>
<text text-anchor="middle" x="157" y="-86.4" font-family="sans" font-size="14.00">HELICOPTER</text>
</g>
<!-- r44 -->
<g id="node5" class="node"><title>r44</title>
<polygon fill="powderblue" stroke="royalblue" points="184,-36 130,-36 130,-1.77636e-14 184,-3.55271e-15 184,-36"/>
<text text-anchor="middle" x="157" y="-14.4" font-family="sans" font-size="14.00">r44</text>
</g>
<!-- HELICOPTER&#45;&gt;r44 -->
<g id="edge4" class="edge"><title>HELICOPTER&#45;&gt;r44</title>
<path fill="none" stroke="royalblue" d="M157,-71.8314C157,-64.131 157,-54.9743 157,-46.4166"/>
<polygon fill="royalblue" stroke="royalblue" points="160.5,-46.4132 157,-36.4133 153.5,-46.4133 160.5,-46.4132"/>
</g>
<!-- root -->
<g id="node7" class="node"><title>root</title>
<polygon fill="powderblue" stroke="royalblue" points="127,-324 73,-324 73,-288 127,-288 127,-324"/>
<text text-anchor="middle" x="100" y="-302.4" font-family="sans" font-size="14.00">root</text>
</g>
<!-- VEHICLE -->
<g id="node8" class="node"><title>VEHICLE</title>
<polygon fill="powderblue" stroke="royalblue" points="138,-252 62,-252 62,-216 138,-216 138,-252"/>
<text text-anchor="middle" x="100" y="-230.4" font-family="sans" font-size="14.00">VEHICLE</text>
</g>
<!-- root&#45;&gt;VEHICLE -->
<g id="edge6" class="edge"><title>root&#45;&gt;VEHICLE</title>
<path fill="none" stroke="royalblue" d="M100,-287.831C100,-280.131 100,-270.974 100,-262.417"/>
<polygon fill="royalblue" stroke="royalblue" points="103.5,-262.413 100,-252.413 96.5001,-262.413 103.5,-262.413"/>
</g>
<!-- AIR_VEHICLE -->
<g id="node10" class="node"><title>AIR_VEHICLE</title>
<polygon fill="powderblue" stroke="royalblue" points="154,-180 46,-180 46,-144 154,-144 154,-180"/>
<text text-anchor="middle" x="100" y="-158.4" font-family="sans" font-size="14.00">AIR_VEHICLE</text>
</g>
<!-- VEHICLE&#45;&gt;AIR_VEHICLE -->
<g id="edge8" class="edge"><title>VEHICLE&#45;&gt;AIR_VEHICLE</title>
<path fill="none" stroke="royalblue" d="M100,-215.831C100,-208.131 100,-198.974 100,-190.417"/>
<polygon fill="royalblue" stroke="royalblue" points="103.5,-190.413 100,-180.413 96.5001,-190.413 103.5,-190.413"/>
</g>
<!-- AIR_VEHICLE&#45;&gt;AIRPLANE -->
<g id="edge10" class="edge"><title>AIR_VEHICLE&#45;&gt;AIRPLANE</title>
<path fill="none" stroke="royalblue" d="M85.6165,-143.831C79.0514,-135.539 71.1493,-125.557 63.9422,-116.453"/>
<polygon fill="royalblue" stroke="royalblue" points="66.5284,-114.081 57.5772,-108.413 61.0401,-118.426 66.5284,-114.081"/>
</g>
<!-- AIR_VEHICLE&#45;&gt;HELICOPTER -->
<g id="edge12" class="edge"><title>AIR_VEHICLE&#45;&gt;HELICOPTER</title>
<path fill="none" stroke="royalblue" d="M114.384,-143.831C120.949,-135.539 128.851,-125.557 136.058,-116.453"/>
<polygon fill="royalblue" stroke="royalblue" points="138.96,-118.426 142.423,-108.413 133.472,-114.081 138.96,-118.426"/>
</g>
</g>
</svg>
