<?xml version="1.0" encoding="UTF-8" standalone="no"?>
<!DOCTYPE svg PUBLIC "-//W3C//DTD SVG 1.1//EN"
 "http://www.w3.org/Graphics/SVG/1.1/DTD/svg11.dtd">
<!-- Generated by graphviz version 2.26.0 (20091210.2329)
 -->
<!-- Title: Mini_Cylc Pages: 1 -->
<svg width="380pt" height="120pt"
 viewBox="0.00 0.00 380.00 120.00" xmlns="http://www.w3.org/2000/svg" xmlns:xlink="http://www.w3.org/1999/xlink">
<g id="graph1" class="graph" transform="scale(1 1) rotate(0) translate(4 116)">
<title>Mini_Cylc</title>
<polygon fill="none" stroke="none" points="-4,5 -4,-116 377,-116 377,5 -4,5"/>
<!-- baz_foo3 -->
<g id="node1" class="node"><title>baz_foo3</title>
<ellipse fill="none" stroke="black" cx="56" cy="-19" rx="55.8614" ry="18.3848"/>
<text text-anchor="middle" x="56" y="-15.4" font-family="sans" font-size="14.00">baz_foo3</text>
</g>
<!-- bar_foo3 -->
<g id="node2" class="node"><title>bar_foo3</title>
<ellipse fill="none" stroke="black" cx="56" cy="-93" rx="53.9477" ry="18.3848"/>
<text text-anchor="middle" x="56" y="-89.4" font-family="sans" font-size="14.00">bar_foo3</text>
</g>
<!-- bar_foo3&#45;&gt;baz_foo3 -->
<g id="edge2" class="edge"><title>bar_foo3&#45;&gt;baz_foo3</title>
<path fill="none" stroke="black" d="M56,-74.3267C56,-66.2639 56,-56.6477 56,-47.7115"/>
<polygon fill="black" stroke="black" points="59.5001,-47.6673 56,-37.6674 52.5001,-47.6674 59.5001,-47.6673"/>
</g>
<!-- baz_foo2 -->
<g id="node4" class="node"><title>baz_foo2</title>
<ellipse fill="none" stroke="black" cx="186" cy="-19" rx="56.0679" ry="18.3848"/>
<text text-anchor="middle" x="186" y="-15.4" font-family="sans" font-size="14.00">baz_foo2</text>
</g>
<!-- bar_foo1 -->
<g id="node5" class="node"><title>bar_foo1</title>
<ellipse fill="none" stroke="black" cx="316" cy="-93" rx="55.8614" ry="18.3848"/>
<text text-anchor="middle" x="316" y="-89.4" font-family="sans" font-size="14.00">bar_foo1</text>
</g>
<!-- baz_foo1 -->
<g id="node7" class="node"><title>baz_foo1</title>
<ellipse fill="none" stroke="black" cx="316" cy="-19" rx="56.0679" ry="18.3848"/>
<text text-anchor="middle" x="316" y="-15.4" font-family="sans" font-size="14.00">baz_foo1</text>
</g>
<!-- bar_foo1&#45;&gt;baz_foo1 -->
<g id="edge4" class="edge"><title>bar_foo1&#45;&gt;baz_foo1</title>
<path fill="none" stroke="black" d="M316,-74.3267C316,-66.2639 316,-56.6477 316,-47.7115"/>
<polygon fill="black" stroke="black" points="319.5,-47.6673 316,-37.6674 312.5,-47.6674 319.5,-47.6673"/>
</g>
<!-- bar_foo2 -->
<g id="node8" class="node"><title>bar_foo2</title>
<ellipse fill="none" stroke="black" cx="186" cy="-93" rx="55.1543" ry="18.3848"/>
<text text-anchor="middle" x="186" y="-89.4" font-family="sans" font-size="14.00">bar_foo2</text>
</g>
<!-- bar_foo2&#45;&gt;baz_foo2 -->
<g id="edge6" class="edge"><title>bar_foo2&#45;&gt;baz_foo2</title>
<path fill="none" stroke="black" d="M186,-74.3267C186,-66.2639 186,-56.6477 186,-47.7115"/>
<polygon fill="black" stroke="black" points="189.5,-47.6673 186,-37.6674 182.5,-47.6674 189.5,-47.6673"/>
</g>
</g>
</svg>
