<?xml version="1.0" encoding="UTF-8" standalone="no"?>
<!DOCTYPE svg PUBLIC "-//W3C//DTD SVG 1.1//EN"
 "http://www.w3.org/Graphics/SVG/1.1/DTD/svg11.dtd">
<!-- Generated by graphviz version 2.26.0 (20091210.2329)
 -->
<!-- Title: example Pages: 1 -->
<svg width="177pt" height="360pt"
 viewBox="0.00 0.00 177.29 360.00" xmlns="http://www.w3.org/2000/svg" xmlns:xlink="http://www.w3.org/1999/xlink">
<g id="graph1" class="graph" transform="scale(0.676692 0.676692) rotate(0) translate(4 528)">
<title>example</title>
<polygon fill="none" stroke="none" points="-4,5 -4,-528 259,-528 259,5 -4,5"/>
<g id="graph2" class="cluster"><title>cluster_1</title>
<polygon fill="none" stroke="black" stroke-dasharray="5,2" points="8,-204 8,-516 82,-516 82,-204 8,-204"/>
<text text-anchor="middle" x="45" y="-499.4" font-family="sans" font-size="14.00">1</text>
</g>
<g id="graph3" class="cluster"><title>cluster_2</title>
<polygon fill="none" stroke="black" stroke-dasharray="5,2" points="90,-106 90,-412 164,-412 164,-106 90,-106"/>
<text text-anchor="middle" x="127" y="-395.4" font-family="sans" font-size="14.00">2</text>
</g>
<g id="graph4" class="cluster"><title>cluster_3</title>
<polygon fill="none" stroke="black" stroke-dasharray="5,2" points="172,-8 172,-308 246,-308 246,-8 172,-8"/>
<text text-anchor="middle" x="209" y="-291.4" font-family="sans" font-size="14.00">3</text>
</g>
<!-- foo.1 -->
<g id="node2" class="node"><title>foo.1</title>
<ellipse fill="none" stroke="black" cx="45" cy="-451" rx="27" ry="31.1127"/>
<text text-anchor="middle" x="45" y="-456.4" font-family="sans" font-size="14.00">foo</text>
<text text-anchor="middle" x="45" y="-438.4" font-family="sans" font-size="14.00">1</text>
</g>
<!-- bar.1 -->
<g id="node3" class="node"><title>bar.1</title>
<ellipse fill="none" stroke="black" cx="45" cy="-347" rx="27.7881" ry="31.1127"/>
<text text-anchor="middle" x="45" y="-352.4" font-family="sans" font-size="14.00">bar</text>
<text text-anchor="middle" x="45" y="-334.4" font-family="sans" font-size="14.00">1</text>
</g>
<!-- foo.1&#45;&gt;bar.1 -->
<g id="edge5" class="edge"><title>foo.1&#45;&gt;bar.1</title>
<path fill="none" stroke="black" d="M45,-419.797C45,-409.924 45,-398.855 45,-388.385"/>
<polygon fill="black" stroke="black" points="48.5001,-388.181 45,-378.181 41.5001,-388.181 48.5001,-388.181"/>
</g>
<!-- baz.1 -->
<g id="node4" class="node"><title>baz.1</title>
<ellipse fill="none" stroke="black" cx="45" cy="-243" rx="28.9914" ry="31.1127"/>
<text text-anchor="middle" x="45" y="-248.4" font-family="sans" font-size="14.00">baz</text>
<text text-anchor="middle" x="45" y="-230.4" font-family="sans" font-size="14.00">1</text>
</g>
<!-- bar.1&#45;&gt;baz.1 -->
<g id="edge6" class="edge"><title>bar.1&#45;&gt;baz.1</title>
<path fill="none" stroke="black" d="M45,-315.797C45,-305.924 45,-294.855 45,-284.385"/>
<polygon fill="black" stroke="black" points="48.5001,-284.181 45,-274.181 41.5001,-284.181 48.5001,-284.181"/>
</g>
<!-- bar.2 -->
<g id="node7" class="node"><title>bar.2</title>
<ellipse fill="none" stroke="black" cx="127" cy="-243" rx="27.7881" ry="31.1127"/>
<text text-anchor="middle" x="127" y="-248.4" font-family="sans" font-size="14.00">bar</text>
<text text-anchor="middle" x="127" y="-230.4" font-family="sans" font-size="14.00">2</text>
</g>
<!-- bar.1&#45;&gt;bar.2 -->
<g id="edge14" class="edge"><title>bar.1&#45;&gt;bar.2</title>
<path fill="none" stroke="black" d="M67.2911,-327.697C73.6642,-321.689 80.3955,-314.838 86,-308 93.5224,-298.822 100.767,-288.175 107.019,-278.187"/>
<polygon fill="black" stroke="black" points="110.017,-279.993 112.239,-269.634 104.042,-276.347 110.017,-279.993"/>
</g>
<!-- foo.2 -->
<g id="node6" class="node"><title>foo.2</title>
<ellipse fill="none" stroke="black" cx="127" cy="-347" rx="27" ry="31.1127"/>
<text text-anchor="middle" x="127" y="-352.4" font-family="sans" font-size="14.00">foo</text>
<text text-anchor="middle" x="127" y="-334.4" font-family="sans" font-size="14.00">2</text>
</g>
<!-- foo.2&#45;&gt;bar.2 -->
<g id="edge8" class="edge"><title>foo.2&#45;&gt;bar.2</title>
<path fill="none" stroke="black" d="M127,-315.797C127,-305.924 127,-294.855 127,-284.385"/>
<polygon fill="black" stroke="black" points="130.5,-284.181 127,-274.181 123.5,-284.181 130.5,-284.181"/>
</g>
<!-- baz.2 -->
<g id="node8" class="node"><title>baz.2</title>
<ellipse fill="none" stroke="black" cx="127" cy="-145" rx="28.9914" ry="31.1127"/>
<text text-anchor="middle" x="127" y="-150.4" font-family="sans" font-size="14.00">baz</text>
<text text-anchor="middle" x="127" y="-132.4" font-family="sans" font-size="14.00">2</text>
</g>
<!-- bar.2&#45;&gt;baz.2 -->
<g id="edge9" class="edge"><title>bar.2&#45;&gt;baz.2</title>
<path fill="none" stroke="black" d="M127,-211.992C127,-203.859 127,-194.959 127,-186.378"/>
<polygon fill="black" stroke="black" points="130.5,-186.142 127,-176.142 123.5,-186.142 130.5,-186.142"/>
</g>
<!-- bar.3 -->
<g id="node11" class="node"><title>bar.3</title>
<ellipse fill="none" stroke="black" cx="208" cy="-145" rx="27.7881" ry="31.1127"/>
<text text-anchor="middle" x="208" y="-150.4" font-family="sans" font-size="14.00">bar</text>
<text text-anchor="middle" x="208" y="-132.4" font-family="sans" font-size="14.00">3</text>
</g>
<!-- bar.2&#45;&gt;bar.3 -->
<g id="edge15" class="edge"><title>bar.2&#45;&gt;bar.3</title>
<path fill="none" stroke="black" d="M146.196,-219.775C156.99,-206.716 170.605,-190.243 182.308,-176.084"/>
<polygon fill="black" stroke="black" points="185.269,-177.996 188.942,-168.058 179.873,-173.536 185.269,-177.996"/>
</g>
<!-- foo.3 -->
<g id="node10" class="node"><title>foo.3</title>
<ellipse fill="none" stroke="black" cx="208" cy="-243" rx="27" ry="31.1127"/>
<text text-anchor="middle" x="208" y="-248.4" font-family="sans" font-size="14.00">foo</text>
<text text-anchor="middle" x="208" y="-230.4" font-family="sans" font-size="14.00">3</text>
</g>
<!-- foo.3&#45;&gt;bar.3 -->
<g id="edge11" class="edge"><title>foo.3&#45;&gt;bar.3</title>
<path fill="none" stroke="black" d="M208,-211.992C208,-203.859 208,-194.959 208,-186.378"/>
<polygon fill="black" stroke="black" points="211.5,-186.142 208,-176.142 204.5,-186.142 211.5,-186.142"/>
</g>
<!-- baz.3 -->
<g id="node12" class="node"><title>baz.3</title>
<ellipse fill="none" stroke="black" cx="209" cy="-47" rx="28.9914" ry="31.1127"/>
<text text-anchor="middle" x="209" y="-52.4" font-family="sans" font-size="14.00">baz</text>
<text text-anchor="middle" x="209" y="-34.4" font-family="sans" font-size="14.00">3</text>
</g>
<!-- bar.3&#45;&gt;baz.3 -->
<g id="edge12" class="edge"><title>bar.3&#45;&gt;baz.3</title>
<path fill="none" stroke="black" d="M208.316,-113.992C208.399,-105.859 208.49,-96.9587 208.578,-88.3777"/>
<polygon fill="black" stroke="black" points="212.08,-88.1777 208.682,-78.1425 205.08,-88.1062 212.08,-88.1777"/>
</g>
</g>
</svg>
