<?xml version="1.0" encoding="UTF-8" standalone="no"?>
<!DOCTYPE svg PUBLIC "-//W3C//DTD SVG 1.1//EN"
 "http://www.w3.org/Graphics/SVG/1.1/DTD/svg11.dtd">
<!-- Generated by graphviz version 2.26.0 (20091210.2329)
 -->
<!-- Title: Example Pages: 1 -->
<svg width="504pt" height="222pt"
 viewBox="0.00 0.00 504.00 221.73" xmlns="http://www.w3.org/2000/svg" xmlns:xlink="http://www.w3.org/1999/xlink">
<g id="graph1" class="graph" transform="scale(0.852792 0.852792) rotate(0) translate(4 256)">
<title>Example</title>
<polygon fill="none" stroke="none" points="-4,5 -4,-256 588,-256 588,5 -4,5"/>
<!-- VEHICLE -->
<g id="node1" class="node"><title>VEHICLE</title>
<polygon fill="powderblue" stroke="royalblue" points="226,-252 150,-252 150,-216 226,-216 226,-252"/>
<text text-anchor="middle" x="188" y="-230.4" font-family="sans" font-size="14.00">VEHICLE</text>
</g>
<!-- AIR_VEHICLE -->
<g id="node2" class="node"><title>AIR_VEHICLE</title>
<polygon fill="powderblue" stroke="royalblue" points="108,-180 4.9738e-14,-180 0,-144 108,-144 108,-180"/>
<text text-anchor="middle" x="54" y="-158.4" font-family="sans" font-size="14.00">AIR_VEHICLE</text>
</g>
<!-- VEHICLE&#45;&gt;AIR_VEHICLE -->
<g id="edge2" class="edge"><title>VEHICLE&#45;&gt;AIR_VEHICLE</title>
<path fill="none" stroke="black" d="M154.186,-215.831C136.729,-206.452 115.251,-194.911 96.6648,-184.924"/>
<polygon fill="black" stroke="black" points="98.2686,-181.813 87.803,-180.163 94.9554,-187.979 98.2686,-181.813"/>
</g>
<!-- LAND_VEHICLE -->
<g id="node3" class="node"><title>LAND_VEHICLE</title>
<polygon fill="powderblue" stroke="royalblue" points="250,-180 126,-180 126,-144 250,-144 250,-180"/>
<text text-anchor="middle" x="188" y="-158.4" font-family="sans" font-size="14.00">LAND_VEHICLE</text>
</g>
<!-- VEHICLE&#45;&gt;LAND_VEHICLE -->
<g id="edge5" class="edge"><title>VEHICLE&#45;&gt;LAND_VEHICLE</title>
<path fill="none" stroke="black" d="M188,-215.831C188,-208.131 188,-198.974 188,-190.417"/>
<polygon fill="black" stroke="black" points="191.5,-190.413 188,-180.413 184.5,-190.413 191.5,-190.413"/>
</g>
<!-- WATER_VEHICLE -->
<g id="node4" class="node"><title>WATER_VEHICLE</title>
<polygon fill="powderblue" stroke="royalblue" points="402,-180 268,-180 268,-144 402,-144 402,-180"/>
<text text-anchor="middle" x="335" y="-158.4" font-family="sans" font-size="14.00">WATER_VEHICLE</text>
</g>
<!-- VEHICLE&#45;&gt;WATER_VEHICLE -->
<g id="edge8" class="edge"><title>VEHICLE&#45;&gt;WATER_VEHICLE</title>
<path fill="none" stroke="black" d="M225.094,-215.831C244.493,-206.33 268.417,-194.612 288.986,-184.537"/>
<polygon fill="black" stroke="black" points="290.731,-187.58 298.172,-180.038 287.652,-181.293 290.731,-187.58"/>
</g>
<!-- HOVERCRAFT -->
<g id="node5" class="node"><title>HOVERCRAFT</title>
<polygon fill="powderblue" stroke="royalblue" points="257,-108 145,-108 145,-72 257,-72 257,-108"/>
<text text-anchor="middle" x="201" y="-86.4" font-family="sans" font-size="14.00">HOVERCRAFT</text>
</g>
<!-- AIR_VEHICLE&#45;&gt;HOVERCRAFT -->
<g id="edge3" class="edge"><title>AIR_VEHICLE&#45;&gt;HOVERCRAFT</title>
<path fill="none" stroke="black" d="M91.0943,-143.831C110.493,-134.33 134.417,-122.612 154.986,-112.537"/>
<polygon fill="black" stroke="black" points="156.731,-115.58 164.172,-108.038 153.652,-109.293 156.731,-115.58"/>
</g>
<!-- LAND_VEHICLE&#45;&gt;HOVERCRAFT -->
<g id="edge6" class="edge"><title>LAND_VEHICLE&#45;&gt;HOVERCRAFT</title>
<path fill="none" stroke="black" d="M191.28,-143.831C192.671,-136.131 194.324,-126.974 195.869,-118.417"/>
<polygon fill="black" stroke="black" points="199.343,-118.876 197.675,-108.413 192.454,-117.632 199.343,-118.876"/>
</g>
<!-- WATER_VEHICLE&#45;&gt;HOVERCRAFT -->
<g id="edge9" class="edge"><title>WATER_VEHICLE&#45;&gt;HOVERCRAFT</title>
<path fill="none" stroke="black" d="M301.186,-143.831C283.729,-134.452 262.251,-122.911 243.665,-112.924"/>
<polygon fill="black" stroke="black" points="245.269,-109.813 234.803,-108.163 241.955,-115.979 245.269,-109.813"/>
</g>
<!-- bht130 -->
<g id="node6" class="node"><title>bht130</title>
<polygon fill="powderblue" stroke="royalblue" points="354,-36 288,-36 288,-1.77636e-14 354,-3.55271e-15 354,-36"/>
<text text-anchor="middle" x="321" y="-14.4" font-family="sans" font-size="14.00">bht130</text>
</g>
<!-- HOVERCRAFT&#45;&gt;bht130 -->
<g id="edge11" class="edge"><title>HOVERCRAFT&#45;&gt;bht130</title>
<path fill="none" stroke="black" d="M231.281,-71.8314C246.63,-62.6221 265.45,-51.3301 281.882,-41.4706"/>
<polygon fill="black" stroke="black" points="283.954,-44.3091 290.729,-36.1628 280.353,-38.3066 283.954,-44.3091"/>
</g>
<!-- ENGINE -->
<g id="node7" class="node"><title>ENGINE</title>
<polygon fill="powderblue" stroke="royalblue" points="490,-180 420,-180 420,-144 490,-144 490,-180"/>
<text text-anchor="middle" x="455" y="-158.4" font-family="sans" font-size="14.00">ENGINE</text>
</g>
<!-- INTERNAL_COMBUSTION_ENGINE -->
<g id="node8" class="node"><title>INTERNAL_COMBUSTION_ENGINE</title>
<polygon fill="powderblue" stroke="royalblue" points="583,-108 301,-108 301,-72 583,-72 583,-108"/>
<text text-anchor="middle" x="442" y="-86.4" font-family="sans" font-size="14.00">INTERNAL_COMBUSTION_ENGINE</text>
</g>
<!-- ENGINE&#45;&gt;INTERNAL_COMBUSTION_ENGINE -->
<g id="edge13" class="edge"><title>ENGINE&#45;&gt;INTERNAL_COMBUSTION_ENGINE</title>
<path fill="none" stroke="black" d="M451.72,-143.831C450.329,-136.131 448.676,-126.974 447.131,-118.417"/>
<polygon fill="black" stroke="black" points="450.546,-117.632 445.325,-108.413 443.657,-118.876 450.546,-117.632"/>
</g>
<!-- INTERNAL_COMBUSTION_ENGINE&#45;&gt;bht130 -->
<g id="edge14" class="edge"><title>INTERNAL_COMBUSTION_ENGINE&#45;&gt;bht130</title>
<path fill="none" stroke="black" d="M411.467,-71.8314C395.99,-62.6221 377.013,-51.3301 360.444,-41.4706"/>
<polygon fill="black" stroke="black" points="361.907,-38.2687 351.524,-36.1628 358.328,-44.2843 361.907,-38.2687"/>
</g>
</g>
</svg>
