<?xml version="1.0" encoding="UTF-8" standalone="no"?>
<!DOCTYPE svg PUBLIC "-//W3C//DTD SVG 1.1//EN"
 "http://www.w3.org/Graphics/SVG/1.1/DTD/svg11.dtd">
<!-- Generated by graphviz version 2.26.0 (20091210.2329)
 -->
<!-- Title: Example Pages: 1 -->
<svg width="504pt" height="151pt"
 viewBox="0.00 0.00 504.00 151.29" xmlns="http://www.w3.org/2000/svg" xmlns:xlink="http://www.w3.org/1999/xlink">
<g id="graph1" class="graph" transform="scale(0.455696 0.455696) rotate(0) translate(4 328)">
<title>Example</title>
<polygon fill="none" stroke="none" points="-4,5 -4,-328 1103,-328 1103,5 -4,5"/>
<!-- root -->
<g id="node1" class="node"><title>root</title>
<polygon fill="powderblue" stroke="royalblue" points="715,-324 661,-324 661,-288 715,-288 715,-324"/>
<text text-anchor="middle" x="688" y="-302.4" font-family="sans" font-size="14.00">root</text>
</g>
<!-- ENGINE -->
<g id="node2" class="node"><title>ENGINE</title>
<polygon fill="powderblue" stroke="royalblue" points="590,-180 520,-180 520,-144 590,-144 590,-180"/>
<text text-anchor="middle" x="555" y="-158.4" font-family="sans" font-size="14.00">ENGINE</text>
</g>
<!-- root&#45;&gt;ENGINE -->
<g id="edge2" class="edge"><title>root&#45;&gt;ENGINE</title>
<path fill="none" stroke="royalblue" d="M671.155,-287.762C647.771,-262.444 605.354,-216.518 578.76,-187.725"/>
<polygon fill="royalblue" stroke="royalblue" points="581.064,-185.061 571.708,-180.09 575.922,-189.81 581.064,-185.061"/>
</g>
<!-- VEHICLE -->
<g id="node4" class="node"><title>VEHICLE</title>
<polygon fill="powderblue" stroke="royalblue" points="769,-252 693,-252 693,-216 769,-216 769,-252"/>
<text text-anchor="middle" x="731" y="-230.4" font-family="sans" font-size="14.00">VEHICLE</text>
</g>
<!-- root&#45;&gt;VEHICLE -->
<g id="edge4" class="edge"><title>root&#45;&gt;VEHICLE</title>
<path fill="none" stroke="royalblue" d="M698.851,-287.831C703.702,-279.708 709.522,-269.964 714.868,-261.012"/>
<polygon fill="royalblue" stroke="royalblue" points="717.881,-262.793 720.003,-252.413 711.871,-259.204 717.881,-262.793"/>
</g>
<!-- INTERNAL_COMBUSTION_ENGINE -->
<g id="node6" class="node"><title>INTERNAL_COMBUSTION_ENGINE</title>
<polygon fill="powderblue" stroke="royalblue" points="696,-108 414,-108 414,-72 696,-72 696,-108"/>
<text text-anchor="middle" x="555" y="-86.4" font-family="sans" font-size="14.00">INTERNAL_COMBUSTION_ENGINE</text>
</g>
<!-- ENGINE&#45;&gt;INTERNAL_COMBUSTION_ENGINE -->
<g id="edge6" class="edge"><title>ENGINE&#45;&gt;INTERNAL_COMBUSTION_ENGINE</title>
<path fill="none" stroke="royalblue" d="M555,-143.831C555,-136.131 555,-126.974 555,-118.417"/>
<polygon fill="royalblue" stroke="royalblue" points="558.5,-118.413 555,-108.413 551.5,-118.413 558.5,-118.413"/>
</g>
<!-- TURBINE_ENGINE -->
<g id="node8" class="node"><title>TURBINE_ENGINE</title>
<polygon fill="powderblue" stroke="royalblue" points="168,-108 8.52651e-14,-108 0,-72 168,-72 168,-108"/>
<text text-anchor="middle" x="84" y="-86.4" font-family="sans" font-size="14.00">TURBINE_ENGINE</text>
</g>
<!-- ENGINE&#45;&gt;TURBINE_ENGINE -->
<g id="edge8" class="edge"><title>ENGINE&#45;&gt;TURBINE_ENGINE</title>
<path fill="none" stroke="royalblue" d="M519.995,-157.586C454.796,-149.237 310.135,-130.118 178.01,-108.129"/>
<polygon fill="royalblue" stroke="royalblue" points="178.557,-104.672 168.116,-106.473 177.401,-111.576 178.557,-104.672"/>
</g>
<!-- HUMAN_ENGINE -->
<g id="node10" class="node"><title>HUMAN_ENGINE</title>
<polygon fill="powderblue" stroke="royalblue" points="874,-108 714,-108 714,-72 874,-72 874,-108"/>
<text text-anchor="middle" x="794" y="-86.4" font-family="sans" font-size="14.00">HUMAN_ENGINE</text>
</g>
<!-- ENGINE&#45;&gt;HUMAN_ENGINE -->
<g id="edge10" class="edge"><title>ENGINE&#45;&gt;HUMAN_ENGINE</title>
<path fill="none" stroke="royalblue" d="M590.405,-147.096C593.297,-146.007 596.188,-144.961 599,-144 635.31,-131.594 676.135,-119.944 711.013,-110.663"/>
<polygon fill="royalblue" stroke="royalblue" points="711.908,-114.046 720.683,-108.109 710.121,-107.278 711.908,-114.046"/>
</g>
<!-- LAND_VEHICLE -->
<g id="node12" class="node"><title>LAND_VEHICLE</title>
<polygon fill="powderblue" stroke="royalblue" points="1010,-180 886,-180 886,-144 1010,-144 1010,-180"/>
<text text-anchor="middle" x="948" y="-158.4" font-family="sans" font-size="14.00">LAND_VEHICLE</text>
</g>
<!-- VEHICLE&#45;&gt;LAND_VEHICLE -->
<g id="edge12" class="edge"><title>VEHICLE&#45;&gt;LAND_VEHICLE</title>
<path fill="none" stroke="royalblue" d="M769.296,-221.294C800.904,-210.806 846.444,-195.696 883.64,-183.354"/>
<polygon fill="royalblue" stroke="royalblue" points="885.007,-186.589 893.396,-180.117 882.803,-179.945 885.007,-186.589"/>
</g>
<!-- WATER_VEHICLE -->
<g id="node14" class="node"><title>WATER_VEHICLE</title>
<polygon fill="powderblue" stroke="royalblue" points="868,-180 734,-180 734,-144 868,-144 868,-180"/>
<text text-anchor="middle" x="801" y="-158.4" font-family="sans" font-size="14.00">WATER_VEHICLE</text>
</g>
<!-- VEHICLE&#45;&gt;WATER_VEHICLE -->
<g id="edge14" class="edge"><title>VEHICLE&#45;&gt;WATER_VEHICLE</title>
<path fill="none" stroke="royalblue" d="M748.664,-215.831C756.973,-207.285 767.026,-196.944 776.092,-187.62"/>
<polygon fill="royalblue" stroke="royalblue" points="778.637,-190.023 783.098,-180.413 773.618,-185.143 778.637,-190.023"/>
</g>
<!-- AIR_VEHICLE -->
<g id="node16" class="node"><title>AIR_VEHICLE</title>
<polygon fill="powderblue" stroke="royalblue" points="716,-180 608,-180 608,-144 716,-144 716,-180"/>
<text text-anchor="middle" x="662" y="-158.4" font-family="sans" font-size="14.00">AIR_VEHICLE</text>
</g>
<!-- VEHICLE&#45;&gt;AIR_VEHICLE -->
<g id="edge16" class="edge"><title>VEHICLE&#45;&gt;AIR_VEHICLE</title>
<path fill="none" stroke="royalblue" d="M713.588,-215.831C705.479,-207.369 695.684,-197.149 686.818,-187.897"/>
<polygon fill="royalblue" stroke="royalblue" points="689.092,-185.211 679.646,-180.413 684.038,-190.055 689.092,-185.211"/>
</g>
<!-- r44 -->
<g id="node18" class="node"><title>r44</title>
<polygon fill="powderblue" stroke="royalblue" points="476,-36 422,-36 422,-1.77636e-14 476,-3.55271e-15 476,-36"/>
<text text-anchor="middle" x="449" y="-14.4" font-family="sans" font-size="14.00">r44</text>
</g>
<!-- INTERNAL_COMBUSTION_ENGINE&#45;&gt;r44 -->
<g id="edge18" class="edge"><title>INTERNAL_COMBUSTION_ENGINE&#45;&gt;r44</title>
<path fill="none" stroke="royalblue" d="M528.252,-71.8314C514.945,-62.7927 498.684,-51.7476 484.363,-42.0198"/>
<polygon fill="royalblue" stroke="royalblue" points="485.979,-38.8864 475.74,-36.1628 482.045,-44.677 485.979,-38.8864"/>
</g>
<!-- bht130 -->
<g id="node20" class="node"><title>bht130</title>
<polygon fill="powderblue" stroke="royalblue" points="710,-36 644,-36 644,-1.77636e-14 710,-3.55271e-15 710,-36"/>
<text text-anchor="middle" x="677" y="-14.4" font-family="sans" font-size="14.00">bht130</text>
</g>
<!-- INTERNAL_COMBUSTION_ENGINE&#45;&gt;bht130 -->
<g id="edge20" class="edge"><title>INTERNAL_COMBUSTION_ENGINE&#45;&gt;bht130</title>
<path fill="none" stroke="royalblue" d="M585.786,-71.8314C601.39,-62.6221 620.524,-51.3301 637.23,-41.4706"/>
<polygon fill="royalblue" stroke="royalblue" points="639.391,-44.2596 646.224,-36.1628 635.833,-38.2312 639.391,-44.2596"/>
</g>
<!-- v22 -->
<g id="node22" class="node"><title>v22</title>
<polygon fill="powderblue" stroke="royalblue" points="256,-36 202,-36 202,-1.77636e-14 256,-3.55271e-15 256,-36"/>
<text text-anchor="middle" x="229" y="-14.4" font-family="sans" font-size="14.00">v22</text>
</g>
<!-- TURBINE_ENGINE&#45;&gt;v22 -->
<g id="edge22" class="edge"><title>TURBINE_ENGINE&#45;&gt;v22</title>
<path fill="none" stroke="royalblue" d="M120.59,-71.8314C142.612,-60.8959 170.55,-47.0236 192.548,-36.1004"/>
<polygon fill="royalblue" stroke="royalblue" points="194.177,-39.199 201.577,-31.6167 191.064,-32.9294 194.177,-39.199"/>
</g>
<!-- a380 -->
<g id="node24" class="node"><title>a380</title>
<polygon fill="powderblue" stroke="royalblue" points="148,-36 94,-36 94,-1.77636e-14 148,-3.55271e-15 148,-36"/>
<text text-anchor="middle" x="121" y="-14.4" font-family="sans" font-size="14.00">a380</text>
</g>
<!-- TURBINE_ENGINE&#45;&gt;a380 -->
<g id="edge24" class="edge"><title>TURBINE_ENGINE&#45;&gt;a380</title>
<path fill="none" stroke="royalblue" d="M93.3367,-71.8314C97.4243,-63.8771 102.31,-54.369 106.831,-45.5723"/>
<polygon fill="royalblue" stroke="royalblue" points="110.08,-46.9074 111.538,-36.4133 103.854,-43.7078 110.08,-46.9074"/>
</g>
<!-- penny_farthing -->
<g id="node26" class="node"><title>penny_farthing</title>
<polygon fill="powderblue" stroke="royalblue" points="1003,-36 851,-36 851,-1.77636e-14 1003,-3.55271e-15 1003,-36"/>
<text text-anchor="middle" x="927" y="-14.4" font-family="sans" font-size="14.00">penny_farthing</text>
</g>
<!-- HUMAN_ENGINE&#45;&gt;penny_farthing -->
<g id="edge26" class="edge"><title>HUMAN_ENGINE&#45;&gt;penny_farthing</title>
<path fill="none" stroke="royalblue" d="M827.562,-71.8314C844.888,-62.4516 866.206,-50.9112 884.654,-40.9244"/>
<polygon fill="royalblue" stroke="royalblue" points="886.321,-44.0015 893.449,-36.1628 882.989,-37.8457 886.321,-44.0015"/>
</g>
<!-- HOVERCRAFT -->
<g id="node34" class="node"><title>HOVERCRAFT</title>
<polygon fill="powderblue" stroke="royalblue" points="1004,-108 892,-108 892,-72 1004,-72 1004,-108"/>
<text text-anchor="middle" x="948" y="-86.4" font-family="sans" font-size="14.00">HOVERCRAFT</text>
</g>
<!-- LAND_VEHICLE&#45;&gt;HOVERCRAFT -->
<g id="edge38" class="edge"><title>LAND_VEHICLE&#45;&gt;HOVERCRAFT</title>
<path fill="none" stroke="royalblue" d="M948,-143.831C948,-136.131 948,-126.974 948,-118.417"/>
<polygon fill="royalblue" stroke="royalblue" points="951.5,-118.413 948,-108.413 944.5,-118.413 951.5,-118.413"/>
</g>
<!-- BICYCLE -->
<g id="node37" class="node"><title>BICYCLE</title>
<polygon fill="powderblue" stroke="royalblue" points="1098,-108 1022,-108 1022,-72 1098,-72 1098,-108"/>
<text text-anchor="middle" x="1060" y="-86.4" font-family="sans" font-size="14.00">BICYCLE</text>
</g>
<!-- LAND_VEHICLE&#45;&gt;BICYCLE -->
<g id="edge40" class="edge"><title>LAND_VEHICLE&#45;&gt;BICYCLE</title>
<path fill="none" stroke="royalblue" d="M976.262,-143.831C990.455,-134.707 1007.83,-123.539 1023.06,-113.745"/>
<polygon fill="royalblue" stroke="royalblue" points="1025.23,-116.515 1031.75,-108.163 1021.44,-110.626 1025.23,-116.515"/>
</g>
<!-- WATER_VEHICLE&#45;&gt;HOVERCRAFT -->
<g id="edge42" class="edge"><title>WATER_VEHICLE&#45;&gt;HOVERCRAFT</title>
<path fill="none" stroke="royalblue" d="M838.094,-143.831C857.493,-134.33 881.417,-122.612 901.986,-112.537"/>
<polygon fill="royalblue" stroke="royalblue" points="903.731,-115.58 911.172,-108.038 900.652,-109.293 903.731,-115.58"/>
</g>
<!-- AIRPLANE -->
<g id="node28" class="node"><title>AIRPLANE</title>
<polygon fill="powderblue" stroke="royalblue" points="272,-108 186,-108 186,-72 272,-72 272,-108"/>
<text text-anchor="middle" x="229" y="-86.4" font-family="sans" font-size="14.00">AIRPLANE</text>
</g>
<!-- AIR_VEHICLE&#45;&gt;AIRPLANE -->
<g id="edge44" class="edge"><title>AIR_VEHICLE&#45;&gt;AIRPLANE</title>
<path fill="none" stroke="royalblue" d="M607.843,-145.911C604.863,-145.218 601.901,-144.575 599,-144 462.608,-116.988 421.551,-138.443 281.983,-107.94"/>
<polygon fill="royalblue" stroke="royalblue" points="282.727,-104.52 272.204,-105.754 281.199,-111.352 282.727,-104.52"/>
</g>
<!-- HELICOPTER -->
<g id="node31" class="node"><title>HELICOPTER</title>
<polygon fill="powderblue" stroke="royalblue" points="396,-108 290,-108 290,-72 396,-72 396,-108"/>
<text text-anchor="middle" x="343" y="-86.4" font-family="sans" font-size="14.00">HELICOPTER</text>
</g>
<!-- AIR_VEHICLE&#45;&gt;HELICOPTER -->
<g id="edge46" class="edge"><title>AIR_VEHICLE&#45;&gt;HELICOPTER</title>
<path fill="none" stroke="royalblue" d="M607.789,-146.158C604.823,-145.402 601.879,-144.677 599,-144 516.717,-124.657 492.09,-127.97 405.96,-108.099"/>
<polygon fill="royalblue" stroke="royalblue" points="406.543,-104.641 396.008,-105.764 404.944,-111.456 406.543,-104.641"/>
</g>
<!-- AIR_VEHICLE&#45;&gt;HOVERCRAFT -->
<g id="edge48" class="edge"><title>AIR_VEHICLE&#45;&gt;HOVERCRAFT</title>
<path fill="none" stroke="royalblue" d="M716.245,-146.299C719.203,-145.506 722.135,-144.735 725,-144 791.765,-126.87 811.489,-125.689 881.876,-108.224"/>
<polygon fill="royalblue" stroke="royalblue" points="882.822,-111.595 891.672,-105.77 881.121,-104.805 882.822,-111.595"/>
</g>
<!-- AIRPLANE&#45;&gt;v22 -->
<g id="edge28" class="edge"><title>AIRPLANE&#45;&gt;v22</title>
<path fill="none" stroke="royalblue" d="M229,-71.8314C229,-64.131 229,-54.9743 229,-46.4166"/>
<polygon fill="royalblue" stroke="royalblue" points="232.5,-46.4132 229,-36.4133 225.5,-46.4133 232.5,-46.4132"/>
</g>
<!-- AIRPLANE&#45;&gt;a380 -->
<g id="edge30" class="edge"><title>AIRPLANE&#45;&gt;a380</title>
<path fill="none" stroke="royalblue" d="M201.747,-71.8314C188.061,-62.7074 171.309,-51.539 156.617,-41.7449"/>
<polygon fill="royalblue" stroke="royalblue" points="158.506,-38.7977 148.244,-36.1628 154.623,-44.6221 158.506,-38.7977"/>
</g>
<!-- HELICOPTER&#45;&gt;r44 -->
<g id="edge34" class="edge"><title>HELICOPTER&#45;&gt;r44</title>
<path fill="none" stroke="royalblue" d="M369.748,-71.8314C383.055,-62.7927 399.316,-51.7476 413.637,-42.0198"/>
<polygon fill="royalblue" stroke="royalblue" points="415.955,-44.677 422.26,-36.1628 412.021,-38.8864 415.955,-44.677"/>
</g>
<!-- HELICOPTER&#45;&gt;v22 -->
<g id="edge32" class="edge"><title>HELICOPTER&#45;&gt;v22</title>
<path fill="none" stroke="royalblue" d="M314.233,-71.8314C299.206,-62.3409 280.678,-50.6386 264.738,-40.5716"/>
<polygon fill="royalblue" stroke="royalblue" points="266.512,-37.5522 256.188,-35.1715 262.774,-43.4707 266.512,-37.5522"/>
</g>
<!-- HOVERCRAFT&#45;&gt;bht130 -->
<g id="edge36" class="edge"><title>HOVERCRAFT&#45;&gt;bht130</title>
<path fill="none" stroke="royalblue" d="M891.994,-74.4378C888.952,-73.6093 885.94,-72.7923 883,-72 826.77,-56.8453 761.749,-39.8964 720.042,-29.0985"/>
<polygon fill="royalblue" stroke="royalblue" points="720.776,-25.6734 710.218,-26.5574 719.023,-32.4503 720.776,-25.6734"/>
</g>
<!-- BICYCLE&#45;&gt;penny_farthing -->
<g id="edge50" class="edge"><title>BICYCLE&#45;&gt;penny_farthing</title>
<path fill="none" stroke="royalblue" d="M1026.44,-71.8314C1009.11,-62.4516 987.794,-50.9112 969.346,-40.9244"/>
<polygon fill="royalblue" stroke="royalblue" points="971.011,-37.8457 960.551,-36.1628 967.679,-44.0015 971.011,-37.8457"/>
</g>
</g>
</svg>
