<?xml version="1.0" encoding="UTF-8" standalone="no"?>
<!DOCTYPE svg PUBLIC "-//W3C//DTD SVG 1.1//EN"
 "http://www.w3.org/Graphics/SVG/1.1/DTD/svg11.dtd">
<!-- Generated by graphviz version 2.26.0 (20091210.2329)
 -->
<!-- Title: example Pages: 1 -->
<svg width="504pt" height="465pt"
 viewBox="0.00 0.00 504.00 464.88" xmlns="http://www.w3.org/2000/svg" xmlns:xlink="http://www.w3.org/1999/xlink">
<g id="graph1" class="graph" transform="scale(0.454874 0.454874) rotate(0) translate(4 1018)">
<title>example</title>
<polygon fill="none" stroke="none" points="-4,5 -4,-1018 1105,-1018 1105,5 -4,5"/>
<g id="graph2" class="cluster"><title>cluster_1</title>
<polygon fill="none" stroke="black" stroke-dasharray="5,2" points="8,-602 8,-1006 364,-1006 364,-602 8,-602"/>
<text text-anchor="middle" x="186" y="-989.4" font-family="sans" font-size="14.00">1</text>
</g>
<g id="graph3" class="cluster"><title>cluster_2</title>
<polygon fill="none" stroke="black" stroke-dasharray="5,2" points="372,-302 372,-706 728,-706 728,-302 372,-302"/>
<text text-anchor="middle" x="550" y="-689.4" font-family="sans" font-size="14.00">2</text>
</g>
<g id="graph4" class="cluster"><title>cluster_3</title>
<polygon fill="none" stroke="black" stroke-dasharray="5,2" points="736,-8 736,-406 1092,-406 1092,-8 736,-8"/>
<text text-anchor="middle" x="914" y="-389.4" font-family="sans" font-size="14.00">3</text>
</g>
<!-- pur.1 -->
<g id="node2" class="node"><title>pur.1</title>
<ellipse fill="none" stroke="black" cx="235" cy="-941" rx="121.122" ry="31.1127"/>
<text text-anchor="middle" x="235" y="-946.4" font-family="sans" font-size="14.00">purchase_ingredients</text>
<text text-anchor="middle" x="235" y="-928.4" font-family="sans" font-size="14.00">1</text>
</g>
<!-- mak.1 -->
<g id="node3" class="node"><title>mak.1</title>
<ellipse fill="none" stroke="black" cx="281" cy="-843" rx="75.1594" ry="31.1127"/>
<text text-anchor="middle" x="281" y="-848.4" font-family="sans" font-size="14.00">make_dough</text>
<text text-anchor="middle" x="281" y="-830.4" font-family="sans" font-size="14.00">1</text>
</g>
<!-- pur.1&#45;&gt;mak.1 -->
<g id="edge5" class="edge"><title>pur.1&#45;&gt;mak.1</title>
<path fill="none" stroke="black" d="M249.555,-909.992C253.618,-901.335 258.09,-891.809 262.354,-882.723"/>
<polygon fill="black" stroke="black" points="265.617,-884.01 266.697,-873.471 259.28,-881.036 265.617,-884.01"/>
</g>
<!-- bak.1 -->
<g id="node4" class="node"><title>bak.1</title>
<ellipse fill="none" stroke="black" cx="209" cy="-745" rx="70.0036" ry="31.1127"/>
<text text-anchor="middle" x="209" y="-750.4" font-family="sans" font-size="14.00">bake_bread</text>
<text text-anchor="middle" x="209" y="-732.4" font-family="sans" font-size="14.00">1</text>
</g>
<!-- mak.1&#45;&gt;bak.1 -->
<g id="edge6" class="edge"><title>mak.1&#45;&gt;bak.1</title>
<path fill="none" stroke="black" d="M259.202,-813.331C252.153,-803.736 244.239,-792.964 236.815,-782.859"/>
<polygon fill="black" stroke="black" points="239.465,-780.555 230.724,-774.568 233.824,-784.699 239.465,-780.555"/>
</g>
<!-- sel.1 -->
<g id="node5" class="node"><title>sel.1</title>
<ellipse fill="none" stroke="black" cx="138" cy="-641" rx="63.8479" ry="31.1127"/>
<text text-anchor="middle" x="138" y="-646.4" font-family="sans" font-size="14.00">sell_bread</text>
<text text-anchor="middle" x="138" y="-628.4" font-family="sans" font-size="14.00">1</text>
</g>
<!-- bak.1&#45;&gt;sel.1 -->
<g id="edge7" class="edge"><title>bak.1&#45;&gt;sel.1</title>
<path fill="none" stroke="black" d="M188.654,-715.198C180.938,-703.896 172.047,-690.871 163.888,-678.92"/>
<polygon fill="black" stroke="black" points="166.632,-676.733 158.103,-670.447 160.851,-680.679 166.632,-676.733"/>
</g>
<!-- cle.1 -->
<g id="node6" class="node"><title>cle.1</title>
<ellipse fill="none" stroke="black" cx="288" cy="-641" rx="68.0887" ry="31.1127"/>
<text text-anchor="middle" x="288" y="-646.4" font-family="sans" font-size="14.00">clean_oven</text>
<text text-anchor="middle" x="288" y="-628.4" font-family="sans" font-size="14.00">1</text>
</g>
<!-- bak.1&#45;&gt;cle.1 -->
<g id="edge10" class="edge"><title>bak.1&#45;&gt;cle.1</title>
<path fill="none" stroke="black" d="M231.427,-715.476C240.1,-704.058 250.133,-690.851 259.319,-678.757"/>
<polygon fill="black" stroke="black" points="262.255,-680.678 265.517,-670.598 256.681,-676.444 262.255,-680.678"/>
</g>
<!-- pre.2 -->
<g id="node14" class="node"><title>pre.2</title>
<ellipse fill="none" stroke="black" cx="466" cy="-543" rx="85.7684" ry="31.1127"/>
<text text-anchor="middle" x="466" y="-548.4" font-family="sans" font-size="14.00">pre_heat_oven</text>
<text text-anchor="middle" x="466" y="-530.4" font-family="sans" font-size="14.00">2</text>
</g>
<!-- cle.1&#45;&gt;pre.2 -->
<g id="edge12" class="edge"><title>cle.1&#45;&gt;pre.2</title>
<path fill="none" stroke="black" d="M331.544,-617.027C355.205,-603.999 384.726,-587.746 410.074,-573.791"/>
<polygon fill="black" stroke="black" points="411.777,-576.848 418.85,-568.959 408.401,-570.716 411.777,-576.848"/>
</g>
<!-- pre.1 -->
<g id="node7" class="node"><title>pre.1</title>
<ellipse fill="none" stroke="black" cx="102" cy="-843" rx="85.7684" ry="31.1127"/>
<text text-anchor="middle" x="102" y="-848.4" font-family="sans" font-size="14.00">pre_heat_oven</text>
<text text-anchor="middle" x="102" y="-830.4" font-family="sans" font-size="14.00">1</text>
</g>
<!-- pre.1&#45;&gt;bak.1 -->
<g id="edge9" class="edge"><title>pre.1&#45;&gt;bak.1</title>
<path fill="none" stroke="black" d="M133.525,-814.127C145.266,-803.373 158.717,-791.054 170.98,-779.822"/>
<polygon fill="black" stroke="black" points="173.426,-782.328 178.437,-772.993 168.698,-777.166 173.426,-782.328"/>
</g>
<!-- pur.2 -->
<g id="node9" class="node"><title>pur.2</title>
<ellipse fill="none" stroke="black" cx="599" cy="-641" rx="121.122" ry="31.1127"/>
<text text-anchor="middle" x="599" y="-646.4" font-family="sans" font-size="14.00">purchase_ingredients</text>
<text text-anchor="middle" x="599" y="-628.4" font-family="sans" font-size="14.00">2</text>
</g>
<!-- mak.2 -->
<g id="node10" class="node"><title>mak.2</title>
<ellipse fill="none" stroke="black" cx="645" cy="-543" rx="75.1594" ry="31.1127"/>
<text text-anchor="middle" x="645" y="-548.4" font-family="sans" font-size="14.00">make_dough</text>
<text text-anchor="middle" x="645" y="-530.4" font-family="sans" font-size="14.00">2</text>
</g>
<!-- pur.2&#45;&gt;mak.2 -->
<g id="edge14" class="edge"><title>pur.2&#45;&gt;mak.2</title>
<path fill="none" stroke="black" d="M613.555,-609.992C617.618,-601.335 622.09,-591.809 626.354,-582.723"/>
<polygon fill="black" stroke="black" points="629.617,-584.01 630.697,-573.471 623.28,-581.036 629.617,-584.01"/>
</g>
<!-- bak.2 -->
<g id="node11" class="node"><title>bak.2</title>
<ellipse fill="none" stroke="black" cx="573" cy="-445" rx="70.0036" ry="31.1127"/>
<text text-anchor="middle" x="573" y="-450.4" font-family="sans" font-size="14.00">bake_bread</text>
<text text-anchor="middle" x="573" y="-432.4" font-family="sans" font-size="14.00">2</text>
</g>
<!-- mak.2&#45;&gt;bak.2 -->
<g id="edge15" class="edge"><title>mak.2&#45;&gt;bak.2</title>
<path fill="none" stroke="black" d="M623.202,-513.331C616.153,-503.736 608.239,-492.964 600.815,-482.859"/>
<polygon fill="black" stroke="black" points="603.465,-480.555 594.724,-474.568 597.824,-484.699 603.465,-480.555"/>
</g>
<!-- sel.2 -->
<g id="node12" class="node"><title>sel.2</title>
<ellipse fill="none" stroke="black" cx="502" cy="-341" rx="63.8479" ry="31.1127"/>
<text text-anchor="middle" x="502" y="-346.4" font-family="sans" font-size="14.00">sell_bread</text>
<text text-anchor="middle" x="502" y="-328.4" font-family="sans" font-size="14.00">2</text>
</g>
<!-- bak.2&#45;&gt;sel.2 -->
<g id="edge16" class="edge"><title>bak.2&#45;&gt;sel.2</title>
<path fill="none" stroke="black" d="M552.654,-415.198C544.938,-403.896 536.047,-390.871 527.888,-378.92"/>
<polygon fill="black" stroke="black" points="530.632,-376.733 522.103,-370.447 524.851,-380.679 530.632,-376.733"/>
</g>
<!-- cle.2 -->
<g id="node13" class="node"><title>cle.2</title>
<ellipse fill="none" stroke="black" cx="652" cy="-341" rx="68.0887" ry="31.1127"/>
<text text-anchor="middle" x="652" y="-346.4" font-family="sans" font-size="14.00">clean_oven</text>
<text text-anchor="middle" x="652" y="-328.4" font-family="sans" font-size="14.00">2</text>
</g>
<!-- bak.2&#45;&gt;cle.2 -->
<g id="edge19" class="edge"><title>bak.2&#45;&gt;cle.2</title>
<path fill="none" stroke="black" d="M595.427,-415.476C604.1,-404.058 614.133,-390.851 623.319,-378.757"/>
<polygon fill="black" stroke="black" points="626.255,-380.678 629.517,-370.598 620.681,-376.444 626.255,-380.678"/>
</g>
<!-- pre.3 -->
<g id="node21" class="node"><title>pre.3</title>
<ellipse fill="none" stroke="black" cx="830" cy="-243" rx="85.7684" ry="31.1127"/>
<text text-anchor="middle" x="830" y="-248.4" font-family="sans" font-size="14.00">pre_heat_oven</text>
<text text-anchor="middle" x="830" y="-230.4" font-family="sans" font-size="14.00">3</text>
</g>
<!-- cle.2&#45;&gt;pre.3 -->
<g id="edge21" class="edge"><title>cle.2&#45;&gt;pre.3</title>
<path fill="none" stroke="black" d="M695.544,-317.027C719.205,-303.999 748.726,-287.746 774.074,-273.791"/>
<polygon fill="black" stroke="black" points="775.777,-276.848 782.85,-268.959 772.401,-270.716 775.777,-276.848"/>
</g>
<!-- pre.2&#45;&gt;bak.2 -->
<g id="edge18" class="edge"><title>pre.2&#45;&gt;bak.2</title>
<path fill="none" stroke="black" d="M497.525,-514.127C509.266,-503.373 522.717,-491.054 534.98,-479.822"/>
<polygon fill="black" stroke="black" points="537.426,-482.328 542.437,-472.993 532.698,-477.166 537.426,-482.328"/>
</g>
<!-- pur.3 -->
<g id="node16" class="node"><title>pur.3</title>
<ellipse fill="none" stroke="black" cx="963" cy="-341" rx="121.122" ry="31.1127"/>
<text text-anchor="middle" x="963" y="-346.4" font-family="sans" font-size="14.00">purchase_ingredients</text>
<text text-anchor="middle" x="963" y="-328.4" font-family="sans" font-size="14.00">3</text>
</g>
<!-- mak.3 -->
<g id="node17" class="node"><title>mak.3</title>
<ellipse fill="none" stroke="black" cx="1009" cy="-243" rx="75.1594" ry="31.1127"/>
<text text-anchor="middle" x="1009" y="-248.4" font-family="sans" font-size="14.00">make_dough</text>
<text text-anchor="middle" x="1009" y="-230.4" font-family="sans" font-size="14.00">3</text>
</g>
<!-- pur.3&#45;&gt;mak.3 -->
<g id="edge23" class="edge"><title>pur.3&#45;&gt;mak.3</title>
<path fill="none" stroke="black" d="M977.555,-309.992C981.618,-301.335 986.09,-291.809 990.354,-282.723"/>
<polygon fill="black" stroke="black" points="993.617,-284.01 994.697,-273.471 987.28,-281.036 993.617,-284.01"/>
</g>
<!-- bak.3 -->
<g id="node18" class="node"><title>bak.3</title>
<ellipse fill="none" stroke="black" cx="894" cy="-145" rx="70.0036" ry="31.1127"/>
<text text-anchor="middle" x="894" y="-150.4" font-family="sans" font-size="14.00">bake_bread</text>
<text text-anchor="middle" x="894" y="-132.4" font-family="sans" font-size="14.00">3</text>
</g>
<!-- mak.3&#45;&gt;bak.3 -->
<g id="edge24" class="edge"><title>mak.3&#45;&gt;bak.3</title>
<path fill="none" stroke="black" d="M976.046,-214.917C963.063,-203.853 948.024,-191.038 934.396,-179.425"/>
<polygon fill="black" stroke="black" points="936.443,-176.57 926.562,-172.748 931.903,-181.898 936.443,-176.57"/>
</g>
<!-- sel.3 -->
<g id="node19" class="node"><title>sel.3</title>
<ellipse fill="none" stroke="black" cx="837" cy="-47" rx="63.8479" ry="31.1127"/>
<text text-anchor="middle" x="837" y="-52.4" font-family="sans" font-size="14.00">sell_bread</text>
<text text-anchor="middle" x="837" y="-34.4" font-family="sans" font-size="14.00">3</text>
</g>
<!-- bak.3&#45;&gt;sel.3 -->
<g id="edge25" class="edge"><title>bak.3&#45;&gt;sel.3</title>
<path fill="none" stroke="black" d="M876.433,-114.797C871.074,-105.583 865.106,-95.3228 859.469,-85.6302"/>
<polygon fill="black" stroke="black" points="862.464,-83.8192 854.411,-76.9347 856.413,-87.3386 862.464,-83.8192"/>
</g>
<!-- cle.3 -->
<g id="node20" class="node"><title>cle.3</title>
<ellipse fill="none" stroke="black" cx="987" cy="-47" rx="68.0887" ry="31.1127"/>
<text text-anchor="middle" x="987" y="-52.4" font-family="sans" font-size="14.00">clean_oven</text>
<text text-anchor="middle" x="987" y="-34.4" font-family="sans" font-size="14.00">3</text>
</g>
<!-- bak.3&#45;&gt;cle.3 -->
<g id="edge28" class="edge"><title>bak.3&#45;&gt;cle.3</title>
<path fill="none" stroke="black" d="M921.149,-116.391C931.081,-105.925 942.447,-93.9485 952.908,-82.9247"/>
<polygon fill="black" stroke="black" points="955.633,-85.1382 959.978,-75.4752 950.555,-80.3197 955.633,-85.1382"/>
</g>
<!-- pre.3&#45;&gt;bak.3 -->
<g id="edge27" class="edge"><title>pre.3&#45;&gt;bak.3</title>
<path fill="none" stroke="black" d="M849.724,-212.797C855.803,-203.489 862.579,-193.113 868.966,-183.334"/>
<polygon fill="black" stroke="black" points="871.913,-185.221 874.451,-174.935 866.052,-181.394 871.913,-185.221"/>
</g>
</g>
</svg>
