<?xml version="1.0" encoding="UTF-8" standalone="no"?>
<!DOCTYPE svg PUBLIC "-//W3C//DTD SVG 1.1//EN"
 "http://www.w3.org/Graphics/SVG/1.1/DTD/svg11.dtd">
<!-- Generated by graphviz version 2.26.0 (20091210.2329)
 -->
<!-- Title: example Pages: 1 -->
<svg width="81pt" height="504pt"
 viewBox="0.00 0.00 80.75 504.00" xmlns="http://www.w3.org/2000/svg" xmlns:xlink="http://www.w3.org/1999/xlink">
<g id="graph1" class="graph" transform="scale(0.443662 0.443662) rotate(0) translate(4 1132)">
<title>example</title>
<polygon fill="none" stroke="none" points="-4,5 -4,-1132 179,-1132 179,5 -4,5"/>
<g id="graph2" class="cluster"><title>cluster_1</title>
<polygon fill="none" stroke="black" stroke-dasharray="5,2" points="8,-722 8,-1120 164,-1120 164,-722 8,-722"/>
<text text-anchor="middle" x="86" y="-1103.4" font-family="sans" font-size="14.00">1</text>
</g>
<g id="graph3" class="cluster"><title>cluster_2</title>
<polygon fill="none" stroke="black" stroke-dasharray="5,2" points="8,-414 8,-714 164,-714 164,-414 8,-414"/>
<text text-anchor="middle" x="86" y="-697.4" font-family="sans" font-size="14.00">2</text>
</g>
<g id="graph4" class="cluster"><title>cluster_3</title>
<polygon fill="none" stroke="black" stroke-dasharray="5,2" points="10,-8 10,-406 166,-406 166,-8 10,-8"/>
<text text-anchor="middle" x="88" y="-389.4" font-family="sans" font-size="14.00">3</text>
</g>
<!-- foo.1 -->
<g id="node2" class="node"><title>foo.1</title>
<ellipse fill="none" stroke="black" cx="126" cy="-1055" rx="27" ry="31.1127"/>
<text text-anchor="middle" x="126" y="-1060.4" font-family="sans" font-size="14.00">foo</text>
<text text-anchor="middle" x="126" y="-1042.4" font-family="sans" font-size="14.00">1</text>
</g>
<!-- bar.1 -->
<g id="node3" class="node"><title>bar.1</title>
<ellipse fill="none" stroke="black" cx="87" cy="-957" rx="27.7881" ry="31.1127"/>
<text text-anchor="middle" x="87" y="-962.4" font-family="sans" font-size="14.00">bar</text>
<text text-anchor="middle" x="87" y="-944.4" font-family="sans" font-size="14.00">1</text>
</g>
<!-- foo.1&#45;&gt;bar.1 -->
<g id="edge5" class="edge"><title>foo.1&#45;&gt;bar.1</title>
<path fill="none" stroke="black" d="M114.72,-1026.65C110.793,-1016.79 106.321,-1005.55 102.133,-995.027"/>
<polygon fill="black" stroke="black" points="105.34,-993.619 98.3902,-985.621 98.8358,-996.207 105.34,-993.619"/>
</g>
<!-- baz.1 -->
<g id="node4" class="node"><title>baz.1</title>
<ellipse fill="none" stroke="black" cx="45" cy="-859" rx="28.9914" ry="31.1127"/>
<text text-anchor="middle" x="45" y="-864.4" font-family="sans" font-size="14.00">baz</text>
<text text-anchor="middle" x="45" y="-846.4" font-family="sans" font-size="14.00">1</text>
</g>
<!-- bar.1&#45;&gt;baz.1 -->
<g id="edge8" class="edge"><title>bar.1&#45;&gt;baz.1</title>
<path fill="none" stroke="black" d="M74.9645,-928.917C70.696,-918.957 65.8191,-907.578 61.2573,-896.934"/>
<polygon fill="black" stroke="black" points="64.3392,-895.24 57.183,-887.427 57.9052,-897.997 64.3392,-895.24"/>
</g>
<!-- wop.1 -->
<g id="node5" class="node"><title>wop.1</title>
<ellipse fill="none" stroke="black" cx="124" cy="-859" rx="31.8198" ry="31.1127"/>
<text text-anchor="middle" x="124" y="-864.4" font-family="sans" font-size="14.00">wop</text>
<text text-anchor="middle" x="124" y="-846.4" font-family="sans" font-size="14.00">1</text>
</g>
<!-- bar.1&#45;&gt;wop.1 -->
<g id="edge6" class="edge"><title>bar.1&#45;&gt;wop.1</title>
<path fill="none" stroke="black" d="M97.8014,-928.391C101.422,-918.801 105.522,-907.942 109.385,-897.71"/>
<polygon fill="black" stroke="black" points="112.735,-898.746 112.993,-888.154 106.186,-896.274 112.735,-898.746"/>
</g>
<!-- qux.1 -->
<g id="node7" class="node"><title>qux.1</title>
<ellipse fill="none" stroke="black" cx="47" cy="-761" rx="29.9071" ry="31.1127"/>
<text text-anchor="middle" x="47" y="-766.4" font-family="sans" font-size="14.00">qux</text>
<text text-anchor="middle" x="47" y="-748.4" font-family="sans" font-size="14.00">1</text>
</g>
<!-- baz.1&#45;&gt;qux.1 -->
<g id="edge26" class="edge"><title>baz.1&#45;&gt;qux.1</title>
<path fill="none" stroke="black" d="M45.6328,-827.992C45.7988,-819.859 45.9804,-810.959 46.1556,-802.378"/>
<polygon fill="black" stroke="black" points="49.6596,-802.212 46.3644,-792.142 42.661,-802.069 49.6596,-802.212"/>
</g>
<!-- pub.2 -->
<g id="node13" class="node"><title>pub.2</title>
<ellipse fill="none" stroke="black" cx="123" cy="-649" rx="31.1127" ry="31.1127"/>
<text text-anchor="middle" x="123" y="-654.4" font-family="sans" font-size="14.00">pub</text>
<text text-anchor="middle" x="123" y="-636.4" font-family="sans" font-size="14.00">2</text>
</g>
<!-- wop.1&#45;&gt;pub.2 -->
<g id="edge33" class="edge"><title>wop.1&#45;&gt;pub.2</title>
<path fill="none" stroke="black" d="M123.85,-827.561C123.676,-791.037 123.389,-730.648 123.197,-690.349"/>
<polygon fill="black" stroke="black" points="126.697,-690.294 123.149,-680.311 119.697,-690.327 126.697,-690.294"/>
</g>
<!-- pub.1 -->
<g id="node6" class="node"><title>pub.1</title>
<ellipse fill="none" stroke="black" cx="50" cy="-1055" rx="31.1127" ry="31.1127"/>
<text text-anchor="middle" x="50" y="-1060.4" font-family="sans" font-size="14.00">pub</text>
<text text-anchor="middle" x="50" y="-1042.4" font-family="sans" font-size="14.00">1</text>
</g>
<!-- pub.1&#45;&gt;bar.1 -->
<g id="edge10" class="edge"><title>pub.1&#45;&gt;bar.1</title>
<path fill="none" stroke="black" d="M61.001,-1025.86C64.617,-1016.28 68.6932,-1005.49 72.5268,-995.334"/>
<polygon fill="black" stroke="black" points="75.8473,-996.448 76.1051,-985.857 69.2985,-993.976 75.8473,-996.448"/>
</g>
<!-- foo.2 -->
<g id="node9" class="node"><title>foo.2</title>
<ellipse fill="none" stroke="black" cx="47" cy="-649" rx="27" ry="31.1127"/>
<text text-anchor="middle" x="47" y="-654.4" font-family="sans" font-size="14.00">foo</text>
<text text-anchor="middle" x="47" y="-636.4" font-family="sans" font-size="14.00">2</text>
</g>
<!-- qux.1&#45;&gt;foo.2 -->
<g id="edge27" class="edge"><title>qux.1&#45;&gt;foo.2</title>
<path fill="none" stroke="black" d="M47,-729.802C47,-717.544 47,-703.3 47,-690.216"/>
<polygon fill="black" stroke="black" points="50.5001,-690.031 47,-680.031 43.5001,-690.031 50.5001,-690.031"/>
</g>
<!-- bar.2 -->
<g id="node10" class="node"><title>bar.2</title>
<ellipse fill="none" stroke="black" cx="85" cy="-551" rx="27.7881" ry="31.1127"/>
<text text-anchor="middle" x="85" y="-556.4" font-family="sans" font-size="14.00">bar</text>
<text text-anchor="middle" x="85" y="-538.4" font-family="sans" font-size="14.00">2</text>
</g>
<!-- foo.2&#45;&gt;bar.2 -->
<g id="edge12" class="edge"><title>foo.2&#45;&gt;bar.2</title>
<path fill="none" stroke="black" d="M57.9912,-620.654C61.8175,-610.786 66.1743,-599.551 70.255,-589.027"/>
<polygon fill="black" stroke="black" points="73.5498,-590.21 73.9019,-579.621 67.0233,-587.68 73.5498,-590.21"/>
</g>
<!-- baz.2 -->
<g id="node11" class="node"><title>baz.2</title>
<ellipse fill="none" stroke="black" cx="45" cy="-453" rx="28.9914" ry="31.1127"/>
<text text-anchor="middle" x="45" y="-458.4" font-family="sans" font-size="14.00">baz</text>
<text text-anchor="middle" x="45" y="-440.4" font-family="sans" font-size="14.00">2</text>
</g>
<!-- bar.2&#45;&gt;baz.2 -->
<g id="edge15" class="edge"><title>bar.2&#45;&gt;baz.2</title>
<path fill="none" stroke="black" d="M73.4303,-522.654C69.4026,-512.786 64.8165,-501.551 60.521,-491.027"/>
<polygon fill="black" stroke="black" points="63.7017,-489.557 56.6822,-481.621 57.2208,-492.203 63.7017,-489.557"/>
</g>
<!-- wop.2 -->
<g id="node12" class="node"><title>wop.2</title>
<ellipse fill="none" stroke="black" cx="124" cy="-453" rx="31.8198" ry="31.1127"/>
<text text-anchor="middle" x="124" y="-458.4" font-family="sans" font-size="14.00">wop</text>
<text text-anchor="middle" x="124" y="-440.4" font-family="sans" font-size="14.00">2</text>
</g>
<!-- bar.2&#45;&gt;wop.2 -->
<g id="edge13" class="edge"><title>bar.2&#45;&gt;wop.2</title>
<path fill="none" stroke="black" d="M96.3853,-522.391C100.202,-512.801 104.523,-501.942 108.595,-491.71"/>
<polygon fill="black" stroke="black" points="111.952,-492.74 112.398,-482.154 105.448,-490.152 111.952,-492.74"/>
</g>
<!-- foo.3 -->
<g id="node15" class="node"><title>foo.3</title>
<ellipse fill="none" stroke="black" cx="46" cy="-341" rx="27" ry="31.1127"/>
<text text-anchor="middle" x="46" y="-346.4" font-family="sans" font-size="14.00">foo</text>
<text text-anchor="middle" x="46" y="-328.4" font-family="sans" font-size="14.00">3</text>
</g>
<!-- baz.2&#45;&gt;foo.3 -->
<g id="edge31" class="edge"><title>baz.2&#45;&gt;foo.3</title>
<path fill="none" stroke="black" d="M45.2786,-421.802C45.388,-409.544 45.5152,-395.3 45.632,-382.216"/>
<polygon fill="black" stroke="black" points="49.1334,-382.062 45.7229,-372.031 42.1337,-381.999 49.1334,-382.062"/>
</g>
<!-- pub.3 -->
<g id="node19" class="node"><title>pub.3</title>
<ellipse fill="none" stroke="black" cx="123" cy="-341" rx="31.1127" ry="31.1127"/>
<text text-anchor="middle" x="123" y="-346.4" font-family="sans" font-size="14.00">pub</text>
<text text-anchor="middle" x="123" y="-328.4" font-family="sans" font-size="14.00">3</text>
</g>
<!-- wop.2&#45;&gt;pub.3 -->
<g id="edge35" class="edge"><title>wop.2&#45;&gt;pub.3</title>
<path fill="none" stroke="black" d="M123.721,-421.802C123.612,-409.544 123.485,-395.3 123.368,-382.216"/>
<polygon fill="black" stroke="black" points="126.866,-381.999 123.277,-372.031 119.867,-382.062 126.866,-381.999"/>
</g>
<!-- pub.2&#45;&gt;bar.2 -->
<g id="edge17" class="edge"><title>pub.2&#45;&gt;bar.2</title>
<path fill="none" stroke="black" d="M111.702,-619.862C107.955,-610.199 103.727,-599.296 99.759,-589.063"/>
<polygon fill="black" stroke="black" points="102.937,-587.578 96.0586,-579.52 96.4107,-590.108 102.937,-587.578"/>
</g>
<!-- bar.3 -->
<g id="node16" class="node"><title>bar.3</title>
<ellipse fill="none" stroke="black" cx="85" cy="-243" rx="27.7881" ry="31.1127"/>
<text text-anchor="middle" x="85" y="-248.4" font-family="sans" font-size="14.00">bar</text>
<text text-anchor="middle" x="85" y="-230.4" font-family="sans" font-size="14.00">3</text>
</g>
<!-- foo.3&#45;&gt;bar.3 -->
<g id="edge19" class="edge"><title>foo.3&#45;&gt;bar.3</title>
<path fill="none" stroke="black" d="M57.2804,-312.654C61.2075,-302.786 65.6789,-291.551 69.867,-281.027"/>
<polygon fill="black" stroke="black" points="73.1642,-282.207 73.6098,-271.621 66.6603,-279.619 73.1642,-282.207"/>
</g>
<!-- baz.3 -->
<g id="node17" class="node"><title>baz.3</title>
<ellipse fill="none" stroke="black" cx="47" cy="-145" rx="28.9914" ry="31.1127"/>
<text text-anchor="middle" x="47" y="-150.4" font-family="sans" font-size="14.00">baz</text>
<text text-anchor="middle" x="47" y="-132.4" font-family="sans" font-size="14.00">3</text>
</g>
<!-- bar.3&#45;&gt;baz.3 -->
<g id="edge22" class="edge"><title>bar.3&#45;&gt;baz.3</title>
<path fill="none" stroke="black" d="M73.9067,-214.391C70.1548,-204.715 65.9023,-193.748 61.9039,-183.436"/>
<polygon fill="black" stroke="black" points="65.0515,-181.873 58.1729,-173.814 58.525,-184.403 65.0515,-181.873"/>
</g>
<!-- wop.3 -->
<g id="node18" class="node"><title>wop.3</title>
<ellipse fill="none" stroke="black" cx="126" cy="-145" rx="31.8198" ry="31.1127"/>
<text text-anchor="middle" x="126" y="-150.4" font-family="sans" font-size="14.00">wop</text>
<text text-anchor="middle" x="126" y="-132.4" font-family="sans" font-size="14.00">3</text>
</g>
<!-- bar.3&#45;&gt;wop.3 -->
<g id="edge20" class="edge"><title>bar.3&#45;&gt;wop.3</title>
<path fill="none" stroke="black" d="M96.8589,-214.654C100.951,-204.873 105.606,-193.748 109.975,-183.304"/>
<polygon fill="black" stroke="black" points="113.252,-184.538 113.883,-173.962 106.795,-181.836 113.252,-184.538"/>
</g>
<!-- qux.3 -->
<g id="node20" class="node"><title>qux.3</title>
<ellipse fill="none" stroke="black" cx="48" cy="-47" rx="29.9071" ry="31.1127"/>
<text text-anchor="middle" x="48" y="-52.4" font-family="sans" font-size="14.00">qux</text>
<text text-anchor="middle" x="48" y="-34.4" font-family="sans" font-size="14.00">3</text>
</g>
<!-- baz.3&#45;&gt;qux.3 -->
<g id="edge29" class="edge"><title>baz.3&#45;&gt;qux.3</title>
<path fill="none" stroke="black" d="M47.3164,-113.992C47.3994,-105.859 47.4902,-96.9587 47.5778,-88.3777"/>
<polygon fill="black" stroke="black" points="51.0799,-88.1777 47.6822,-78.1425 44.0803,-88.1062 51.0799,-88.1777"/>
</g>
<!-- pub.3&#45;&gt;bar.3 -->
<g id="edge24" class="edge"><title>pub.3&#45;&gt;bar.3</title>
<path fill="none" stroke="black" d="M111.702,-311.862C107.955,-302.199 103.727,-291.296 99.759,-281.063"/>
<polygon fill="black" stroke="black" points="102.937,-279.578 96.0586,-271.52 96.4107,-282.108 102.937,-279.578"/>
</g>
</g>
</svg>
