<?xml version="1.0" encoding="UTF-8" standalone="no"?>
<!DOCTYPE svg PUBLIC "-//W3C//DTD SVG 1.1//EN"
 "http://www.w3.org/Graphics/SVG/1.1/DTD/svg11.dtd">
<!-- Generated by graphviz version 2.26.0 (20091210.2329)
 -->
<!-- Title: graph_tutorial Pages: 1 -->
<svg width="149pt" height="268pt"
 viewBox="0.00 0.00 149.00 268.00" xmlns="http://www.w3.org/2000/svg" xmlns:xlink="http://www.w3.org/1999/xlink">
<g id="graph1" class="graph" transform="scale(1 1) rotate(0) translate(4 264)">
<title>graph_tutorial</title>
<polygon fill="none" stroke="none" points="-4,5 -4,-264 146,-264 146,5 -4,5"/>
<!-- foo -->
<g id="node1" class="node"><title>foo</title>
<ellipse fill="none" stroke="black" cx="31" cy="-241" rx="27" ry="18.3848"/>
<text text-anchor="middle" x="31" y="-237.4" font-family="sans" font-size="14.00">foo</text>
</g>
<!-- bar -->
<g id="node3" class="node"><title>bar</title>
<ellipse fill="none" stroke="black" cx="69" cy="-167" rx="27.7881" ry="18.3848"/>
<text text-anchor="middle" x="69" y="-163.4" font-family="sans" font-size="14.00">bar</text>
</g>
<!-- foo&#45;&gt;bar -->
<g id="edge2" class="edge"><title>foo&#45;&gt;bar</title>
<path fill="none" stroke="black" d="M40.0055,-223.463C44.5627,-214.589 50.1922,-203.626 55.2749,-193.728"/>
<polygon fill="black" stroke="black" points="58.4729,-195.162 59.9275,-184.668 52.2459,-191.964 58.4729,-195.162"/>
</g>
<!-- baz -->
<g id="node4" class="node"><title>baz</title>
<ellipse fill="none" stroke="black" cx="30" cy="-93" rx="28.9914" ry="18.3848"/>
<text text-anchor="middle" x="30" y="-89.4" font-family="sans" font-size="14.00">baz</text>
</g>
<!-- bar&#45;&gt;baz -->
<g id="edge3" class="edge"><title>bar&#45;&gt;baz</title>
<path fill="none" stroke="black" d="M59.7575,-149.463C55.0804,-140.589 49.3027,-129.626 44.0863,-119.728"/>
<polygon fill="black" stroke="black" points="47.07,-117.882 39.3113,-110.668 40.8774,-121.146 47.07,-117.882"/>
</g>
<!-- wop -->
<g id="node8" class="node"><title>wop</title>
<ellipse fill="none" stroke="black" cx="109" cy="-93" rx="31.8198" ry="18.3848"/>
<text text-anchor="middle" x="109" y="-89.4" font-family="sans" font-size="14.00">wop</text>
</g>
<!-- bar&#45;&gt;wop -->
<g id="edge7" class="edge"><title>bar&#45;&gt;wop</title>
<path fill="none" stroke="black" d="M78.4794,-149.463C83.2765,-140.589 89.2024,-129.626 94.5525,-119.728"/>
<polygon fill="black" stroke="black" points="97.7737,-121.129 99.45,-110.668 91.6158,-117.8 97.7737,-121.129"/>
</g>
<!-- qux -->
<g id="node5" class="node"><title>qux</title>
<ellipse fill="none" stroke="black" cx="30" cy="-19" rx="29.9071" ry="18.3848"/>
<text text-anchor="middle" x="30" y="-15.4" font-family="sans" font-size="14.00">qux</text>
</g>
<!-- baz&#45;&gt;qux -->
<g id="edge4" class="edge"><title>baz&#45;&gt;qux</title>
<path fill="none" stroke="black" d="M30,-74.3267C30,-66.2639 30,-56.6477 30,-47.7115"/>
<polygon fill="black" stroke="black" points="33.5001,-47.6673 30,-37.6674 26.5001,-47.6674 33.5001,-47.6673"/>
</g>
<!-- pub -->
<g id="node6" class="node"><title>pub</title>
<ellipse fill="none" stroke="black" cx="107" cy="-241" rx="31.1127" ry="18.3848"/>
<text text-anchor="middle" x="107" y="-237.4" font-family="sans" font-size="14.00">pub</text>
</g>
<!-- pub&#45;&gt;bar -->
<g id="edge6" class="edge"><title>pub&#45;&gt;bar</title>
<path fill="none" stroke="black" d="M97.8013,-223.087C93.2737,-214.27 87.7236,-203.462 82.7081,-193.695"/>
<polygon fill="black" stroke="black" points="85.7956,-192.045 78.114,-184.748 79.5686,-195.243 85.7956,-192.045"/>
</g>
</g>
</svg>
