<?xml version="1.0" encoding="UTF-8" standalone="no"?>
<!DOCTYPE svg PUBLIC "-//W3C//DTD SVG 1.1//EN"
 "http://www.w3.org/Graphics/SVG/1.1/DTD/svg11.dtd">
<!-- Generated by graphviz version 13.1.2 (20250809.0930)
 -->
<!-- Title: Example Pages: 1 -->
<svg width="237pt" height="188pt"
 viewBox="0.00 0.00 237.00 188.00" xmlns="http://www.w3.org/2000/svg" xmlns:xlink="http://www.w3.org/1999/xlink">
<g id="graph0" class="graph" transform="scale(1 1) rotate(0) translate(4 184)">
<title>Example</title>
<polygon fill="none" stroke="none" points="-4,4 -4,-184 232.68,-184 232.68,4 -4,4"/>
<!-- fcm_make_spaceship -->
<g id="node1" class="node">
<title>fcm_make_spaceship</title>
<ellipse fill="none" stroke="black" cx="114.34" cy="-162" rx="114.34" ry="18"/>
<text xml:space="preserve" text-anchor="middle" x="114.34" y="-157.32" font-family="sans" font-size="14.00">fcm_make_spaceship</text>
</g>
<!-- spaceship -->
<g id="node2" class="node">
<title>spaceship</title>
<ellipse fill="none" stroke="black" cx="114.34" cy="-90" rx="60.15" ry="18"/>
<text xml:space="preserve" text-anchor="middle" x="114.34" y="-85.33" font-family="sans" font-size="14.00">spaceship</text>
</g>
<!-- fcm_make_spaceship&#45;&gt;spaceship -->
<g id="edge1" class="edge">
<title>fcm_make_spaceship&#45;&gt;spaceship</title>
<path fill="none" stroke="black" d="M114.34,-143.7C114.34,-136.41 114.34,-127.73 114.34,-119.54"/>
<polygon fill="black" stroke="black" points="117.84,-119.62 114.34,-109.62 110.84,-119.62 117.84,-119.62"/>
</g>
<!-- rose_ana_position -->
<g id="node3" class="node">
<title>rose_ana_position</title>
<ellipse fill="none" stroke="black" cx="114.34" cy="-18" rx="97.51" ry="18"/>
<text xml:space="preserve" text-anchor="middle" x="114.34" y="-13.32" font-family="sans" font-size="14.00">rose_ana_position</text>
</g>
<!-- spaceship&#45;&gt;rose_ana_position -->
<g id="edge2" class="edge">
<title>spaceship&#45;&gt;rose_ana_position</title>
<path fill="none" stroke="black" d="M114.34,-71.7C114.34,-64.41 114.34,-55.73 114.34,-47.54"/>
<polygon fill="black" stroke="black" points="117.84,-47.62 114.34,-37.62 110.84,-47.62 117.84,-47.62"/>
</g>
</g>
</svg>
