<?xml version="1.0" encoding="UTF-8" standalone="no"?>
<!DOCTYPE svg PUBLIC "-//W3C//DTD SVG 1.1//EN"
 "http://www.w3.org/Graphics/SVG/1.1/DTD/svg11.dtd">
<!-- Generated by graphviz version 2.26.0 (20091210.2329)
 -->
<!-- Title: Example Pages: 1 -->
<svg width="463pt" height="360pt"
 viewBox="0.00 0.00 462.98 360.00" xmlns="http://www.w3.org/2000/svg" xmlns:xlink="http://www.w3.org/1999/xlink">
<g id="graph1" class="graph" transform="scale(0.837209 0.837209) rotate(0) translate(4 426)">
<title>Example</title>
<polygon fill="none" stroke="none" points="-4,5 -4,-426 550,-426 550,5 -4,5"/>
<g id="graph2" class="cluster"><title>cluster_suite_directory</title>
<polygon fill="none" stroke="black" stroke-dasharray="5,2" points="8,-218 8,-408 173,-408 173,-218 8,-218"/>
<text text-anchor="middle" x="90.5" y="-388.7" font-family="sanz bold" font-size="17.00">Suite Directory</text>
</g>
<g id="graph3" class="cluster"><title>cluster_run_directory</title>
<polygon fill="none" stroke="black" stroke-dasharray="5,2" points="385,-8 385,-414 537,-414 537,-8 385,-8"/>
<text text-anchor="middle" x="461" y="-394.7" font-family="sanz bold" font-size="17.00">Run Directory</text>
</g>
<!-- suite_rc_suite_dir -->
<g id="node2" class="node"><title>suite_rc_suite_dir</title>
<text text-anchor="middle" x="90" y="-348.4" font-family="sans" font-size="14.00">suite.rc</text>
</g>
<!-- jinja2 -->
<g id="node13" class="node"><title>jinja2</title>
<polygon fill="none" stroke="blue" points="339,-370 219,-370 219,-334 339,-334 339,-370"/>
<text text-anchor="middle" x="279" y="-348.4" font-family="sans" font-size="14.00" fill="blue">Prepend Jinja2</text>
</g>
<!-- suite_rc_suite_dir&#45;&gt;jinja2 -->
<g id="edge4" class="edge"><title>suite_rc_suite_dir&#45;&gt;jinja2</title>
<path fill="none" stroke="blue" d="M125.549,-352C148.882,-352 180.198,-352 208.455,-352"/>
<polygon fill="blue" stroke="blue" points="208.706,-355.5 218.706,-352 208.706,-348.5 208.706,-355.5"/>
</g>
<!-- rose_suite_conf_suite_dir -->
<g id="node3" class="node"><title>rose_suite_conf_suite_dir</title>
<text text-anchor="middle" x="90" y="-294.4" font-family="sans" font-size="14.00">rose&#45;suite.conf</text>
</g>
<!-- rose_suite_conf_run_dir -->
<g id="node7" class="node"><title>rose_suite_conf_run_dir</title>
<text text-anchor="middle" x="461" y="-300.4" font-family="sans" font-size="14.00">rose&#45;suite.conf</text>
</g>
<!-- rose_suite_conf_suite_dir&#45;&gt;rose_suite_conf_run_dir -->
<g id="edge9" class="edge"><title>rose_suite_conf_suite_dir&#45;&gt;rose_suite_conf_run_dir</title>
<path fill="none" stroke="blue" d="M151.68,-298.998C217.041,-300.055 320.146,-301.722 389.137,-302.838"/>
<polygon fill="blue" stroke="blue" points="389.427,-306.343 399.482,-303.005 389.54,-299.344 389.427,-306.343"/>
</g>
<!-- rose_suite_conf_suite_dir&#45;&gt;jinja2 -->
<g id="edge7" class="edge"><title>rose_suite_conf_suite_dir&#45;&gt;jinja2</title>
<path fill="none" stroke="blue" stroke-dasharray="5,2" d="M151.624,-315.607C169.971,-320.849 190.206,-326.63 209.043,-332.012"/>
<polygon fill="none" stroke="blue" points="208.172,-335.403 218.749,-334.785 210.095,-328.673 208.172,-335.403"/>
</g>
<!-- install_files -->
<g id="node14" class="node"><title>install_files</title>
<polygon fill="none" stroke="blue" points="328,-270 230,-270 230,-234 328,-234 328,-270"/>
<text text-anchor="middle" x="279" y="-248.4" font-family="sans" font-size="14.00" fill="blue">Install Files</text>
</g>
<!-- rose_suite_conf_suite_dir&#45;&gt;install_files -->
<g id="edge11" class="edge"><title>rose_suite_conf_suite_dir&#45;&gt;install_files</title>
<path fill="none" stroke="blue" stroke-dasharray="5,2" d="M151.624,-283.002C173.577,-277.659 198.233,-271.657 219.964,-266.369"/>
<polygon fill="none" stroke="blue" points="220.833,-269.759 229.722,-263.994 219.178,-262.958 220.833,-269.759"/>
</g>
<!-- bin_suite_dir -->
<g id="node4" class="node"><title>bin_suite_dir</title>
<text text-anchor="middle" x="90" y="-240.4" font-family="sans" font-size="14.00">bin/</text>
</g>
<!-- bin_run_dir -->
<g id="node9" class="node"><title>bin_run_dir</title>
<text text-anchor="middle" x="461" y="-192.4" font-family="sans" font-size="14.00">bin/</text>
</g>
<!-- bin_suite_dir&#45;&gt;bin_run_dir -->
<g id="edge15" class="edge"><title>bin_suite_dir&#45;&gt;bin_run_dir</title>
<path fill="none" stroke="blue" d="M117.487,-236.935C143.473,-230.519 183.64,-221.275 219,-216 290.907,-205.272 375.756,-199.922 423.478,-197.572"/>
<polygon fill="blue" stroke="blue" points="423.824,-201.06 433.646,-197.09 423.492,-194.068 423.824,-201.06"/>
</g>
<!-- suite_rc_run_dir -->
<g id="node6" class="node"><title>suite_rc_run_dir</title>
<text text-anchor="middle" x="461" y="-354.4" font-family="sans" font-size="14.00">suite.rc</text>
</g>
<!-- files_run_dir -->
<g id="node8" class="node"><title>files_run_dir</title>
<text text-anchor="middle" x="461" y="-246.4" font-family="sans" font-size="14.00">installed files</text>
</g>
<!-- work -->
<g id="node10" class="node"><title>work</title>
<text text-anchor="middle" x="461" y="-138.4" font-family="sans" font-size="14.00">work/</text>
</g>
<!-- share -->
<g id="node11" class="node"><title>share</title>
<text text-anchor="middle" x="461" y="-84.4" font-family="sans" font-size="14.00">share/</text>
</g>
<!-- log -->
<g id="node12" class="node"><title>log</title>
<text text-anchor="middle" x="461" y="-30.4" font-family="sans" font-size="14.00">log/</text>
</g>
<!-- jinja2&#45;&gt;suite_rc_run_dir -->
<g id="edge5" class="edge"><title>jinja2&#45;&gt;suite_rc_run_dir</title>
<path fill="none" stroke="blue" d="M339.098,-353.981C363.88,-354.798 392.131,-355.73 415.192,-356.49"/>
<polygon fill="blue" stroke="blue" points="415.282,-359.995 425.392,-356.826 415.513,-352.998 415.282,-359.995"/>
</g>
<!-- install_files&#45;&gt;files_run_dir -->
<g id="edge13" class="edge"><title>install_files&#45;&gt;files_run_dir</title>
<path fill="none" stroke="blue" d="M328.252,-251.459C348.518,-251.236 372.312,-250.975 394.115,-250.735"/>
<polygon fill="blue" stroke="blue" points="394.341,-254.233 404.302,-250.623 394.264,-247.233 394.341,-254.233"/>
</g>
</g>
</svg>
