<?xml version="1.0" encoding="UTF-8" standalone="no"?>
<!DOCTYPE svg PUBLIC "-//W3C//DTD SVG 1.1//EN"
 "http://www.w3.org/Graphics/SVG/1.1/DTD/svg11.dtd">
<!-- Generated by graphviz version 2.30.1 (20170916.1124)
 -->
<!-- Title: Example Pages: 1 -->
<svg width="276pt" height="191pt"
 viewBox="0.00 0.00 276.00 191.00" xmlns="http://www.w3.org/2000/svg" xmlns:xlink="http://www.w3.org/1999/xlink">
<g id="graph0" class="graph" transform="scale(1 1) rotate(0) translate(4 187)">
<title>Example</title>
<polygon fill="none" stroke="none" points="-4,5 -4,-187 273,-187 273,5 -4,5"/>
<g id="clust1" class="cluster"><title>cluster_1</title>
<polygon fill="none" stroke="green" stroke-dasharray="5,2" points="8,-64 8,-139 92,-139 92,-64 8,-64"/>
<text text-anchor="middle" x="50" y="-123.8" font-family="sans" font-size="14.00" fill="green">:good</text>
</g>
<g id="clust2" class="cluster"><title>cluster_2</title>
<polygon fill="none" stroke="red" stroke-dasharray="5,2" points="100,-64 100,-139 174,-139 174,-64 100,-64"/>
<text text-anchor="middle" x="137" y="-123.8" font-family="sans" font-size="14.00" fill="red">:bad</text>
</g>
<g id="clust3" class="cluster"><title>cluster_3</title>
<polygon fill="none" stroke="purple" stroke-dasharray="5,2" points="182,-64 182,-139 260,-139 260,-64 182,-64"/>
<text text-anchor="middle" x="221" y="-123.8" font-family="sans" font-size="14.00" fill="purple">:ugly</text>
</g>
<!-- good -->
<g id="node1" class="node"><title>good</title>
<ellipse fill="none" stroke="black" cx="50" cy="-90" rx="34.1708" ry="18"/>
<text text-anchor="middle" x="50" y="-86.3" font-family="sans" font-size="14.00">good</text>
</g>
<!-- fin -->
<g id="node5" class="node"><title>fin</title>
<ellipse fill="none" stroke="black" cx="137" cy="-18" rx="27" ry="18"/>
<text text-anchor="middle" x="137" y="-14.3" font-family="sans" font-size="14.00">fin</text>
</g>
<!-- good&#45;&gt;fin -->
<g id="edge4" class="edge"><title>good&#45;&gt;fin</title>
<path fill="none" stroke="black" d="M68.0265,-74.496C80.9242,-64.1185 98.435,-50.0293 112.585,-38.6441"/>
<polygon fill="none" stroke="black" points="114.871,-41.2973 120.468,-32.3016 110.483,-35.8435 114.871,-41.2973"/>
</g>
<!-- bad -->
<g id="node2" class="node"><title>bad</title>
<ellipse fill="none" stroke="black" cx="137" cy="-90" rx="28.3955" ry="18"/>
<text text-anchor="middle" x="137" y="-86.3" font-family="sans" font-size="14.00">bad</text>
</g>
<!-- bad&#45;&gt;fin -->
<g id="edge5" class="edge"><title>bad&#45;&gt;fin</title>
<path fill="none" stroke="black" d="M137,-71.6966C137,-63.9827 137,-54.7125 137,-46.1124"/>
<polygon fill="none" stroke="black" points="140.5,-46.1043 137,-36.1043 133.5,-46.1044 140.5,-46.1043"/>
</g>
<!-- ugly -->
<g id="node3" class="node"><title>ugly</title>
<ellipse fill="none" stroke="black" cx="221" cy="-90" rx="30.3206" ry="18"/>
<text text-anchor="middle" x="221" y="-86.3" font-family="sans" font-size="14.00">ugly</text>
</g>
<!-- ugly&#45;&gt;fin -->
<g id="edge6" class="edge"><title>ugly&#45;&gt;fin</title>
<path fill="none" stroke="black" d="M204.001,-74.8345C191.774,-64.6448 175.101,-50.7509 161.447,-39.3723"/>
<polygon fill="none" stroke="black" points="163.325,-36.3812 153.402,-32.6681 158.843,-41.7587 163.325,-36.3812"/>
</g>
<!-- showdown -->
<g id="node4" class="node"><title>showdown</title>
<ellipse fill="none" stroke="black" cx="137" cy="-165" rx="60.1672" ry="18"/>
<text text-anchor="middle" x="137" y="-161.3" font-family="sans" font-size="14.00">showdown</text>
</g>
<!-- showdown&#45;&gt;good -->
<g id="edge1" class="edge"><title>showdown&#45;&gt;good</title>
<path fill="none" stroke="black" d="M109.857,-148.825C105.091,-145.779 100.288,-142.448 96,-139 86.8651,-131.656 77.7393,-122.586 70.0528,-114.315"/>
<polygon fill="black" stroke="black" points="72.4765,-111.777 63.1709,-106.711 67.2866,-116.474 72.4765,-111.777"/>
</g>
<!-- showdown&#45;&gt;bad -->
<g id="edge2" class="edge"><title>showdown&#45;&gt;bad</title>
<path fill="none" stroke="black" d="M137,-146.7C137,-138.245 137,-127.869 137,-118.373"/>
<polygon fill="black" stroke="black" points="140.5,-118.176 137,-108.176 133.5,-118.176 140.5,-118.176"/>
</g>
<!-- showdown&#45;&gt;ugly -->
<g id="edge3" class="edge"><title>showdown&#45;&gt;ugly</title>
<path fill="none" stroke="black" d="M164.24,-148.944C168.996,-145.885 173.77,-142.519 178,-139 186.644,-131.809 195.128,-122.866 202.246,-114.655"/>
<polygon fill="black" stroke="black" points="205.109,-116.688 208.863,-106.781 199.75,-112.185 205.109,-116.688"/>
</g>
</g>
</svg>
