<?xml version="1.0" encoding="UTF-8" standalone="no"?>
<!DOCTYPE svg PUBLIC "-//W3C//DTD SVG 1.1//EN"
 "http://www.w3.org/Graphics/SVG/1.1/DTD/svg11.dtd">
<!-- Generated by graphviz version 2.30.1 (20170916.1124)
 -->
<!-- Title: Example Pages: 1 -->
<svg width="166pt" height="216pt"
 viewBox="0.00 0.00 166.02 216.00" xmlns="http://www.w3.org/2000/svg" xmlns:xlink="http://www.w3.org/1999/xlink">
<g id="graph0" class="graph" transform="scale(0.892562 0.892562) rotate(0) translate(4 238)">
<title>Example</title>
<polygon fill="none" stroke="none" points="-4,5 -4,-238 183,-238 183,5 -4,5"/>
<!-- foo.1 -->
<g id="node1" class="node"><title>foo.1</title>
<ellipse fill="none" stroke="black" cx="89" cy="-207" rx="89.1432" ry="26.7407"/>
<text text-anchor="middle" x="89" y="-210.8" font-family="sans" font-size="14.00">foo</text>
<text text-anchor="middle" x="89" y="-195.8" font-family="sans" font-size="14.00">2000&#45;01&#45;01T12</text>
</g>
<!-- foo.2 -->
<g id="node2" class="node"><title>foo.2</title>
<ellipse fill="none" stroke="black" cx="89" cy="-117" rx="89.1432" ry="26.7407"/>
<text text-anchor="middle" x="89" y="-120.8" font-family="sans" font-size="14.00">foo</text>
<text text-anchor="middle" x="89" y="-105.8" font-family="sans" font-size="14.00">2000&#45;01&#45;02T12</text>
</g>
<!-- foo.1&#45;&gt;foo.2 -->
<g id="edge1" class="edge"><title>foo.1&#45;&gt;foo.2</title>
<path fill="none" stroke="black" d="M89,-180.073C89,-171.999 89,-162.943 89,-154.296"/>
<polygon fill="black" stroke="black" points="92.5001,-154.046 89,-144.046 85.5001,-154.046 92.5001,-154.046"/>
</g>
<!-- foo.3 -->
<g id="node3" class="node"><title>foo.3</title>
<ellipse fill="none" stroke="black" cx="89" cy="-27" rx="89.1432" ry="26.7407"/>
<text text-anchor="middle" x="89" y="-30.8" font-family="sans" font-size="14.00">foo</text>
<text text-anchor="middle" x="89" y="-15.8" font-family="sans" font-size="14.00">2000&#45;01&#45;03T12</text>
</g>
<!-- foo.2&#45;&gt;foo.3 -->
<g id="edge2" class="edge"><title>foo.2&#45;&gt;foo.3</title>
<path fill="none" stroke="black" d="M89,-90.0731C89,-81.9993 89,-72.9428 89,-64.2961"/>
<polygon fill="black" stroke="black" points="92.5001,-64.0457 89,-54.0457 85.5001,-64.0458 92.5001,-64.0457"/>
</g>
</g>
</svg>
