<?xml version="1.0" encoding="UTF-8" standalone="no"?>
<!DOCTYPE svg PUBLIC "-//W3C//DTD SVG 1.1//EN"
 "http://www.w3.org/Graphics/SVG/1.1/DTD/svg11.dtd">
<!-- Generated by graphviz version 2.30.1 (20170916.1124)
 -->
<!-- Title: example Pages: 1 -->
<svg width="288pt" height="78pt"
 viewBox="0.00 0.00 288.00 78.36" xmlns="http://www.w3.org/2000/svg" xmlns:xlink="http://www.w3.org/1999/xlink">
<g id="graph0" class="graph" transform="scale(0.669767 0.669767) rotate(0) translate(4 113)">
<title>example</title>
<polygon fill="none" stroke="none" points="-4,5 -4,-113 427,-113 427,5 -4,5"/>
<g id="clust1" class="cluster"><title>cluster_T06</title>
<polygon fill="none" stroke="black" stroke-dasharray="5,2" points="8,-8 8,-101 130,-101 130,-8 8,-8"/>
<text text-anchor="middle" x="69" y="-85.8" font-family="sans" font-size="14.00">T06</text>
</g>
<g id="clust2" class="cluster"><title>cluster_T12</title>
<polygon fill="none" stroke="black" stroke-dasharray="5,2" points="150,-8 150,-101 272,-101 272,-8 150,-8"/>
<text text-anchor="middle" x="211" y="-85.8" font-family="sans" font-size="14.00">T12</text>
</g>
<g id="clust3" class="cluster"><title>cluster_T18</title>
<polygon fill="none" stroke="black" stroke-dasharray="5,2" points="292,-8 292,-101 414,-101 414,-8 292,-8"/>
<text text-anchor="middle" x="353" y="-85.8" font-family="sans" font-size="14.00">T18</text>
</g>
<!-- forecast.t06 -->
<g id="node1" class="node"><title>forecast.t06</title>
<ellipse fill="none" stroke="black" cx="69" cy="-43" rx="53.066" ry="26.7407"/>
<text text-anchor="middle" x="69" y="-46.8" font-family="sans" font-size="14.00">forecast</text>
<text text-anchor="middle" x="69" y="-31.8" font-family="sans" font-size="14.00">T06</text>
</g>
<!-- forecast.t12 -->
<g id="node2" class="node"><title>forecast.t12</title>
<ellipse fill="none" stroke="black" cx="211" cy="-43" rx="53.066" ry="26.7407"/>
<text text-anchor="middle" x="211" y="-46.8" font-family="sans" font-size="14.00">forecast</text>
<text text-anchor="middle" x="211" y="-31.8" font-family="sans" font-size="14.00">T12</text>
</g>
<!-- forecast.t06&#45;&gt;forecast.t12 -->
<g id="edge1" class="edge"><title>forecast.t06&#45;&gt;forecast.t12</title>
<path fill="none" stroke="black" d="M122.131,-43C130.421,-43 139.07,-43 147.568,-43"/>
<polygon fill="black" stroke="black" points="147.826,-46.5001 157.826,-43 147.826,-39.5001 147.826,-46.5001"/>
</g>
<!-- forecast.t18 -->
<g id="node3" class="node"><title>forecast.t18</title>
<ellipse fill="none" stroke="black" cx="353" cy="-43" rx="53.066" ry="26.7407"/>
<text text-anchor="middle" x="353" y="-46.8" font-family="sans" font-size="14.00">forecast</text>
<text text-anchor="middle" x="353" y="-31.8" font-family="sans" font-size="14.00">T18</text>
</g>
<!-- forecast.t12&#45;&gt;forecast.t18 -->
<g id="edge2" class="edge"><title>forecast.t12&#45;&gt;forecast.t18</title>
<path fill="none" stroke="black" d="M264.131,-43C272.421,-43 281.07,-43 289.568,-43"/>
<polygon fill="black" stroke="black" points="289.826,-46.5001 299.826,-43 289.826,-39.5001 289.826,-46.5001"/>
</g>
</g>
</svg>
