<?xml version="1.0" encoding="UTF-8" standalone="no"?>
<!DOCTYPE svg PUBLIC "-//W3C//DTD SVG 1.1//EN"
 "http://www.w3.org/Graphics/SVG/1.1/DTD/svg11.dtd">
<!-- Generated by graphviz version 2.30.1 (20170916.1124)
 -->
<!-- Title: Example Pages: 1 -->
<svg width="320pt" height="600pt"
 viewBox="0.00 0.00 320.00 600.00" xmlns="http://www.w3.org/2000/svg" xmlns:xlink="http://www.w3.org/1999/xlink">
<g id="graph0" class="graph" transform="scale(1 1) rotate(0) translate(4 596)">
<title>Example</title>
<polygon fill="none" stroke="none" points="-4,5 -4,-596 317,-596 317,5 -4,5"/>
<g id="clust1" class="cluster"><title>cluster_1</title>
<polygon fill="none" stroke="black" stroke-dasharray="5,2" points="20,-300 20,-584 304,-584 304,-300 20,-300"/>
<text text-anchor="middle" x="162" y="-568.8" font-family="sans" font-size="14.00">1</text>
</g>
<g id="clust2" class="cluster"><title>cluster_a</title>
<polygon fill="none" stroke="red" stroke-dasharray="5,2" points="166,-308 166,-401 296,-401 296,-308 166,-308"/>
<text text-anchor="middle" x="231" y="-385.8" font-family="sans" font-size="14.00" fill="red">:fail</text>
</g>
<g id="clust3" class="cluster"><title>cluster_b</title>
<polygon fill="none" stroke="green" stroke-dasharray="5,2" points="28,-308 28,-401 158,-401 158,-308 28,-308"/>
<text text-anchor="middle" x="93" y="-385.8" font-family="sans" font-size="14.00" fill="green">:success</text>
</g>
<g id="clust4" class="cluster"><title>cluster_2</title>
<polygon fill="none" stroke="black" stroke-dasharray="5,2" points="8,-8 8,-292 292,-292 292,-8 8,-8"/>
<text text-anchor="middle" x="150" y="-276.8" font-family="sans" font-size="14.00">2</text>
</g>
<g id="clust5" class="cluster"><title>cluster_c</title>
<polygon fill="none" stroke="red" stroke-dasharray="5,2" points="154,-16 154,-109 284,-109 284,-16 154,-16"/>
<text text-anchor="middle" x="219" y="-93.8" font-family="sans" font-size="14.00" fill="red">:fail</text>
</g>
<g id="clust6" class="cluster"><title>cluster_d</title>
<polygon fill="none" stroke="green" stroke-dasharray="5,2" points="16,-16 16,-109 146,-109 146,-16 16,-16"/>
<text text-anchor="middle" x="81" y="-93.8" font-family="sans" font-size="14.00" fill="green">:success</text>
</g>
<!-- make_cake_mixture.1 -->
<g id="node1" class="node"><title>make_cake_mixture.1</title>
<ellipse fill="none" stroke="black" cx="162" cy="-526" rx="113.206" ry="26.7407"/>
<text text-anchor="middle" x="162" y="-529.8" font-family="sans" font-size="14.00">make_cake_mixture</text>
<text text-anchor="middle" x="162" y="-514.8" font-family="sans" font-size="14.00">1</text>
</g>
<!-- bake_cake.1 -->
<g id="node2" class="node"><title>bake_cake.1</title>
<ellipse fill="none" stroke="black" cx="162" cy="-436" rx="65.0808" ry="26.7407"/>
<text text-anchor="middle" x="162" y="-439.8" font-family="sans" font-size="14.00">bake_cake</text>
<text text-anchor="middle" x="162" y="-424.8" font-family="sans" font-size="14.00">1</text>
</g>
<!-- make_cake_mixture.1&#45;&gt;bake_cake.1 -->
<g id="edge1" class="edge"><title>make_cake_mixture.1&#45;&gt;bake_cake.1</title>
<path fill="none" stroke="black" d="M162,-499.073C162,-490.999 162,-481.943 162,-473.296"/>
<polygon fill="black" stroke="black" points="165.5,-473.046 162,-463.046 158.5,-473.046 165.5,-473.046"/>
</g>
<!-- sell_cake.1 -->
<g id="node3" class="node"><title>sell_cake.1</title>
<ellipse fill="none" stroke="green" cx="93" cy="-343" rx="56.9149" ry="26.7407"/>
<text text-anchor="middle" x="93" y="-346.8" font-family="sans" font-size="14.00" fill="green">sell_cake</text>
<text text-anchor="middle" x="93" y="-331.8" font-family="sans" font-size="14.00" fill="green">1</text>
</g>
<!-- bake_cake.1&#45;&gt;sell_cake.1 -->
<g id="edge2" class="edge"><title>bake_cake.1&#45;&gt;sell_cake.1</title>
<path fill="none" stroke="black" stroke-dasharray="5,2" d="M143.145,-410.134C134.94,-399.312 125.237,-386.515 116.562,-375.075"/>
<ellipse fill="black" stroke="black" cx="114.01" cy="-371.708" rx="4.00002" ry="4.00002"/>
</g>
<!-- eat_cake.1 -->
<g id="node4" class="node"><title>eat_cake.1</title>
<ellipse fill="none" stroke="red" cx="231" cy="-343" rx="56.3526" ry="26.7407"/>
<text text-anchor="middle" x="231" y="-346.8" font-family="sans" font-size="14.00" fill="red">eat_cake</text>
<text text-anchor="middle" x="231" y="-331.8" font-family="sans" font-size="14.00" fill="red">1</text>
</g>
<!-- bake_cake.1&#45;&gt;eat_cake.1 -->
<g id="edge3" class="edge"><title>bake_cake.1&#45;&gt;eat_cake.1</title>
<path fill="none" stroke="black" stroke-dasharray="5,2" d="M186.548,-410.614C195.293,-400.063 204.913,-387.566 213.027,-376.263"/>
<ellipse fill="black" stroke="black" cx="215.557" cy="-372.676" rx="4.00002" ry="4.00002"/>
</g>
<!-- make_cake_mixture.2 -->
<g id="node5" class="node"><title>make_cake_mixture.2</title>
<ellipse fill="none" stroke="black" cx="150" cy="-234" rx="113.206" ry="26.7407"/>
<text text-anchor="middle" x="150" y="-237.8" font-family="sans" font-size="14.00">make_cake_mixture</text>
<text text-anchor="middle" x="150" y="-222.8" font-family="sans" font-size="14.00">2</text>
</g>
<!-- sell_cake.1&#45;&gt;make_cake_mixture.2 -->
<g id="edge10" class="edge"><title>sell_cake.1&#45;&gt;make_cake_mixture.2</title>
<path fill="none" stroke="black" d="M106.508,-316.642C113.924,-302.722 123.232,-285.248 131.333,-270.042"/>
<polygon fill="none" stroke="black" points="134.58,-271.39 136.193,-260.919 128.402,-268.099 134.58,-271.39"/>
</g>
<!-- eat_cake.1&#45;&gt;bake_cake.1 -->
<g id="edge4" class="edge"><title>eat_cake.1&#45;&gt;bake_cake.1</title>
<path fill="none" stroke="black" stroke-dasharray="5,2" d="M207.062,-367.651C198.094,-378.428 188.138,-391.349 179.8,-402.979"/>
<ellipse fill="black" stroke="black" cx="177.402" cy="-406.382" rx="4.00002" ry="4.00002"/>
</g>
<!-- eat_cake.1&#45;&gt;make_cake_mixture.2 -->
<g id="edge9" class="edge"><title>eat_cake.1&#45;&gt;make_cake_mixture.2</title>
<path fill="none" stroke="black" d="M212.417,-317.452C201.439,-302.951 187.388,-284.388 175.397,-268.549"/>
<polygon fill="none" stroke="black" points="178.168,-266.411 169.342,-260.551 172.587,-270.636 178.168,-266.411"/>
</g>
<!-- bake_cake.2 -->
<g id="node6" class="node"><title>bake_cake.2</title>
<ellipse fill="none" stroke="black" cx="150" cy="-144" rx="65.0808" ry="26.7407"/>
<text text-anchor="middle" x="150" y="-147.8" font-family="sans" font-size="14.00">bake_cake</text>
<text text-anchor="middle" x="150" y="-132.8" font-family="sans" font-size="14.00">2</text>
</g>
<!-- make_cake_mixture.2&#45;&gt;bake_cake.2 -->
<g id="edge5" class="edge"><title>make_cake_mixture.2&#45;&gt;bake_cake.2</title>
<path fill="none" stroke="black" d="M150,-207.073C150,-198.999 150,-189.943 150,-181.296"/>
<polygon fill="black" stroke="black" points="153.5,-181.046 150,-171.046 146.5,-181.046 153.5,-181.046"/>
</g>
<!-- sell_cake.2 -->
<g id="node7" class="node"><title>sell_cake.2</title>
<ellipse fill="none" stroke="green" cx="81" cy="-51" rx="56.9149" ry="26.7407"/>
<text text-anchor="middle" x="81" y="-54.8" font-family="sans" font-size="14.00" fill="green">sell_cake</text>
<text text-anchor="middle" x="81" y="-39.8" font-family="sans" font-size="14.00" fill="green">2</text>
</g>
<!-- bake_cake.2&#45;&gt;sell_cake.2 -->
<g id="edge6" class="edge"><title>bake_cake.2&#45;&gt;sell_cake.2</title>
<path fill="none" stroke="black" stroke-dasharray="5,2" d="M131.145,-118.134C122.94,-107.312 113.237,-94.515 104.562,-83.0748"/>
<ellipse fill="black" stroke="black" cx="102.01" cy="-79.7084" rx="4.00002" ry="4.00002"/>
</g>
<!-- eat_cake.2 -->
<g id="node8" class="node"><title>eat_cake.2</title>
<ellipse fill="none" stroke="red" cx="219" cy="-51" rx="56.3526" ry="26.7407"/>
<text text-anchor="middle" x="219" y="-54.8" font-family="sans" font-size="14.00" fill="red">eat_cake</text>
<text text-anchor="middle" x="219" y="-39.8" font-family="sans" font-size="14.00" fill="red">2</text>
</g>
<!-- bake_cake.2&#45;&gt;eat_cake.2 -->
<g id="edge7" class="edge"><title>bake_cake.2&#45;&gt;eat_cake.2</title>
<path fill="none" stroke="black" stroke-dasharray="5,2" d="M174.548,-118.614C183.293,-108.063 192.913,-95.5658 201.027,-84.2627"/>
<ellipse fill="black" stroke="black" cx="203.557" cy="-80.6758" rx="4.00002" ry="4.00002"/>
</g>
<!-- eat_cake.2&#45;&gt;bake_cake.2 -->
<g id="edge8" class="edge"><title>eat_cake.2&#45;&gt;bake_cake.2</title>
<path fill="none" stroke="black" stroke-dasharray="5,2" d="M195.062,-75.6512C186.094,-86.4281 176.138,-99.3494 167.8,-110.979"/>
<ellipse fill="black" stroke="black" cx="165.402" cy="-114.382" rx="4.00002" ry="4.00002"/>
</g>
</g>
</svg>
