<?xml version="1.0" encoding="UTF-8" standalone="no"?>
<!DOCTYPE svg PUBLIC "-//W3C//DTD SVG 1.1//EN"
 "http://www.w3.org/Graphics/SVG/1.1/DTD/svg11.dtd">
<!-- Generated by graphviz version 2.30.1 (20170916.1124)
 -->
<!-- Title: Example Pages: 1 -->
<svg width="286pt" height="260pt"
 viewBox="0.00 0.00 286.00 260.00" xmlns="http://www.w3.org/2000/svg" xmlns:xlink="http://www.w3.org/1999/xlink">
<g id="graph0" class="graph" transform="scale(1 1) rotate(0) translate(4 256)">
<title>Example</title>
<polygon fill="none" stroke="none" points="-4,5 -4,-256 283,-256 283,5 -4,5"/>
<!-- VEHICLE -->
<g id="node1" class="node"><title>VEHICLE</title>
<polygon fill="powderblue" stroke="royalblue" points="100.25,-252 23.75,-252 23.75,-216 100.25,-216 100.25,-252"/>
<text text-anchor="middle" x="62" y="-230.3" font-family="sans" font-size="14.00">VEHICLE</text>
</g>
<!-- LAND_VEHICLE -->
<g id="node2" class="node"><title>LAND_VEHICLE</title>
<polygon fill="powderblue" stroke="royalblue" points="124.25,-180 -0.25,-180 -0.25,-144 124.25,-144 124.25,-180"/>
<text text-anchor="middle" x="62" y="-158.3" font-family="sans" font-size="14.00">LAND_VEHICLE</text>
</g>
<!-- VEHICLE&#45;&gt;LAND_VEHICLE -->
<g id="edge1" class="edge"><title>VEHICLE&#45;&gt;LAND_VEHICLE</title>
<path fill="none" stroke="black" d="M62,-215.697C62,-207.983 62,-198.712 62,-190.112"/>
<polygon fill="black" stroke="black" points="65.5001,-190.104 62,-180.104 58.5001,-190.104 65.5001,-190.104"/>
</g>
<!-- BICYCLE -->
<g id="node3" class="node"><title>BICYCLE</title>
<polygon fill="powderblue" stroke="royalblue" points="100,-108 24,-108 24,-72 100,-72 100,-108"/>
<text text-anchor="middle" x="62" y="-86.3" font-family="sans" font-size="14.00">BICYCLE</text>
</g>
<!-- LAND_VEHICLE&#45;&gt;BICYCLE -->
<g id="edge2" class="edge"><title>LAND_VEHICLE&#45;&gt;BICYCLE</title>
<path fill="none" stroke="black" d="M62,-143.697C62,-135.983 62,-126.712 62,-118.112"/>
<polygon fill="black" stroke="black" points="65.5001,-118.104 62,-108.104 58.5001,-118.104 65.5001,-118.104"/>
</g>
<!-- penny_farthing -->
<g id="node5" class="node"><title>penny_farthing</title>
<polygon fill="powderblue" stroke="royalblue" points="206.25,-36 53.75,-36 53.75,-0 206.25,-0 206.25,-36"/>
<text text-anchor="middle" x="130" y="-14.3" font-family="sans" font-size="14.00">penny_farthing</text>
</g>
<!-- BICYCLE&#45;&gt;penny_farthing -->
<g id="edge3" class="edge"><title>BICYCLE&#45;&gt;penny_farthing</title>
<path fill="none" stroke="black" d="M78.809,-71.6966C87.126,-63.135 97.3054,-52.6562 106.39,-43.3045"/>
<polygon fill="black" stroke="black" points="108.927,-45.7159 113.384,-36.1043 103.906,-40.8384 108.927,-45.7159"/>
</g>
<!-- HUMAN_ENGINE -->
<g id="node4" class="node"><title>HUMAN_ENGINE</title>
<polygon fill="powderblue" stroke="royalblue" points="278,-108 118,-108 118,-72 278,-72 278,-108"/>
<text text-anchor="middle" x="198" y="-86.3" font-family="sans" font-size="14.00">HUMAN_ENGINE</text>
</g>
<!-- HUMAN_ENGINE&#45;&gt;penny_farthing -->
<g id="edge4" class="edge"><title>HUMAN_ENGINE&#45;&gt;penny_farthing</title>
<path fill="none" stroke="black" d="M181.191,-71.6966C172.874,-63.135 162.695,-52.6562 153.61,-43.3045"/>
<polygon fill="black" stroke="black" points="156.094,-40.8384 146.616,-36.1043 151.073,-45.7159 156.094,-40.8384"/>
</g>
</g>
</svg>
