<?xml version="1.0" encoding="UTF-8" standalone="no"?>
<!DOCTYPE svg PUBLIC "-//W3C//DTD SVG 1.1//EN"
 "http://www.w3.org/Graphics/SVG/1.1/DTD/svg11.dtd">
<!-- Generated by graphviz version 2.30.1 (20170916.1124)
 -->
<!-- Title: example Pages: 1 -->
<svg width="324pt" height="515pt"
 viewBox="0.00 0.00 324.00 514.81" xmlns="http://www.w3.org/2000/svg" xmlns:xlink="http://www.w3.org/1999/xlink">
<g id="graph0" class="graph" transform="scale(0.426877 0.426877) rotate(0) translate(4 1202)">
<title>example</title>
<polygon fill="none" stroke="none" points="-4,5 -4,-1202 756,-1202 756,5 -4,5"/>
<g id="clust1" class="cluster"><title>cluster_1</title>
<polygon fill="none" stroke="black" stroke-dasharray="5,2" points="8,-824 8,-1190 370,-1190 370,-824 8,-824"/>
<text text-anchor="middle" x="189" y="-1174.8" font-family="sans" font-size="14.00">1</text>
</g>
<g id="clust2" class="cluster"><title>cluster_2</title>
<polygon fill="none" stroke="black" stroke-dasharray="5,2" points="381,-551 381,-917 743,-917 743,-551 381,-551"/>
<text text-anchor="middle" x="562" y="-901.8" font-family="sans" font-size="14.00">2</text>
</g>
<g id="clust3" class="cluster"><title>cluster_3</title>
<polygon fill="none" stroke="black" stroke-dasharray="5,2" points="11,-278 11,-644 373,-644 373,-278 11,-278"/>
<text text-anchor="middle" x="192" y="-628.8" font-family="sans" font-size="14.00">3</text>
</g>
<g id="clust4" class="cluster"><title>cluster_4</title>
<polygon fill="none" stroke="black" stroke-dasharray="5,2" points="381,-8 381,-371 743,-371 743,-8 381,-8"/>
<text text-anchor="middle" x="562" y="-355.8" font-family="sans" font-size="14.00">4</text>
</g>
<!-- pur.1 -->
<g id="node1" class="node"><title>pur.1</title>
<ellipse fill="none" stroke="black" cx="242" cy="-1132" rx="120.312" ry="26.7407"/>
<text text-anchor="middle" x="242" y="-1135.8" font-family="sans" font-size="14.00">purchase_ingredients</text>
<text text-anchor="middle" x="242" y="-1120.8" font-family="sans" font-size="14.00">1</text>
</g>
<!-- mak.1 -->
<g id="node2" class="node"><title>mak.1</title>
<ellipse fill="none" stroke="black" cx="285" cy="-1042" rx="77.112" ry="26.7407"/>
<text text-anchor="middle" x="285" y="-1045.8" font-family="sans" font-size="14.00">make_dough</text>
<text text-anchor="middle" x="285" y="-1030.8" font-family="sans" font-size="14.00">1</text>
</g>
<!-- pur.1&#45;&gt;mak.1 -->
<g id="edge1" class="edge"><title>pur.1&#45;&gt;mak.1</title>
<path fill="none" stroke="black" d="M254.669,-1105.07C258.824,-1096.57 263.512,-1086.98 267.938,-1077.92"/>
<polygon fill="black" stroke="black" points="271.176,-1079.26 272.422,-1068.74 264.887,-1076.19 271.176,-1079.26"/>
</g>
<!-- bak.1 -->
<g id="node3" class="node"><title>bak.1</title>
<ellipse fill="none" stroke="black" cx="213" cy="-952" rx="71.127" ry="26.7407"/>
<text text-anchor="middle" x="213" y="-955.8" font-family="sans" font-size="14.00">bake_bread</text>
<text text-anchor="middle" x="213" y="-940.8" font-family="sans" font-size="14.00">1</text>
</g>
<!-- mak.1&#45;&gt;bak.1 -->
<g id="edge2" class="edge"><title>mak.1&#45;&gt;bak.1</title>
<path fill="none" stroke="black" d="M264.56,-1016.02C256.884,-1006.64 248.039,-995.825 239.866,-985.836"/>
<polygon fill="black" stroke="black" points="242.532,-983.568 233.491,-978.044 237.114,-988 242.532,-983.568"/>
</g>
<!-- sel.1 -->
<g id="node4" class="node"><title>sel.1</title>
<ellipse fill="none" stroke="black" cx="140" cy="-859" rx="63.459" ry="26.7407"/>
<text text-anchor="middle" x="140" y="-862.8" font-family="sans" font-size="14.00">sell_bread</text>
<text text-anchor="middle" x="140" y="-847.8" font-family="sans" font-size="14.00">1</text>
</g>
<!-- bak.1&#45;&gt;sel.1 -->
<g id="edge3" class="edge"><title>bak.1&#45;&gt;sel.1</title>
<path fill="none" stroke="black" d="M193.052,-926.134C184.844,-915.902 175.219,-903.904 166.437,-892.956"/>
<polygon fill="black" stroke="black" points="168.911,-890.446 159.923,-884.836 163.451,-894.827 168.911,-890.446"/>
</g>
<!-- cle.1 -->
<g id="node5" class="node"><title>cle.1</title>
<ellipse fill="none" stroke="black" cx="292" cy="-859" rx="68.9457" ry="26.7407"/>
<text text-anchor="middle" x="292" y="-862.8" font-family="sans" font-size="14.00">clean_oven</text>
<text text-anchor="middle" x="292" y="-847.8" font-family="sans" font-size="14.00">1</text>
</g>
<!-- bak.1&#45;&gt;cle.1 -->
<g id="edge5" class="edge"><title>bak.1&#45;&gt;cle.1</title>
<path fill="none" stroke="black" d="M234.587,-926.134C243.557,-915.801 254.09,-903.668 263.669,-892.634"/>
<polygon fill="black" stroke="black" points="266.526,-894.682 270.439,-884.836 261.24,-890.093 266.526,-894.682"/>
</g>
<!-- pur.3 -->
<g id="node13" class="node"><title>pur.3</title>
<ellipse fill="none" stroke="black" cx="139" cy="-586" rx="120.312" ry="26.7407"/>
<text text-anchor="middle" x="139" y="-589.8" font-family="sans" font-size="14.00">purchase_ingredients</text>
<text text-anchor="middle" x="139" y="-574.8" font-family="sans" font-size="14.00">3</text>
</g>
<!-- sel.1&#45;&gt;pur.3 -->
<g id="edge7" class="edge"><title>sel.1&#45;&gt;pur.3</title>
<path fill="none" stroke="black" d="M139.904,-832.015C139.725,-783.352 139.337,-678.402 139.133,-622.977"/>
<polygon fill="black" stroke="black" points="142.633,-622.893 139.096,-612.906 135.633,-622.919 142.633,-622.893"/>
</g>
<!-- pre.2 -->
<g id="node12" class="node"><title>pre.2</title>
<ellipse fill="none" stroke="black" cx="476" cy="-769" rx="86.4614" ry="26.7407"/>
<text text-anchor="middle" x="476" y="-772.8" font-family="sans" font-size="14.00">pre_heat_oven</text>
<text text-anchor="middle" x="476" y="-757.8" font-family="sans" font-size="14.00">2</text>
</g>
<!-- cle.1&#45;&gt;pre.2 -->
<g id="edge6" class="edge"><title>cle.1&#45;&gt;pre.2</title>
<path fill="none" stroke="black" d="M334.676,-837.59C360.429,-825.273 393.502,-809.455 421.179,-796.219"/>
<polygon fill="black" stroke="black" points="422.828,-799.31 430.34,-791.838 419.808,-792.995 422.828,-799.31"/>
</g>
<!-- pre.1 -->
<g id="node6" class="node"><title>pre.1</title>
<ellipse fill="none" stroke="black" cx="103" cy="-1042" rx="86.4614" ry="26.7407"/>
<text text-anchor="middle" x="103" y="-1045.8" font-family="sans" font-size="14.00">pre_heat_oven</text>
<text text-anchor="middle" x="103" y="-1030.8" font-family="sans" font-size="14.00">1</text>
</g>
<!-- pre.1&#45;&gt;bak.1 -->
<g id="edge4" class="edge"><title>pre.1&#45;&gt;bak.1</title>
<path fill="none" stroke="black" d="M133.349,-1016.72C146.426,-1006.26 161.848,-993.922 175.621,-982.903"/>
<polygon fill="black" stroke="black" points="177.887,-985.572 183.51,-976.592 173.514,-980.106 177.887,-985.572"/>
</g>
<!-- pur.2 -->
<g id="node7" class="node"><title>pur.2</title>
<ellipse fill="none" stroke="black" cx="615" cy="-859" rx="120.312" ry="26.7407"/>
<text text-anchor="middle" x="615" y="-862.8" font-family="sans" font-size="14.00">purchase_ingredients</text>
<text text-anchor="middle" x="615" y="-847.8" font-family="sans" font-size="14.00">2</text>
</g>
<!-- mak.2 -->
<g id="node8" class="node"><title>mak.2</title>
<ellipse fill="none" stroke="black" cx="658" cy="-769" rx="77.112" ry="26.7407"/>
<text text-anchor="middle" x="658" y="-772.8" font-family="sans" font-size="14.00">make_dough</text>
<text text-anchor="middle" x="658" y="-757.8" font-family="sans" font-size="14.00">2</text>
</g>
<!-- pur.2&#45;&gt;mak.2 -->
<g id="edge8" class="edge"><title>pur.2&#45;&gt;mak.2</title>
<path fill="none" stroke="black" d="M627.669,-832.073C631.824,-823.569 636.512,-813.975 640.938,-804.918"/>
<polygon fill="black" stroke="black" points="644.176,-806.263 645.422,-795.742 637.887,-803.19 644.176,-806.263"/>
</g>
<!-- bak.2 -->
<g id="node9" class="node"><title>bak.2</title>
<ellipse fill="none" stroke="black" cx="542" cy="-679" rx="71.127" ry="26.7407"/>
<text text-anchor="middle" x="542" y="-682.8" font-family="sans" font-size="14.00">bake_bread</text>
<text text-anchor="middle" x="542" y="-667.8" font-family="sans" font-size="14.00">2</text>
</g>
<!-- mak.2&#45;&gt;bak.2 -->
<g id="edge9" class="edge"><title>mak.2&#45;&gt;bak.2</title>
<path fill="none" stroke="black" d="M626.609,-744.186C612.569,-733.535 595.873,-720.869 581.037,-709.614"/>
<polygon fill="black" stroke="black" points="583.097,-706.784 573.014,-703.528 578.866,-712.361 583.097,-706.784"/>
</g>
<!-- sel.2 -->
<g id="node10" class="node"><title>sel.2</title>
<ellipse fill="none" stroke="black" cx="613" cy="-586" rx="63.459" ry="26.7407"/>
<text text-anchor="middle" x="613" y="-589.8" font-family="sans" font-size="14.00">sell_bread</text>
<text text-anchor="middle" x="613" y="-574.8" font-family="sans" font-size="14.00">2</text>
</g>
<!-- bak.2&#45;&gt;sel.2 -->
<g id="edge10" class="edge"><title>bak.2&#45;&gt;sel.2</title>
<path fill="none" stroke="black" d="M561.401,-653.134C569.384,-642.902 578.746,-630.904 587.287,-619.956"/>
<polygon fill="black" stroke="black" points="590.23,-621.873 593.622,-611.836 584.711,-617.567 590.23,-621.873"/>
</g>
<!-- cle.2 -->
<g id="node11" class="node"><title>cle.2</title>
<ellipse fill="none" stroke="black" cx="461" cy="-586" rx="68.9457" ry="26.7407"/>
<text text-anchor="middle" x="461" y="-589.8" font-family="sans" font-size="14.00">clean_oven</text>
<text text-anchor="middle" x="461" y="-574.8" font-family="sans" font-size="14.00">2</text>
</g>
<!-- bak.2&#45;&gt;cle.2 -->
<g id="edge12" class="edge"><title>bak.2&#45;&gt;cle.2</title>
<path fill="none" stroke="black" d="M519.866,-653.134C510.504,-642.616 499.48,-630.231 489.519,-619.04"/>
<polygon fill="black" stroke="black" points="492.09,-616.664 482.826,-611.521 486.861,-621.318 492.09,-616.664"/>
</g>
<!-- pur.4 -->
<g id="node19" class="node"><title>pur.4</title>
<ellipse fill="none" stroke="black" cx="614" cy="-313" rx="120.312" ry="26.7407"/>
<text text-anchor="middle" x="614" y="-316.8" font-family="sans" font-size="14.00">purchase_ingredients</text>
<text text-anchor="middle" x="614" y="-301.8" font-family="sans" font-size="14.00">4</text>
</g>
<!-- sel.2&#45;&gt;pur.4 -->
<g id="edge14" class="edge"><title>sel.2&#45;&gt;pur.4</title>
<path fill="none" stroke="black" d="M613.096,-559.015C613.275,-510.352 613.663,-405.402 613.867,-349.977"/>
<polygon fill="black" stroke="black" points="617.367,-349.919 613.904,-339.906 610.367,-349.893 617.367,-349.919"/>
</g>
<!-- pre.3 -->
<g id="node18" class="node"><title>pre.3</title>
<ellipse fill="none" stroke="black" cx="278" cy="-496" rx="86.4614" ry="26.7407"/>
<text text-anchor="middle" x="278" y="-499.8" font-family="sans" font-size="14.00">pre_heat_oven</text>
<text text-anchor="middle" x="278" y="-484.8" font-family="sans" font-size="14.00">3</text>
</g>
<!-- cle.2&#45;&gt;pre.3 -->
<g id="edge13" class="edge"><title>cle.2&#45;&gt;pre.3</title>
<path fill="none" stroke="black" d="M418.556,-564.59C393.038,-552.319 360.293,-536.573 332.829,-523.366"/>
<polygon fill="black" stroke="black" points="334.265,-520.173 323.736,-518.993 331.231,-526.481 334.265,-520.173"/>
</g>
<!-- pre.2&#45;&gt;bak.2 -->
<g id="edge11" class="edge"><title>pre.2&#45;&gt;bak.2</title>
<path fill="none" stroke="black" d="M495.09,-742.547C501.921,-733.438 509.726,-723.032 516.983,-713.356"/>
<polygon fill="black" stroke="black" points="519.981,-715.192 523.181,-705.092 514.381,-710.992 519.981,-715.192"/>
</g>
<!-- mak.3 -->
<g id="node14" class="node"><title>mak.3</title>
<ellipse fill="none" stroke="black" cx="96" cy="-496" rx="77.112" ry="26.7407"/>
<text text-anchor="middle" x="96" y="-499.8" font-family="sans" font-size="14.00">make_dough</text>
<text text-anchor="middle" x="96" y="-484.8" font-family="sans" font-size="14.00">3</text>
</g>
<!-- pur.3&#45;&gt;mak.3 -->
<g id="edge15" class="edge"><title>pur.3&#45;&gt;mak.3</title>
<path fill="none" stroke="black" d="M126.331,-559.073C122.176,-550.569 117.488,-540.975 113.062,-531.918"/>
<polygon fill="black" stroke="black" points="116.113,-530.19 108.578,-522.742 109.824,-533.263 116.113,-530.19"/>
</g>
<!-- bak.3 -->
<g id="node15" class="node"><title>bak.3</title>
<ellipse fill="none" stroke="black" cx="211" cy="-406" rx="71.127" ry="26.7407"/>
<text text-anchor="middle" x="211" y="-409.8" font-family="sans" font-size="14.00">bake_bread</text>
<text text-anchor="middle" x="211" y="-394.8" font-family="sans" font-size="14.00">3</text>
</g>
<!-- mak.3&#45;&gt;bak.3 -->
<g id="edge16" class="edge"><title>mak.3&#45;&gt;bak.3</title>
<path fill="none" stroke="black" d="M127.121,-471.186C141.04,-460.535 157.592,-447.869 172.3,-436.614"/>
<polygon fill="black" stroke="black" points="174.438,-439.385 180.253,-430.528 170.184,-433.826 174.438,-439.385"/>
</g>
<!-- sel.3 -->
<g id="node16" class="node"><title>sel.3</title>
<ellipse fill="none" stroke="black" cx="145" cy="-313" rx="63.459" ry="26.7407"/>
<text text-anchor="middle" x="145" y="-316.8" font-family="sans" font-size="14.00">sell_bread</text>
<text text-anchor="middle" x="145" y="-301.8" font-family="sans" font-size="14.00">3</text>
</g>
<!-- bak.3&#45;&gt;sel.3 -->
<g id="edge17" class="edge"><title>bak.3&#45;&gt;sel.3</title>
<path fill="none" stroke="black" d="M192.615,-379.651C185.332,-369.609 176.858,-357.926 169.095,-347.222"/>
<polygon fill="black" stroke="black" points="171.762,-344.938 163.058,-338.898 166.096,-349.048 171.762,-344.938"/>
</g>
<!-- cle.3 -->
<g id="node17" class="node"><title>cle.3</title>
<ellipse fill="none" stroke="black" cx="296" cy="-313" rx="68.9457" ry="26.7407"/>
<text text-anchor="middle" x="296" y="-316.8" font-family="sans" font-size="14.00">clean_oven</text>
<text text-anchor="middle" x="296" y="-301.8" font-family="sans" font-size="14.00">3</text>
</g>
<!-- bak.3&#45;&gt;cle.3 -->
<g id="edge19" class="edge"><title>bak.3&#45;&gt;cle.3</title>
<path fill="none" stroke="black" d="M234.227,-380.134C244.051,-369.616 255.619,-357.231 266.072,-346.04"/>
<polygon fill="black" stroke="black" points="268.827,-348.218 273.096,-338.521 263.712,-343.44 268.827,-348.218"/>
</g>
<!-- pre.4 -->
<g id="node24" class="node"><title>pre.4</title>
<ellipse fill="none" stroke="black" cx="476" cy="-223" rx="86.4614" ry="26.7407"/>
<text text-anchor="middle" x="476" y="-226.8" font-family="sans" font-size="14.00">pre_heat_oven</text>
<text text-anchor="middle" x="476" y="-211.8" font-family="sans" font-size="14.00">4</text>
</g>
<!-- cle.3&#45;&gt;pre.4 -->
<g id="edge20" class="edge"><title>cle.3&#45;&gt;pre.4</title>
<path fill="none" stroke="black" d="M338.202,-291.368C363.113,-279.189 394.907,-263.646 421.676,-250.558"/>
<polygon fill="black" stroke="black" points="423.469,-253.578 430.916,-246.041 420.395,-247.289 423.469,-253.578"/>
</g>
<!-- pre.3&#45;&gt;bak.3 -->
<g id="edge18" class="edge"><title>pre.3&#45;&gt;bak.3</title>
<path fill="none" stroke="black" d="M258.621,-469.547C251.616,-460.346 243.603,-449.822 236.173,-440.063"/>
<polygon fill="black" stroke="black" points="238.947,-437.928 230.104,-432.092 233.377,-442.169 238.947,-437.928"/>
</g>
<!-- mak.4 -->
<g id="node20" class="node"><title>mak.4</title>
<ellipse fill="none" stroke="black" cx="658" cy="-223" rx="77.112" ry="26.7407"/>
<text text-anchor="middle" x="658" y="-226.8" font-family="sans" font-size="14.00">make_dough</text>
<text text-anchor="middle" x="658" y="-211.8" font-family="sans" font-size="14.00">4</text>
</g>
<!-- pur.4&#45;&gt;mak.4 -->
<g id="edge21" class="edge"><title>pur.4&#45;&gt;mak.4</title>
<path fill="none" stroke="black" d="M626.963,-286.073C631.215,-277.569 636.012,-267.975 640.541,-258.918"/>
<polygon fill="black" stroke="black" points="643.787,-260.251 645.129,-249.742 637.526,-257.121 643.787,-260.251"/>
</g>
<!-- bak.4 -->
<g id="node21" class="node"><title>bak.4</title>
<ellipse fill="none" stroke="black" cx="540" cy="-133" rx="71.127" ry="26.7407"/>
<text text-anchor="middle" x="540" y="-136.8" font-family="sans" font-size="14.00">bake_bread</text>
<text text-anchor="middle" x="540" y="-121.8" font-family="sans" font-size="14.00">4</text>
</g>
<!-- mak.4&#45;&gt;bak.4 -->
<g id="edge22" class="edge"><title>mak.4&#45;&gt;bak.4</title>
<path fill="none" stroke="black" d="M626.378,-198.418C611.978,-187.678 594.782,-174.854 579.538,-163.486"/>
<polygon fill="black" stroke="black" points="581.409,-160.515 571.3,-157.342 577.224,-166.126 581.409,-160.515"/>
</g>
<!-- sel.4 -->
<g id="node22" class="node"><title>sel.4</title>
<ellipse fill="none" stroke="black" cx="484" cy="-43" rx="63.459" ry="26.7407"/>
<text text-anchor="middle" x="484" y="-46.8" font-family="sans" font-size="14.00">sell_bread</text>
<text text-anchor="middle" x="484" y="-31.8" font-family="sans" font-size="14.00">4</text>
</g>
<!-- bak.4&#45;&gt;sel.4 -->
<g id="edge23" class="edge"><title>bak.4&#45;&gt;sel.4</title>
<path fill="none" stroke="black" d="M523.802,-106.547C518.065,-97.5303 511.518,-87.242 505.413,-77.6495"/>
<polygon fill="black" stroke="black" points="508.289,-75.6497 499.968,-69.0921 502.384,-79.4079 508.289,-75.6497"/>
</g>
<!-- cle.4 -->
<g id="node23" class="node"><title>cle.4</title>
<ellipse fill="none" stroke="black" cx="635" cy="-43" rx="68.9457" ry="26.7407"/>
<text text-anchor="middle" x="635" y="-46.8" font-family="sans" font-size="14.00">clean_oven</text>
<text text-anchor="middle" x="635" y="-31.8" font-family="sans" font-size="14.00">4</text>
</g>
<!-- bak.4&#45;&gt;cle.4 -->
<g id="edge25" class="edge"><title>bak.4&#45;&gt;cle.4</title>
<path fill="none" stroke="black" d="M565.959,-107.954C576.955,-97.7679 589.905,-85.7721 601.601,-74.9383"/>
<polygon fill="black" stroke="black" points="604.114,-77.3806 609.072,-68.0173 599.358,-72.2453 604.114,-77.3806"/>
</g>
<!-- pre.4&#45;&gt;bak.4 -->
<g id="edge24" class="edge"><title>pre.4&#45;&gt;bak.4</title>
<path fill="none" stroke="black" d="M494.511,-196.547C501.136,-187.438 508.704,-177.032 515.741,-167.356"/>
<polygon fill="black" stroke="black" points="518.7,-169.238 521.751,-159.092 513.039,-165.121 518.7,-169.238"/>
</g>
</g>
</svg>
