<?xml version="1.0" encoding="UTF-8" standalone="no"?>
<!DOCTYPE svg PUBLIC "-//W3C//DTD SVG 1.1//EN"
 "http://www.w3.org/Graphics/SVG/1.1/DTD/svg11.dtd">
<!-- Generated by graphviz version 2.30.1 (20170916.1124)
 -->
<!-- Title: example Pages: 1 -->
<svg width="200pt" height="360pt"
 viewBox="0.00 0.00 199.75 360.00" xmlns="http://www.w3.org/2000/svg" xmlns:xlink="http://www.w3.org/1999/xlink">
<g id="graph0" class="graph" transform="scale(0.745342 0.745342) rotate(0) translate(4 479)">
<title>example</title>
<polygon fill="none" stroke="none" points="-4,5 -4,-479 265,-479 265,5 -4,5"/>
<g id="clust1" class="cluster"><title>cluster_1</title>
<polygon fill="none" stroke="black" stroke-dasharray="5,2" points="8,-188 8,-467 84,-467 84,-188 8,-188"/>
<text text-anchor="middle" x="46" y="-451.8" font-family="sans" font-size="14.00">1</text>
</g>
<g id="clust2" class="cluster"><title>cluster_2</title>
<polygon fill="none" stroke="black" stroke-dasharray="5,2" points="92,-98 92,-374 168,-374 168,-98 92,-98"/>
<text text-anchor="middle" x="130" y="-358.8" font-family="sans" font-size="14.00">2</text>
</g>
<g id="clust3" class="cluster"><title>cluster_3</title>
<polygon fill="none" stroke="black" stroke-dasharray="5,2" points="176,-8 176,-281 252,-281 252,-8 176,-8"/>
<text text-anchor="middle" x="214" y="-265.8" font-family="sans" font-size="14.00">3</text>
</g>
<!-- foo.1 -->
<g id="node1" class="node"><title>foo.1</title>
<ellipse fill="none" stroke="black" cx="46" cy="-409" rx="27.9291" ry="26.7407"/>
<text text-anchor="middle" x="46" y="-412.8" font-family="sans" font-size="14.00">foo</text>
<text text-anchor="middle" x="46" y="-397.8" font-family="sans" font-size="14.00">1</text>
</g>
<!-- bar.1 -->
<g id="node2" class="node"><title>bar.1</title>
<ellipse fill="none" stroke="black" cx="46" cy="-316" rx="28.4872" ry="26.7407"/>
<text text-anchor="middle" x="46" y="-319.8" font-family="sans" font-size="14.00">bar</text>
<text text-anchor="middle" x="46" y="-304.8" font-family="sans" font-size="14.00">1</text>
</g>
<!-- foo.1&#45;&gt;bar.1 -->
<g id="edge1" class="edge"><title>foo.1&#45;&gt;bar.1</title>
<path fill="none" stroke="black" d="M46,-381.679C46,-372.736 46,-362.582 46,-353.015"/>
<polygon fill="black" stroke="black" points="49.5001,-352.948 46,-342.948 42.5001,-352.948 49.5001,-352.948"/>
</g>
<!-- baz.1 -->
<g id="node3" class="node"><title>baz.1</title>
<ellipse fill="none" stroke="black" cx="46" cy="-223" rx="29.5467" ry="26.7407"/>
<text text-anchor="middle" x="46" y="-226.8" font-family="sans" font-size="14.00">baz</text>
<text text-anchor="middle" x="46" y="-211.8" font-family="sans" font-size="14.00">1</text>
</g>
<!-- bar.1&#45;&gt;baz.1 -->
<g id="edge2" class="edge"><title>bar.1&#45;&gt;baz.1</title>
<path fill="none" stroke="black" d="M46,-288.679C46,-279.736 46,-269.582 46,-260.015"/>
<polygon fill="black" stroke="black" points="49.5001,-259.948 46,-249.948 42.5001,-259.948 49.5001,-259.948"/>
</g>
<!-- bar.2 -->
<g id="node5" class="node"><title>bar.2</title>
<ellipse fill="none" stroke="black" cx="130" cy="-223" rx="28.4872" ry="26.7407"/>
<text text-anchor="middle" x="130" y="-226.8" font-family="sans" font-size="14.00">bar</text>
<text text-anchor="middle" x="130" y="-211.8" font-family="sans" font-size="14.00">2</text>
</g>
<!-- bar.1&#45;&gt;bar.2 -->
<g id="edge7" class="edge"><title>bar.1&#45;&gt;bar.2</title>
<path fill="none" stroke="black" d="M68.2846,-298.7C74.9361,-293.386 82.0374,-287.24 88,-281 95.658,-272.985 103.132,-263.544 109.602,-254.676"/>
<polygon fill="black" stroke="black" points="112.533,-256.594 115.471,-246.414 106.827,-252.54 112.533,-256.594"/>
</g>
<!-- foo.2 -->
<g id="node4" class="node"><title>foo.2</title>
<ellipse fill="none" stroke="black" cx="130" cy="-316" rx="27.9291" ry="26.7407"/>
<text text-anchor="middle" x="130" y="-319.8" font-family="sans" font-size="14.00">foo</text>
<text text-anchor="middle" x="130" y="-304.8" font-family="sans" font-size="14.00">2</text>
</g>
<!-- foo.2&#45;&gt;bar.2 -->
<g id="edge3" class="edge"><title>foo.2&#45;&gt;bar.2</title>
<path fill="none" stroke="black" d="M130,-288.679C130,-279.736 130,-269.582 130,-260.015"/>
<polygon fill="black" stroke="black" points="133.5,-259.948 130,-249.948 126.5,-259.948 133.5,-259.948"/>
</g>
<!-- baz.2 -->
<g id="node6" class="node"><title>baz.2</title>
<ellipse fill="none" stroke="black" cx="130" cy="-133" rx="29.5467" ry="26.7407"/>
<text text-anchor="middle" x="130" y="-136.8" font-family="sans" font-size="14.00">baz</text>
<text text-anchor="middle" x="130" y="-121.8" font-family="sans" font-size="14.00">2</text>
</g>
<!-- bar.2&#45;&gt;baz.2 -->
<g id="edge4" class="edge"><title>bar.2&#45;&gt;baz.2</title>
<path fill="none" stroke="black" d="M130,-196.073C130,-187.999 130,-178.943 130,-170.296"/>
<polygon fill="black" stroke="black" points="133.5,-170.046 130,-160.046 126.5,-170.046 133.5,-170.046"/>
</g>
<!-- bar.3 -->
<g id="node8" class="node"><title>bar.3</title>
<ellipse fill="none" stroke="black" cx="213" cy="-133" rx="28.4872" ry="26.7407"/>
<text text-anchor="middle" x="213" y="-136.8" font-family="sans" font-size="14.00">bar</text>
<text text-anchor="middle" x="213" y="-121.8" font-family="sans" font-size="14.00">3</text>
</g>
<!-- bar.2&#45;&gt;bar.3 -->
<g id="edge8" class="edge"><title>bar.2&#45;&gt;bar.3</title>
<path fill="none" stroke="black" d="M148.42,-202.47C159.838,-190.364 174.674,-174.635 187.246,-161.305"/>
<polygon fill="black" stroke="black" points="190.029,-163.456 194.344,-153.78 184.937,-158.653 190.029,-163.456"/>
</g>
<!-- foo.3 -->
<g id="node7" class="node"><title>foo.3</title>
<ellipse fill="none" stroke="black" cx="213" cy="-223" rx="27.9291" ry="26.7407"/>
<text text-anchor="middle" x="213" y="-226.8" font-family="sans" font-size="14.00">foo</text>
<text text-anchor="middle" x="213" y="-211.8" font-family="sans" font-size="14.00">3</text>
</g>
<!-- foo.3&#45;&gt;bar.3 -->
<g id="edge5" class="edge"><title>foo.3&#45;&gt;bar.3</title>
<path fill="none" stroke="black" d="M213,-196.073C213,-187.999 213,-178.943 213,-170.296"/>
<polygon fill="black" stroke="black" points="216.5,-170.046 213,-160.046 209.5,-170.046 216.5,-170.046"/>
</g>
<!-- baz.3 -->
<g id="node9" class="node"><title>baz.3</title>
<ellipse fill="none" stroke="black" cx="214" cy="-43" rx="29.5467" ry="26.7407"/>
<text text-anchor="middle" x="214" y="-46.8" font-family="sans" font-size="14.00">baz</text>
<text text-anchor="middle" x="214" y="-31.8" font-family="sans" font-size="14.00">3</text>
</g>
<!-- bar.3&#45;&gt;baz.3 -->
<g id="edge6" class="edge"><title>bar.3&#45;&gt;baz.3</title>
<path fill="none" stroke="black" d="M213.295,-106.073C213.386,-97.9993 213.489,-88.9428 213.588,-80.2961"/>
<polygon fill="black" stroke="black" points="217.09,-80.0849 213.704,-70.0457 210.091,-80.0053 217.09,-80.0849"/>
</g>
</g>
</svg>
