<?xml version="1.0" encoding="UTF-8" standalone="no"?>
<!DOCTYPE svg PUBLIC "-//W3C//DTD SVG 1.1//EN"
 "http://www.w3.org/Graphics/SVG/1.1/DTD/svg11.dtd">
<!-- Generated by graphviz version 2.30.1 (20170916.1124)
 -->
<!-- Title: Example Pages: 1 -->
<svg width="504pt" height="221pt"
 viewBox="0.00 0.00 504.00 220.98" xmlns="http://www.w3.org/2000/svg" xmlns:xlink="http://www.w3.org/1999/xlink">
<g id="graph0" class="graph" transform="scale(0.849916 0.849916) rotate(0) translate(4 256)">
<title>Example</title>
<polygon fill="none" stroke="none" points="-4,5 -4,-256 590,-256 590,5 -4,5"/>
<!-- VEHICLE -->
<g id="node1" class="node"><title>VEHICLE</title>
<polygon fill="powderblue" stroke="royalblue" points="227.25,-252 150.75,-252 150.75,-216 227.25,-216 227.25,-252"/>
<text text-anchor="middle" x="189" y="-230.3" font-family="sans" font-size="14.00">VEHICLE</text>
</g>
<!-- AIR_VEHICLE -->
<g id="node2" class="node"><title>AIR_VEHICLE</title>
<polygon fill="powderblue" stroke="royalblue" points="108.25,-180 -0.25,-180 -0.25,-144 108.25,-144 108.25,-180"/>
<text text-anchor="middle" x="54" y="-158.3" font-family="sans" font-size="14.00">AIR_VEHICLE</text>
</g>
<!-- VEHICLE&#45;&gt;AIR_VEHICLE -->
<g id="edge1" class="edge"><title>VEHICLE&#45;&gt;AIR_VEHICLE</title>
<path fill="none" stroke="black" d="M155.975,-215.876C137.915,-206.512 115.355,-194.814 96.0486,-184.803"/>
<polygon fill="black" stroke="black" points="97.6403,-181.686 87.1517,-180.19 94.4181,-187.9 97.6403,-181.686"/>
</g>
<!-- LAND_VEHICLE -->
<g id="node3" class="node"><title>LAND_VEHICLE</title>
<polygon fill="powderblue" stroke="royalblue" points="251.25,-180 126.75,-180 126.75,-144 251.25,-144 251.25,-180"/>
<text text-anchor="middle" x="189" y="-158.3" font-family="sans" font-size="14.00">LAND_VEHICLE</text>
</g>
<!-- VEHICLE&#45;&gt;LAND_VEHICLE -->
<g id="edge3" class="edge"><title>VEHICLE&#45;&gt;LAND_VEHICLE</title>
<path fill="none" stroke="black" d="M189,-215.697C189,-207.983 189,-198.712 189,-190.112"/>
<polygon fill="black" stroke="black" points="192.5,-190.104 189,-180.104 185.5,-190.104 192.5,-190.104"/>
</g>
<!-- WATER_VEHICLE -->
<g id="node4" class="node"><title>WATER_VEHICLE</title>
<polygon fill="powderblue" stroke="royalblue" points="404.25,-180 269.75,-180 269.75,-144 404.25,-144 404.25,-180"/>
<text text-anchor="middle" x="337" y="-158.3" font-family="sans" font-size="14.00">WATER_VEHICLE</text>
</g>
<!-- VEHICLE&#45;&gt;WATER_VEHICLE -->
<g id="edge5" class="edge"><title>VEHICLE&#45;&gt;WATER_VEHICLE</title>
<path fill="none" stroke="black" d="M225.205,-215.876C245.258,-206.392 270.372,-194.513 291.714,-184.419"/>
<polygon fill="black" stroke="black" points="293.369,-187.508 300.913,-180.068 290.376,-181.18 293.369,-187.508"/>
</g>
<!-- HOVERCRAFT -->
<g id="node5" class="node"><title>HOVERCRAFT</title>
<polygon fill="powderblue" stroke="royalblue" points="258,-108 146,-108 146,-72 258,-72 258,-108"/>
<text text-anchor="middle" x="202" y="-86.3" font-family="sans" font-size="14.00">HOVERCRAFT</text>
</g>
<!-- AIR_VEHICLE&#45;&gt;HOVERCRAFT -->
<g id="edge2" class="edge"><title>AIR_VEHICLE&#45;&gt;HOVERCRAFT</title>
<path fill="none" stroke="black" d="M90.2049,-143.876C110.258,-134.392 135.372,-122.513 156.714,-112.419"/>
<polygon fill="black" stroke="black" points="158.369,-115.508 165.913,-108.068 155.376,-109.18 158.369,-115.508"/>
</g>
<!-- LAND_VEHICLE&#45;&gt;HOVERCRAFT -->
<g id="edge4" class="edge"><title>LAND_VEHICLE&#45;&gt;HOVERCRAFT</title>
<path fill="none" stroke="black" d="M192.213,-143.697C193.646,-135.983 195.368,-126.712 196.965,-118.112"/>
<polygon fill="black" stroke="black" points="200.439,-118.575 198.823,-108.104 193.556,-117.297 200.439,-118.575"/>
</g>
<!-- WATER_VEHICLE&#45;&gt;HOVERCRAFT -->
<g id="edge6" class="edge"><title>WATER_VEHICLE&#45;&gt;HOVERCRAFT</title>
<path fill="none" stroke="black" d="M303.975,-143.876C285.915,-134.512 263.355,-122.814 244.049,-112.803"/>
<polygon fill="black" stroke="black" points="245.64,-109.686 235.152,-108.19 242.418,-115.9 245.64,-109.686"/>
</g>
<!-- bht130 -->
<g id="node6" class="node"><title>bht130</title>
<polygon fill="powderblue" stroke="royalblue" points="356.25,-36 289.75,-36 289.75,-0 356.25,-0 356.25,-36"/>
<text text-anchor="middle" x="323" y="-14.3" font-family="sans" font-size="14.00">bht130</text>
</g>
<!-- HOVERCRAFT&#45;&gt;bht130 -->
<g id="edge7" class="edge"><title>HOVERCRAFT&#45;&gt;bht130</title>
<path fill="none" stroke="black" d="M231.6,-71.8761C247.567,-62.6388 267.46,-51.1308 284.606,-41.2116"/>
<polygon fill="black" stroke="black" points="286.383,-44.2269 293.286,-36.1898 282.878,-38.1678 286.383,-44.2269"/>
</g>
<!-- ENGINE -->
<g id="node7" class="node"><title>ENGINE</title>
<polygon fill="powderblue" stroke="royalblue" points="493.25,-180 422.75,-180 422.75,-144 493.25,-144 493.25,-180"/>
<text text-anchor="middle" x="458" y="-158.3" font-family="sans" font-size="14.00">ENGINE</text>
</g>
<!-- INTERNAL_COMBUSTION_ENGINE -->
<g id="node8" class="node"><title>INTERNAL_COMBUSTION_ENGINE</title>
<polygon fill="powderblue" stroke="royalblue" points="585.25,-108 302.75,-108 302.75,-72 585.25,-72 585.25,-108"/>
<text text-anchor="middle" x="444" y="-86.3" font-family="sans" font-size="14.00">INTERNAL_COMBUSTION_ENGINE</text>
</g>
<!-- ENGINE&#45;&gt;INTERNAL_COMBUSTION_ENGINE -->
<g id="edge8" class="edge"><title>ENGINE&#45;&gt;INTERNAL_COMBUSTION_ENGINE</title>
<path fill="none" stroke="black" d="M454.539,-143.697C452.997,-135.983 451.142,-126.712 449.422,-118.112"/>
<polygon fill="black" stroke="black" points="452.814,-117.224 447.421,-108.104 445.95,-118.597 452.814,-117.224"/>
</g>
<!-- INTERNAL_COMBUSTION_ENGINE&#45;&gt;bht130 -->
<g id="edge9" class="edge"><title>INTERNAL_COMBUSTION_ENGINE&#45;&gt;bht130</title>
<path fill="none" stroke="black" d="M414.4,-71.8761C398.433,-62.6388 378.54,-51.1308 361.394,-41.2116"/>
<polygon fill="black" stroke="black" points="363.122,-38.1678 352.714,-36.1898 359.617,-44.2269 363.122,-38.1678"/>
</g>
</g>
</svg>
