<?xml version="1.0" encoding="UTF-8" standalone="no"?>
<!DOCTYPE svg PUBLIC "-//W3C//DTD SVG 1.1//EN"
 "http://www.w3.org/Graphics/SVG/1.1/DTD/svg11.dtd">
<!-- Generated by graphviz version 2.30.1 (20170916.1124)
 -->
<!-- Title: example Pages: 1 -->
<svg width="504pt" height="94pt"
 viewBox="0.00 0.00 504.00 94.37" xmlns="http://www.w3.org/2000/svg" xmlns:xlink="http://www.w3.org/1999/xlink">
<g id="graph0" class="graph" transform="scale(0.501992 0.501992) rotate(0) translate(4 184)">
<title>example</title>
<polygon fill="none" stroke="none" points="-4,5 -4,-184 1001,-184 1001,5 -4,5"/>
<!-- get_observations_aldergrove -->
<g id="node1" class="node"><title>get_observations_aldergrove</title>
<ellipse fill="none" stroke="black" cx="139" cy="-162" rx="139.132" ry="18"/>
<text text-anchor="middle" x="139" y="-158.3" font-family="sans" font-size="14.00">get_observations_aldergrove</text>
</g>
<!-- consolidate_observations -->
<g id="node2" class="node"><title>consolidate_observations</title>
<ellipse fill="none" stroke="black" cx="399" cy="-18" rx="128.533" ry="18"/>
<text text-anchor="middle" x="399" y="-14.3" font-family="sans" font-size="14.00">consolidate_observations</text>
</g>
<!-- get_observations_aldergrove&#45;&gt;consolidate_observations -->
<g id="edge1" class="edge"><title>get_observations_aldergrove&#45;&gt;consolidate_observations</title>
<path fill="none" stroke="black" d="M162.908,-144.053C190.063,-125.197 236.057,-94.4358 278,-72 300.548,-59.9389 326.408,-48.33 348.418,-39.0674"/>
<polygon fill="black" stroke="black" points="350.026,-42.1894 357.914,-35.1156 347.336,-35.7268 350.026,-42.1894"/>
</g>
<!-- hidden -->
<!-- get_observations_aldergrove&#45;&gt;hidden -->
<!-- get_observations_camborne -->
<g id="node3" class="node"><title>get_observations_camborne</title>
<ellipse fill="none" stroke="black" cx="439" cy="-162" rx="142.481" ry="18"/>
<text text-anchor="middle" x="439" y="-158.3" font-family="sans" font-size="14.00">get_observations_camborne</text>
</g>
<!-- get_observations_camborne&#45;&gt;consolidate_observations -->
<g id="edge2" class="edge"><title>get_observations_camborne&#45;&gt;consolidate_observations</title>
<path fill="none" stroke="black" d="M431.251,-143.594C426.919,-133.376 421.669,-120.126 418,-108 411.833,-87.6164 406.893,-64.0247 403.597,-46.2539"/>
<polygon fill="black" stroke="black" points="407.018,-45.5013 401.806,-36.2773 400.128,-46.7385 407.018,-45.5013"/>
</g>
<!-- get_observations_camborne&#45;&gt;hidden -->
<!-- get_observations_heathrow -->
<g id="node4" class="node"><title>get_observations_heathrow</title>
<ellipse fill="none" stroke="black" cx="567" cy="-90" rx="139.606" ry="18"/>
<text text-anchor="middle" x="567" y="-86.3" font-family="sans" font-size="14.00">get_observations_heathrow</text>
</g>
<!-- get_observations_heathrow&#45;&gt;consolidate_observations -->
<g id="edge3" class="edge"><title>get_observations_heathrow&#45;&gt;consolidate_observations</title>
<path fill="none" stroke="black" d="M527.611,-72.5881C503.618,-62.5909 472.784,-49.7434 447.322,-39.1341"/>
<polygon fill="black" stroke="black" points="448.429,-35.8037 437.852,-35.1882 445.736,-42.2652 448.429,-35.8037"/>
</g>
<!-- get_observations_shetland -->
<g id="node5" class="node"><title>get_observations_shetland</title>
<ellipse fill="none" stroke="black" cx="861" cy="-90" rx="135.258" ry="18"/>
<text text-anchor="middle" x="861" y="-86.3" font-family="sans" font-size="14.00">get_observations_shetland</text>
</g>
<!-- get_observations_shetland&#45;&gt;consolidate_observations -->
<g id="edge4" class="edge"><title>get_observations_shetland&#45;&gt;consolidate_observations</title>
<path fill="none" stroke="black" d="M775.454,-76.0385C695.246,-63.8857 575.593,-45.7565 492.807,-33.2132"/>
<polygon fill="black" stroke="black" points="493.311,-29.7496 482.899,-31.712 492.262,-36.6706 493.311,-29.7496"/>
</g>
<!-- hidden&#45;&gt;consolidate_observations -->
</g>
</svg>
