<?xml version="1.0" encoding="UTF-8" standalone="no"?>
<!DOCTYPE svg PUBLIC "-//W3C//DTD SVG 1.1//EN"
 "http://www.w3.org/Graphics/SVG/1.1/DTD/svg11.dtd">
<!-- Generated by graphviz version 2.30.1 (20170916.1124)
 -->
<!-- Title: Example Pages: 1 -->
<svg width="504pt" height="151pt"
 viewBox="0.00 0.00 504.00 150.75" xmlns="http://www.w3.org/2000/svg" xmlns:xlink="http://www.w3.org/1999/xlink">
<g id="graph0" class="graph" transform="scale(0.454054 0.454054) rotate(0) translate(4 328)">
<title>Example</title>
<polygon fill="none" stroke="none" points="-4,5 -4,-328 1107,-328 1107,5 -4,5"/>
<!-- root -->
<g id="node1" class="node"><title>root</title>
<polygon fill="powderblue" stroke="royalblue" points="719,-324 665,-324 665,-288 719,-288 719,-324"/>
<text text-anchor="middle" x="692" y="-302.3" font-family="sans" font-size="14.00">root</text>
</g>
<!-- ENGINE -->
<g id="node2" class="node"><title>ENGINE</title>
<polygon fill="powderblue" stroke="royalblue" points="593.25,-180 522.75,-180 522.75,-144 593.25,-144 593.25,-180"/>
<text text-anchor="middle" x="558" y="-158.3" font-family="sans" font-size="14.00">ENGINE</text>
</g>
<!-- root&#45;&gt;ENGINE -->
<g id="edge1" class="edge"><title>root&#45;&gt;ENGINE</title>
<path fill="none" stroke="royalblue" d="M675.836,-287.871C652.294,-262.924 608.438,-216.45 581.377,-187.773"/>
<polygon fill="royalblue" stroke="royalblue" points="583.63,-185.06 574.221,-180.189 578.539,-189.864 583.63,-185.06"/>
</g>
<!-- VEHICLE -->
<g id="node3" class="node"><title>VEHICLE</title>
<polygon fill="powderblue" stroke="royalblue" points="774.25,-252 697.75,-252 697.75,-216 774.25,-216 774.25,-252"/>
<text text-anchor="middle" x="736" y="-230.3" font-family="sans" font-size="14.00">VEHICLE</text>
</g>
<!-- root&#45;&gt;VEHICLE -->
<g id="edge2" class="edge"><title>root&#45;&gt;VEHICLE</title>
<path fill="none" stroke="royalblue" d="M702.876,-287.697C707.992,-279.559 714.195,-269.689 719.845,-260.701"/>
<polygon fill="royalblue" stroke="royalblue" points="722.89,-262.433 725.249,-252.104 716.964,-258.708 722.89,-262.433"/>
</g>
<!-- INTERNAL_COMBUSTION_ENGINE -->
<g id="node4" class="node"><title>INTERNAL_COMBUSTION_ENGINE</title>
<polygon fill="powderblue" stroke="royalblue" points="699.25,-108 416.75,-108 416.75,-72 699.25,-72 699.25,-108"/>
<text text-anchor="middle" x="558" y="-86.3" font-family="sans" font-size="14.00">INTERNAL_COMBUSTION_ENGINE</text>
</g>
<!-- ENGINE&#45;&gt;INTERNAL_COMBUSTION_ENGINE -->
<g id="edge3" class="edge"><title>ENGINE&#45;&gt;INTERNAL_COMBUSTION_ENGINE</title>
<path fill="none" stroke="royalblue" d="M558,-143.697C558,-135.983 558,-126.712 558,-118.112"/>
<polygon fill="royalblue" stroke="royalblue" points="561.5,-118.104 558,-108.104 554.5,-118.104 561.5,-118.104"/>
</g>
<!-- TURBINE_ENGINE -->
<g id="node5" class="node"><title>TURBINE_ENGINE</title>
<polygon fill="powderblue" stroke="royalblue" points="170,-108 0,-108 0,-72 170,-72 170,-108"/>
<text text-anchor="middle" x="85" y="-86.3" font-family="sans" font-size="14.00">TURBINE_ENGINE</text>
</g>
<!-- ENGINE&#45;&gt;TURBINE_ENGINE -->
<g id="edge4" class="edge"><title>ENGINE&#45;&gt;TURBINE_ENGINE</title>
<path fill="none" stroke="royalblue" d="M522.66,-156.538C457.194,-148.167 312.415,-129.172 179.949,-108.119"/>
<polygon fill="royalblue" stroke="royalblue" points="180.455,-104.656 170.028,-106.535 179.351,-111.568 180.455,-104.656"/>
</g>
<!-- HUMAN_ENGINE -->
<g id="node6" class="node"><title>HUMAN_ENGINE</title>
<polygon fill="powderblue" stroke="royalblue" points="878,-108 718,-108 718,-72 878,-72 878,-108"/>
<text text-anchor="middle" x="798" y="-86.3" font-family="sans" font-size="14.00">HUMAN_ENGINE</text>
</g>
<!-- ENGINE&#45;&gt;HUMAN_ENGINE -->
<g id="edge5" class="edge"><title>ENGINE&#45;&gt;HUMAN_ENGINE</title>
<path fill="none" stroke="royalblue" d="M593.427,-146.946C596.314,-145.913 599.198,-144.917 602,-144 639.817,-131.619 682.394,-119.851 718.18,-110.564"/>
<polygon fill="royalblue" stroke="royalblue" points="719.274,-113.896 728.084,-108.011 717.527,-107.118 719.274,-113.896"/>
</g>
<!-- LAND_VEHICLE -->
<g id="node7" class="node"><title>LAND_VEHICLE</title>
<polygon fill="powderblue" stroke="royalblue" points="1016.25,-180 891.75,-180 891.75,-144 1016.25,-144 1016.25,-180"/>
<text text-anchor="middle" x="954" y="-158.3" font-family="sans" font-size="14.00">LAND_VEHICLE</text>
</g>
<!-- VEHICLE&#45;&gt;LAND_VEHICLE -->
<g id="edge6" class="edge"><title>VEHICLE&#45;&gt;LAND_VEHICLE</title>
<path fill="none" stroke="royalblue" d="M774.472,-220.647C806.675,-210.306 853.272,-195.344 890.923,-183.254"/>
<polygon fill="royalblue" stroke="royalblue" points="892.334,-186.477 900.786,-180.087 890.194,-179.812 892.334,-186.477"/>
</g>
<!-- WATER_VEHICLE -->
<g id="node8" class="node"><title>WATER_VEHICLE</title>
<polygon fill="powderblue" stroke="royalblue" points="873.25,-180 738.75,-180 738.75,-144 873.25,-144 873.25,-180"/>
<text text-anchor="middle" x="806" y="-158.3" font-family="sans" font-size="14.00">WATER_VEHICLE</text>
</g>
<!-- VEHICLE&#45;&gt;WATER_VEHICLE -->
<g id="edge7" class="edge"><title>VEHICLE&#45;&gt;WATER_VEHICLE</title>
<path fill="none" stroke="royalblue" d="M753.303,-215.697C761.865,-207.135 772.344,-196.656 781.696,-187.304"/>
<polygon fill="royalblue" stroke="royalblue" points="784.299,-189.65 788.896,-180.104 779.35,-184.701 784.299,-189.65"/>
</g>
<!-- AIR_VEHICLE -->
<g id="node9" class="node"><title>AIR_VEHICLE</title>
<polygon fill="powderblue" stroke="royalblue" points="720.25,-180 611.75,-180 611.75,-144 720.25,-144 720.25,-180"/>
<text text-anchor="middle" x="666" y="-158.3" font-family="sans" font-size="14.00">AIR_VEHICLE</text>
</g>
<!-- VEHICLE&#45;&gt;AIR_VEHICLE -->
<g id="edge8" class="edge"><title>VEHICLE&#45;&gt;AIR_VEHICLE</title>
<path fill="none" stroke="royalblue" d="M718.697,-215.697C710.135,-207.135 699.656,-196.656 690.304,-187.304"/>
<polygon fill="royalblue" stroke="royalblue" points="692.65,-184.701 683.104,-180.104 687.701,-189.65 692.65,-184.701"/>
</g>
<!-- r44 -->
<g id="node10" class="node"><title>r44</title>
<polygon fill="powderblue" stroke="royalblue" points="478,-36 424,-36 424,-0 478,-0 478,-36"/>
<text text-anchor="middle" x="451" y="-14.3" font-family="sans" font-size="14.00">r44</text>
</g>
<!-- INTERNAL_COMBUSTION_ENGINE&#45;&gt;r44 -->
<g id="edge9" class="edge"><title>INTERNAL_COMBUSTION_ENGINE&#45;&gt;r44</title>
<path fill="none" stroke="royalblue" d="M531.825,-71.8761C517.964,-62.8083 500.759,-51.5523 485.789,-41.7592"/>
<polygon fill="royalblue" stroke="royalblue" points="487.56,-38.7355 477.276,-36.1898 483.728,-44.5933 487.56,-38.7355"/>
</g>
<!-- bht130 -->
<g id="node11" class="node"><title>bht130</title>
<polygon fill="powderblue" stroke="royalblue" points="713.25,-36 646.75,-36 646.75,-0 713.25,-0 713.25,-36"/>
<text text-anchor="middle" x="680" y="-14.3" font-family="sans" font-size="14.00">bht130</text>
</g>
<!-- INTERNAL_COMBUSTION_ENGINE&#45;&gt;bht130 -->
<g id="edge10" class="edge"><title>INTERNAL_COMBUSTION_ENGINE&#45;&gt;bht130</title>
<path fill="none" stroke="royalblue" d="M587.845,-71.8761C603.944,-62.6388 624.001,-51.1308 641.288,-41.2116"/>
<polygon fill="royalblue" stroke="royalblue" points="643.109,-44.2023 650.041,-36.1898 639.625,-38.1307 643.109,-44.2023"/>
</g>
<!-- v22 -->
<g id="node12" class="node"><title>v22</title>
<polygon fill="powderblue" stroke="royalblue" points="258,-36 204,-36 204,-0 258,-0 258,-36"/>
<text text-anchor="middle" x="231" y="-14.3" font-family="sans" font-size="14.00">v22</text>
</g>
<!-- TURBINE_ENGINE&#45;&gt;v22 -->
<g id="edge11" class="edge"><title>TURBINE_ENGINE&#45;&gt;v22</title>
<path fill="none" stroke="royalblue" d="M120.716,-71.8761C143.171,-61.1096 172.061,-47.2583 194.639,-36.4334"/>
<polygon fill="royalblue" stroke="royalblue" points="196.387,-39.4767 203.891,-31.9973 193.361,-33.1646 196.387,-39.4767"/>
</g>
<!-- a380 -->
<g id="node13" class="node"><title>a380</title>
<polygon fill="powderblue" stroke="royalblue" points="149,-36 95,-36 95,-0 149,-0 149,-36"/>
<text text-anchor="middle" x="122" y="-14.3" font-family="sans" font-size="14.00">a380</text>
</g>
<!-- TURBINE_ENGINE&#45;&gt;a380 -->
<g id="edge12" class="edge"><title>TURBINE_ENGINE&#45;&gt;a380</title>
<path fill="none" stroke="royalblue" d="M94.1461,-71.6966C98.4026,-63.6436 103.556,-53.8945 108.266,-44.9824"/>
<polygon fill="royalblue" stroke="royalblue" points="111.38,-46.5809 112.959,-36.1043 105.192,-43.3097 111.38,-46.5809"/>
</g>
<!-- penny_farthing -->
<g id="node14" class="node"><title>penny_farthing</title>
<polygon fill="powderblue" stroke="royalblue" points="1007.25,-36 854.75,-36 854.75,-0 1007.25,-0 1007.25,-36"/>
<text text-anchor="middle" x="931" y="-14.3" font-family="sans" font-size="14.00">penny_farthing</text>
</g>
<!-- HUMAN_ENGINE&#45;&gt;penny_farthing -->
<g id="edge13" class="edge"><title>HUMAN_ENGINE&#45;&gt;penny_farthing</title>
<path fill="none" stroke="royalblue" d="M830.535,-71.8761C848.247,-62.5541 870.353,-50.9194 889.316,-40.939"/>
<polygon fill="royalblue" stroke="royalblue" points="891.12,-43.9445 898.339,-36.1898 887.86,-37.7501 891.12,-43.9445"/>
</g>
<!-- HOVERCRAFT -->
<g id="node17" class="node"><title>HOVERCRAFT</title>
<polygon fill="powderblue" stroke="royalblue" points="1008,-108 896,-108 896,-72 1008,-72 1008,-108"/>
<text text-anchor="middle" x="952" y="-86.3" font-family="sans" font-size="14.00">HOVERCRAFT</text>
</g>
<!-- LAND_VEHICLE&#45;&gt;HOVERCRAFT -->
<g id="edge19" class="edge"><title>LAND_VEHICLE&#45;&gt;HOVERCRAFT</title>
<path fill="none" stroke="royalblue" d="M953.506,-143.697C953.285,-135.983 953.02,-126.712 952.775,-118.112"/>
<polygon fill="royalblue" stroke="royalblue" points="956.273,-118 952.489,-108.104 949.276,-118.2 956.273,-118"/>
</g>
<!-- BICYCLE -->
<g id="node18" class="node"><title>BICYCLE</title>
<polygon fill="powderblue" stroke="royalblue" points="1102,-108 1026,-108 1026,-72 1102,-72 1102,-108"/>
<text text-anchor="middle" x="1064" y="-86.3" font-family="sans" font-size="14.00">BICYCLE</text>
</g>
<!-- LAND_VEHICLE&#45;&gt;BICYCLE -->
<g id="edge20" class="edge"><title>LAND_VEHICLE&#45;&gt;BICYCLE</title>
<path fill="none" stroke="royalblue" d="M980.909,-143.876C995.158,-134.808 1012.85,-123.552 1028.24,-113.759"/>
<polygon fill="royalblue" stroke="royalblue" points="1030.43,-116.511 1036.99,-108.19 1026.67,-110.606 1030.43,-116.511"/>
</g>
<!-- WATER_VEHICLE&#45;&gt;HOVERCRAFT -->
<g id="edge21" class="edge"><title>WATER_VEHICLE&#45;&gt;HOVERCRAFT</title>
<path fill="none" stroke="royalblue" d="M841.716,-143.876C861.497,-134.392 886.272,-122.513 907.326,-112.419"/>
<polygon fill="royalblue" stroke="royalblue" points="908.896,-115.548 916.4,-108.068 905.87,-109.236 908.896,-115.548"/>
</g>
<!-- AIRPLANE -->
<g id="node15" class="node"><title>AIRPLANE</title>
<polygon fill="powderblue" stroke="royalblue" points="274,-108 188,-108 188,-72 274,-72 274,-108"/>
<text text-anchor="middle" x="231" y="-86.3" font-family="sans" font-size="14.00">AIRPLANE</text>
</g>
<!-- AIR_VEHICLE&#45;&gt;AIRPLANE -->
<g id="edge22" class="edge"><title>AIR_VEHICLE&#45;&gt;AIRPLANE</title>
<path fill="none" stroke="royalblue" d="M611.657,-145.982C608.401,-145.264 605.163,-144.595 602,-144 464.933,-118.207 424.237,-137.418 284.053,-107.97"/>
<polygon fill="royalblue" stroke="royalblue" points="284.741,-104.539 274.23,-105.862 283.273,-111.383 284.741,-104.539"/>
</g>
<!-- HELICOPTER -->
<g id="node16" class="node"><title>HELICOPTER</title>
<polygon fill="powderblue" stroke="royalblue" points="398,-108 292,-108 292,-72 398,-72 398,-108"/>
<text text-anchor="middle" x="345" y="-86.3" font-family="sans" font-size="14.00">HELICOPTER</text>
</g>
<!-- AIR_VEHICLE&#45;&gt;HELICOPTER -->
<g id="edge23" class="edge"><title>AIR_VEHICLE&#45;&gt;HELICOPTER</title>
<path fill="none" stroke="royalblue" d="M611.603,-146.245C608.36,-145.461 605.141,-144.706 602,-144 519.121,-125.371 494.66,-127.483 408.035,-108.127"/>
<polygon fill="royalblue" stroke="royalblue" points="408.551,-104.656 398.025,-105.858 407.003,-111.482 408.551,-104.656"/>
</g>
<!-- AIR_VEHICLE&#45;&gt;HOVERCRAFT -->
<g id="edge24" class="edge"><title>AIR_VEHICLE&#45;&gt;HOVERCRAFT</title>
<path fill="none" stroke="royalblue" d="M720.261,-146.212C723.214,-145.453 726.142,-144.711 729,-144 795.889,-127.362 815.386,-125.272 885.849,-108.24"/>
<polygon fill="royalblue" stroke="royalblue" points="886.769,-111.618 895.658,-105.853 885.114,-104.817 886.769,-111.618"/>
</g>
<!-- AIRPLANE&#45;&gt;v22 -->
<g id="edge14" class="edge"><title>AIRPLANE&#45;&gt;v22</title>
<path fill="none" stroke="royalblue" d="M231,-71.6966C231,-63.9827 231,-54.7125 231,-46.1124"/>
<polygon fill="royalblue" stroke="royalblue" points="234.5,-46.1043 231,-36.1043 227.5,-46.1044 234.5,-46.1043"/>
</g>
<!-- AIRPLANE&#45;&gt;a380 -->
<g id="edge15" class="edge"><title>AIRPLANE&#45;&gt;a380</title>
<path fill="none" stroke="royalblue" d="M204.336,-71.8761C190.216,-62.8083 172.689,-51.5523 157.439,-41.7592"/>
<polygon fill="royalblue" stroke="royalblue" points="159.073,-38.6485 148.767,-36.1898 155.29,-44.5385 159.073,-38.6485"/>
</g>
<!-- HELICOPTER&#45;&gt;v22 -->
<g id="edge16" class="edge"><title>HELICOPTER&#45;&gt;v22</title>
<path fill="none" stroke="royalblue" d="M317.112,-71.8761C301.984,-62.587 283.117,-51.0015 266.901,-41.0447"/>
<polygon fill="royalblue" stroke="royalblue" points="268.559,-37.9557 258.206,-35.7056 264.897,-43.9209 268.559,-37.9557"/>
</g>
<!-- HELICOPTER&#45;&gt;r44 -->
<g id="edge17" class="edge"><title>HELICOPTER&#45;&gt;r44</title>
<path fill="none" stroke="royalblue" d="M370.931,-71.8761C384.662,-62.8083 401.706,-51.5523 416.536,-41.7592"/>
<polygon fill="royalblue" stroke="royalblue" points="418.554,-44.621 424.97,-36.1898 414.696,-38.7798 418.554,-44.621"/>
</g>
<!-- HOVERCRAFT&#45;&gt;bht130 -->
<g id="edge18" class="edge"><title>HOVERCRAFT&#45;&gt;bht130</title>
<path fill="none" stroke="royalblue" d="M895.985,-74.3303C892.946,-73.5406 889.936,-72.7598 887,-72 830.431,-57.3608 765.109,-40.6717 723.221,-29.9972"/>
<polygon fill="royalblue" stroke="royalblue" points="723.91,-26.5611 713.356,-27.484 722.182,-33.3444 723.91,-26.5611"/>
</g>
<!-- BICYCLE&#45;&gt;penny_farthing -->
<g id="edge25" class="edge"><title>BICYCLE&#45;&gt;penny_farthing</title>
<path fill="none" stroke="royalblue" d="M1031.46,-71.8761C1013.75,-62.5541 991.647,-50.9194 972.684,-40.939"/>
<polygon fill="royalblue" stroke="royalblue" points="974.14,-37.7501 963.661,-36.1898 970.88,-43.9445 974.14,-37.7501"/>
</g>
</g>
</svg>
