<?xml version="1.0" encoding="UTF-8" standalone="no"?>
<!DOCTYPE svg PUBLIC "-//W3C//DTD SVG 1.1//EN"
 "http://www.w3.org/Graphics/SVG/1.1/DTD/svg11.dtd">
<!-- Generated by graphviz version 2.30.1 (20170916.1124)
 -->
<!-- Title: example Pages: 1 -->
<svg width="504pt" height="84pt"
 viewBox="0.00 0.00 504.00 84.00" xmlns="http://www.w3.org/2000/svg" xmlns:xlink="http://www.w3.org/1999/xlink">
<g id="graph0" class="graph" transform="scale(0.405797 0.405797) rotate(0) translate(4 203)">
<title>example</title>
<polygon fill="none" stroke="none" points="-4,5 -4,-203 1239,-203 1239,5 -4,5"/>
<g id="clust1" class="cluster"><title>cluster_1</title>
<polygon fill="none" stroke="black" stroke-dasharray="5,2" points="8,-8 8,-191 489,-191 489,-8 8,-8"/>
<text text-anchor="middle" x="248.5" y="-175.8" font-family="sans" font-size="14.00">2000&#45;01&#45;01T00:00Z</text>
</g>
<g id="clust2" class="cluster"><title>cluster_2</title>
<polygon fill="none" stroke="black" stroke-dasharray="5,2" points="497,-98 497,-191 737,-191 737,-98 497,-98"/>
<text text-anchor="middle" x="617" y="-175.8" font-family="sans" font-size="14.00">2000&#45;01&#45;01T12:00Z</text>
</g>
<g id="clust3" class="cluster"><title>cluster_3</title>
<polygon fill="none" stroke="black" stroke-dasharray="5,2" points="745,-8 745,-191 1226,-191 1226,-8 745,-8"/>
<text text-anchor="middle" x="985.5" y="-175.8" font-family="sans" font-size="14.00">2000&#45;01&#45;02T00:00Z</text>
</g>
<!-- foo.01T00 -->
<g id="node1" class="node"><title>foo.01T00</title>
<ellipse fill="none" stroke="black" cx="369" cy="-133" rx="111.584" ry="26.7407"/>
<text text-anchor="middle" x="369" y="-136.8" font-family="sans" font-size="14.00">foo</text>
<text text-anchor="middle" x="369" y="-121.8" font-family="sans" font-size="14.00">2000&#45;01&#45;01T00:00Z</text>
</g>
<!-- bar.01T00 -->
<g id="node2" class="node"><title>bar.01T00</title>
<ellipse fill="none" stroke="black" cx="369" cy="-43" rx="111.584" ry="26.7407"/>
<text text-anchor="middle" x="369" y="-46.8" font-family="sans" font-size="14.00">bar</text>
<text text-anchor="middle" x="369" y="-31.8" font-family="sans" font-size="14.00">2000&#45;01&#45;01T00:00Z</text>
</g>
<!-- foo.01T00&#45;&gt;bar.01T00 -->
<g id="edge1" class="edge"><title>foo.01T00&#45;&gt;bar.01T00</title>
<path fill="none" stroke="black" d="M369,-106.073C369,-97.9993 369,-88.9428 369,-80.2961"/>
<polygon fill="black" stroke="black" points="372.5,-80.0457 369,-70.0457 365.5,-80.0458 372.5,-80.0457"/>
</g>
<!-- baz.01T00 -->
<g id="node3" class="node"><title>baz.01T00</title>
<ellipse fill="none" stroke="black" cx="128" cy="-133" rx="111.584" ry="26.7407"/>
<text text-anchor="middle" x="128" y="-136.8" font-family="sans" font-size="14.00">baz</text>
<text text-anchor="middle" x="128" y="-121.8" font-family="sans" font-size="14.00">2000&#45;01&#45;01T00:00Z</text>
</g>
<!-- baz.01T12 -->
<g id="node4" class="node"><title>baz.01T12</title>
<ellipse fill="none" stroke="black" cx="617" cy="-133" rx="111.584" ry="26.7407"/>
<text text-anchor="middle" x="617" y="-136.8" font-family="sans" font-size="14.00">baz</text>
<text text-anchor="middle" x="617" y="-121.8" font-family="sans" font-size="14.00">2000&#45;01&#45;01T12:00Z</text>
</g>
<!-- foo.02T00 -->
<g id="node5" class="node"><title>foo.02T00</title>
<ellipse fill="none" stroke="black" cx="1106" cy="-133" rx="111.584" ry="26.7407"/>
<text text-anchor="middle" x="1106" y="-136.8" font-family="sans" font-size="14.00">foo</text>
<text text-anchor="middle" x="1106" y="-121.8" font-family="sans" font-size="14.00">2000&#45;01&#45;02T00:00Z</text>
</g>
<!-- bar.02T00 -->
<g id="node6" class="node"><title>bar.02T00</title>
<ellipse fill="none" stroke="black" cx="1106" cy="-43" rx="111.584" ry="26.7407"/>
<text text-anchor="middle" x="1106" y="-46.8" font-family="sans" font-size="14.00">bar</text>
<text text-anchor="middle" x="1106" y="-31.8" font-family="sans" font-size="14.00">2000&#45;01&#45;02T00:00Z</text>
</g>
<!-- foo.02T00&#45;&gt;bar.02T00 -->
<g id="edge2" class="edge"><title>foo.02T00&#45;&gt;bar.02T00</title>
<path fill="none" stroke="black" d="M1106,-106.073C1106,-97.9993 1106,-88.9428 1106,-80.2961"/>
<polygon fill="black" stroke="black" points="1109.5,-80.0457 1106,-70.0457 1102.5,-80.0458 1109.5,-80.0457"/>
</g>
<!-- baz.02T00 -->
<g id="node7" class="node"><title>baz.02T00</title>
<ellipse fill="none" stroke="black" cx="865" cy="-133" rx="111.584" ry="26.7407"/>
<text text-anchor="middle" x="865" y="-136.8" font-family="sans" font-size="14.00">baz</text>
<text text-anchor="middle" x="865" y="-121.8" font-family="sans" font-size="14.00">2000&#45;01&#45;02T00:00Z</text>
</g>
</g>
</svg>
