<?xml version="1.0" encoding="UTF-8" standalone="no"?>
<!DOCTYPE svg PUBLIC "-//W3C//DTD SVG 1.1//EN"
 "http://www.w3.org/Graphics/SVG/1.1/DTD/svg11.dtd">
<!-- Generated by graphviz version 2.30.1 (20170916.1124)
 -->
<!-- Title: Example Pages: 1 -->
<svg width="154pt" height="242pt"
 viewBox="0.00 0.00 154.00 242.00" xmlns="http://www.w3.org/2000/svg" xmlns:xlink="http://www.w3.org/1999/xlink">
<g id="graph0" class="graph" transform="scale(1 1) rotate(0) translate(4 238)">
<title>Example</title>
<polygon fill="none" stroke="none" points="-4,5 -4,-238 151,-238 151,5 -4,5"/>
<g id="clust1" class="cluster"><title>cluster_1</title>
<polygon fill="none" stroke="orange" stroke-dasharray="5,2" points="64,-8 64,-98 138,-98 138,-8 64,-8"/>
<text text-anchor="middle" x="101" y="-30.8" font-family="sans" font-size="14.00" fill="orange">Faulty</text>
<text text-anchor="middle" x="101" y="-15.8" font-family="sans" font-size="14.00" fill="orange">Task</text>
</g>
<!-- pub -->
<g id="node1" class="node"><title>pub</title>
<ellipse fill="none" stroke="black" cx="101" cy="-72" rx="28.3955" ry="18"/>
<text text-anchor="middle" x="101" y="-68.3" font-family="sans" font-size="14.00">pub</text>
</g>
<!-- foo -->
<g id="node2" class="node"><title>foo</title>
<ellipse fill="none" stroke="black" cx="64" cy="-216" rx="27" ry="18"/>
<text text-anchor="middle" x="64" y="-212.3" font-family="sans" font-size="14.00">foo</text>
</g>
<!-- bar -->
<g id="node3" class="node"><title>bar</title>
<ellipse fill="none" stroke="black" cx="64" cy="-144" rx="27" ry="18"/>
<text text-anchor="middle" x="64" y="-140.3" font-family="sans" font-size="14.00">bar</text>
</g>
<!-- foo&#45;&gt;bar -->
<g id="edge1" class="edge"><title>foo&#45;&gt;bar</title>
<path fill="none" stroke="black" d="M64,-197.697C64,-189.983 64,-180.712 64,-172.112"/>
<polygon fill="black" stroke="black" points="67.5001,-172.104 64,-162.104 60.5001,-172.104 67.5001,-172.104"/>
</g>
<!-- baz -->
<g id="node4" class="node"><title>baz</title>
<ellipse fill="none" stroke="black" cx="27" cy="-72" rx="26.949" ry="18"/>
<text text-anchor="middle" x="27" y="-68.3" font-family="sans" font-size="14.00">baz</text>
</g>
<!-- bar&#45;&gt;baz -->
<g id="edge2" class="edge"><title>bar&#45;&gt;baz</title>
<path fill="none" stroke="black" d="M55.4185,-126.765C50.9354,-118.283 45.349,-107.714 40.3186,-98.1974"/>
<polygon fill="black" stroke="black" points="43.3025,-96.3527 35.535,-89.1473 37.1138,-99.6239 43.3025,-96.3527"/>
</g>
<!-- bar&#45;&gt;pub -->
<g id="edge3" class="edge"><title>bar&#45;&gt;pub</title>
<path fill="none" stroke="black" d="M72.5815,-126.765C77.0006,-118.404 82.4916,-108.016 87.4654,-98.6059"/>
<polygon fill="black" stroke="black" points="90.6293,-100.11 92.2081,-89.6334 84.4406,-96.8388 90.6293,-100.11"/>
</g>
</g>
</svg>
