<?xml version="1.0" encoding="UTF-8" standalone="no"?>
<!DOCTYPE svg PUBLIC "-//W3C//DTD SVG 1.1//EN"
 "http://www.w3.org/Graphics/SVG/1.1/DTD/svg11.dtd">
<!-- Generated by graphviz version 2.30.1 (20170916.1124)
 -->
<!-- Title: example Pages: 1 -->
<svg width="504pt" height="173pt"
 viewBox="0.00 0.00 504.00 173.22" xmlns="http://www.w3.org/2000/svg" xmlns:xlink="http://www.w3.org/1999/xlink">
<g id="graph0" class="graph" transform="scale(0.447602 0.447602) rotate(0) translate(4 383)">
<title>example</title>
<polygon fill="none" stroke="none" points="-4,5 -4,-383 1123,-383 1123,5 -4,5"/>
<g id="clust1" class="cluster"><title>cluster_1</title>
<polygon fill="none" stroke="black" stroke-dasharray="5,2" points="8,-8 8,-371 370,-371 370,-8 8,-8"/>
<text text-anchor="middle" x="189" y="-355.8" font-family="sans" font-size="14.00">1</text>
</g>
<g id="clust2" class="cluster"><title>cluster_2</title>
<polygon fill="none" stroke="black" stroke-dasharray="5,2" points="378,-8 378,-371 740,-371 740,-8 378,-8"/>
<text text-anchor="middle" x="559" y="-355.8" font-family="sans" font-size="14.00">2</text>
</g>
<g id="clust3" class="cluster"><title>cluster_3</title>
<polygon fill="none" stroke="black" stroke-dasharray="5,2" points="748,-8 748,-371 1110,-371 1110,-8 748,-8"/>
<text text-anchor="middle" x="929" y="-355.8" font-family="sans" font-size="14.00">3</text>
</g>
<!-- pur.1 -->
<g id="node1" class="node"><title>pur.1</title>
<ellipse fill="none" stroke="black" cx="242" cy="-313" rx="120.312" ry="26.7407"/>
<text text-anchor="middle" x="242" y="-316.8" font-family="sans" font-size="14.00">purchase_ingredients</text>
<text text-anchor="middle" x="242" y="-301.8" font-family="sans" font-size="14.00">1</text>
</g>
<!-- mak.1 -->
<g id="node2" class="node"><title>mak.1</title>
<ellipse fill="none" stroke="black" cx="285" cy="-223" rx="77.112" ry="26.7407"/>
<text text-anchor="middle" x="285" y="-226.8" font-family="sans" font-size="14.00">make_dough</text>
<text text-anchor="middle" x="285" y="-211.8" font-family="sans" font-size="14.00">1</text>
</g>
<!-- pur.1&#45;&gt;mak.1 -->
<g id="edge1" class="edge"><title>pur.1&#45;&gt;mak.1</title>
<path fill="none" stroke="black" d="M254.669,-286.073C258.824,-277.569 263.512,-267.975 267.938,-258.918"/>
<polygon fill="black" stroke="black" points="271.176,-260.263 272.422,-249.742 264.887,-257.19 271.176,-260.263"/>
</g>
<!-- bak.1 -->
<g id="node3" class="node"><title>bak.1</title>
<ellipse fill="none" stroke="black" cx="167" cy="-133" rx="71.127" ry="26.7407"/>
<text text-anchor="middle" x="167" y="-136.8" font-family="sans" font-size="14.00">bake_bread</text>
<text text-anchor="middle" x="167" y="-121.8" font-family="sans" font-size="14.00">1</text>
</g>
<!-- mak.1&#45;&gt;bak.1 -->
<g id="edge2" class="edge"><title>mak.1&#45;&gt;bak.1</title>
<path fill="none" stroke="black" d="M253.378,-198.418C238.978,-187.678 221.782,-174.854 206.538,-163.486"/>
<polygon fill="black" stroke="black" points="208.409,-160.515 198.3,-157.342 204.224,-166.126 208.409,-160.515"/>
</g>
<!-- sel.1 -->
<g id="node4" class="node"><title>sel.1</title>
<ellipse fill="none" stroke="black" cx="111" cy="-43" rx="63.459" ry="26.7407"/>
<text text-anchor="middle" x="111" y="-46.8" font-family="sans" font-size="14.00">sell_bread</text>
<text text-anchor="middle" x="111" y="-31.8" font-family="sans" font-size="14.00">1</text>
</g>
<!-- bak.1&#45;&gt;sel.1 -->
<g id="edge3" class="edge"><title>bak.1&#45;&gt;sel.1</title>
<path fill="none" stroke="black" d="M150.802,-106.547C145.065,-97.5303 138.518,-87.242 132.413,-77.6495"/>
<polygon fill="black" stroke="black" points="135.289,-75.6497 126.968,-69.0921 129.384,-79.4079 135.289,-75.6497"/>
</g>
<!-- cle.1 -->
<g id="node5" class="node"><title>cle.1</title>
<ellipse fill="none" stroke="black" cx="262" cy="-43" rx="68.9457" ry="26.7407"/>
<text text-anchor="middle" x="262" y="-46.8" font-family="sans" font-size="14.00">clean_oven</text>
<text text-anchor="middle" x="262" y="-31.8" font-family="sans" font-size="14.00">1</text>
</g>
<!-- bak.1&#45;&gt;cle.1 -->
<g id="edge5" class="edge"><title>bak.1&#45;&gt;cle.1</title>
<path fill="none" stroke="black" d="M192.959,-107.954C203.955,-97.7679 216.905,-85.7721 228.601,-74.9383"/>
<polygon fill="black" stroke="black" points="231.114,-77.3806 236.072,-68.0173 226.358,-72.2453 231.114,-77.3806"/>
</g>
<!-- pre.1 -->
<g id="node6" class="node"><title>pre.1</title>
<ellipse fill="none" stroke="black" cx="103" cy="-223" rx="86.4614" ry="26.7407"/>
<text text-anchor="middle" x="103" y="-226.8" font-family="sans" font-size="14.00">pre_heat_oven</text>
<text text-anchor="middle" x="103" y="-211.8" font-family="sans" font-size="14.00">1</text>
</g>
<!-- pre.1&#45;&gt;bak.1 -->
<g id="edge4" class="edge"><title>pre.1&#45;&gt;bak.1</title>
<path fill="none" stroke="black" d="M121.511,-196.547C128.136,-187.438 135.704,-177.032 142.741,-167.356"/>
<polygon fill="black" stroke="black" points="145.7,-169.238 148.751,-159.092 140.039,-165.121 145.7,-169.238"/>
</g>
<!-- pur.2 -->
<g id="node7" class="node"><title>pur.2</title>
<ellipse fill="none" stroke="black" cx="612" cy="-313" rx="120.312" ry="26.7407"/>
<text text-anchor="middle" x="612" y="-316.8" font-family="sans" font-size="14.00">purchase_ingredients</text>
<text text-anchor="middle" x="612" y="-301.8" font-family="sans" font-size="14.00">2</text>
</g>
<!-- mak.2 -->
<g id="node8" class="node"><title>mak.2</title>
<ellipse fill="none" stroke="black" cx="655" cy="-223" rx="77.112" ry="26.7407"/>
<text text-anchor="middle" x="655" y="-226.8" font-family="sans" font-size="14.00">make_dough</text>
<text text-anchor="middle" x="655" y="-211.8" font-family="sans" font-size="14.00">2</text>
</g>
<!-- pur.2&#45;&gt;mak.2 -->
<g id="edge6" class="edge"><title>pur.2&#45;&gt;mak.2</title>
<path fill="none" stroke="black" d="M624.669,-286.073C628.824,-277.569 633.512,-267.975 637.938,-258.918"/>
<polygon fill="black" stroke="black" points="641.176,-260.263 642.422,-249.742 634.887,-257.19 641.176,-260.263"/>
</g>
<!-- bak.2 -->
<g id="node9" class="node"><title>bak.2</title>
<ellipse fill="none" stroke="black" cx="537" cy="-133" rx="71.127" ry="26.7407"/>
<text text-anchor="middle" x="537" y="-136.8" font-family="sans" font-size="14.00">bake_bread</text>
<text text-anchor="middle" x="537" y="-121.8" font-family="sans" font-size="14.00">2</text>
</g>
<!-- mak.2&#45;&gt;bak.2 -->
<g id="edge7" class="edge"><title>mak.2&#45;&gt;bak.2</title>
<path fill="none" stroke="black" d="M623.378,-198.418C608.978,-187.678 591.782,-174.854 576.538,-163.486"/>
<polygon fill="black" stroke="black" points="578.409,-160.515 568.3,-157.342 574.224,-166.126 578.409,-160.515"/>
</g>
<!-- sel.2 -->
<g id="node10" class="node"><title>sel.2</title>
<ellipse fill="none" stroke="black" cx="481" cy="-43" rx="63.459" ry="26.7407"/>
<text text-anchor="middle" x="481" y="-46.8" font-family="sans" font-size="14.00">sell_bread</text>
<text text-anchor="middle" x="481" y="-31.8" font-family="sans" font-size="14.00">2</text>
</g>
<!-- bak.2&#45;&gt;sel.2 -->
<g id="edge8" class="edge"><title>bak.2&#45;&gt;sel.2</title>
<path fill="none" stroke="black" d="M520.802,-106.547C515.065,-97.5303 508.518,-87.242 502.413,-77.6495"/>
<polygon fill="black" stroke="black" points="505.289,-75.6497 496.968,-69.0921 499.384,-79.4079 505.289,-75.6497"/>
</g>
<!-- cle.2 -->
<g id="node11" class="node"><title>cle.2</title>
<ellipse fill="none" stroke="black" cx="632" cy="-43" rx="68.9457" ry="26.7407"/>
<text text-anchor="middle" x="632" y="-46.8" font-family="sans" font-size="14.00">clean_oven</text>
<text text-anchor="middle" x="632" y="-31.8" font-family="sans" font-size="14.00">2</text>
</g>
<!-- bak.2&#45;&gt;cle.2 -->
<g id="edge10" class="edge"><title>bak.2&#45;&gt;cle.2</title>
<path fill="none" stroke="black" d="M562.959,-107.954C573.955,-97.7679 586.905,-85.7721 598.601,-74.9383"/>
<polygon fill="black" stroke="black" points="601.114,-77.3806 606.072,-68.0173 596.358,-72.2453 601.114,-77.3806"/>
</g>
<!-- pre.2 -->
<g id="node12" class="node"><title>pre.2</title>
<ellipse fill="none" stroke="black" cx="473" cy="-223" rx="86.4614" ry="26.7407"/>
<text text-anchor="middle" x="473" y="-226.8" font-family="sans" font-size="14.00">pre_heat_oven</text>
<text text-anchor="middle" x="473" y="-211.8" font-family="sans" font-size="14.00">2</text>
</g>
<!-- pre.2&#45;&gt;bak.2 -->
<g id="edge9" class="edge"><title>pre.2&#45;&gt;bak.2</title>
<path fill="none" stroke="black" d="M491.511,-196.547C498.136,-187.438 505.704,-177.032 512.741,-167.356"/>
<polygon fill="black" stroke="black" points="515.7,-169.238 518.751,-159.092 510.039,-165.121 515.7,-169.238"/>
</g>
<!-- pur.3 -->
<g id="node13" class="node"><title>pur.3</title>
<ellipse fill="none" stroke="black" cx="982" cy="-313" rx="120.312" ry="26.7407"/>
<text text-anchor="middle" x="982" y="-316.8" font-family="sans" font-size="14.00">purchase_ingredients</text>
<text text-anchor="middle" x="982" y="-301.8" font-family="sans" font-size="14.00">3</text>
</g>
<!-- mak.3 -->
<g id="node14" class="node"><title>mak.3</title>
<ellipse fill="none" stroke="black" cx="1025" cy="-223" rx="77.112" ry="26.7407"/>
<text text-anchor="middle" x="1025" y="-226.8" font-family="sans" font-size="14.00">make_dough</text>
<text text-anchor="middle" x="1025" y="-211.8" font-family="sans" font-size="14.00">3</text>
</g>
<!-- pur.3&#45;&gt;mak.3 -->
<g id="edge11" class="edge"><title>pur.3&#45;&gt;mak.3</title>
<path fill="none" stroke="black" d="M994.669,-286.073C998.824,-277.569 1003.51,-267.975 1007.94,-258.918"/>
<polygon fill="black" stroke="black" points="1011.18,-260.263 1012.42,-249.742 1004.89,-257.19 1011.18,-260.263"/>
</g>
<!-- bak.3 -->
<g id="node15" class="node"><title>bak.3</title>
<ellipse fill="none" stroke="black" cx="907" cy="-133" rx="71.127" ry="26.7407"/>
<text text-anchor="middle" x="907" y="-136.8" font-family="sans" font-size="14.00">bake_bread</text>
<text text-anchor="middle" x="907" y="-121.8" font-family="sans" font-size="14.00">3</text>
</g>
<!-- mak.3&#45;&gt;bak.3 -->
<g id="edge12" class="edge"><title>mak.3&#45;&gt;bak.3</title>
<path fill="none" stroke="black" d="M993.378,-198.418C978.978,-187.678 961.782,-174.854 946.538,-163.486"/>
<polygon fill="black" stroke="black" points="948.409,-160.515 938.3,-157.342 944.224,-166.126 948.409,-160.515"/>
</g>
<!-- sel.3 -->
<g id="node16" class="node"><title>sel.3</title>
<ellipse fill="none" stroke="black" cx="851" cy="-43" rx="63.459" ry="26.7407"/>
<text text-anchor="middle" x="851" y="-46.8" font-family="sans" font-size="14.00">sell_bread</text>
<text text-anchor="middle" x="851" y="-31.8" font-family="sans" font-size="14.00">3</text>
</g>
<!-- bak.3&#45;&gt;sel.3 -->
<g id="edge13" class="edge"><title>bak.3&#45;&gt;sel.3</title>
<path fill="none" stroke="black" d="M890.802,-106.547C885.065,-97.5303 878.518,-87.242 872.413,-77.6495"/>
<polygon fill="black" stroke="black" points="875.289,-75.6497 866.968,-69.0921 869.384,-79.4079 875.289,-75.6497"/>
</g>
<!-- cle.3 -->
<g id="node17" class="node"><title>cle.3</title>
<ellipse fill="none" stroke="black" cx="1002" cy="-43" rx="68.9457" ry="26.7407"/>
<text text-anchor="middle" x="1002" y="-46.8" font-family="sans" font-size="14.00">clean_oven</text>
<text text-anchor="middle" x="1002" y="-31.8" font-family="sans" font-size="14.00">3</text>
</g>
<!-- bak.3&#45;&gt;cle.3 -->
<g id="edge15" class="edge"><title>bak.3&#45;&gt;cle.3</title>
<path fill="none" stroke="black" d="M932.959,-107.954C943.955,-97.7679 956.905,-85.7721 968.601,-74.9383"/>
<polygon fill="black" stroke="black" points="971.114,-77.3806 976.072,-68.0173 966.358,-72.2453 971.114,-77.3806"/>
</g>
<!-- pre.3 -->
<g id="node18" class="node"><title>pre.3</title>
<ellipse fill="none" stroke="black" cx="843" cy="-223" rx="86.4614" ry="26.7407"/>
<text text-anchor="middle" x="843" y="-226.8" font-family="sans" font-size="14.00">pre_heat_oven</text>
<text text-anchor="middle" x="843" y="-211.8" font-family="sans" font-size="14.00">3</text>
</g>
<!-- pre.3&#45;&gt;bak.3 -->
<g id="edge14" class="edge"><title>pre.3&#45;&gt;bak.3</title>
<path fill="none" stroke="black" d="M861.511,-196.547C868.136,-187.438 875.704,-177.032 882.741,-167.356"/>
<polygon fill="black" stroke="black" points="885.7,-169.238 888.751,-159.092 880.039,-165.121 885.7,-169.238"/>
</g>
</g>
</svg>
