<?xml version="1.0" encoding="UTF-8" standalone="no"?>
<!DOCTYPE svg PUBLIC "-//W3C//DTD SVG 1.1//EN"
 "http://www.w3.org/Graphics/SVG/1.1/DTD/svg11.dtd">
<!-- Generated by graphviz version 2.30.1 (20170916.1124)
 -->
<!-- Title: Example Pages: 1 -->
<svg width="504pt" height="180pt"
 viewBox="0.00 0.00 504.00 179.91" xmlns="http://www.w3.org/2000/svg" xmlns:xlink="http://www.w3.org/1999/xlink">
<g id="graph0" class="graph" transform="scale(0.605769 0.605769) rotate(0) translate(4 293)">
<title>Example</title>
<polygon fill="none" stroke="none" points="-4,5 -4,-293 829,-293 829,5 -4,5"/>
<g id="clust1" class="cluster"><title>cluster_1</title>
<polygon fill="none" stroke="black" stroke-dasharray="5,2" points="8,-8 8,-281 272,-281 272,-8 8,-8"/>
<text text-anchor="middle" x="140" y="-265.8" font-family="sans" font-size="14.00">1</text>
</g>
<g id="clust2" class="cluster"><title>cluster_2</title>
<polygon fill="none" stroke="black" stroke-dasharray="5,2" points="280,-8 280,-281 544,-281 544,-8 280,-8"/>
<text text-anchor="middle" x="412" y="-265.8" font-family="sans" font-size="14.00">2</text>
</g>
<g id="clust3" class="cluster"><title>cluster_3</title>
<polygon fill="none" stroke="black" stroke-dasharray="5,2" points="552,-8 552,-281 816,-281 816,-8 552,-8"/>
<text text-anchor="middle" x="684" y="-265.8" font-family="sans" font-size="14.00">3</text>
</g>
<!-- make_cake_mixture.1 -->
<g id="node1" class="node"><title>make_cake_mixture.1</title>
<ellipse fill="#ada5a5" stroke="#ada5a5" cx="140" cy="-223" rx="113.206" ry="26.7407"/>
<text text-anchor="middle" x="140" y="-226.8" font-family="sans" font-size="14.00">make_cake_mixture</text>
<text text-anchor="middle" x="140" y="-211.8" font-family="sans" font-size="14.00">1</text>
</g>
<!-- bake_cake.1 -->
<g id="node2" class="node"><title>bake_cake.1</title>
<ellipse fill="#ada5a5" stroke="#ada5a5" cx="140" cy="-133" rx="65.0808" ry="26.7407"/>
<text text-anchor="middle" x="140" y="-136.8" font-family="sans" font-size="14.00">bake_cake</text>
<text text-anchor="middle" x="140" y="-121.8" font-family="sans" font-size="14.00">1</text>
</g>
<!-- make_cake_mixture.1&#45;&gt;bake_cake.1 -->
<g id="edge1" class="edge"><title>make_cake_mixture.1&#45;&gt;bake_cake.1</title>
<path fill="none" stroke="black" d="M140,-196.073C140,-187.999 140,-178.943 140,-170.296"/>
<polygon fill="black" stroke="black" points="143.5,-170.046 140,-160.046 136.5,-170.046 143.5,-170.046"/>
</g>
<!-- sell_cake.1 -->
<g id="node3" class="node"><title>sell_cake.1</title>
<ellipse fill="#ada5a5" stroke="#ada5a5" cx="73" cy="-43" rx="56.9149" ry="26.7407"/>
<text text-anchor="middle" x="73" y="-46.8" font-family="sans" font-size="14.00">sell_cake</text>
<text text-anchor="middle" x="73" y="-31.8" font-family="sans" font-size="14.00">1</text>
</g>
<!-- bake_cake.1&#45;&gt;sell_cake.1 -->
<g id="edge2" class="edge"><title>bake_cake.1&#45;&gt;sell_cake.1</title>
<path fill="none" stroke="black" d="M120.98,-107.018C113.786,-97.5699 105.49,-86.673 97.84,-76.6257"/>
<polygon fill="black" stroke="black" points="100.447,-74.2724 91.6048,-68.4362 94.8778,-78.5128 100.447,-74.2724"/>
</g>
<!-- eat_cake.1 -->
<g id="node4" class="node"><title>eat_cake.1</title>
<ellipse fill="none" stroke="#88c6ff" cx="206" cy="-43" rx="57.2688" ry="18"/>
<text text-anchor="middle" x="206" y="-39.3" font-family="sans" font-size="14.00">eat_cake1</text>
</g>
<!-- bake_cake.1&#45;&gt;eat_cake.1 -->
<g id="edge3" class="edge"><title>bake_cake.1&#45;&gt;eat_cake.1</title>
<path fill="none" stroke="black" d="M158.736,-107.018C167.691,-95.0785 178.381,-80.8253 187.327,-68.8967"/>
<polygon fill="black" stroke="black" points="190.284,-70.788 193.484,-60.688 184.684,-66.588 190.284,-70.788"/>
</g>
<!-- make_cake_mixture.2 -->
<g id="node5" class="node"><title>make_cake_mixture.2</title>
<ellipse fill="#ada5a5" stroke="#ada5a5" cx="412" cy="-223" rx="113.206" ry="26.7407"/>
<text text-anchor="middle" x="412" y="-226.8" font-family="sans" font-size="14.00">make_cake_mixture</text>
<text text-anchor="middle" x="412" y="-211.8" font-family="sans" font-size="14.00">2</text>
</g>
<!-- bake_cake.2 -->
<g id="node6" class="node"><title>bake_cake.2</title>
<ellipse fill="#ff0000" stroke="#ff0000" cx="412" cy="-133" rx="65.0808" ry="26.7407"/>
<text text-anchor="middle" x="412" y="-136.8" font-family="sans" font-size="14.00" fill="white">bake_cake</text>
<text text-anchor="middle" x="412" y="-121.8" font-family="sans" font-size="14.00" fill="white">2</text>
</g>
<!-- make_cake_mixture.2&#45;&gt;bake_cake.2 -->
<g id="edge4" class="edge"><title>make_cake_mixture.2&#45;&gt;bake_cake.2</title>
<path fill="none" stroke="black" d="M412,-196.073C412,-187.999 412,-178.943 412,-170.296"/>
<polygon fill="black" stroke="black" points="415.5,-170.046 412,-160.046 408.5,-170.046 415.5,-170.046"/>
</g>
<!-- sell_cake.2 -->
<g id="node7" class="node"><title>sell_cake.2</title>
<ellipse fill="none" stroke="#88c6ff" cx="346" cy="-43" rx="58.2422" ry="18"/>
<text text-anchor="middle" x="346" y="-39.3" font-family="sans" font-size="14.00">sell_cake2</text>
</g>
<!-- bake_cake.2&#45;&gt;sell_cake.2 -->
<g id="edge5" class="edge"><title>bake_cake.2&#45;&gt;sell_cake.2</title>
<path fill="none" stroke="black" d="M393.264,-107.018C384.309,-95.0785 373.619,-80.8253 364.673,-68.8967"/>
<polygon fill="black" stroke="black" points="367.316,-66.588 358.516,-60.688 361.716,-70.788 367.316,-66.588"/>
</g>
<!-- eat_cake.2 -->
<g id="node8" class="node"><title>eat_cake.2</title>
<ellipse fill="none" stroke="#888888" cx="479" cy="-43" rx="56.3526" ry="26.7407"/>
<text text-anchor="middle" x="479" y="-46.8" font-family="sans" font-size="14.00" fill="#888888">eat_cake</text>
<text text-anchor="middle" x="479" y="-31.8" font-family="sans" font-size="14.00" fill="#888888">2</text>
</g>
<!-- bake_cake.2&#45;&gt;eat_cake.2 -->
<g id="edge6" class="edge"><title>bake_cake.2&#45;&gt;eat_cake.2</title>
<path fill="none" stroke="black" d="M431.02,-107.018C438.214,-97.5699 446.51,-86.673 454.16,-76.6257"/>
<polygon fill="black" stroke="black" points="457.122,-78.5128 460.395,-68.4362 451.553,-74.2724 457.122,-78.5128"/>
</g>
<!-- make_cake_mixture.3 -->
<g id="node9" class="node"><title>make_cake_mixture.3</title>
<ellipse fill="#ada5a5" stroke="#ada5a5" cx="684" cy="-223" rx="113.206" ry="26.7407"/>
<text text-anchor="middle" x="684" y="-226.8" font-family="sans" font-size="14.00">make_cake_mixture</text>
<text text-anchor="middle" x="684" y="-211.8" font-family="sans" font-size="14.00">3</text>
</g>
<!-- bake_cake.3 -->
<g id="node10" class="node"><title>bake_cake.3</title>
<ellipse fill="#ff0000" stroke="#ff0000" cx="684" cy="-133" rx="65.0808" ry="26.7407"/>
<text text-anchor="middle" x="684" y="-136.8" font-family="sans" font-size="14.00" fill="white">bake_cake</text>
<text text-anchor="middle" x="684" y="-121.8" font-family="sans" font-size="14.00" fill="white">3</text>
</g>
<!-- make_cake_mixture.3&#45;&gt;bake_cake.3 -->
<g id="edge7" class="edge"><title>make_cake_mixture.3&#45;&gt;bake_cake.3</title>
<path fill="none" stroke="black" d="M684,-196.073C684,-187.999 684,-178.943 684,-170.296"/>
<polygon fill="black" stroke="black" points="687.5,-170.046 684,-160.046 680.5,-170.046 687.5,-170.046"/>
</g>
<!-- sell_cake.3 -->
<g id="node11" class="node"><title>sell_cake.3</title>
<ellipse fill="none" stroke="#888888" cx="617" cy="-43" rx="56.9149" ry="26.7407"/>
<text text-anchor="middle" x="617" y="-46.8" font-family="sans" font-size="14.00" fill="#888888">sell_cake</text>
<text text-anchor="middle" x="617" y="-31.8" font-family="sans" font-size="14.00" fill="#888888">3</text>
</g>
<!-- bake_cake.3&#45;&gt;sell_cake.3 -->
<g id="edge8" class="edge"><title>bake_cake.3&#45;&gt;sell_cake.3</title>
<path fill="none" stroke="black" d="M664.98,-107.018C657.786,-97.5699 649.49,-86.673 641.84,-76.6257"/>
<polygon fill="black" stroke="black" points="644.447,-74.2724 635.605,-68.4362 638.878,-78.5128 644.447,-74.2724"/>
</g>
<!-- eat_cake.3 -->
<g id="node12" class="node"><title>eat_cake.3</title>
<ellipse fill="none" stroke="#888888" cx="750" cy="-43" rx="57.2688" ry="18"/>
<text text-anchor="middle" x="750" y="-39.3" font-family="sans" font-size="14.00" fill="#888888">eat_cake3</text>
</g>
<!-- bake_cake.3&#45;&gt;eat_cake.3 -->
<g id="edge9" class="edge"><title>bake_cake.3&#45;&gt;eat_cake.3</title>
<path fill="none" stroke="black" d="M702.736,-107.018C711.691,-95.0785 722.381,-80.8253 731.327,-68.8967"/>
<polygon fill="black" stroke="black" points="734.284,-70.788 737.484,-60.688 728.684,-66.588 734.284,-70.788"/>
</g>
</g>
</svg>
