<?xml version="1.0" encoding="UTF-8" standalone="no"?>

<svg
   xmlns:svg="http://www.w3.org/2000/svg"
   xmlns="http://www.w3.org/2000/svg"
   version="1.1"
   width="232.48"
   height="220.44"
   id="svg2">
  <title
     id="title4">Compass Rose Variation</title>
  <defs
     id="defs46" />
  <g
     transform="translate(-39.9009,-41.938996)"
     id="g6">
    <title
       id="title8">Layer 1</title>
    <path
       d="M 251.97501,156.127 C 251.412,143.728 249.552,131.21401 244.778,119.672 240.26801,108.771 233.40401,98.382004 225.16,89.949997 c -8.449,-8.642998 -17.834,-15.792 -28.902,-20.723 -11.15201,-4.972 -23.043,-8.228996 -35.26401,-8.928997 -22.998,-1.321999 -46.442,6.374996 -64.500002,20.606998 -17.188011,13.548988 -29.501999,33.063002 -34.334,54.403992 -5.253998,23.20801 -1.351997,49.007 11.054001,69.399 3.115997,5.121 6.339005,10.19 10.442001,14.586 4.046997,4.33501 8.360001,8.54201 13.019997,12.216 9.294003,7.327 19.907003,12.86901 31.227003,16.325 22.44801,6.854 46.99101,5.2 68.30001,-4.646 19.68601,-9.10099 36.86301,-25.54499 46.146,-45.22399 2.955,-6.265 5.043,-12.93801 6.741,-19.64 1.865,-7.35199 2.542,-14.637 2.88501,-22.198"
       id="svg_1"
       style="fill:#848484" />
    <path
       d="m 251.735,155.88699 c 0,23.233 -8.58501,46.131 -23.95,63.581 -7.752,8.806 -17.63099,16.91501 -28.209,22.027 -11.043,5.34 -22.752,8.88901 -34.97099,10.09301 -23.866,2.35499 -48.578,-4.97701 -67.473998,-19.74001 -17.132004,-13.39 -30.186005,-33.365 -34.717003,-54.68899 -2.506001,-11.793 -3.355999,-24.914 -1.169998,-36.82199 2.148998,-11.71001 6.143005,-23.656 12.465996,-33.77401 6.227005,-9.962986 13.920006,-19.253986 23.395004,-26.285 4.763999,-3.533997 9.773999,-6.807999 14.949999,-9.707001 5.317,-2.978996 11.15,-4.839996 16.973,-6.57 23.094,-6.860001 49.12,-4.695 70.478,6.580002 5.162,2.726997 10.32201,5.723999 14.955,9.294998 4.652,3.584 8.969,7.976997 12.91001,12.32 7.904,8.709001 13.81999,18.538001 17.948,29.526001 3.522,9.386 6.272,19.84599 6.41299,29.942 0.018,1.295 0.02,2.592 -0.004,3.888 -0.014,0.707 -5.25799,0.338 -6.117,0.338 -5.967,0 -11.93401,0 -17.9,0 -23.931,0 -47.85899,0 -71.792,0 31.94099,-0.003 63.875,-0.003 95.81599,-0.003"
       id="svg_2"
       style="fill:#848484" />
    <path
       d="m 251.735,155.88699 c 0,23.233 -8.58501,46.131 -23.95,63.581 -7.752,8.806 -17.63099,16.91501 -28.209,22.027 -11.043,5.34 -22.752,8.88901 -34.97099,10.09301 -23.866,2.35499 -48.578,-4.97701 -67.473998,-19.74001 -17.132004,-13.39 -30.186005,-33.365 -34.717003,-54.68899 -2.506001,-11.793 -3.355999,-24.914 -1.169998,-36.82199 2.148998,-11.71001 6.143005,-23.656 12.465996,-33.77401 6.227005,-9.962986 13.920006,-19.253986 23.395004,-26.285 4.763999,-3.533997 9.773999,-6.807999 14.949999,-9.707001 5.317,-2.978996 11.15,-4.839996 16.973,-6.57 23.094,-6.860001 49.12,-4.695 70.478,6.580002 5.162,2.726997 10.32201,5.723999 14.955,9.294998 4.652,3.584 8.969,7.976997 12.91001,12.32 7.904,8.709001 13.81999,18.538001 17.948,29.526001 4.13198,10.994 6.41598,22.395 6.41598,34.16499"
       id="svg_3"
       style="fill:#3bb17f;stroke:#010101;stroke-width:0.2402;stroke-linecap:square;stroke-miterlimit:10" />
    <path
       d="m 227.955,156.127 c -0.63901,-12.177 -3.07001,-23.744 -9.031,-34.48 -5.49601,-9.899 -13.2,-18.513 -22.56101,-24.900998 C 176.85599,83.434013 150.95,80.188003 129.039,89.382004 118.259,93.905007 107.88,101.011 100.483,110.13 93.166999,119.151 88.027,130.116 85.589996,141.43701 82.990997,153.503 83.735,165.57802 87.332,177.36502 c 1.743996,5.71899 4.016998,11.26401 7.242996,16.311 1.519997,2.381 3.095001,4.752 4.882004,6.94001 1.808,2.214 3.604,4.765 5.766,6.638 4.499,3.901 9.014,7.753 14.154,10.79899 5.167,3.06101 10.716,5.48601 16.479,7.18 11.707,3.438 24.627,3.867 36.476,0.85899 6.041,-1.53301 11.701,-3.39301 17.17799,-6.41499 5.09801,-2.81301 9.568,-5.847 13.93001,-9.71401 8.72901,-7.73801 15.65,-17.589 19.752,-28.52899 3.026,-8.07903 4.30901,-16.72803 4.763,-25.30702"
       id="svg_4"
       style="fill:#ffffff;stroke:#ffffff;stroke-width:0.2402;stroke-linecap:square;stroke-miterlimit:10" />
    <path
       d="m 227.714,156.127 c -0.77099,11.95 -2.854,23.48801 -8.541,34.15199 -5.238,9.83 -13.354,18.40601 -22.389,24.883 -4.719,3.381 -10.012,5.847 -15.36701,8.043 -5.56199,2.279 -10.985,3.27499 -16.91,4.09199 -5.97099,0.82401 -12.07401,0.83 -18.051,0.04 -5.789,-0.765 -11.96899,-2.088 -17.337,-4.426 -10.61901,-4.623 -20.136,-11.142 -27.6,-20.017 -7.498001,-8.914 -13.163002,-19.557 -15.628998,-30.994 -4.899002,-22.72099 1.245995,-47.457 17.118008,-64.614 15.167,-16.396003 37.975,-25.331 60.248,-22.711997 5.861,0.689011 11.52499,1.572998 16.998,3.848 5.229,2.172997 10.408,4.535995 15.203,7.566002 9.653,6.098005 17.18201,15.080005 23.00999,24.794995 6.49901,10.82402 8.44901,22.93902 9.24701,35.34402 -23.93,0 -47.85899,0 -71.789,0 23.93,0 47.86,0 71.789,0"
       id="svg_5"
       style="fill:#ffffff" />
    <path
       d="m 227.714,156.127 c -0.77099,11.95 -2.854,23.48801 -8.541,34.15199 -5.238,9.83 -13.354,18.40601 -22.389,24.883 -4.719,3.381 -10.012,5.847 -15.36701,8.043 -5.56199,2.279 -10.985,3.27499 -16.91,4.09199 -5.97099,0.82401 -12.07401,0.83 -18.051,0.04 -5.789,-0.765 -11.96899,-2.088 -17.337,-4.426 -10.61901,-4.623 -20.136,-11.142 -27.6,-20.017 -7.498001,-8.914 -13.163002,-19.557 -15.628998,-30.994 -4.899002,-22.72099 1.245995,-47.457 17.118008,-64.614 15.167,-16.396003 37.975,-25.331 60.248,-22.711997 5.861,0.689011 11.52499,1.572998 16.998,3.848 5.229,2.172997 10.408,4.535995 15.203,7.566002 9.653,6.098005 17.18201,15.080005 23.00999,24.794995 C 224.966,131.607 226.916,143.722 227.714,156.127"
       id="svg_6"
       style="fill:none;stroke:#010101;stroke-width:0.2402;stroke-linecap:square;stroke-miterlimit:10" />
    <path
       d="m 156.14,154.207 c -0.078,-51.395 -0.161,-102.79 -0.24001,-154.186 4.71001,25.91 9.424,51.82 14.133,77.730999 2.352,12.926003 4.701,25.853001 7.05299,38.781001 0.562,3.091 1.125,6.181 1.68601,9.274 0.283,1.544 0.56199,3.09099 0.84399,4.635 0.344,1.885 0.02,1.94901 -1.238,3.209 -4.527,4.528 -9.05701,9.05701 -13.586,13.58501 -2.963,2.96299 -5.926,5.92799 -8.89,8.891 0.079,-0.64102 0.15802,-1.279 0.23802,-1.92001"
       id="svg_7"
       style="fill:#010101" />
    <path
       d="m 156.14,154.207 c -0.078,-51.395 -0.161,-102.79 -0.24001,-154.186 4.71001,25.91 9.424,51.82 14.133,77.730999 2.352,12.926003 4.701,25.853001 7.05299,38.781001 0.562,3.091 1.125,6.181 1.68601,9.274 0.283,1.544 0.56199,3.09099 0.84399,4.635 0.344,1.885 0.02,1.94901 -1.238,3.209 -4.527,4.528 -9.05701,9.05701 -13.586,13.58501 -2.963,2.96299 -5.926,5.92799 -8.89,8.891"
       id="svg_8"
       style="fill:#3bb17f;stroke:#010101;stroke-width:0.2402;stroke-linecap:square;stroke-miterlimit:10" />
    <path
       d="m 156.14,154.207 c 52.03999,0.64101 104.07802,1.28101 156.11702,1.92 -25.95898,4.664 -51.918,9.328 -77.879,13.992 -12.951,2.32601 -25.89999,4.65401 -38.854,6.98 -3.09801,0.556 -6.193,1.11099 -9.291,1.668 -1.54801,0.27699 -3.097,0.558 -4.64501,0.836 -1.891,0.33999 -1.96499,0.01 -3.23599,-1.248 -4.56599,-4.521 -9.13499,-9.045 -13.701,-13.564 -1.95501,-1.936 -3.90801,-3.87199 -5.86301,-5.80901 -0.845,-0.832 -1.881,-1.63699 -2.563,-2.60899 -0.446,-0.633 -0.17301,-1.466 -0.085,-2.166"
       id="svg_9"
       style="fill:#010101" />
    <path
       d="m 156.14,154.207 c 52.03999,0.64101 104.07802,1.28101 156.11702,1.92 -25.95898,4.664 -51.918,9.328 -77.879,13.992 -12.951,2.32601 -25.89999,4.65401 -38.854,6.98 -3.09801,0.556 -6.193,1.11099 -9.291,1.668 -1.54801,0.27699 -3.097,0.558 -4.64501,0.836 -1.891,0.33999 -1.96499,0.01 -3.23599,-1.248 -4.56599,-4.521 -9.13499,-9.045 -13.701,-13.564 -2.91701,-2.89101 -5.83501,-5.77299 -8.75101,-8.664"
       id="svg_10"
       style="fill:#3bb17f;stroke:#010101;stroke-width:0.2402;stroke-linecap:square;stroke-miterlimit:10" />
    <path
       d="m 156.14,154.207 c -52.039,0.64101 -104.079999,1.28301 -156.119,1.92 25.923,-4.722 51.846001,-9.444 77.768993,-14.164 12.914986,-2.35401 25.830987,-4.705 38.746007,-7.058 3.04999,-0.55499 6.09998,-1.11099 9.14899,-1.66701 1.525,-0.276 3.04999,-0.55499 4.575,-0.832 1.65101,-0.302 1.67501,-0.248 2.763,0.84599 4.556,4.556 9.112,9.111 13.668,13.667 3.069,3.069 6.14,6.13999 9.209,9.208 0.081,-0.64099 0.16001,-1.27897 0.23999,-1.91998"
       id="svg_11"
       style="fill:#010101" />
    <path
       d="m 156.14,154.207 c -52.039,0.64101 -104.079999,1.28301 -156.119,1.92 25.923,-4.722 51.846001,-9.444 77.768993,-14.164 12.914986,-2.35401 25.830987,-4.705 38.746007,-7.058 3.04999,-0.55499 6.09998,-1.11099 9.14899,-1.66701 1.525,-0.276 3.04999,-0.55499 4.575,-0.832 1.65101,-0.302 1.67501,-0.248 2.763,0.84599 4.556,4.556 9.112,9.111 13.668,13.667 3.069,3.069 6.14,6.13999 9.209,9.208"
       id="svg_12"
       style="fill:#3bb17f;stroke:#010101;stroke-width:0.2402;stroke-linecap:square;stroke-miterlimit:10" />
    <path
       d="m 156.14,154.207 c -4.466,4.73 -8.93201,9.46201 -13.398,14.19299 -2.14399,2.271 -4.28799,4.539 -6.431,6.812 -1.03,1.091 -2.06199,2.183 -3.09199,3.274 -1.34801,1.428 -1.33299,1.43801 -0.94501,3.375 2.571,12.881 5.14301,25.76199 7.71401,38.644 5.14999,25.8 10.29899,51.59901 15.44999,77.39601 0.15401,0.776 0.30901,1.552 0.463,2.324 0,-24.332 0,-48.664 0,-72.996 0,-12.345 0,-24.68899 0,-37.035 0,-5.94 0,-11.885 0,-17.82401 -0.001,-5.98399 -0.504,-12.218 0.239,-18.16299"
       id="svg_13"
       style="fill:#010101" />
    <path
       d="m 156.14,154.207 c -4.466,4.73 -8.93201,9.46201 -13.398,14.19299 -2.14399,2.271 -4.28799,4.539 -6.431,6.812 -1.03,1.091 -2.06199,2.183 -3.09199,3.274 -1.34801,1.428 -1.33299,1.43801 -0.94501,3.375 2.571,12.881 5.14301,25.76199 7.71401,38.644 5.14999,25.8 10.29899,51.59901 15.44999,77.39601 0.15401,0.776 0.30901,1.552 0.463,2.324 0,-48.033 0,-96.065 0,-144.1"
       id="svg_14"
       style="fill:#3bb17f;stroke:#010101;stroke-width:0.2402;stroke-linecap:square;stroke-miterlimit:10" />
    <path
       d="m 179.677,130.91 c 8.08701,-7.604 16.17301,-15.209 24.261,-22.81199 -6.06199,2.969 -12.123,5.939 -18.18499,8.90799 -1.30901,0.641 -2.616,1.281 -3.924,1.922 -1.285,0.629 -1.912,0.671 -1.912,2.111 0,3.69 0,7.381 0,11.07201 -0.08,-0.40201 -0.16001,-0.8 -0.24001,-1.20101"
       id="svg_15"
       style="fill:#ffffff" />
    <path
       d="m 179.677,130.91 c 8.08701,-7.604 16.17301,-15.209 24.261,-22.81199 -6.06199,2.969 -12.123,5.939 -18.18499,8.90799 -1.30901,0.641 -2.616,1.281 -3.924,1.922 -1.285,0.629 -1.912,0.671 -1.912,2.111 0,3.69 0,7.381 0,11.07201"
       id="svg_16"
       style="fill:#8cd9b9;stroke:#010101;stroke-width:0.2402;stroke-linecap:square;stroke-miterlimit:10" />
    <path
       d="m 179.677,130.91 c 8.08701,-7.604 16.17301,-15.209 24.261,-22.81199 -3.356,6.709 -6.712,13.419 -10.067,20.12599 -0.47099,0.94099 -1.123,3.25301 -2.013,3.81799 -0.751,0.478 -2.68699,0.068 -3.509,0.068 -1.81101,0 -3.621,0 -5.43401,0 -0.867,0 -1.73399,0 -2.604,0 -0.67499,1e-5 -0.54298,-0.74698 -0.63399,-1.19999"
       id="svg_17"
       style="fill:#010101" />
    <path
       d="m 179.677,130.91 c 8.08701,-7.604 16.17301,-15.209 24.261,-22.81199 -3.03,6.059 -6.06199,12.119 -9.09199,18.178 -0.65401,1.308 -1.31,2.617 -1.96401,3.92499 -0.649,1.297 -0.697,1.91001 -2.155,1.91001 -3.60299,0 -7.20599,0 -10.80999,0"
       id="svg_18"
       style="fill:#3bb17f;stroke:#010101;stroke-width:0.2402;stroke-linecap:square;stroke-miterlimit:10" />
    <path
       d="m 131.642,132.11 c -7.926,-8.004 -15.853,-16.009 -23.779,-24.013 2.987,5.972 5.973,11.942 8.96,17.915 0.667,1.335 1.335,2.671 2.003,4.00601 0.57599,1.15199 0.667,2.09199 2.03,2.09199 3.595,0 7.191,0 10.786,0"
       id="svg_19"
       style="fill:#ffffff" />
    <path
       d="m 131.642,132.11 c -7.926,-8.004 -15.853,-16.009 -23.779,-24.013 4.003,8.004 8.006,16.008 12.009,24.013"
       id="svg_20"
       style="fill:#8cd9b9;stroke:#010101;stroke-width:0.2402;stroke-linecap:square;stroke-miterlimit:10" />
    <path
       d="m 131.642,132.11 c -7.926,-8.004 -15.853,-16.009 -23.779,-24.013 6.061,2.969 12.123,5.939 18.184,8.908 1.308,0.641 2.617,1.281 3.925,1.92199 1.287,0.631 1.91499,0.666 1.88699,2.111 -0.073,3.69101 -0.14499,7.38201 -0.21699,11.07201"
       id="svg_21"
       style="fill:#010101" />
    <path
       d="m 131.642,132.11 c -7.926,-8.004 -15.853,-16.009 -23.779,-24.013 8.006,3.923 16.012,7.843 24.019,11.766"
       id="svg_22"
       style="fill:#3bb17f;stroke:#010101;stroke-width:0.2402;stroke-linecap:square;stroke-miterlimit:10" />
    <path
       d="m 131.642,179.90199 c -7.926,8.008 -15.853,16.012 -23.779,24.01801 4.255,-2.084 8.511,-4.17 12.768,-6.254 2.127,-1.04401 4.25499,-2.08501 6.383,-3.12801 1.158,-0.567 5.00001,-1.66 4.93,-3.179 -0.062,-1.35499 0.65601,-11.336 -0.302,-11.457"
       id="svg_23"
       style="fill:#ffffff" />
    <path
       d="m 131.642,179.90199 c -7.926,8.008 -15.853,16.012 -23.779,24.01801 6.061,-2.968 12.123,-5.93801 18.184,-8.90601 1.308,-0.642 2.617,-1.281 3.925,-1.923 1.283,-0.629 1.91,-0.672 1.91,-2.11 0,-3.692 0,-7.385 0,-11.07601"
       id="svg_24"
       style="fill:#8cd9b9;stroke:#010101;stroke-width:0.2402;stroke-linecap:square;stroke-miterlimit:10" />
    <path
       d="M 131.642,179.90199 C 123.716,187.91 115.789,195.914 107.863,203.92 c 2.986,-5.972 5.973,-11.943 8.96,-17.918 0.667,-1.336 1.335,-2.67101 2.003,-4.006 0.576,-1.15201 0.667,-2.09401 2.03,-2.09401 3.595,0 7.191,0 10.786,0"
       id="svg_25"
       style="fill:#010101" />
    <path
       d="m 131.642,179.90199 c -7.926,8.008 -15.853,16.012 -23.779,24.01801 4.003,-8.006 8.006,-16.01 12.009,-24.01801"
       id="svg_26"
       style="fill:#3bb17f;stroke:#010101;stroke-width:0.2402;stroke-linecap:square;stroke-miterlimit:10" />
    <path
       d="m 179.677,179.90199 c 8.08701,8.008 16.17301,16.012 24.261,24.01801 -3.03,-6.06101 -6.06199,-12.12 -9.09199,-18.18199 -0.65401,-1.30901 -1.31,-2.616 -1.96401,-3.926 -0.641,-1.278 -0.688,-1.91 -2.13299,-1.91 -3.68901,-2e-5 -7.37801,-2e-5 -11.07201,-2e-5"
       id="svg_27"
       style="fill:#ffffff" />
    <path
       d="m 179.677,179.90199 c 8.08701,8.008 16.17301,16.012 24.261,24.01801 -4.005,-8.006 -8.009,-16.01 -12.011,-24.01801"
       id="svg_28"
       style="fill:#8cd9b9;stroke:#010101;stroke-width:0.2402;stroke-linecap:square;stroke-miterlimit:10" />
    <path
       d="m 179.677,179.90199 c 8.08701,8.008 16.17301,16.012 24.261,24.01801 -6.06199,-2.968 -12.123,-5.93801 -18.18499,-8.90601 -1.30901,-0.642 -2.616,-1.281 -3.924,-1.923 -1.28101,-0.627 -1.90601,-0.676 -1.937,-2.11 -0.07,-3.69399 -0.14201,-7.385 -0.21501,-11.079"
       id="svg_29"
       style="fill:#010101" />
    <path
       d="m 179.677,179.90199 c 8.08701,8.008 16.17301,16.012 24.261,24.01801 -8.009,-3.92301 -16.013,-7.843 -24.02099,-11.76601"
       id="svg_30"
       style="fill:#3bb17f;stroke:#010101;stroke-width:0.2402;stroke-linecap:square;stroke-miterlimit:10" />
    <path
       d="m 155.89999,155.407 c 0,48.272 0,96.54699 0,144.81901 5.11701,-25.64099 10.23801,-51.283 15.35401,-76.92401 2.56199,-12.828 5.125,-25.656 7.685,-38.48599 0.294,-1.479 0.58999,-2.963 0.886,-4.442 0.192,-0.96201 -1.45101,-2.048 -2.07801,-2.687 -2.326,-2.373 -4.654,-4.748 -6.981,-7.121 -4.587,-4.67799 -9.173,-9.35699 -13.763,-14.037 C 156.634,156.15601 156.267,155.78 155.9,155.407"
       id="svg_31"
       style="fill:#8cd9b9" />
    <path
       d="m 155.89999,155.407 c 52.12101,0.239 104.23999,0.47799 156.357,0.72 -25.9,-4.703 -51.80301,-9.401 -77.705,-14.101 -12.93801,-2.349 -25.881,-4.69701 -38.82,-7.046 -2.98399,-0.54201 -5.968,-1.084 -8.949,-1.624 -1.492,-0.27099 -2.982,-0.542 -4.478,-0.81199 -1.599,-0.291 -2.167,-0.64101 -3.313,0.464 -4.56,4.426 -9.121,8.84801 -13.68201,13.272 -3.13698,3.04299 -6.27098,6.08699 -9.40999,9.12699"
       id="svg_32"
       style="fill:#8cd9b9" />
    <path
       d="m 156.38,155.407 c -52.11999,0.239 -104.23899,0.47799 -156.35899,0.72 25.923,4.67599 51.845998,9.35 77.768999,14.02099 12.915001,2.32801 25.831001,4.65801 38.746001,6.98601 3.05,0.551 6.1,1.10001 9.149,1.651 1.525,0.27401 3.05001,0.55001 4.575,0.823 1.63699,0.295 1.658,0.25701 2.73599,-0.821 4.525,-4.528 9.054,-9.054 13.582,-13.58 3.26799,-3.26601 6.536,-6.53101 9.802,-9.8"
       id="svg_33"
       style="fill:#8cd9b9" />
    <path
       d="m 155.89999,155.407 c 0,-51.79601 0,-103.591009 0,-155.386 -4.71,25.91 -9.423,51.82 -14.134,77.730999 -2.35001,12.926003 -4.702,25.853001 -7.052,38.781001 -0.562,3.091 -1.12399,6.181 -1.68601,9.274 -0.281,1.544 -0.56199,3.09099 -0.84399,4.635 -0.345,1.901 -0.005,1.957 1.283,3.207 4.60601,4.468 9.21401,8.935 13.82,13.40601 2.87201,2.78399 5.74101,5.56898 8.613,8.35199"
       id="svg_34"
       style="fill:#8cd9b9" />
  </g>
</svg>
