<?xml version="1.0" encoding="UTF-8" standalone="no"?>
<!DOCTYPE svg PUBLIC "-//W3C//DTD SVG 1.1//EN"
 "http://www.w3.org/Graphics/SVG/1.1/DTD/svg11.dtd">
<!-- Generated by graphviz version 2.26.0 (20091210.2329)
 -->
<!-- Title: Mini_Cylc Pages: 1 -->
<svg width="230pt" height="194pt"
 viewBox="0.00 0.00 230.00 194.00" xmlns="http://www.w3.org/2000/svg" xmlns:xlink="http://www.w3.org/1999/xlink">
<g id="graph1" class="graph" transform="scale(1 1) rotate(0) translate(4 190)">
<title>Mini_Cylc</title>
<polygon fill="none" stroke="none" points="-4,5 -4,-190 227,-190 227,5 -4,5"/>
<!-- bake_cake -->
<g id="node1" class="node"><title>bake_cake</title>
<ellipse fill="none" stroke="black" cx="111" cy="-93" rx="63.1385" ry="18.3848"/>
<text text-anchor="middle" x="111" y="-89.4" font-family="sans" font-size="14.00">bake_cake</text>
</g>
<!-- sell_cake -->
<g id="node3" class="node"><title>sell_cake</title>
<ellipse fill="none" stroke="black" cx="111" cy="-19" rx="57.9828" ry="18.3848"/>
<text text-anchor="middle" x="111" y="-15.4" font-family="sans" font-size="14.00">sell_cake</text>
</g>
<!-- bake_cake&#45;&gt;sell_cake -->
<g id="edge2" class="edge"><title>bake_cake&#45;&gt;sell_cake</title>
<path fill="none" stroke="black" d="M111,-74.3267C111,-66.2639 111,-56.6477 111,-47.7115"/>
<polygon fill="black" stroke="black" points="114.5,-47.6673 111,-37.6674 107.5,-47.6674 114.5,-47.6673"/>
</g>
<!-- make_cake_mixture -->
<g id="node4" class="node"><title>make_cake_mixture</title>
<ellipse fill="none" stroke="black" cx="111" cy="-167" rx="111.222" ry="18.3848"/>
<text text-anchor="middle" x="111" y="-163.4" font-family="sans" font-size="14.00">make_cake_mixture</text>
</g>
<!-- make_cake_mixture&#45;&gt;bake_cake -->
<g id="edge4" class="edge"><title>make_cake_mixture&#45;&gt;bake_cake</title>
<path fill="none" stroke="black" d="M111,-148.327C111,-140.264 111,-130.648 111,-121.711"/>
<polygon fill="black" stroke="black" points="114.5,-121.667 111,-111.667 107.5,-121.667 114.5,-121.667"/>
</g>
</g>
</svg>
