<?xml version="1.0" encoding="UTF-8" standalone="no"?>
<!DOCTYPE svg PUBLIC "-//W3C//DTD SVG 1.1//EN"
 "http://www.w3.org/Graphics/SVG/1.1/DTD/svg11.dtd">
<!-- Generated by graphviz version 9.0.0 (20231125.0833)
 -->
<!-- Title: Example Pages: 1 -->
<svg width="225pt" height="197pt"
 viewBox="0.00 0.00 224.73 196.67" xmlns="http://www.w3.org/2000/svg" xmlns:xlink="http://www.w3.org/1999/xlink">
<g id="graph0" class="graph" transform="scale(1 1) rotate(0) translate(4 192.67)">
<title>Example</title>
<polygon fill="none" stroke="none" points="-4,4 -4,-192.67 220.73,-192.67 220.73,4 -4,4"/>
<!-- fcm_make_spaceship -->
<g id="node1" class="node">
<title>fcm_make_spaceship</title>
<ellipse fill="none" stroke="black" cx="108.36" cy="-169.23" rx="108.36" ry="19.45"/>
<text text-anchor="middle" x="108.36" y="-165.68" font-family="sans" font-size="14.00">fcm_make_spaceship</text>
</g>
<!-- spaceship -->
<g id="node2" class="node">
<title>spaceship</title>
<ellipse fill="none" stroke="black" cx="108.36" cy="-94.34" rx="57.45" ry="19.45"/>
<text text-anchor="middle" x="108.36" y="-90.79" font-family="sans" font-size="14.00">spaceship</text>
</g>
<!-- fcm_make_spaceship&#45;&gt;spaceship -->
<g id="edge1" class="edge">
<title>fcm_make_spaceship&#45;&gt;spaceship</title>
<path fill="none" stroke="black" d="M108.36,-149.46C108.36,-142.14 108.36,-133.58 108.36,-125.45"/>
<polygon fill="black" stroke="black" points="111.86,-125.56 108.36,-115.56 104.86,-125.56 111.86,-125.56"/>
</g>
<!-- rose_ana_position -->
<g id="node3" class="node">
<title>rose_ana_position</title>
<ellipse fill="none" stroke="black" cx="108.36" cy="-19.45" rx="95.11" ry="19.45"/>
<text text-anchor="middle" x="108.36" y="-15.9" font-family="sans" font-size="14.00">rose_ana_position</text>
</g>
<!-- spaceship&#45;&gt;rose_ana_position -->
<g id="edge2" class="edge">
<title>spaceship&#45;&gt;rose_ana_position</title>
<path fill="none" stroke="black" d="M108.36,-74.57C108.36,-67.25 108.36,-58.69 108.36,-50.56"/>
<polygon fill="black" stroke="black" points="111.86,-50.67 108.36,-40.67 104.86,-50.67 111.86,-50.67"/>
</g>
</g>
</svg>
