<?xml version="1.0" encoding="UTF-8" standalone="no"?>
<!DOCTYPE svg PUBLIC "-//W3C//DTD SVG 1.1//EN"
 "http://www.w3.org/Graphics/SVG/1.1/DTD/svg11.dtd">
<!-- Generated by graphviz version 2.26.0 (20091210.2329)
 -->
<!-- Title: Mini_Cylc Pages: 1 -->
<svg width="250pt" height="268pt"
 viewBox="0.00 0.00 250.00 268.00" xmlns="http://www.w3.org/2000/svg" xmlns:xlink="http://www.w3.org/1999/xlink">
<g id="graph1" class="graph" transform="scale(1 1) rotate(0) translate(4 264)">
<title>Mini_Cylc</title>
<polygon fill="none" stroke="none" points="-4,5 -4,-264 247,-264 247,5 -4,5"/>
<!-- purchase_ingredients -->
<g id="node1" class="node"><title>purchase_ingredients</title>
<ellipse fill="none" stroke="black" cx="121" cy="-241" rx="121.122" ry="18.3848"/>
<text text-anchor="middle" x="121" y="-237.4" font-family="sans" font-size="14.00">purchase_ingredients</text>
</g>
<!-- make_dough -->
<g id="node3" class="node"><title>make_dough</title>
<ellipse fill="none" stroke="black" cx="121" cy="-167" rx="75.1594" ry="18.3848"/>
<text text-anchor="middle" x="121" y="-163.4" font-family="sans" font-size="14.00">make_dough</text>
</g>
<!-- purchase_ingredients&#45;&gt;make_dough -->
<g id="edge2" class="edge"><title>purchase_ingredients&#45;&gt;make_dough</title>
<path fill="none" stroke="black" d="M121,-222.327C121,-214.264 121,-204.648 121,-195.711"/>
<polygon fill="black" stroke="black" points="124.5,-195.667 121,-185.667 117.5,-195.667 124.5,-195.667"/>
</g>
<!-- bake_bread -->
<g id="node4" class="node"><title>bake_bread</title>
<ellipse fill="none" stroke="black" cx="121" cy="-93" rx="70.0036" ry="18.3848"/>
<text text-anchor="middle" x="121" y="-89.4" font-family="sans" font-size="14.00">bake_bread</text>
</g>
<!-- make_dough&#45;&gt;bake_bread -->
<g id="edge6" class="edge"><title>make_dough&#45;&gt;bake_bread</title>
<path fill="none" stroke="black" d="M121,-148.327C121,-140.264 121,-130.648 121,-121.711"/>
<polygon fill="black" stroke="black" points="124.5,-121.667 121,-111.667 117.5,-121.667 124.5,-121.667"/>
</g>
<!-- sell_bread -->
<g id="node6" class="node"><title>sell_bread</title>
<ellipse fill="none" stroke="black" cx="121" cy="-19" rx="63.8479" ry="18.3848"/>
<text text-anchor="middle" x="121" y="-15.4" font-family="sans" font-size="14.00">sell_bread</text>
</g>
<!-- bake_bread&#45;&gt;sell_bread -->
<g id="edge4" class="edge"><title>bake_bread&#45;&gt;sell_bread</title>
<path fill="none" stroke="black" d="M121,-74.3267C121,-66.2639 121,-56.6477 121,-47.7115"/>
<polygon fill="black" stroke="black" points="124.5,-47.6673 121,-37.6674 117.5,-47.6674 124.5,-47.6673"/>
</g>
</g>
</svg>
