<?xml version="1.0" encoding="UTF-8" standalone="no"?>
<!DOCTYPE svg PUBLIC "-//W3C//DTD SVG 1.1//EN"
 "http://www.w3.org/Graphics/SVG/1.1/DTD/svg11.dtd">
<!-- Generated by graphviz version 2.26.0 (20091210.2329)
 -->
<!-- Title: Example Pages: 1 -->
<svg width="504pt" height="189pt"
 viewBox="0.00 0.00 504.00 189.00" xmlns="http://www.w3.org/2000/svg" xmlns:xlink="http://www.w3.org/1999/xlink">
<g id="graph1" class="graph" transform="scale(0.583333 0.583333) rotate(0) translate(4 320)">
<title>Example</title>
<polygon fill="none" stroke="none" points="-4,5 -4,-320 861,-320 861,5 -4,5"/>
<g id="graph2" class="cluster"><title>cluster_1</title>
<polygon fill="none" stroke="black" stroke-dasharray="5,2" points="8,-8 8,-308 284,-308 284,-8 8,-8"/>
<text text-anchor="middle" x="146" y="-291.4" font-family="sans" font-size="14.00">1</text>
</g>
<g id="graph3" class="cluster"><title>cluster_2</title>
<polygon fill="none" stroke="black" stroke-dasharray="5,2" points="292,-8 292,-308 566,-308 566,-8 292,-8"/>
<text text-anchor="middle" x="429" y="-291.4" font-family="sans" font-size="14.00">2</text>
</g>
<g id="graph4" class="cluster"><title>cluster_3</title>
<polygon fill="none" stroke="black" stroke-dasharray="5,2" points="574,-8 574,-308 848,-308 848,-8 574,-8"/>
<text text-anchor="middle" x="711" y="-291.4" font-family="sans" font-size="14.00">3</text>
</g>
<!-- make_cake_mixture.1 -->
<g id="node2" class="node"><title>make_cake_mixture.1</title>
<ellipse fill="#ada5a5" stroke="#ada5a5" cx="146" cy="-243" rx="111.222" ry="31.1127"/>
<text text-anchor="middle" x="146" y="-248.4" font-family="sans" font-size="14.00">make_cake_mixture</text>
<text text-anchor="middle" x="146" y="-230.4" font-family="sans" font-size="14.00">1</text>
</g>
<!-- bake_cake.1 -->
<g id="node3" class="node"><title>bake_cake.1</title>
<ellipse fill="#ada5a5" stroke="#ada5a5" cx="146" cy="-145" rx="63.1385" ry="31.1127"/>
<text text-anchor="middle" x="146" y="-150.4" font-family="sans" font-size="14.00">bake_cake</text>
<text text-anchor="middle" x="146" y="-132.4" font-family="sans" font-size="14.00">1</text>
</g>
<!-- make_cake_mixture.1&#45;&gt;bake_cake.1 -->
<g id="edge5" class="edge"><title>make_cake_mixture.1&#45;&gt;bake_cake.1</title>
<path fill="none" stroke="black" d="M146,-211.992C146,-203.859 146,-194.959 146,-186.378"/>
<polygon fill="black" stroke="black" points="149.5,-186.142 146,-176.142 142.5,-186.142 149.5,-186.142"/>
</g>
<!-- sell_cake.1 -->
<g id="node4" class="node"><title>sell_cake.1</title>
<ellipse fill="#ada5a5" stroke="#ada5a5" cx="74" cy="-47" rx="57.9828" ry="31.1127"/>
<text text-anchor="middle" x="74" y="-52.4" font-family="sans" font-size="14.00">sell_cake</text>
<text text-anchor="middle" x="74" y="-34.4" font-family="sans" font-size="14.00">1</text>
</g>
<!-- bake_cake.1&#45;&gt;sell_cake.1 -->
<g id="edge6" class="edge"><title>bake_cake.1&#45;&gt;sell_cake.1</title>
<path fill="none" stroke="black" d="M124.398,-115.597C117.142,-105.721 108.951,-94.5728 101.316,-84.1795"/>
<polygon fill="black" stroke="black" points="104.08,-82.0313 95.339,-76.0448 98.4392,-86.1759 104.08,-82.0313"/>
</g>
<!-- eat_cake.1 -->
<g id="node5" class="node"><title>eat_cake.1</title>
<ellipse fill="none" stroke="#88c6ff" cx="213" cy="-47" rx="62.9325" ry="18.3848"/>
<text text-anchor="middle" x="213" y="-43.4" font-family="sans" font-size="14.00">eat_cake1</text>
</g>
<!-- bake_cake.1&#45;&gt;eat_cake.1 -->
<g id="edge8" class="edge"><title>bake_cake.1&#45;&gt;eat_cake.1</title>
<path fill="none" stroke="black" d="M166.102,-115.597C175.184,-102.312 185.84,-86.7269 194.697,-73.772"/>
<polygon fill="black" stroke="black" points="197.745,-75.5145 200.5,-65.284 191.967,-71.5638 197.745,-75.5145"/>
</g>
<!-- make_cake_mixture.2 -->
<g id="node7" class="node"><title>make_cake_mixture.2</title>
<ellipse fill="#ada5a5" stroke="#ada5a5" cx="429" cy="-243" rx="111.222" ry="31.1127"/>
<text text-anchor="middle" x="429" y="-248.4" font-family="sans" font-size="14.00">make_cake_mixture</text>
<text text-anchor="middle" x="429" y="-230.4" font-family="sans" font-size="14.00">2</text>
</g>
<!-- bake_cake.2 -->
<g id="node8" class="node"><title>bake_cake.2</title>
<ellipse fill="#ff0000" stroke="#ff0000" cx="429" cy="-145" rx="63.1385" ry="31.1127"/>
<text text-anchor="middle" x="429" y="-150.4" font-family="sans" font-size="14.00" fill="white">bake_cake</text>
<text text-anchor="middle" x="429" y="-132.4" font-family="sans" font-size="14.00" fill="white">2</text>
</g>
<!-- make_cake_mixture.2&#45;&gt;bake_cake.2 -->
<g id="edge10" class="edge"><title>make_cake_mixture.2&#45;&gt;bake_cake.2</title>
<path fill="none" stroke="black" d="M429,-211.992C429,-203.859 429,-194.959 429,-186.378"/>
<polygon fill="black" stroke="black" points="432.5,-186.142 429,-176.142 425.5,-186.142 432.5,-186.142"/>
</g>
<!-- sell_cake.2 -->
<g id="node9" class="node"><title>sell_cake.2</title>
<ellipse fill="none" stroke="#88c6ff" cx="364" cy="-47" rx="63.8479" ry="18.3848"/>
<text text-anchor="middle" x="364" y="-43.4" font-family="sans" font-size="14.00">sell_cake2</text>
</g>
<!-- bake_cake.2&#45;&gt;sell_cake.2 -->
<g id="edge11" class="edge"><title>bake_cake.2&#45;&gt;sell_cake.2</title>
<path fill="none" stroke="black" d="M409.321,-115.331C400.517,-102.057 390.218,-86.5285 381.664,-73.6322"/>
<polygon fill="black" stroke="black" points="384.505,-71.5836 376.061,-65.1846 378.672,-75.4528 384.505,-71.5836"/>
</g>
<!-- eat_cake.2 -->
<g id="node10" class="node"><title>eat_cake.2</title>
<ellipse fill="none" stroke="#888888" cx="502" cy="-47" rx="56.0679" ry="31.1127"/>
<text text-anchor="middle" x="502" y="-52.4" font-family="sans" font-size="14.00" fill="#888888">eat_cake</text>
<text text-anchor="middle" x="502" y="-34.4" font-family="sans" font-size="14.00" fill="#888888">2</text>
</g>
<!-- bake_cake.2&#45;&gt;eat_cake.2 -->
<g id="edge13" class="edge"><title>bake_cake.2&#45;&gt;eat_cake.2</title>
<path fill="none" stroke="black" d="M450.705,-115.862C458.133,-105.89 466.546,-94.5959 474.378,-84.0817"/>
<polygon fill="black" stroke="black" points="477.338,-85.9671 480.505,-75.8567 471.724,-81.7854 477.338,-85.9671"/>
</g>
<!-- make_cake_mixture.3 -->
<g id="node12" class="node"><title>make_cake_mixture.3</title>
<ellipse fill="#ada5a5" stroke="#ada5a5" cx="711" cy="-243" rx="111.222" ry="31.1127"/>
<text text-anchor="middle" x="711" y="-248.4" font-family="sans" font-size="14.00">make_cake_mixture</text>
<text text-anchor="middle" x="711" y="-230.4" font-family="sans" font-size="14.00">3</text>
</g>
<!-- bake_cake.3 -->
<g id="node13" class="node"><title>bake_cake.3</title>
<ellipse fill="#ff0000" stroke="#ff0000" cx="711" cy="-145" rx="63.1385" ry="31.1127"/>
<text text-anchor="middle" x="711" y="-150.4" font-family="sans" font-size="14.00" fill="white">bake_cake</text>
<text text-anchor="middle" x="711" y="-132.4" font-family="sans" font-size="14.00" fill="white">3</text>
</g>
<!-- make_cake_mixture.3&#45;&gt;bake_cake.3 -->
<g id="edge15" class="edge"><title>make_cake_mixture.3&#45;&gt;bake_cake.3</title>
<path fill="none" stroke="black" d="M711,-211.992C711,-203.859 711,-194.959 711,-186.378"/>
<polygon fill="black" stroke="black" points="714.5,-186.142 711,-176.142 707.5,-186.142 714.5,-186.142"/>
</g>
<!-- sell_cake.3 -->
<g id="node14" class="node"><title>sell_cake.3</title>
<ellipse fill="none" stroke="#888888" cx="640" cy="-47" rx="57.9828" ry="31.1127"/>
<text text-anchor="middle" x="640" y="-52.4" font-family="sans" font-size="14.00" fill="#888888">sell_cake</text>
<text text-anchor="middle" x="640" y="-34.4" font-family="sans" font-size="14.00" fill="#888888">3</text>
</g>
<!-- bake_cake.3&#45;&gt;sell_cake.3 -->
<g id="edge16" class="edge"><title>bake_cake.3&#45;&gt;sell_cake.3</title>
<path fill="none" stroke="black" d="M689.698,-115.597C682.542,-105.721 674.466,-94.5728 666.936,-84.1795"/>
<polygon fill="black" stroke="black" points="669.744,-82.0894 661.043,-76.0448 664.075,-86.1963 669.744,-82.0894"/>
</g>
<!-- eat_cake.3 -->
<g id="node15" class="node"><title>eat_cake.3</title>
<ellipse fill="none" stroke="#888888" cx="778" cy="-47" rx="62.2254" ry="18.3848"/>
<text text-anchor="middle" x="778" y="-43.4" font-family="sans" font-size="14.00" fill="#888888">eat_cake3</text>
</g>
<!-- bake_cake.3&#45;&gt;eat_cake.3 -->
<g id="edge18" class="edge"><title>bake_cake.3&#45;&gt;eat_cake.3</title>
<path fill="none" stroke="black" d="M731.102,-115.597C740.184,-102.312 750.84,-86.7269 759.697,-73.772"/>
<polygon fill="black" stroke="black" points="762.745,-75.5145 765.5,-65.284 756.967,-71.5638 762.745,-75.5145"/>
</g>
</g>
</svg>
