<?xml version="1.0" encoding="UTF-8" standalone="no"?>
<!DOCTYPE svg PUBLIC "-//W3C//DTD SVG 1.1//EN"
 "http://www.w3.org/Graphics/SVG/1.1/DTD/svg11.dtd">
<!-- Generated by graphviz version 2.26.0 (20091210.2329)
 -->
<!-- Title: Example Pages: 1 -->
<svg width="286pt" height="260pt"
 viewBox="0.00 0.00 286.00 260.00" xmlns="http://www.w3.org/2000/svg" xmlns:xlink="http://www.w3.org/1999/xlink">
<g id="graph1" class="graph" transform="scale(1 1) rotate(0) translate(4 256)">
<title>Example</title>
<polygon fill="none" stroke="none" points="-4,5 -4,-256 283,-256 283,5 -4,5"/>
<!-- VEHICLE -->
<g id="node1" class="node"><title>VEHICLE</title>
<polygon fill="powderblue" stroke="royalblue" points="100,-252 24,-252 24,-216 100,-216 100,-252"/>
<text text-anchor="middle" x="62" y="-230.4" font-family="sans" font-size="14.00">VEHICLE</text>
</g>
<!-- LAND_VEHICLE -->
<g id="node2" class="node"><title>LAND_VEHICLE</title>
<polygon fill="powderblue" stroke="royalblue" points="124,-180 5.68434e-14,-180 0,-144 124,-144 124,-180"/>
<text text-anchor="middle" x="62" y="-158.4" font-family="sans" font-size="14.00">LAND_VEHICLE</text>
</g>
<!-- VEHICLE&#45;&gt;LAND_VEHICLE -->
<g id="edge2" class="edge"><title>VEHICLE&#45;&gt;LAND_VEHICLE</title>
<path fill="none" stroke="black" d="M62,-215.831C62,-208.131 62,-198.974 62,-190.417"/>
<polygon fill="black" stroke="black" points="65.5001,-190.413 62,-180.413 58.5001,-190.413 65.5001,-190.413"/>
</g>
<!-- BICYCLE -->
<g id="node3" class="node"><title>BICYCLE</title>
<polygon fill="powderblue" stroke="royalblue" points="100,-108 24,-108 24,-72 100,-72 100,-108"/>
<text text-anchor="middle" x="62" y="-86.4" font-family="sans" font-size="14.00">BICYCLE</text>
</g>
<!-- LAND_VEHICLE&#45;&gt;BICYCLE -->
<g id="edge3" class="edge"><title>LAND_VEHICLE&#45;&gt;BICYCLE</title>
<path fill="none" stroke="black" d="M62,-143.831C62,-136.131 62,-126.974 62,-118.417"/>
<polygon fill="black" stroke="black" points="65.5001,-118.413 62,-108.413 58.5001,-118.413 65.5001,-118.413"/>
</g>
<!-- penny_farthing -->
<g id="node5" class="node"><title>penny_farthing</title>
<polygon fill="powderblue" stroke="royalblue" points="206,-36 54,-36 54,-1.77636e-14 206,-3.55271e-15 206,-36"/>
<text text-anchor="middle" x="130" y="-14.4" font-family="sans" font-size="14.00">penny_farthing</text>
</g>
<!-- BICYCLE&#45;&gt;penny_farthing -->
<g id="edge4" class="edge"><title>BICYCLE&#45;&gt;penny_farthing</title>
<path fill="none" stroke="black" d="M79.1593,-71.8314C87.1511,-63.3694 96.8038,-53.1489 105.542,-43.8971"/>
<polygon fill="black" stroke="black" points="108.288,-46.0866 112.61,-36.4133 103.199,-41.2802 108.288,-46.0866"/>
</g>
<!-- HUMAN_ENGINE -->
<g id="node4" class="node"><title>HUMAN_ENGINE</title>
<polygon fill="powderblue" stroke="royalblue" points="278,-108 118,-108 118,-72 278,-72 278,-108"/>
<text text-anchor="middle" x="198" y="-86.4" font-family="sans" font-size="14.00">HUMAN_ENGINE</text>
</g>
<!-- HUMAN_ENGINE&#45;&gt;penny_farthing -->
<g id="edge6" class="edge"><title>HUMAN_ENGINE&#45;&gt;penny_farthing</title>
<path fill="none" stroke="black" d="M180.841,-71.8314C172.849,-63.3694 163.196,-53.1489 154.458,-43.8971"/>
<polygon fill="black" stroke="black" points="156.801,-41.2802 147.39,-36.4133 151.712,-46.0866 156.801,-41.2802"/>
</g>
</g>
</svg>
