<?xml version="1.0" encoding="UTF-8" standalone="no"?>
<!DOCTYPE svg PUBLIC "-//W3C//DTD SVG 1.1//EN"
 "http://www.w3.org/Graphics/SVG/1.1/DTD/svg11.dtd">
<!-- Generated by graphviz version 2.26.0 (20091210.2329)
 -->
<!-- Title: Example Pages: 1 -->
<svg width="274pt" height="188pt"
 viewBox="0.00 0.00 274.00 188.00" xmlns="http://www.w3.org/2000/svg" xmlns:xlink="http://www.w3.org/1999/xlink">
<g id="graph1" class="graph" transform="scale(1 1) rotate(0) translate(4 184)">
<title>Example</title>
<polygon fill="none" stroke="none" points="-4,5 -4,-184 271,-184 271,5 -4,5"/>
<g id="graph2" class="cluster"><title>cluster_1</title>
<polygon fill="none" stroke="black" points="8,-8 8,-172 102,-172 102,-8 8,-8"/>
<text text-anchor="middle" x="55" y="-155.4" font-family="sans" font-size="14.00">Grouped</text>
</g>
<g id="graph3" class="cluster"><title>cluster_2</title>
<polygon fill="none" stroke="black" points="110,-13 110,-172 258,-172 258,-13 110,-13"/>
<text text-anchor="middle" x="184" y="-155.4" font-family="sans" font-size="14.00">Un&#45;Grouped</text>
</g>
<!-- foo.1 -->
<g id="node2" class="node"><title>foo.1</title>
<ellipse fill="none" stroke="black" cx="55" cy="-119" rx="27" ry="18.3848"/>
<text text-anchor="middle" x="55" y="-115.4" font-family="sans" font-size="14.00">foo</text>
</g>
<!-- BAR.1 -->
<g id="node3" class="node"><title>BAR.1</title>
<polygon fill="none" stroke="black" points="90.2069,-31.7573 90.2069,-48.2427 69.5832,-59.8995 40.4168,-59.8995 19.7931,-48.2427 19.7931,-31.7573 40.4168,-20.1005 69.5832,-20.1005 90.2069,-31.7573"/>
<polygon fill="none" stroke="black" points="94.2069,-29.4235 94.2069,-50.5765 70.6354,-63.8995 39.3646,-63.8995 15.7931,-50.5765 15.7931,-29.4235 39.3646,-16.1005 70.6354,-16.1005 94.2069,-29.4235"/>
<text text-anchor="middle" x="55" y="-36.4" font-family="sans" font-size="14.00">BAR</text>
</g>
<!-- foo.1&#45;&gt;BAR.1 -->
<g id="edge4" class="edge"><title>foo.1&#45;&gt;BAR.1</title>
<path fill="none" stroke="black" d="M55,-100.278C55,-92.4729 55,-83.1546 55,-74.2055"/>
<polygon fill="black" stroke="black" points="58.5001,-73.9824 55,-63.9824 51.5001,-73.9824 58.5001,-73.9824"/>
</g>
<!-- foo.2 -->
<g id="node5" class="node"><title>foo.2</title>
<ellipse fill="none" stroke="black" cx="183" cy="-119" rx="27" ry="18.3848"/>
<text text-anchor="middle" x="183" y="-115.4" font-family="sans" font-size="14.00">foo</text>
</g>
<!-- bar.2 -->
<g id="node6" class="node"><title>bar.2</title>
<ellipse fill="none" stroke="black" cx="146" cy="-40" rx="27.7881" ry="18.3848"/>
<text text-anchor="middle" x="146" y="-36.4" font-family="sans" font-size="14.00">bar</text>
</g>
<!-- foo.2&#45;&gt;bar.2 -->
<g id="edge6" class="edge"><title>foo.2&#45;&gt;bar.2</title>
<path fill="none" stroke="black" d="M174.604,-101.074C169.921,-91.074 163.991,-78.4135 158.747,-67.2157"/>
<polygon fill="black" stroke="black" points="161.774,-65.4268 154.363,-57.8554 155.435,-68.3959 161.774,-65.4268"/>
</g>
<!-- baz.2 -->
<g id="node7" class="node"><title>baz.2</title>
<ellipse fill="none" stroke="black" cx="221" cy="-40" rx="28.9914" ry="18.3848"/>
<text text-anchor="middle" x="221" y="-36.4" font-family="sans" font-size="14.00">baz</text>
</g>
<!-- foo.2&#45;&gt;baz.2 -->
<g id="edge8" class="edge"><title>foo.2&#45;&gt;baz.2</title>
<path fill="none" stroke="black" d="M191.623,-101.074C196.481,-90.973 202.646,-78.1575 208.072,-66.8768"/>
<polygon fill="black" stroke="black" points="211.231,-68.3842 212.411,-57.8554 204.922,-65.3499 211.231,-68.3842"/>
</g>
</g>
</svg>
