<?xml version="1.0" encoding="UTF-8" standalone="no"?>
<!DOCTYPE svg PUBLIC "-//W3C//DTD SVG 1.1//EN"
 "http://www.w3.org/Graphics/SVG/1.1/DTD/svg11.dtd">
<!-- Generated by graphviz version 2.26.0 (20091210.2329)
 -->
<!-- Title: example Pages: 1 -->
<svg width="474pt" height="128pt"
 viewBox="0.00 0.00 474.00 128.00" xmlns="http://www.w3.org/2000/svg" xmlns:xlink="http://www.w3.org/1999/xlink">
<g id="graph1" class="graph" transform="scale(1 1) rotate(0) translate(4 124)">
<title>example</title>
<polygon fill="none" stroke="none" points="-4,5 -4,-124 471,-124 471,5 -4,5"/>
<g id="graph2" class="cluster"><title>cluster_1</title>
<polygon fill="none" stroke="black" stroke-dasharray="5,2" points="8,-8 8,-112 228,-112 228,-8 8,-8"/>
<text text-anchor="middle" x="118" y="-95.4" font-family="sans" font-size="14.00">1</text>
</g>
<g id="graph3" class="cluster"><title>cluster_2</title>
<polygon fill="none" stroke="black" stroke-dasharray="5,2" points="236,-8 236,-112 306,-112 306,-8 236,-8"/>
<text text-anchor="middle" x="271" y="-95.4" font-family="sans" font-size="14.00">2</text>
</g>
<g id="graph4" class="cluster"><title>cluster_3</title>
<polygon fill="none" stroke="black" stroke-dasharray="5,2" points="314,-8 314,-112 458,-112 458,-8 314,-8"/>
<text text-anchor="middle" x="386" y="-95.4" font-family="sans" font-size="14.00">3</text>
</g>
<!-- foo.1 -->
<g id="node2" class="node"><title>foo.1</title>
<ellipse fill="none" stroke="black" cx="193" cy="-47" rx="27" ry="31.1127"/>
<text text-anchor="middle" x="193" y="-52.4" font-family="sans" font-size="14.00">foo</text>
<text text-anchor="middle" x="193" y="-34.4" font-family="sans" font-size="14.00">1</text>
</g>
<!-- bar.1 -->
<g id="node3" class="node"><title>bar.1</title>
<ellipse fill="none" stroke="black" cx="120" cy="-47" rx="27.7881" ry="31.1127"/>
<text text-anchor="middle" x="120" y="-52.4" font-family="sans" font-size="14.00">bar</text>
<text text-anchor="middle" x="120" y="-34.4" font-family="sans" font-size="14.00">1</text>
</g>
<!-- baz.1 -->
<g id="node4" class="node"><title>baz.1</title>
<ellipse fill="none" stroke="black" cx="45" cy="-47" rx="28.9914" ry="31.1127"/>
<text text-anchor="middle" x="45" y="-52.4" font-family="sans" font-size="14.00">baz</text>
<text text-anchor="middle" x="45" y="-34.4" font-family="sans" font-size="14.00">1</text>
</g>
<!-- foo.2 -->
<g id="node6" class="node"><title>foo.2</title>
<ellipse fill="none" stroke="black" cx="271" cy="-47" rx="27" ry="31.1127"/>
<text text-anchor="middle" x="271" y="-52.4" font-family="sans" font-size="14.00">foo</text>
<text text-anchor="middle" x="271" y="-34.4" font-family="sans" font-size="14.00">2</text>
</g>
<!-- foo.3 -->
<g id="node8" class="node"><title>foo.3</title>
<ellipse fill="none" stroke="black" cx="423" cy="-47" rx="27" ry="31.1127"/>
<text text-anchor="middle" x="423" y="-52.4" font-family="sans" font-size="14.00">foo</text>
<text text-anchor="middle" x="423" y="-34.4" font-family="sans" font-size="14.00">3</text>
</g>
<!-- bar.3 -->
<g id="node9" class="node"><title>bar.3</title>
<ellipse fill="none" stroke="black" cx="350" cy="-47" rx="27.7881" ry="31.1127"/>
<text text-anchor="middle" x="350" y="-52.4" font-family="sans" font-size="14.00">bar</text>
<text text-anchor="middle" x="350" y="-34.4" font-family="sans" font-size="14.00">3</text>
</g>
</g>
</svg>
