<?xml version="1.0" encoding="UTF-8" standalone="no"?>
<!DOCTYPE svg PUBLIC "-//W3C//DTD SVG 1.1//EN"
 "http://www.w3.org/Graphics/SVG/1.1/DTD/svg11.dtd">
<!-- Generated by graphviz version 2.26.0 (20091210.2329)
 -->
<!-- Title: Example Pages: 1 -->
<svg width="162pt" height="254pt"
 viewBox="0.00 0.00 162.00 254.00" xmlns="http://www.w3.org/2000/svg" xmlns:xlink="http://www.w3.org/1999/xlink">
<g id="graph1" class="graph" transform="scale(1 1) rotate(0) translate(4 250)">
<title>Example</title>
<polygon fill="none" stroke="none" points="-4,5 -4,-250 159,-250 159,5 -4,5"/>
<g id="graph2" class="cluster"><title>cluster_1</title>
<polygon fill="none" stroke="orange" stroke-dasharray="5,2" points="8,-8 8,-106 86,-106 86,-8 8,-8"/>
<text text-anchor="middle" x="47" y="-35.4" font-family="sans" font-size="14.00" fill="orange">Faulty</text>
<text text-anchor="middle" x="47" y="-17.4" font-family="sans" font-size="14.00" fill="orange">Task</text>
</g>
<!-- pub -->
<g id="node2" class="node"><title>pub</title>
<ellipse fill="none" stroke="black" cx="47" cy="-79" rx="31.1127" ry="18.3848"/>
<text text-anchor="middle" x="47" y="-75.4" font-family="sans" font-size="14.00">pub</text>
</g>
<!-- foo -->
<g id="node3" class="node"><title>foo</title>
<ellipse fill="none" stroke="black" cx="86" cy="-227" rx="27" ry="18.3848"/>
<text text-anchor="middle" x="86" y="-223.4" font-family="sans" font-size="14.00">foo</text>
</g>
<!-- bar -->
<g id="node5" class="node"><title>bar</title>
<ellipse fill="none" stroke="black" cx="86" cy="-153" rx="27.7881" ry="18.3848"/>
<text text-anchor="middle" x="86" y="-149.4" font-family="sans" font-size="14.00">bar</text>
</g>
<!-- foo&#45;&gt;bar -->
<g id="edge3" class="edge"><title>foo&#45;&gt;bar</title>
<path fill="none" stroke="black" d="M86,-208.327C86,-200.264 86,-190.648 86,-181.711"/>
<polygon fill="black" stroke="black" points="89.5001,-181.667 86,-171.667 82.5001,-181.667 89.5001,-181.667"/>
</g>
<!-- bar&#45;&gt;pub -->
<g id="edge6" class="edge"><title>bar&#45;&gt;pub</title>
<path fill="none" stroke="black" d="M76.7575,-135.463C72.0804,-126.589 66.3027,-115.626 61.0863,-105.728"/>
<polygon fill="black" stroke="black" points="64.07,-103.882 56.3113,-96.6675 57.8774,-107.146 64.07,-103.882"/>
</g>
<!-- baz -->
<g id="node6" class="node"><title>baz</title>
<ellipse fill="none" stroke="black" cx="125" cy="-79" rx="28.9914" ry="18.3848"/>
<text text-anchor="middle" x="125" y="-75.4" font-family="sans" font-size="14.00">baz</text>
</g>
<!-- bar&#45;&gt;baz -->
<g id="edge4" class="edge"><title>bar&#45;&gt;baz</title>
<path fill="none" stroke="black" d="M95.2425,-135.463C99.9196,-126.589 105.697,-115.626 110.914,-105.728"/>
<polygon fill="black" stroke="black" points="114.123,-107.146 115.689,-96.6675 107.93,-103.882 114.123,-107.146"/>
</g>
</g>
</svg>
