<?xml version="1.0" encoding="UTF-8" standalone="no"?>
<!DOCTYPE svg PUBLIC "-//W3C//DTD SVG 1.1//EN"
 "http://www.w3.org/Graphics/SVG/1.1/DTD/svg11.dtd">
<!-- Generated by graphviz version 2.26.0 (20091210.2329)
 -->
<!-- Title: Mini_Cylc Pages: 1 -->
<svg width="206pt" height="268pt"
 viewBox="0.00 0.00 206.00 268.00" xmlns="http://www.w3.org/2000/svg" xmlns:xlink="http://www.w3.org/1999/xlink">
<g id="graph1" class="graph" transform="scale(1 1) rotate(0) translate(4 264)">
<title>Mini_Cylc</title>
<polygon fill="none" stroke="none" points="-4,5 -4,-264 203,-264 203,5 -4,5"/>
<!-- b -->
<g id="node1" class="node"><title>b</title>
<ellipse fill="none" stroke="black" cx="135" cy="-167" rx="27" ry="18.3848"/>
<text text-anchor="middle" x="135" y="-163.4" font-family="sans" font-size="14.00">b</text>
</g>
<!-- c -->
<g id="node3" class="node"><title>c</title>
<ellipse fill="none" stroke="black" cx="99" cy="-93" rx="27" ry="18.3848"/>
<text text-anchor="middle" x="99" y="-89.4" font-family="sans" font-size="14.00">c</text>
</g>
<!-- b&#45;&gt;c -->
<g id="edge2" class="edge"><title>b&#45;&gt;c</title>
<path fill="none" stroke="black" d="M126.285,-149.087C122.04,-140.361 116.846,-129.684 112.134,-119.997"/>
<polygon fill="black" stroke="black" points="115.156,-118.21 107.634,-110.748 108.862,-121.272 115.156,-118.21"/>
</g>
<!-- d -->
<g id="node8" class="node"><title>d</title>
<ellipse fill="none" stroke="black" cx="171" cy="-93" rx="27" ry="18.3848"/>
<text text-anchor="middle" x="171" y="-89.4" font-family="sans" font-size="14.00">d</text>
</g>
<!-- b&#45;&gt;d -->
<g id="edge6" class="edge"><title>b&#45;&gt;d</title>
<path fill="none" stroke="black" d="M143.715,-149.087C147.96,-140.361 153.154,-129.684 157.866,-119.997"/>
<polygon fill="black" stroke="black" points="161.138,-121.272 162.366,-110.748 154.844,-118.21 161.138,-121.272"/>
</g>
<!-- e -->
<g id="node4" class="node"><title>e</title>
<ellipse fill="none" stroke="black" cx="27" cy="-93" rx="27" ry="18.3848"/>
<text text-anchor="middle" x="27" y="-89.4" font-family="sans" font-size="14.00">e</text>
</g>
<!-- f -->
<g id="node6" class="node"><title>f</title>
<ellipse fill="none" stroke="black" cx="99" cy="-19" rx="27" ry="18.3848"/>
<text text-anchor="middle" x="99" y="-15.4" font-family="sans" font-size="14.00">f</text>
</g>
<!-- e&#45;&gt;f -->
<g id="edge4" class="edge"><title>e&#45;&gt;f</title>
<path fill="none" stroke="black" d="M42.2693,-77.3065C52.3602,-66.9354 65.7474,-53.1763 76.9831,-41.6285"/>
<polygon fill="black" stroke="black" points="79.5345,-44.0252 83.9996,-34.4171 74.5174,-39.1437 79.5345,-44.0252"/>
</g>
<!-- d&#45;&gt;f -->
<g id="edge10" class="edge"><title>d&#45;&gt;f</title>
<path fill="none" stroke="black" d="M155.731,-77.3065C145.64,-66.9354 132.253,-53.1763 121.017,-41.6285"/>
<polygon fill="black" stroke="black" points="123.483,-39.1437 114,-34.4171 118.465,-44.0252 123.483,-39.1437"/>
</g>
<!-- a -->
<g id="node9" class="node"><title>a</title>
<ellipse fill="none" stroke="black" cx="135" cy="-241" rx="27" ry="18.3848"/>
<text text-anchor="middle" x="135" y="-237.4" font-family="sans" font-size="14.00">a</text>
</g>
<!-- a&#45;&gt;b -->
<g id="edge8" class="edge"><title>a&#45;&gt;b</title>
<path fill="none" stroke="black" d="M135,-222.327C135,-214.264 135,-204.648 135,-195.711"/>
<polygon fill="black" stroke="black" points="138.5,-195.667 135,-185.667 131.5,-195.667 138.5,-195.667"/>
</g>
</g>
</svg>
