<?xml version="1.0" encoding="UTF-8" standalone="no"?>
<!DOCTYPE svg PUBLIC "-//W3C//DTD SVG 1.1//EN"
 "http://www.w3.org/Graphics/SVG/1.1/DTD/svg11.dtd">
<!-- Generated by graphviz version 2.30.1 (20170916.1124)
 -->
<!-- Title: example Pages: 1 -->
<svg width="504pt" height="97pt"
 viewBox="0.00 0.00 504.00 97.41" xmlns="http://www.w3.org/2000/svg" xmlns:xlink="http://www.w3.org/1999/xlink">
<g id="graph0" class="graph" transform="scale(0.470588 0.470588) rotate(0) translate(4 203)">
<title>example</title>
<polygon fill="none" stroke="none" points="-4,5 -4,-203 1068,-203 1068,5 -4,5"/>
<g id="clust1" class="cluster"><title>cluster_T00</title>
<polygon fill="none" stroke="black" stroke-dasharray="5,2" points="8,-98 8,-191 300,-191 300,-98 8,-98"/>
<text text-anchor="middle" x="154" y="-175.8" font-family="sans" font-size="14.00">+PT0H</text>
</g>
<g id="clust2" class="cluster"><title>cluster_T03</title>
<polygon fill="none" stroke="black" stroke-dasharray="5,2" points="763,-98 763,-191 1055,-191 1055,-98 763,-98"/>
<text text-anchor="middle" x="909" y="-175.8" font-family="sans" font-size="14.00">+PT3H</text>
</g>
<g id="clust3" class="cluster"><title>cluster_T06</title>
<polygon fill="none" stroke="black" stroke-dasharray="5,2" points="308,-8 308,-191 755,-191 755,-8 308,-8"/>
<text text-anchor="middle" x="531.5" y="-175.8" font-family="sans" font-size="14.00">+PT6H</text>
</g>
<!-- observations.t00 -->
<g id="node1" class="node"><title>observations.t00</title>
<ellipse fill="none" stroke="black" cx="154" cy="-133" rx="137.329" ry="26.7407"/>
<text text-anchor="middle" x="154" y="-136.8" font-family="sans" font-size="14.00">consolidate observations</text>
<text text-anchor="middle" x="154" y="-121.8" font-family="sans" font-size="14.00">+PT0H</text>
</g>
<!-- forecast.t06 -->
<g id="node3" class="node"><title>forecast.t06</title>
<ellipse fill="none" stroke="black" cx="566" cy="-43" rx="53.0495" ry="26.7407"/>
<text text-anchor="middle" x="566" y="-46.8" font-family="sans" font-size="14.00">forecast</text>
<text text-anchor="middle" x="566" y="-31.8" font-family="sans" font-size="14.00">+PT6H</text>
</g>
<!-- observations.t00&#45;&gt;forecast.t06 -->
<g id="edge1" class="edge"><title>observations.t00&#45;&gt;forecast.t06</title>
<path fill="none" stroke="black" d="M240.79,-112.023C261.486,-107.344 283.513,-102.433 304,-98 373.722,-82.9146 454.098,-66.4916 507.243,-55.7669"/>
<polygon fill="black" stroke="black" points="508.058,-59.1732 517.169,-53.7662 506.675,-52.3112 508.058,-59.1732"/>
</g>
<!-- observations.t03 -->
<g id="node2" class="node"><title>observations.t03</title>
<ellipse fill="none" stroke="black" cx="909" cy="-133" rx="137.329" ry="26.7407"/>
<text text-anchor="middle" x="909" y="-136.8" font-family="sans" font-size="14.00">consolidate observations</text>
<text text-anchor="middle" x="909" y="-121.8" font-family="sans" font-size="14.00">+PT3H</text>
</g>
<!-- observations.t03&#45;&gt;forecast.t06 -->
<g id="edge2" class="edge"><title>observations.t03&#45;&gt;forecast.t06</title>
<path fill="none" stroke="black" d="M828.148,-111.257C764.809,-95.0065 678.321,-72.8171 622.313,-58.4477"/>
<polygon fill="black" stroke="black" points="623.122,-55.0419 612.566,-55.9469 621.382,-61.8223 623.122,-55.0419"/>
</g>
<!-- get_rainfall.t06 -->
<g id="node4" class="node"><title>get_rainfall.t06</title>
<ellipse fill="none" stroke="black" cx="678" cy="-133" rx="68.3838" ry="26.7407"/>
<text text-anchor="middle" x="678" y="-136.8" font-family="sans" font-size="14.00">get_rainfall</text>
<text text-anchor="middle" x="678" y="-121.8" font-family="sans" font-size="14.00">+PT6H</text>
</g>
<!-- get_rainfall.t06&#45;&gt;forecast.t06 -->
<g id="edge4" class="edge"><title>get_rainfall.t06&#45;&gt;forecast.t06</title>
<path fill="none" stroke="black" d="M648.28,-108.649C634.063,-97.4783 616.924,-84.0118 601.977,-72.2674"/>
<polygon fill="black" stroke="black" points="603.956,-69.3716 593.931,-65.9455 599.631,-74.8759 603.956,-69.3716"/>
</g>
<!-- observations.t06 -->
<g id="node5" class="node"><title>observations.t06</title>
<ellipse fill="none" stroke="black" cx="454" cy="-133" rx="137.329" ry="26.7407"/>
<text text-anchor="middle" x="454" y="-136.8" font-family="sans" font-size="14.00">consolidate observations</text>
<text text-anchor="middle" x="454" y="-121.8" font-family="sans" font-size="14.00">+PT6H</text>
</g>
<!-- observations.t06&#45;&gt;forecast.t06 -->
<g id="edge3" class="edge"><title>observations.t06&#45;&gt;forecast.t06</title>
<path fill="none" stroke="black" d="M486.095,-106.783C499.82,-95.9989 515.903,-83.3619 530.028,-72.2634"/>
<polygon fill="black" stroke="black" points="532.385,-74.8626 538.086,-65.9322 528.061,-69.3583 532.385,-74.8626"/>
</g>
</g>
</svg>
