<?xml version="1.0" encoding="UTF-8" standalone="no"?>
<!DOCTYPE svg PUBLIC "-//W3C//DTD SVG 1.1//EN"
 "http://www.w3.org/Graphics/SVG/1.1/DTD/svg11.dtd">
<!-- Generated by graphviz version 2.30.1 (20170916.1124)
 -->
<!-- Title: Example Pages: 1 -->
<svg width="135pt" height="263pt"
 viewBox="0.00 0.00 135.25 263.00" xmlns="http://www.w3.org/2000/svg" xmlns:xlink="http://www.w3.org/1999/xlink">
<g id="graph0" class="graph" transform="scale(1 1) rotate(0) translate(4 259)">
<title>Example</title>
<polygon fill="none" stroke="none" points="-4,5 -4,-259 132.247,-259 132.247,5 -4,5"/>
<g id="clust1" class="cluster"><title>cluster_1</title>
<polygon fill="none" stroke="red" stroke-dasharray="5,2" points="8,-64 8,-139 116,-139 116,-64 8,-64"/>
<text text-anchor="middle" x="62" y="-123.8" font-family="sans" font-size="14.00" fill="red">:fail</text>
</g>
<!-- recover -->
<g id="node1" class="node"><title>recover</title>
<ellipse fill="none" stroke="black" cx="62" cy="-90" rx="46.2191" ry="18"/>
<text text-anchor="middle" x="62" y="-86.3" font-family="sans" font-size="14.00">recover</text>
</g>
<!-- baz -->
<g id="node4" class="node"><title>baz</title>
<ellipse fill="none" stroke="black" cx="99" cy="-18" rx="26.949" ry="18"/>
<text text-anchor="middle" x="99" y="-14.3" font-family="sans" font-size="14.00">baz</text>
</g>
<!-- recover&#45;&gt;baz -->
<g id="edge3" class="edge"><title>recover&#45;&gt;baz</title>
<path fill="none" stroke="black" d="M70.9567,-72.055C75.3377,-63.7665 80.702,-53.6178 85.5615,-44.4241"/>
<polygon fill="none" stroke="black" points="88.8018,-45.7836 90.3806,-35.307 82.6131,-42.5124 88.8018,-45.7836"/>
</g>
<!-- foo -->
<g id="node2" class="node"><title>foo</title>
<ellipse fill="none" stroke="black" cx="99" cy="-237" rx="27" ry="18"/>
<text text-anchor="middle" x="99" y="-233.3" font-family="sans" font-size="14.00">foo</text>
</g>
<!-- bar -->
<g id="node3" class="node"><title>bar</title>
<ellipse fill="none" stroke="black" cx="99" cy="-165" rx="27" ry="18"/>
<text text-anchor="middle" x="99" y="-161.3" font-family="sans" font-size="14.00">bar</text>
</g>
<!-- foo&#45;&gt;bar -->
<g id="edge1" class="edge"><title>foo&#45;&gt;bar</title>
<path fill="none" stroke="black" d="M99,-218.697C99,-210.983 99,-201.712 99,-193.112"/>
<polygon fill="black" stroke="black" points="102.5,-193.104 99,-183.104 95.5001,-193.104 102.5,-193.104"/>
</g>
<!-- bar&#45;&gt;recover -->
<g id="edge2" class="edge"><title>bar&#45;&gt;recover</title>
<path fill="none" stroke="black" d="M90.7885,-147.799C86.1918,-138.73 80.3526,-127.209 75.1362,-116.917"/>
<polygon fill="black" stroke="black" points="78.2172,-115.254 70.5743,-107.917 71.9734,-118.419 78.2172,-115.254"/>
</g>
<!-- bar&#45;&gt;baz -->
<g id="edge4" class="edge"><title>bar&#45;&gt;baz</title>
<path fill="none" stroke="black" d="M113.786,-149.763C116.331,-146.49 118.603,-142.835 120,-139 131.409,-107.68 127.219,-96.5421 120,-64 118.53,-57.3719 115.977,-50.5633 113.146,-44.3125"/>
<polygon fill="none" stroke="black" points="116.145,-42.4791 108.586,-35.0551 109.865,-45.5725 116.145,-42.4791"/>
</g>
</g>
</svg>
