<?xml version="1.0" encoding="UTF-8" standalone="no"?>
<!DOCTYPE svg PUBLIC "-//W3C//DTD SVG 1.1//EN"
 "http://www.w3.org/Graphics/SVG/1.1/DTD/svg11.dtd">
<!-- Generated by graphviz version 2.30.1 (20170916.1124)
 -->
<!-- Title: Example Pages: 1 -->
<svg width="360pt" height="63pt"
 viewBox="0.00 0.00 360.00 63.47" xmlns="http://www.w3.org/2000/svg" xmlns:xlink="http://www.w3.org/1999/xlink">
<g id="graph0" class="graph" transform="scale(0.547112 0.547112) rotate(0) translate(4 112)">
<title>Example</title>
<polygon fill="none" stroke="none" points="-4,5 -4,-112 655,-112 655,5 -4,5"/>
<!-- ENGINE -->
<g id="node1" class="node"><title>ENGINE</title>
<polygon fill="powderblue" stroke="royalblue" points="379.25,-108 280.75,-108 280.75,-72 379.25,-72 379.25,-108"/>
<text text-anchor="middle" x="330" y="-86.3" font-family="sans" font-size="14.00">ENGINE</text>
</g>
<!-- TURBINE_ENGINE -->
<g id="node2" class="node"><title>TURBINE_ENGINE</title>
<polygon fill="powderblue" stroke="royalblue" points="170,-36 0,-36 0,-0 170,-0 170,-36"/>
<text text-anchor="middle" x="85" y="-14.3" font-family="sans" font-size="14.00">TURBINE_ENGINE</text>
</g>
<!-- ENGINE&#45;&gt;TURBINE_ENGINE -->
<g id="edge1" class="edge"><title>ENGINE&#45;&gt;TURBINE_ENGINE</title>
<path fill="none" stroke="black" d="M280.715,-74.9187C244.441,-64.5545 194.637,-50.325 154.349,-38.814"/>
<polygon fill="black" stroke="black" points="155.167,-35.4078 144.59,-36.0259 153.244,-42.1385 155.167,-35.4078"/>
</g>
<!-- INTERNAL_COMBUSTION_ENGINE -->
<g id="node3" class="node"><title>INTERNAL_COMBUSTION_ENGINE</title>
<polygon fill="powderblue" stroke="royalblue" points="471.25,-36 188.75,-36 188.75,-0 471.25,-0 471.25,-36"/>
<text text-anchor="middle" x="330" y="-14.3" font-family="sans" font-size="14.00">INTERNAL_COMBUSTION_ENGINE</text>
</g>
<!-- ENGINE&#45;&gt;INTERNAL_COMBUSTION_ENGINE -->
<g id="edge2" class="edge"><title>ENGINE&#45;&gt;INTERNAL_COMBUSTION_ENGINE</title>
<path fill="none" stroke="black" d="M330,-71.6966C330,-63.9827 330,-54.7125 330,-46.1124"/>
<polygon fill="black" stroke="black" points="333.5,-46.1043 330,-36.1043 326.5,-46.1044 333.5,-46.1043"/>
</g>
<!-- HUMAN_ENGINE -->
<g id="node4" class="node"><title>HUMAN_ENGINE</title>
<polygon fill="powderblue" stroke="royalblue" points="650,-36 490,-36 490,-0 650,-0 650,-36"/>
<text text-anchor="middle" x="570" y="-14.3" font-family="sans" font-size="14.00">HUMAN_ENGINE</text>
</g>
<!-- ENGINE&#45;&gt;HUMAN_ENGINE -->
<g id="edge3" class="edge"><title>ENGINE&#45;&gt;HUMAN_ENGINE</title>
<path fill="none" stroke="black" d="M379.437,-74.5808C414.731,-64.2869 462.654,-50.3091 501.612,-38.9464"/>
<polygon fill="black" stroke="black" points="502.69,-42.2779 511.31,-36.1178 500.73,-35.5579 502.69,-42.2779"/>
</g>
</g>
</svg>
