<?xml version="1.0" encoding="UTF-8" standalone="no"?>
<!DOCTYPE svg PUBLIC "-//W3C//DTD SVG 1.1//EN"
 "http://www.w3.org/Graphics/SVG/1.1/DTD/svg11.dtd">
<!-- Generated by graphviz version 2.30.1 (20170916.1124)
 -->
<!-- Title: bakery Pages: 1 -->
<svg width="356pt" height="260pt"
 viewBox="0.00 0.00 356.00 260.00" xmlns="http://www.w3.org/2000/svg" xmlns:xlink="http://www.w3.org/1999/xlink">
<g id="graph0" class="graph" transform="scale(1 1) rotate(0) translate(4 256)">
<title>bakery</title>
<polygon fill="none" stroke="none" points="-4,5 -4,-256 353,-256 353,5 -4,5"/>
<!-- purchase ingredients -->
<g id="node1" class="node"><title>purchase ingredients</title>
<ellipse fill="none" stroke="black" cx="108" cy="-234" rx="108.31" ry="18"/>
<text text-anchor="middle" x="108" y="-230.3" font-family="sans" font-size="14.00">purchase ingredients</text>
</g>
<!-- make dough -->
<g id="node2" class="node"><title>make dough</title>
<ellipse fill="none" stroke="black" cx="108" cy="-162" rx="68.3417" ry="18"/>
<text text-anchor="middle" x="108" y="-158.3" font-family="sans" font-size="14.00">make dough</text>
</g>
<!-- purchase ingredients&#45;&gt;make dough -->
<g id="edge1" class="edge"><title>purchase ingredients&#45;&gt;make dough</title>
<path fill="none" stroke="black" d="M108,-215.697C108,-207.983 108,-198.712 108,-190.112"/>
<polygon fill="black" stroke="black" points="111.5,-190.104 108,-180.104 104.5,-190.104 111.5,-190.104"/>
</g>
<!-- bake bread -->
<g id="node3" class="node"><title>bake bread</title>
<ellipse fill="none" stroke="black" cx="190" cy="-90" rx="63.5411" ry="18"/>
<text text-anchor="middle" x="190" y="-86.3" font-family="sans" font-size="14.00">bake bread</text>
</g>
<!-- make dough&#45;&gt;bake bread -->
<g id="edge2" class="edge"><title>make dough&#45;&gt;bake bread</title>
<path fill="none" stroke="black" d="M127.433,-144.411C138.13,-135.279 151.566,-123.809 163.242,-113.842"/>
<polygon fill="black" stroke="black" points="165.656,-116.383 170.99,-107.228 161.111,-111.059 165.656,-116.383"/>
</g>
<!-- sell bread -->
<g id="node4" class="node"><title>sell bread</title>
<ellipse fill="none" stroke="black" cx="122" cy="-18" rx="56.3173" ry="18"/>
<text text-anchor="middle" x="122" y="-14.3" font-family="sans" font-size="14.00">sell bread</text>
</g>
<!-- bake bread&#45;&gt;sell bread -->
<g id="edge3" class="edge"><title>bake bread&#45;&gt;sell bread</title>
<path fill="none" stroke="black" d="M173.885,-72.411C165.332,-63.6062 154.667,-52.6282 145.236,-42.9189"/>
<polygon fill="black" stroke="black" points="147.478,-40.204 137.999,-35.4699 142.457,-45.0815 147.478,-40.204"/>
</g>
<!-- clean oven -->
<g id="node5" class="node"><title>clean oven</title>
<ellipse fill="none" stroke="black" cx="258" cy="-18" rx="61.6163" ry="18"/>
<text text-anchor="middle" x="258" y="-14.3" font-family="sans" font-size="14.00">clean oven</text>
</g>
<!-- bake bread&#45;&gt;clean oven -->
<g id="edge4" class="edge"><title>bake bread&#45;&gt;clean oven</title>
<path fill="none" stroke="black" d="M206.115,-72.411C214.668,-63.6062 225.333,-52.6282 234.764,-42.9189"/>
<polygon fill="black" stroke="black" points="237.543,-45.0815 242.001,-35.4699 232.522,-40.204 237.543,-45.0815"/>
</g>
<!-- pre&#45;heat oven -->
<g id="node6" class="node"><title>pre&#45;heat oven</title>
<ellipse fill="none" stroke="black" cx="272" cy="-162" rx="76.5394" ry="18"/>
<text text-anchor="middle" x="272" y="-158.3" font-family="sans" font-size="14.00">pre&#45;heat oven</text>
</g>
<!-- pre&#45;heat oven&#45;&gt;bake bread -->
<g id="edge5" class="edge"><title>pre&#45;heat oven&#45;&gt;bake bread</title>
<path fill="none" stroke="black" d="M252.567,-144.411C241.87,-135.279 228.434,-123.809 216.758,-113.842"/>
<polygon fill="black" stroke="black" points="218.889,-111.059 209.01,-107.228 214.344,-116.383 218.889,-111.059"/>
</g>
</g>
</svg>
