<?xml version="1.0" encoding="UTF-8" standalone="no"?>
<!DOCTYPE svg PUBLIC "-//W3C//DTD SVG 1.1//EN"
 "http://www.w3.org/Graphics/SVG/1.1/DTD/svg11.dtd">
<!-- Generated by graphviz version 2.30.1 (20170916.1124)
 -->
<!-- Title: example Pages: 1 -->
<svg width="486pt" height="117pt"
 viewBox="0.00 0.00 486.00 117.00" xmlns="http://www.w3.org/2000/svg" xmlns:xlink="http://www.w3.org/1999/xlink">
<g id="graph0" class="graph" transform="scale(1 1) rotate(0) translate(4 113)">
<title>example</title>
<polygon fill="none" stroke="none" points="-4,5 -4,-113 483,-113 483,5 -4,5"/>
<g id="clust1" class="cluster"><title>cluster_1</title>
<polygon fill="none" stroke="black" stroke-dasharray="5,2" points="8,-8 8,-101 234,-101 234,-8 8,-8"/>
<text text-anchor="middle" x="121" y="-85.8" font-family="sans" font-size="14.00">1</text>
</g>
<g id="clust2" class="cluster"><title>cluster_2</title>
<polygon fill="none" stroke="black" stroke-dasharray="5,2" points="242,-8 242,-101 314,-101 314,-8 242,-8"/>
<text text-anchor="middle" x="278" y="-85.8" font-family="sans" font-size="14.00">2</text>
</g>
<g id="clust3" class="cluster"><title>cluster_3</title>
<polygon fill="none" stroke="black" stroke-dasharray="5,2" points="322,-8 322,-101 470,-101 470,-8 322,-8"/>
<text text-anchor="middle" x="396" y="-85.8" font-family="sans" font-size="14.00">3</text>
</g>
<!-- foo.1 -->
<g id="node1" class="node"><title>foo.1</title>
<ellipse fill="none" stroke="black" cx="198" cy="-43" rx="27.9291" ry="26.7407"/>
<text text-anchor="middle" x="198" y="-46.8" font-family="sans" font-size="14.00">foo</text>
<text text-anchor="middle" x="198" y="-31.8" font-family="sans" font-size="14.00">1</text>
</g>
<!-- bar.1 -->
<g id="node2" class="node"><title>bar.1</title>
<ellipse fill="none" stroke="black" cx="123" cy="-43" rx="28.4872" ry="26.7407"/>
<text text-anchor="middle" x="123" y="-46.8" font-family="sans" font-size="14.00">bar</text>
<text text-anchor="middle" x="123" y="-31.8" font-family="sans" font-size="14.00">1</text>
</g>
<!-- baz.1 -->
<g id="node3" class="node"><title>baz.1</title>
<ellipse fill="none" stroke="black" cx="46" cy="-43" rx="29.5467" ry="26.7407"/>
<text text-anchor="middle" x="46" y="-46.8" font-family="sans" font-size="14.00">baz</text>
<text text-anchor="middle" x="46" y="-31.8" font-family="sans" font-size="14.00">1</text>
</g>
<!-- foo.2 -->
<g id="node4" class="node"><title>foo.2</title>
<ellipse fill="none" stroke="black" cx="278" cy="-43" rx="27.9291" ry="26.7407"/>
<text text-anchor="middle" x="278" y="-46.8" font-family="sans" font-size="14.00">foo</text>
<text text-anchor="middle" x="278" y="-31.8" font-family="sans" font-size="14.00">2</text>
</g>
<!-- foo.3 -->
<g id="node5" class="node"><title>foo.3</title>
<ellipse fill="none" stroke="black" cx="434" cy="-43" rx="27.9291" ry="26.7407"/>
<text text-anchor="middle" x="434" y="-46.8" font-family="sans" font-size="14.00">foo</text>
<text text-anchor="middle" x="434" y="-31.8" font-family="sans" font-size="14.00">3</text>
</g>
<!-- bar.3 -->
<g id="node6" class="node"><title>bar.3</title>
<ellipse fill="none" stroke="black" cx="359" cy="-43" rx="28.4872" ry="26.7407"/>
<text text-anchor="middle" x="359" y="-46.8" font-family="sans" font-size="14.00">bar</text>
<text text-anchor="middle" x="359" y="-31.8" font-family="sans" font-size="14.00">3</text>
</g>
</g>
</svg>
