<?xml version="1.0" encoding="UTF-8" standalone="no"?>
<!DOCTYPE svg PUBLIC "-//W3C//DTD SVG 1.1//EN"
 "http://www.w3.org/Graphics/SVG/1.1/DTD/svg11.dtd">
<!-- Generated by graphviz version 2.30.1 (20170916.1124)
 -->
<!-- Title: Example Pages: 1 -->
<svg width="228pt" height="188pt"
 viewBox="0.00 0.00 228.00 188.00" xmlns="http://www.w3.org/2000/svg" xmlns:xlink="http://www.w3.org/1999/xlink">
<g id="graph0" class="graph" transform="scale(1 1) rotate(0) translate(4 184)">
<title>Example</title>
<polygon fill="none" stroke="none" points="-4,5 -4,-184 225,-184 225,5 -4,5"/>
<!-- fcm_make_spaceship -->
<g id="node1" class="node"><title>fcm_make_spaceship</title>
<ellipse fill="none" stroke="black" cx="110" cy="-162" rx="110.235" ry="18"/>
<text text-anchor="middle" x="110" y="-158.3" font-family="sans" font-size="14.00">fcm_make_spaceship</text>
</g>
<!-- spaceship -->
<g id="node2" class="node"><title>spaceship</title>
<ellipse fill="none" stroke="black" cx="110" cy="-90" rx="57.2927" ry="18"/>
<text text-anchor="middle" x="110" y="-86.3" font-family="sans" font-size="14.00">spaceship</text>
</g>
<!-- fcm_make_spaceship&#45;&gt;spaceship -->
<g id="edge1" class="edge"><title>fcm_make_spaceship&#45;&gt;spaceship</title>
<path fill="none" stroke="black" d="M110,-143.697C110,-135.983 110,-126.712 110,-118.112"/>
<polygon fill="black" stroke="black" points="113.5,-118.104 110,-108.104 106.5,-118.104 113.5,-118.104"/>
</g>
<!-- rose_ana_position -->
<g id="node3" class="node"><title>rose_ana_position</title>
<ellipse fill="none" stroke="black" cx="110" cy="-18" rx="94.338" ry="18"/>
<text text-anchor="middle" x="110" y="-14.3" font-family="sans" font-size="14.00">rose_ana_position</text>
</g>
<!-- spaceship&#45;&gt;rose_ana_position -->
<g id="edge2" class="edge"><title>spaceship&#45;&gt;rose_ana_position</title>
<path fill="none" stroke="black" d="M110,-71.6966C110,-63.9827 110,-54.7125 110,-46.1124"/>
<polygon fill="black" stroke="black" points="113.5,-46.1043 110,-36.1043 106.5,-46.1044 113.5,-46.1043"/>
</g>
</g>
</svg>
