<?xml version="1.0" encoding="UTF-8" standalone="no"?>
<!DOCTYPE svg PUBLIC "-//W3C//DTD SVG 1.1//EN"
 "http://www.w3.org/Graphics/SVG/1.1/DTD/svg11.dtd">
<!-- Generated by graphviz version 2.30.1 (20170916.1124)
 -->
<!-- Title: example Pages: 1 -->
<svg width="504pt" height="418pt"
 viewBox="0.00 0.00 504.00 417.61" xmlns="http://www.w3.org/2000/svg" xmlns:xlink="http://www.w3.org/1999/xlink">
<g id="graph0" class="graph" transform="scale(0.447602 0.447602) rotate(0) translate(4 929)">
<title>example</title>
<polygon fill="none" stroke="none" points="-4,5 -4,-929 1123,-929 1123,5 -4,5"/>
<g id="clust1" class="cluster"><title>cluster_1</title>
<polygon fill="none" stroke="black" stroke-dasharray="5,2" points="8,-551 8,-917 370,-917 370,-551 8,-551"/>
<text text-anchor="middle" x="189" y="-901.8" font-family="sans" font-size="14.00">1</text>
</g>
<g id="clust2" class="cluster"><title>cluster_2</title>
<polygon fill="none" stroke="black" stroke-dasharray="5,2" points="378,-278 378,-644 740,-644 740,-278 378,-278"/>
<text text-anchor="middle" x="559" y="-628.8" font-family="sans" font-size="14.00">2</text>
</g>
<g id="clust3" class="cluster"><title>cluster_3</title>
<polygon fill="none" stroke="black" stroke-dasharray="5,2" points="748,-8 748,-371 1110,-371 1110,-8 748,-8"/>
<text text-anchor="middle" x="929" y="-355.8" font-family="sans" font-size="14.00">3</text>
</g>
<!-- pur.1 -->
<g id="node1" class="node"><title>pur.1</title>
<ellipse fill="none" stroke="black" cx="242" cy="-859" rx="120.312" ry="26.7407"/>
<text text-anchor="middle" x="242" y="-862.8" font-family="sans" font-size="14.00">purchase_ingredients</text>
<text text-anchor="middle" x="242" y="-847.8" font-family="sans" font-size="14.00">1</text>
</g>
<!-- mak.1 -->
<g id="node2" class="node"><title>mak.1</title>
<ellipse fill="none" stroke="black" cx="285" cy="-769" rx="77.112" ry="26.7407"/>
<text text-anchor="middle" x="285" y="-772.8" font-family="sans" font-size="14.00">make_dough</text>
<text text-anchor="middle" x="285" y="-757.8" font-family="sans" font-size="14.00">1</text>
</g>
<!-- pur.1&#45;&gt;mak.1 -->
<g id="edge1" class="edge"><title>pur.1&#45;&gt;mak.1</title>
<path fill="none" stroke="black" d="M254.669,-832.073C258.824,-823.569 263.512,-813.975 267.938,-804.918"/>
<polygon fill="black" stroke="black" points="271.176,-806.263 272.422,-795.742 264.887,-803.19 271.176,-806.263"/>
</g>
<!-- bak.1 -->
<g id="node3" class="node"><title>bak.1</title>
<ellipse fill="none" stroke="black" cx="213" cy="-679" rx="71.127" ry="26.7407"/>
<text text-anchor="middle" x="213" y="-682.8" font-family="sans" font-size="14.00">bake_bread</text>
<text text-anchor="middle" x="213" y="-667.8" font-family="sans" font-size="14.00">1</text>
</g>
<!-- mak.1&#45;&gt;bak.1 -->
<g id="edge2" class="edge"><title>mak.1&#45;&gt;bak.1</title>
<path fill="none" stroke="black" d="M264.56,-743.018C256.884,-733.636 248.039,-722.825 239.866,-712.836"/>
<polygon fill="black" stroke="black" points="242.532,-710.568 233.491,-705.044 237.114,-715 242.532,-710.568"/>
</g>
<!-- sel.1 -->
<g id="node4" class="node"><title>sel.1</title>
<ellipse fill="none" stroke="black" cx="142" cy="-586" rx="63.459" ry="26.7407"/>
<text text-anchor="middle" x="142" y="-589.8" font-family="sans" font-size="14.00">sell_bread</text>
<text text-anchor="middle" x="142" y="-574.8" font-family="sans" font-size="14.00">1</text>
</g>
<!-- bak.1&#45;&gt;sel.1 -->
<g id="edge3" class="edge"><title>bak.1&#45;&gt;sel.1</title>
<path fill="none" stroke="black" d="M193.599,-653.134C185.616,-642.902 176.254,-630.904 167.713,-619.956"/>
<polygon fill="black" stroke="black" points="170.289,-617.567 161.378,-611.836 164.77,-621.873 170.289,-617.567"/>
</g>
<!-- cle.1 -->
<g id="node5" class="node"><title>cle.1</title>
<ellipse fill="none" stroke="black" cx="293" cy="-586" rx="68.9457" ry="26.7407"/>
<text text-anchor="middle" x="293" y="-589.8" font-family="sans" font-size="14.00">clean_oven</text>
<text text-anchor="middle" x="293" y="-574.8" font-family="sans" font-size="14.00">1</text>
</g>
<!-- bak.1&#45;&gt;cle.1 -->
<g id="edge5" class="edge"><title>bak.1&#45;&gt;cle.1</title>
<path fill="none" stroke="black" d="M234.86,-653.134C243.944,-642.801 254.61,-630.668 264.31,-619.634"/>
<polygon fill="black" stroke="black" points="267.192,-621.657 271.166,-611.836 261.935,-617.036 267.192,-621.657"/>
</g>
<!-- pre.2 -->
<g id="node12" class="node"><title>pre.2</title>
<ellipse fill="none" stroke="black" cx="473" cy="-496" rx="86.4614" ry="26.7407"/>
<text text-anchor="middle" x="473" y="-499.8" font-family="sans" font-size="14.00">pre_heat_oven</text>
<text text-anchor="middle" x="473" y="-484.8" font-family="sans" font-size="14.00">2</text>
</g>
<!-- cle.1&#45;&gt;pre.2 -->
<g id="edge6" class="edge"><title>cle.1&#45;&gt;pre.2</title>
<path fill="none" stroke="black" d="M335.202,-564.368C360.113,-552.189 391.907,-536.646 418.676,-523.558"/>
<polygon fill="black" stroke="black" points="420.469,-526.578 427.916,-519.041 417.395,-520.289 420.469,-526.578"/>
</g>
<!-- pre.1 -->
<g id="node6" class="node"><title>pre.1</title>
<ellipse fill="none" stroke="black" cx="103" cy="-769" rx="86.4614" ry="26.7407"/>
<text text-anchor="middle" x="103" y="-772.8" font-family="sans" font-size="14.00">pre_heat_oven</text>
<text text-anchor="middle" x="103" y="-757.8" font-family="sans" font-size="14.00">1</text>
</g>
<!-- pre.1&#45;&gt;bak.1 -->
<g id="edge4" class="edge"><title>pre.1&#45;&gt;bak.1</title>
<path fill="none" stroke="black" d="M133.349,-743.721C146.426,-733.259 161.848,-720.922 175.621,-709.903"/>
<polygon fill="black" stroke="black" points="177.887,-712.572 183.51,-703.592 173.514,-707.106 177.887,-712.572"/>
</g>
<!-- pur.2 -->
<g id="node7" class="node"><title>pur.2</title>
<ellipse fill="none" stroke="black" cx="612" cy="-586" rx="120.312" ry="26.7407"/>
<text text-anchor="middle" x="612" y="-589.8" font-family="sans" font-size="14.00">purchase_ingredients</text>
<text text-anchor="middle" x="612" y="-574.8" font-family="sans" font-size="14.00">2</text>
</g>
<!-- mak.2 -->
<g id="node8" class="node"><title>mak.2</title>
<ellipse fill="none" stroke="black" cx="655" cy="-496" rx="77.112" ry="26.7407"/>
<text text-anchor="middle" x="655" y="-499.8" font-family="sans" font-size="14.00">make_dough</text>
<text text-anchor="middle" x="655" y="-484.8" font-family="sans" font-size="14.00">2</text>
</g>
<!-- pur.2&#45;&gt;mak.2 -->
<g id="edge7" class="edge"><title>pur.2&#45;&gt;mak.2</title>
<path fill="none" stroke="black" d="M624.669,-559.073C628.824,-550.569 633.512,-540.975 637.938,-531.918"/>
<polygon fill="black" stroke="black" points="641.176,-533.263 642.422,-522.742 634.887,-530.19 641.176,-533.263"/>
</g>
<!-- bak.2 -->
<g id="node9" class="node"><title>bak.2</title>
<ellipse fill="none" stroke="black" cx="583" cy="-406" rx="71.127" ry="26.7407"/>
<text text-anchor="middle" x="583" y="-409.8" font-family="sans" font-size="14.00">bake_bread</text>
<text text-anchor="middle" x="583" y="-394.8" font-family="sans" font-size="14.00">2</text>
</g>
<!-- mak.2&#45;&gt;bak.2 -->
<g id="edge8" class="edge"><title>mak.2&#45;&gt;bak.2</title>
<path fill="none" stroke="black" d="M634.56,-470.018C626.884,-460.636 618.039,-449.825 609.866,-439.836"/>
<polygon fill="black" stroke="black" points="612.532,-437.568 603.491,-432.044 607.114,-442 612.532,-437.568"/>
</g>
<!-- sel.2 -->
<g id="node10" class="node"><title>sel.2</title>
<ellipse fill="none" stroke="black" cx="512" cy="-313" rx="63.459" ry="26.7407"/>
<text text-anchor="middle" x="512" y="-316.8" font-family="sans" font-size="14.00">sell_bread</text>
<text text-anchor="middle" x="512" y="-301.8" font-family="sans" font-size="14.00">2</text>
</g>
<!-- bak.2&#45;&gt;sel.2 -->
<g id="edge9" class="edge"><title>bak.2&#45;&gt;sel.2</title>
<path fill="none" stroke="black" d="M563.599,-380.134C555.616,-369.902 546.254,-357.904 537.713,-346.956"/>
<polygon fill="black" stroke="black" points="540.289,-344.567 531.378,-338.836 534.77,-348.873 540.289,-344.567"/>
</g>
<!-- cle.2 -->
<g id="node11" class="node"><title>cle.2</title>
<ellipse fill="none" stroke="black" cx="663" cy="-313" rx="68.9457" ry="26.7407"/>
<text text-anchor="middle" x="663" y="-316.8" font-family="sans" font-size="14.00">clean_oven</text>
<text text-anchor="middle" x="663" y="-301.8" font-family="sans" font-size="14.00">2</text>
</g>
<!-- bak.2&#45;&gt;cle.2 -->
<g id="edge11" class="edge"><title>bak.2&#45;&gt;cle.2</title>
<path fill="none" stroke="black" d="M604.86,-380.134C613.944,-369.801 624.61,-357.668 634.31,-346.634"/>
<polygon fill="black" stroke="black" points="637.192,-348.657 641.166,-338.836 631.935,-344.036 637.192,-348.657"/>
</g>
<!-- pre.3 -->
<g id="node18" class="node"><title>pre.3</title>
<ellipse fill="none" stroke="black" cx="843" cy="-223" rx="86.4614" ry="26.7407"/>
<text text-anchor="middle" x="843" y="-226.8" font-family="sans" font-size="14.00">pre_heat_oven</text>
<text text-anchor="middle" x="843" y="-211.8" font-family="sans" font-size="14.00">3</text>
</g>
<!-- cle.2&#45;&gt;pre.3 -->
<g id="edge12" class="edge"><title>cle.2&#45;&gt;pre.3</title>
<path fill="none" stroke="black" d="M705.202,-291.368C730.113,-279.189 761.907,-263.646 788.676,-250.558"/>
<polygon fill="black" stroke="black" points="790.469,-253.578 797.916,-246.041 787.395,-247.289 790.469,-253.578"/>
</g>
<!-- pre.2&#45;&gt;bak.2 -->
<g id="edge10" class="edge"><title>pre.2&#45;&gt;bak.2</title>
<path fill="none" stroke="black" d="M503.349,-470.721C516.426,-460.259 531.848,-447.922 545.621,-436.903"/>
<polygon fill="black" stroke="black" points="547.887,-439.572 553.51,-430.592 543.514,-434.106 547.887,-439.572"/>
</g>
<!-- pur.3 -->
<g id="node13" class="node"><title>pur.3</title>
<ellipse fill="none" stroke="black" cx="982" cy="-313" rx="120.312" ry="26.7407"/>
<text text-anchor="middle" x="982" y="-316.8" font-family="sans" font-size="14.00">purchase_ingredients</text>
<text text-anchor="middle" x="982" y="-301.8" font-family="sans" font-size="14.00">3</text>
</g>
<!-- mak.3 -->
<g id="node14" class="node"><title>mak.3</title>
<ellipse fill="none" stroke="black" cx="1025" cy="-223" rx="77.112" ry="26.7407"/>
<text text-anchor="middle" x="1025" y="-226.8" font-family="sans" font-size="14.00">make_dough</text>
<text text-anchor="middle" x="1025" y="-211.8" font-family="sans" font-size="14.00">3</text>
</g>
<!-- pur.3&#45;&gt;mak.3 -->
<g id="edge13" class="edge"><title>pur.3&#45;&gt;mak.3</title>
<path fill="none" stroke="black" d="M994.669,-286.073C998.824,-277.569 1003.51,-267.975 1007.94,-258.918"/>
<polygon fill="black" stroke="black" points="1011.18,-260.263 1012.42,-249.742 1004.89,-257.19 1011.18,-260.263"/>
</g>
<!-- bak.3 -->
<g id="node15" class="node"><title>bak.3</title>
<ellipse fill="none" stroke="black" cx="907" cy="-133" rx="71.127" ry="26.7407"/>
<text text-anchor="middle" x="907" y="-136.8" font-family="sans" font-size="14.00">bake_bread</text>
<text text-anchor="middle" x="907" y="-121.8" font-family="sans" font-size="14.00">3</text>
</g>
<!-- mak.3&#45;&gt;bak.3 -->
<g id="edge14" class="edge"><title>mak.3&#45;&gt;bak.3</title>
<path fill="none" stroke="black" d="M993.378,-198.418C978.978,-187.678 961.782,-174.854 946.538,-163.486"/>
<polygon fill="black" stroke="black" points="948.409,-160.515 938.3,-157.342 944.224,-166.126 948.409,-160.515"/>
</g>
<!-- sel.3 -->
<g id="node16" class="node"><title>sel.3</title>
<ellipse fill="none" stroke="black" cx="851" cy="-43" rx="63.459" ry="26.7407"/>
<text text-anchor="middle" x="851" y="-46.8" font-family="sans" font-size="14.00">sell_bread</text>
<text text-anchor="middle" x="851" y="-31.8" font-family="sans" font-size="14.00">3</text>
</g>
<!-- bak.3&#45;&gt;sel.3 -->
<g id="edge15" class="edge"><title>bak.3&#45;&gt;sel.3</title>
<path fill="none" stroke="black" d="M890.802,-106.547C885.065,-97.5303 878.518,-87.242 872.413,-77.6495"/>
<polygon fill="black" stroke="black" points="875.289,-75.6497 866.968,-69.0921 869.384,-79.4079 875.289,-75.6497"/>
</g>
<!-- cle.3 -->
<g id="node17" class="node"><title>cle.3</title>
<ellipse fill="none" stroke="black" cx="1002" cy="-43" rx="68.9457" ry="26.7407"/>
<text text-anchor="middle" x="1002" y="-46.8" font-family="sans" font-size="14.00">clean_oven</text>
<text text-anchor="middle" x="1002" y="-31.8" font-family="sans" font-size="14.00">3</text>
</g>
<!-- bak.3&#45;&gt;cle.3 -->
<g id="edge17" class="edge"><title>bak.3&#45;&gt;cle.3</title>
<path fill="none" stroke="black" d="M932.959,-107.954C943.955,-97.7679 956.905,-85.7721 968.601,-74.9383"/>
<polygon fill="black" stroke="black" points="971.114,-77.3806 976.072,-68.0173 966.358,-72.2453 971.114,-77.3806"/>
</g>
<!-- pre.3&#45;&gt;bak.3 -->
<g id="edge16" class="edge"><title>pre.3&#45;&gt;bak.3</title>
<path fill="none" stroke="black" d="M861.511,-196.547C868.136,-187.438 875.704,-177.032 882.741,-167.356"/>
<polygon fill="black" stroke="black" points="885.7,-169.238 888.751,-159.092 880.039,-165.121 885.7,-169.238"/>
</g>
</g>
</svg>
