<?xml version="1.0" encoding="UTF-8" standalone="no"?>
<!DOCTYPE svg PUBLIC "-//W3C//DTD SVG 1.1//EN"
 "http://www.w3.org/Graphics/SVG/1.1/DTD/svg11.dtd">
<!-- Generated by graphviz version 2.30.1 (20170916.1124)
 -->
<!-- Title: Example Pages: 1 -->
<svg width="262pt" height="179pt"
 viewBox="0.00 0.00 262.00 179.00" xmlns="http://www.w3.org/2000/svg" xmlns:xlink="http://www.w3.org/1999/xlink">
<g id="graph0" class="graph" transform="scale(1 1) rotate(0) translate(4 175)">
<title>Example</title>
<polygon fill="none" stroke="none" points="-4,5 -4,-175 259,-175 259,5 -4,5"/>
<g id="clust1" class="cluster"><title>cluster_1</title>
<polygon fill="none" stroke="black" points="8,-8 8,-163 96,-163 96,-8 8,-8"/>
<text text-anchor="middle" x="52" y="-147.8" font-family="sans" font-size="14.00">Grouped</text>
</g>
<g id="clust2" class="cluster"><title>cluster_2</title>
<polygon fill="none" stroke="black" points="104,-12 104,-163 246,-163 246,-12 104,-12"/>
<text text-anchor="middle" x="175" y="-147.8" font-family="sans" font-size="14.00">Un&#45;Grouped</text>
</g>
<!-- foo.1 -->
<g id="node1" class="node"><title>foo.1</title>
<ellipse fill="none" stroke="black" cx="52" cy="-114" rx="27" ry="18"/>
<text text-anchor="middle" x="52" y="-110.3" font-family="sans" font-size="14.00">foo</text>
</g>
<!-- BAR.1 -->
<g id="node2" class="node"><title>BAR.1</title>
<polygon fill="none" stroke="black" points="84.0772,-30.5442 84.0772,-45.4558 65.2868,-56 38.7132,-56 19.9228,-45.4558 19.9228,-30.5442 38.7132,-20 65.2868,-20 84.0772,-30.5442"/>
<polygon fill="none" stroke="black" points="88.0422,-28.1919 88.0422,-47.8081 66.3153,-60 37.6847,-60 15.9578,-47.8081 15.9578,-28.1919 37.6847,-16 66.3153,-16 88.0422,-28.1919"/>
<text text-anchor="middle" x="52" y="-34.3" font-family="sans" font-size="14.00">BAR</text>
</g>
<!-- foo.1&#45;&gt;BAR.1 -->
<g id="edge1" class="edge"><title>foo.1&#45;&gt;BAR.1</title>
<path fill="none" stroke="black" d="M52,-95.8369C52,-88.165 52,-78.8775 52,-70.0535"/>
<polygon fill="black" stroke="black" points="55.5001,-70.0322 52,-60.0322 48.5001,-70.0322 55.5001,-70.0322"/>
</g>
<!-- foo.2 -->
<g id="node3" class="node"><title>foo.2</title>
<ellipse fill="none" stroke="black" cx="175" cy="-114" rx="27" ry="18"/>
<text text-anchor="middle" x="175" y="-110.3" font-family="sans" font-size="14.00">foo</text>
</g>
<!-- bar.2 -->
<g id="node4" class="node"><title>bar.2</title>
<ellipse fill="none" stroke="black" cx="139" cy="-38" rx="27" ry="18"/>
<text text-anchor="middle" x="139" y="-34.3" font-family="sans" font-size="14.00">bar</text>
</g>
<!-- foo.2&#45;&gt;bar.2 -->
<g id="edge2" class="edge"><title>foo.2&#45;&gt;bar.2</title>
<path fill="none" stroke="black" d="M167.01,-96.577C162.443,-87.1881 156.614,-75.2072 151.458,-64.6083"/>
<polygon fill="black" stroke="black" points="154.489,-62.8383 146.967,-55.3771 148.195,-65.9006 154.489,-62.8383"/>
</g>
<!-- baz.2 -->
<g id="node5" class="node"><title>baz.2</title>
<ellipse fill="none" stroke="black" cx="211" cy="-38" rx="26.949" ry="18"/>
<text text-anchor="middle" x="211" y="-34.3" font-family="sans" font-size="14.00">baz</text>
</g>
<!-- foo.2&#45;&gt;baz.2 -->
<g id="edge3" class="edge"><title>foo.2&#45;&gt;baz.2</title>
<path fill="none" stroke="black" d="M182.99,-96.577C187.557,-87.1881 193.386,-75.2072 198.542,-64.6083"/>
<polygon fill="black" stroke="black" points="201.805,-65.9006 203.033,-55.3771 195.511,-62.8383 201.805,-65.9006"/>
</g>
</g>
</svg>
