<?xml version="1.0" encoding="UTF-8" standalone="no"?>
<!DOCTYPE svg PUBLIC "-//W3C//DTD SVG 1.1//EN"
 "http://www.w3.org/Graphics/SVG/1.1/DTD/svg11.dtd">
<!-- Generated by graphviz version 2.30.1 (20170916.1124)
 -->
<!-- Title: Example Pages: 1 -->
<svg width="244pt" height="335pt"
 viewBox="0.00 0.00 244.00 335.00" xmlns="http://www.w3.org/2000/svg" xmlns:xlink="http://www.w3.org/1999/xlink">
<g id="graph0" class="graph" transform="scale(1 1) rotate(0) translate(4 331)">
<title>Example</title>
<polygon fill="none" stroke="none" points="-4,5 -4,-331 241,-331 241,5 -4,5"/>
<g id="clust1" class="cluster"><title>cluster_1</title>
<polygon fill="none" stroke="green" stroke-dasharray="5,2" points="8,-64 8,-211 150,-211 150,-64 8,-64"/>
<text text-anchor="middle" x="79" y="-195.8" font-family="sans" font-size="14.00" fill="green">:success</text>
</g>
<g id="clust2" class="cluster"><title>cluster_2</title>
<polygon fill="none" stroke="red" stroke-dasharray="5,2" points="158,-64 158,-211 228,-211 228,-64 158,-64"/>
<text text-anchor="middle" x="193" y="-195.8" font-family="sans" font-size="14.00" fill="red">:fail</text>
</g>
<!-- foo -->
<g id="node1" class="node"><title>foo</title>
<ellipse fill="none" stroke="black" cx="115" cy="-309" rx="27" ry="18"/>
<text text-anchor="middle" x="115" y="-305.3" font-family="sans" font-size="14.00">foo</text>
</g>
<!-- bar -->
<g id="node2" class="node"><title>bar</title>
<ellipse fill="none" stroke="black" cx="115" cy="-237" rx="27" ry="18"/>
<text text-anchor="middle" x="115" y="-233.3" font-family="sans" font-size="14.00">bar</text>
</g>
<!-- foo&#45;&gt;bar -->
<g id="edge1" class="edge"><title>foo&#45;&gt;bar</title>
<path fill="none" stroke="black" d="M115,-290.697C115,-282.983 115,-273.712 115,-265.112"/>
<polygon fill="black" stroke="black" points="118.5,-265.104 115,-255.104 111.5,-265.104 118.5,-265.104"/>
</g>
<!-- tar -->
<g id="node3" class="node"><title>tar</title>
<ellipse fill="none" stroke="black" cx="115" cy="-162" rx="27" ry="18"/>
<text text-anchor="middle" x="115" y="-158.3" font-family="sans" font-size="14.00">tar</text>
</g>
<!-- bar&#45;&gt;tar -->
<g id="edge2" class="edge"><title>bar&#45;&gt;tar</title>
<path fill="none" stroke="black" d="M115,-218.7C115,-210.245 115,-199.869 115,-190.373"/>
<polygon fill="black" stroke="black" points="118.5,-190.176 115,-180.176 111.5,-190.176 118.5,-190.176"/>
</g>
<!-- jar -->
<g id="node5" class="node"><title>jar</title>
<ellipse fill="none" stroke="black" cx="43" cy="-162" rx="27" ry="18"/>
<text text-anchor="middle" x="43" y="-158.3" font-family="sans" font-size="14.00">jar</text>
</g>
<!-- bar&#45;&gt;jar -->
<g id="edge4" class="edge"><title>bar&#45;&gt;jar</title>
<path fill="none" stroke="black" d="M95.4387,-224.093C89.8432,-220.254 83.9301,-215.753 79,-211 71.7307,-203.991 64.8048,-195.408 59.0045,-187.448"/>
<polygon fill="black" stroke="black" points="61.7975,-185.335 53.1893,-179.158 56.0669,-189.355 61.7975,-185.335"/>
</g>
<!-- baz -->
<g id="node6" class="node"><title>baz</title>
<ellipse fill="none" stroke="black" cx="193" cy="-162" rx="26.949" ry="18"/>
<text text-anchor="middle" x="193" y="-158.3" font-family="sans" font-size="14.00">baz</text>
</g>
<!-- bar&#45;&gt;baz -->
<g id="edge6" class="edge"><title>bar&#45;&gt;baz</title>
<path fill="none" stroke="black" d="M135.314,-224.688C141.607,-220.746 148.363,-216.037 154,-211 161.963,-203.885 169.625,-195.053 176.018,-186.913"/>
<polygon fill="black" stroke="black" points="178.93,-188.866 182.18,-178.782 173.351,-184.638 178.93,-188.866"/>
</g>
<!-- par -->
<g id="node4" class="node"><title>par</title>
<ellipse fill="none" stroke="black" cx="57" cy="-90" rx="27" ry="18"/>
<text text-anchor="middle" x="57" y="-86.3" font-family="sans" font-size="14.00">par</text>
</g>
<!-- tar&#45;&gt;par -->
<g id="edge3" class="edge"><title>tar&#45;&gt;par</title>
<path fill="none" stroke="black" d="M102.415,-145.811C94.7384,-136.546 84.774,-124.52 76.1353,-114.094"/>
<polygon fill="black" stroke="black" points="78.6359,-111.626 69.5606,-106.159 73.2457,-116.093 78.6359,-111.626"/>
</g>
<!-- pub -->
<g id="node8" class="node"><title>pub</title>
<ellipse fill="none" stroke="black" cx="159" cy="-18" rx="28.3955" ry="18"/>
<text text-anchor="middle" x="159" y="-14.3" font-family="sans" font-size="14.00">pub</text>
</g>
<!-- tar&#45;&gt;pub -->
<g id="edge8" class="edge"><title>tar&#45;&gt;pub</title>
<path fill="none" stroke="black" d="M120.22,-144.153C127.762,-119.813 141.782,-74.5681 150.738,-45.6651"/>
<polygon fill="none" stroke="black" points="154.17,-46.4129 153.787,-35.825 147.484,-44.341 154.17,-46.4129"/>
</g>
<!-- jar&#45;&gt;par -->
<g id="edge5" class="edge"><title>jar&#45;&gt;par</title>
<path fill="none" stroke="black" d="M46.389,-144.055C47.9309,-136.346 49.7946,-127.027 51.5272,-118.364"/>
<polygon fill="black" stroke="black" points="55.0157,-118.768 53.5449,-108.275 48.1517,-117.395 55.0157,-118.768"/>
</g>
<!-- jaz -->
<g id="node7" class="node"><title>jaz</title>
<ellipse fill="none" stroke="black" cx="193" cy="-90" rx="27" ry="18"/>
<text text-anchor="middle" x="193" y="-86.3" font-family="sans" font-size="14.00">jaz</text>
</g>
<!-- baz&#45;&gt;jaz -->
<g id="edge7" class="edge"><title>baz&#45;&gt;jaz</title>
<path fill="none" stroke="black" d="M193,-143.697C193,-135.983 193,-126.712 193,-118.112"/>
<polygon fill="black" stroke="black" points="196.5,-118.104 193,-108.104 189.5,-118.104 196.5,-118.104"/>
</g>
<!-- jaz&#45;&gt;pub -->
<g id="edge9" class="edge"><title>jaz&#45;&gt;pub</title>
<path fill="none" stroke="black" d="M185.114,-72.7646C181.096,-64.4914 176.113,-54.2321 171.58,-44.9003"/>
<polygon fill="none" stroke="black" points="174.596,-43.0993 167.079,-35.6334 168.3,-46.1577 174.596,-43.0993"/>
</g>
</g>
</svg>
