<?xml version="1.0" encoding="UTF-8" standalone="no"?>
<!DOCTYPE svg PUBLIC "-//W3C//DTD SVG 1.1//EN"
 "http://www.w3.org/Graphics/SVG/1.1/DTD/svg11.dtd">
<!-- Generated by graphviz version 2.30.1 (20170916.1124)
 -->
<!-- Title: Mini_Cylc Pages: 1 -->
<svg width="228pt" height="260pt"
 viewBox="0.00 0.00 228.00 260.00" xmlns="http://www.w3.org/2000/svg" xmlns:xlink="http://www.w3.org/1999/xlink">
<g id="graph0" class="graph" transform="scale(1 1) rotate(0) translate(4 256)">
<title>Mini_Cylc</title>
<polygon fill="none" stroke="none" points="-4,5 -4,-256 225,-256 225,5 -4,5"/>
<!-- purchase_ingredients -->
<g id="node1" class="node"><title>purchase_ingredients</title>
<ellipse fill="none" stroke="black" cx="110" cy="-234" rx="110.235" ry="18"/>
<text text-anchor="middle" x="110" y="-230.3" font-family="sans" font-size="14.00">purchase_ingredients</text>
</g>
<!-- make_dough -->
<g id="node2" class="node"><title>make_dough</title>
<ellipse fill="none" stroke="black" cx="110" cy="-162" rx="70.2668" ry="18"/>
<text text-anchor="middle" x="110" y="-158.3" font-family="sans" font-size="14.00">make_dough</text>
</g>
<!-- purchase_ingredients&#45;&gt;make_dough -->
<g id="edge1" class="edge"><title>purchase_ingredients&#45;&gt;make_dough</title>
<path fill="none" stroke="black" d="M110,-215.697C110,-207.983 110,-198.712 110,-190.112"/>
<polygon fill="black" stroke="black" points="113.5,-190.104 110,-180.104 106.5,-190.104 113.5,-190.104"/>
</g>
<!-- bake_bread -->
<g id="node3" class="node"><title>bake_bread</title>
<ellipse fill="none" stroke="black" cx="110" cy="-90" rx="65.4659" ry="18"/>
<text text-anchor="middle" x="110" y="-86.3" font-family="sans" font-size="14.00">bake_bread</text>
</g>
<!-- make_dough&#45;&gt;bake_bread -->
<g id="edge3" class="edge"><title>make_dough&#45;&gt;bake_bread</title>
<path fill="none" stroke="black" d="M110,-143.697C110,-135.983 110,-126.712 110,-118.112"/>
<polygon fill="black" stroke="black" points="113.5,-118.104 110,-108.104 106.5,-118.104 113.5,-118.104"/>
</g>
<!-- sell_bread -->
<g id="node4" class="node"><title>sell_bread</title>
<ellipse fill="none" stroke="black" cx="110" cy="-18" rx="58.2422" ry="18"/>
<text text-anchor="middle" x="110" y="-14.3" font-family="sans" font-size="14.00">sell_bread</text>
</g>
<!-- bake_bread&#45;&gt;sell_bread -->
<g id="edge2" class="edge"><title>bake_bread&#45;&gt;sell_bread</title>
<path fill="none" stroke="black" d="M110,-71.6966C110,-63.9827 110,-54.7125 110,-46.1124"/>
<polygon fill="black" stroke="black" points="113.5,-46.1043 110,-36.1043 106.5,-46.1044 113.5,-46.1043"/>
</g>
</g>
</svg>
