<?xml version="1.0" encoding="UTF-8" standalone="no"?>
<!DOCTYPE svg PUBLIC "-//W3C//DTD SVG 1.1//EN"
 "http://www.w3.org/Graphics/SVG/1.1/DTD/svg11.dtd">
<!-- Generated by graphviz version 2.30.1 (20170916.1124)
 -->
<!-- Title: graph_tutorial Pages: 1 -->
<svg width="141pt" height="260pt"
 viewBox="0.00 0.00 141.00 260.00" xmlns="http://www.w3.org/2000/svg" xmlns:xlink="http://www.w3.org/1999/xlink">
<g id="graph0" class="graph" transform="scale(1 1) rotate(0) translate(4 256)">
<title>graph_tutorial</title>
<polygon fill="none" stroke="none" points="-4,5 -4,-256 138,-256 138,5 -4,5"/>
<!-- foo -->
<g id="node1" class="node"><title>foo</title>
<ellipse fill="none" stroke="black" cx="28" cy="-234" rx="27" ry="18"/>
<text text-anchor="middle" x="28" y="-230.3" font-family="sans" font-size="14.00">foo</text>
</g>
<!-- bar -->
<g id="node2" class="node"><title>bar</title>
<ellipse fill="none" stroke="black" cx="65" cy="-162" rx="27" ry="18"/>
<text text-anchor="middle" x="65" y="-158.3" font-family="sans" font-size="14.00">bar</text>
</g>
<!-- foo&#45;&gt;bar -->
<g id="edge1" class="edge"><title>foo&#45;&gt;bar</title>
<path fill="none" stroke="black" d="M36.5815,-216.765C41.0646,-208.283 46.651,-197.714 51.6814,-188.197"/>
<polygon fill="black" stroke="black" points="54.8862,-189.624 56.465,-179.147 48.6975,-186.353 54.8862,-189.624"/>
</g>
<!-- baz -->
<g id="node3" class="node"><title>baz</title>
<ellipse fill="none" stroke="black" cx="27" cy="-90" rx="26.949" ry="18"/>
<text text-anchor="middle" x="27" y="-86.3" font-family="sans" font-size="14.00">baz</text>
</g>
<!-- bar&#45;&gt;baz -->
<g id="edge2" class="edge"><title>bar&#45;&gt;baz</title>
<path fill="none" stroke="black" d="M56.1865,-144.765C51.5823,-136.283 45.845,-125.714 40.6786,-116.197"/>
<polygon fill="black" stroke="black" points="43.6126,-114.266 35.7657,-107.147 37.4607,-117.606 43.6126,-114.266"/>
</g>
<!-- wop -->
<g id="node6" class="node"><title>wop</title>
<ellipse fill="none" stroke="black" cx="103" cy="-90" rx="30.3206" ry="18"/>
<text text-anchor="middle" x="103" y="-86.3" font-family="sans" font-size="14.00">wop</text>
</g>
<!-- bar&#45;&gt;wop -->
<g id="edge5" class="edge"><title>bar&#45;&gt;wop</title>
<path fill="none" stroke="black" d="M73.8135,-144.765C78.3519,-136.404 83.9913,-126.016 89.0996,-116.606"/>
<polygon fill="black" stroke="black" points="92.2755,-118.092 93.9704,-107.633 86.1235,-114.752 92.2755,-118.092"/>
</g>
<!-- qux -->
<g id="node4" class="node"><title>qux</title>
<ellipse fill="none" stroke="black" cx="27" cy="-18" rx="27.4223" ry="18"/>
<text text-anchor="middle" x="27" y="-14.3" font-family="sans" font-size="14.00">qux</text>
</g>
<!-- baz&#45;&gt;qux -->
<g id="edge3" class="edge"><title>baz&#45;&gt;qux</title>
<path fill="none" stroke="black" d="M27,-71.6966C27,-63.9827 27,-54.7125 27,-46.1124"/>
<polygon fill="black" stroke="black" points="30.5001,-46.1043 27,-36.1043 23.5001,-46.1044 30.5001,-46.1043"/>
</g>
<!-- pub -->
<g id="node5" class="node"><title>pub</title>
<ellipse fill="none" stroke="black" cx="102" cy="-234" rx="28.3955" ry="18"/>
<text text-anchor="middle" x="102" y="-230.3" font-family="sans" font-size="14.00">pub</text>
</g>
<!-- pub&#45;&gt;bar -->
<g id="edge4" class="edge"><title>pub&#45;&gt;bar</title>
<path fill="none" stroke="black" d="M93.4185,-216.765C88.9354,-208.283 83.349,-197.714 78.3186,-188.197"/>
<polygon fill="black" stroke="black" points="81.3025,-186.353 73.535,-179.147 75.1138,-189.624 81.3025,-186.353"/>
</g>
</g>
</svg>
