<?xml version="1.0" encoding="UTF-8" standalone="no"?>
<!DOCTYPE svg PUBLIC "-//W3C//DTD SVG 1.1//EN"
 "http://www.w3.org/Graphics/SVG/1.1/DTD/svg11.dtd">
<!-- Generated by graphviz version 2.30.1 (20170916.1124)
 -->
<!-- Title: Example Pages: 1 -->
<svg width="465pt" height="360pt"
 viewBox="0.00 0.00 464.54 360.00" xmlns="http://www.w3.org/2000/svg" xmlns:xlink="http://www.w3.org/1999/xlink">
<g id="graph0" class="graph" transform="scale(0.843091 0.843091) rotate(0) translate(4 423)">
<title>Example</title>
<polygon fill="none" stroke="none" points="-4,5 -4,-423 548,-423 548,5 -4,5"/>
<g id="clust1" class="cluster"><title>cluster_suite_directory</title>
<polygon fill="none" stroke="black" stroke-dasharray="5,2" points="8,-218 8,-405 172,-405 172,-218 8,-218"/>
<text text-anchor="middle" x="90" y="-387.4" font-family="sanz bold" font-size="17.00">Suite Directory</text>
</g>
<g id="clust2" class="cluster"><title>cluster_run_directory</title>
<polygon fill="none" stroke="black" stroke-dasharray="5,2" points="384,-8 384,-411 535,-411 535,-8 384,-8"/>
<text text-anchor="middle" x="459.5" y="-393.4" font-family="sanz bold" font-size="17.00">Run Directory</text>
</g>
<!-- suite_rc_suite_dir -->
<g id="node1" class="node"><title>suite_rc_suite_dir</title>
<text text-anchor="middle" x="90" y="-348.3" font-family="sans" font-size="14.00">suite.rc</text>
</g>
<!-- jinja2 -->
<g id="node11" class="node"><title>jinja2</title>
<polygon fill="none" stroke="blue" points="337.5,-370 218.5,-370 218.5,-334 337.5,-334 337.5,-370"/>
<text text-anchor="middle" x="278" y="-348.3" font-family="sans" font-size="14.00" fill="blue">Prepend Jinja2</text>
</g>
<!-- suite_rc_suite_dir&#45;&gt;jinja2 -->
<g id="edge1" class="edge"><title>suite_rc_suite_dir&#45;&gt;jinja2</title>
<path fill="none" stroke="blue" d="M124.683,-352C147.899,-352 179.58,-352 208.036,-352"/>
<polygon fill="blue" stroke="blue" points="208.353,-355.5 218.353,-352 208.353,-348.5 208.353,-355.5"/>
</g>
<!-- rose_suite_conf_suite_dir -->
<g id="node2" class="node"><title>rose_suite_conf_suite_dir</title>
<text text-anchor="middle" x="90" y="-294.3" font-family="sans" font-size="14.00">rose&#45;suite.conf</text>
</g>
<!-- rose_suite_conf_suite_dir&#45;&gt;jinja2 -->
<g id="edge3" class="edge"><title>rose_suite_conf_suite_dir&#45;&gt;jinja2</title>
<path fill="none" stroke="blue" stroke-dasharray="5,2" d="M151.646,-315.607C169.882,-320.901 190.014,-326.746 208.709,-332.174"/>
<polygon fill="none" stroke="blue" points="207.758,-335.542 218.337,-334.969 209.709,-328.819 207.758,-335.542"/>
</g>
<!-- rose_suite_conf_run_dir -->
<g id="node5" class="node"><title>rose_suite_conf_run_dir</title>
<text text-anchor="middle" x="459" y="-300.3" font-family="sans" font-size="14.00">rose&#45;suite.conf</text>
</g>
<!-- rose_suite_conf_suite_dir&#45;&gt;rose_suite_conf_run_dir -->
<g id="edge4" class="edge"><title>rose_suite_conf_suite_dir&#45;&gt;rose_suite_conf_run_dir</title>
<path fill="none" stroke="blue" d="M151.603,-298.991C216.282,-300.048 318.661,-301.722 387.053,-302.84"/>
<polygon fill="blue" stroke="blue" points="387.251,-306.344 397.307,-303.008 387.366,-299.345 387.251,-306.344"/>
</g>
<!-- install_files -->
<g id="node12" class="node"><title>install_files</title>
<polygon fill="none" stroke="blue" points="325.5,-270 230.5,-270 230.5,-234 325.5,-234 325.5,-270"/>
<text text-anchor="middle" x="278" y="-248.3" font-family="sans" font-size="14.00" fill="blue">Install Files</text>
</g>
<!-- rose_suite_conf_suite_dir&#45;&gt;install_files -->
<g id="edge5" class="edge"><title>rose_suite_conf_suite_dir&#45;&gt;install_files</title>
<path fill="none" stroke="blue" stroke-dasharray="5,2" d="M151.646,-283.002C173.802,-277.522 198.756,-271.351 220.533,-265.965"/>
<polygon fill="none" stroke="blue" points="221.426,-269.35 230.294,-263.551 219.746,-262.554 221.426,-269.35"/>
</g>
<!-- bin_suite_dir -->
<g id="node3" class="node"><title>bin_suite_dir</title>
<text text-anchor="middle" x="90" y="-240.3" font-family="sans" font-size="14.00">bin/</text>
</g>
<!-- bin_run_dir -->
<g id="node7" class="node"><title>bin_run_dir</title>
<text text-anchor="middle" x="459" y="-192.3" font-family="sans" font-size="14.00">bin/</text>
</g>
<!-- bin_suite_dir&#45;&gt;bin_run_dir -->
<g id="edge7" class="edge"><title>bin_suite_dir&#45;&gt;bin_run_dir</title>
<path fill="none" stroke="blue" d="M117.238,-239.853C142.897,-235.851 183.093,-229.719 218,-225 290.114,-215.251 374.637,-205.405 421.68,-200.065"/>
<polygon fill="blue" stroke="blue" points="422.146,-203.535 431.689,-198.933 421.359,-196.579 422.146,-203.535"/>
</g>
<!-- suite_rc_run_dir -->
<g id="node4" class="node"><title>suite_rc_run_dir</title>
<text text-anchor="middle" x="459" y="-354.3" font-family="sans" font-size="14.00">suite.rc</text>
</g>
<!-- files_run_dir -->
<g id="node6" class="node"><title>files_run_dir</title>
<text text-anchor="middle" x="459" y="-246.3" font-family="sans" font-size="14.00">installed files</text>
</g>
<!-- work -->
<g id="node8" class="node"><title>work</title>
<text text-anchor="middle" x="459" y="-138.3" font-family="sans" font-size="14.00">work/</text>
</g>
<!-- share -->
<g id="node9" class="node"><title>share</title>
<text text-anchor="middle" x="459" y="-84.3" font-family="sans" font-size="14.00">share/</text>
</g>
<!-- log -->
<g id="node10" class="node"><title>log</title>
<text text-anchor="middle" x="459" y="-30.3" font-family="sans" font-size="14.00">log/</text>
</g>
<!-- jinja2&#45;&gt;suite_rc_run_dir -->
<g id="edge2" class="edge"><title>jinja2&#45;&gt;suite_rc_run_dir</title>
<path fill="none" stroke="blue" d="M337.611,-353.965C362.546,-354.8 391.125,-355.758 414.18,-356.531"/>
<polygon fill="blue" stroke="blue" points="414.24,-360.035 424.351,-356.872 414.474,-353.039 414.24,-360.035"/>
</g>
<!-- install_files&#45;&gt;files_run_dir -->
<g id="edge6" class="edge"><title>install_files&#45;&gt;files_run_dir</title>
<path fill="none" stroke="blue" d="M325.563,-251.48C346.314,-251.248 371.1,-250.971 393.588,-250.72"/>
<polygon fill="blue" stroke="blue" points="393.775,-254.218 403.735,-250.606 393.697,-247.218 393.775,-254.218"/>
</g>
</g>
</svg>
