<?xml version="1.0" encoding="UTF-8" standalone="no"?>
<!DOCTYPE svg PUBLIC "-//W3C//DTD SVG 1.1//EN"
 "http://www.w3.org/Graphics/SVG/1.1/DTD/svg11.dtd">
<!-- Generated by graphviz version 2.30.1 (20170916.1124)
 -->
<!-- Title: Example Pages: 1 -->
<svg width="218pt" height="332pt"
 viewBox="0.00 0.00 218.00 332.00" xmlns="http://www.w3.org/2000/svg" xmlns:xlink="http://www.w3.org/1999/xlink">
<g id="graph0" class="graph" transform="scale(1 1) rotate(0) translate(4 328)">
<title>Example</title>
<polygon fill="none" stroke="none" points="-4,5 -4,-328 215,-328 215,5 -4,5"/>
<!-- AIRPLANE -->
<g id="node1" class="node"><title>AIRPLANE</title>
<polygon fill="powderblue" stroke="royalblue" points="86,-108 0,-108 0,-72 86,-72 86,-108"/>
<text text-anchor="middle" x="43" y="-86.3" font-family="sans" font-size="14.00">AIRPLANE</text>
</g>
<!-- a380 -->
<g id="node2" class="node"><title>a380</title>
<polygon fill="powderblue" stroke="royalblue" points="70,-36 16,-36 16,-0 70,-0 70,-36"/>
<text text-anchor="middle" x="43" y="-14.3" font-family="sans" font-size="14.00">a380</text>
</g>
<!-- AIRPLANE&#45;&gt;a380 -->
<g id="edge1" class="edge"><title>AIRPLANE&#45;&gt;a380</title>
<path fill="none" stroke="royalblue" d="M43,-71.6966C43,-63.9827 43,-54.7125 43,-46.1124"/>
<polygon fill="royalblue" stroke="royalblue" points="46.5001,-46.1043 43,-36.1043 39.5001,-46.1044 46.5001,-46.1043"/>
</g>
<!-- HELICOPTER -->
<g id="node3" class="node"><title>HELICOPTER</title>
<polygon fill="powderblue" stroke="royalblue" points="210,-108 104,-108 104,-72 210,-72 210,-108"/>
<text text-anchor="middle" x="157" y="-86.3" font-family="sans" font-size="14.00">HELICOPTER</text>
</g>
<!-- r44 -->
<g id="node4" class="node"><title>r44</title>
<polygon fill="powderblue" stroke="royalblue" points="184,-36 130,-36 130,-0 184,-0 184,-36"/>
<text text-anchor="middle" x="157" y="-14.3" font-family="sans" font-size="14.00">r44</text>
</g>
<!-- HELICOPTER&#45;&gt;r44 -->
<g id="edge2" class="edge"><title>HELICOPTER&#45;&gt;r44</title>
<path fill="none" stroke="royalblue" d="M157,-71.6966C157,-63.9827 157,-54.7125 157,-46.1124"/>
<polygon fill="royalblue" stroke="royalblue" points="160.5,-46.1043 157,-36.1043 153.5,-46.1044 160.5,-46.1043"/>
</g>
<!-- root -->
<g id="node5" class="node"><title>root</title>
<polygon fill="powderblue" stroke="royalblue" points="127,-324 73,-324 73,-288 127,-288 127,-324"/>
<text text-anchor="middle" x="100" y="-302.3" font-family="sans" font-size="14.00">root</text>
</g>
<!-- VEHICLE -->
<g id="node6" class="node"><title>VEHICLE</title>
<polygon fill="powderblue" stroke="royalblue" points="138.25,-252 61.75,-252 61.75,-216 138.25,-216 138.25,-252"/>
<text text-anchor="middle" x="100" y="-230.3" font-family="sans" font-size="14.00">VEHICLE</text>
</g>
<!-- root&#45;&gt;VEHICLE -->
<g id="edge3" class="edge"><title>root&#45;&gt;VEHICLE</title>
<path fill="none" stroke="royalblue" d="M100,-287.697C100,-279.983 100,-270.712 100,-262.112"/>
<polygon fill="royalblue" stroke="royalblue" points="103.5,-262.104 100,-252.104 96.5001,-262.104 103.5,-262.104"/>
</g>
<!-- AIR_VEHICLE -->
<g id="node7" class="node"><title>AIR_VEHICLE</title>
<polygon fill="powderblue" stroke="royalblue" points="154.25,-180 45.75,-180 45.75,-144 154.25,-144 154.25,-180"/>
<text text-anchor="middle" x="100" y="-158.3" font-family="sans" font-size="14.00">AIR_VEHICLE</text>
</g>
<!-- VEHICLE&#45;&gt;AIR_VEHICLE -->
<g id="edge4" class="edge"><title>VEHICLE&#45;&gt;AIR_VEHICLE</title>
<path fill="none" stroke="royalblue" d="M100,-215.697C100,-207.983 100,-198.712 100,-190.112"/>
<polygon fill="royalblue" stroke="royalblue" points="103.5,-190.104 100,-180.104 96.5001,-190.104 103.5,-190.104"/>
</g>
<!-- AIR_VEHICLE&#45;&gt;AIRPLANE -->
<g id="edge5" class="edge"><title>AIR_VEHICLE&#45;&gt;AIRPLANE</title>
<path fill="none" stroke="royalblue" d="M85.9101,-143.697C79.0766,-135.305 70.7431,-125.07 63.2442,-115.861"/>
<polygon fill="royalblue" stroke="royalblue" points="65.9561,-113.649 56.9278,-108.104 60.5281,-118.069 65.9561,-113.649"/>
</g>
<!-- AIR_VEHICLE&#45;&gt;HELICOPTER -->
<g id="edge6" class="edge"><title>AIR_VEHICLE&#45;&gt;HELICOPTER</title>
<path fill="none" stroke="royalblue" d="M114.09,-143.697C120.923,-135.305 129.257,-125.07 136.756,-115.861"/>
<polygon fill="royalblue" stroke="royalblue" points="139.472,-118.069 143.072,-108.104 134.044,-113.649 139.472,-118.069"/>
</g>
</g>
</svg>
