<?xml version="1.0" encoding="UTF-8" standalone="no"?>
<!DOCTYPE svg PUBLIC "-//W3C//DTD SVG 1.1//EN"
 "http://www.w3.org/Graphics/SVG/1.1/DTD/svg11.dtd">
<!-- Generated by graphviz version 2.30.1 (20170916.1124)
 -->
<!-- Title: example Pages: 1 -->
<svg width="89pt" height="504pt"
 viewBox="0.00 0.00 89.26 504.00" xmlns="http://www.w3.org/2000/svg" xmlns:xlink="http://www.w3.org/1999/xlink">
<g id="graph0" class="graph" transform="scale(0.485082 0.485082) rotate(0) translate(4 1035)">
<title>example</title>
<polygon fill="none" stroke="none" points="-4,5 -4,-1035 181,-1035 181,5 -4,5"/>
<g id="clust1" class="cluster"><title>cluster_1</title>
<polygon fill="none" stroke="black" stroke-dasharray="5,2" points="8,-660 8,-1023 168,-1023 168,-660 8,-660"/>
<text text-anchor="middle" x="88" y="-1007.8" font-family="sans" font-size="14.00">1</text>
</g>
<g id="clust2" class="cluster"><title>cluster_2</title>
<polygon fill="none" stroke="black" stroke-dasharray="5,2" points="8,-379 8,-652 168,-652 168,-379 8,-379"/>
<text text-anchor="middle" x="88" y="-636.8" font-family="sans" font-size="14.00">2</text>
</g>
<g id="clust3" class="cluster"><title>cluster_3</title>
<polygon fill="none" stroke="black" stroke-dasharray="5,2" points="8,-8 8,-371 168,-371 168,-8 8,-8"/>
<text text-anchor="middle" x="88" y="-355.8" font-family="sans" font-size="14.00">3</text>
</g>
<!-- foo.1 -->
<g id="node1" class="node"><title>foo.1</title>
<ellipse fill="none" stroke="black" cx="128" cy="-965" rx="27.9291" ry="26.7407"/>
<text text-anchor="middle" x="128" y="-968.8" font-family="sans" font-size="14.00">foo</text>
<text text-anchor="middle" x="128" y="-953.8" font-family="sans" font-size="14.00">1</text>
</g>
<!-- bar.1 -->
<g id="node2" class="node"><title>bar.1</title>
<ellipse fill="none" stroke="black" cx="89" cy="-875" rx="28.4872" ry="26.7407"/>
<text text-anchor="middle" x="89" y="-878.8" font-family="sans" font-size="14.00">bar</text>
<text text-anchor="middle" x="89" y="-863.8" font-family="sans" font-size="14.00">1</text>
</g>
<!-- foo.1&#45;&gt;bar.1 -->
<g id="edge1" class="edge"><title>foo.1&#45;&gt;bar.1</title>
<path fill="none" stroke="black" d="M117.343,-939.954C113.173,-930.544 108.318,-919.59 103.817,-909.433"/>
<polygon fill="black" stroke="black" points="106.896,-907.742 99.644,-900.017 100.496,-910.578 106.896,-907.742"/>
</g>
<!-- wop.1 -->
<g id="node4" class="node"><title>wop.1</title>
<ellipse fill="none" stroke="black" cx="127" cy="-785" rx="33.3519" ry="26.7407"/>
<text text-anchor="middle" x="127" y="-788.8" font-family="sans" font-size="14.00">wop</text>
<text text-anchor="middle" x="127" y="-773.8" font-family="sans" font-size="14.00">1</text>
</g>
<!-- bar.1&#45;&gt;wop.1 -->
<g id="edge2" class="edge"><title>bar.1&#45;&gt;wop.1</title>
<path fill="none" stroke="black" d="M99.3837,-849.954C103.38,-840.698 108.022,-829.948 112.347,-819.934"/>
<polygon fill="black" stroke="black" points="115.613,-821.198 116.364,-810.63 109.187,-818.423 115.613,-821.198"/>
</g>
<!-- baz.1 -->
<g id="node3" class="node"><title>baz.1</title>
<ellipse fill="none" stroke="black" cx="46" cy="-785" rx="29.5467" ry="26.7407"/>
<text text-anchor="middle" x="46" y="-788.8" font-family="sans" font-size="14.00">baz</text>
<text text-anchor="middle" x="46" y="-773.8" font-family="sans" font-size="14.00">1</text>
</g>
<!-- bar.1&#45;&gt;baz.1 -->
<g id="edge3" class="edge"><title>bar.1&#45;&gt;baz.1</title>
<path fill="none" stroke="black" d="M77.4768,-850.418C72.7913,-840.829 67.2936,-829.578 62.2152,-819.185"/>
<polygon fill="black" stroke="black" points="65.2397,-817.402 57.7047,-809.954 58.9503,-820.475 65.2397,-817.402"/>
</g>
<!-- qux.1 -->
<g id="node6" class="node"><title>qux.1</title>
<ellipse fill="none" stroke="black" cx="47" cy="-695" rx="30.1093" ry="26.7407"/>
<text text-anchor="middle" x="47" y="-698.8" font-family="sans" font-size="14.00">qux</text>
<text text-anchor="middle" x="47" y="-683.8" font-family="sans" font-size="14.00">1</text>
</g>
<!-- baz.1&#45;&gt;qux.1 -->
<g id="edge13" class="edge"><title>baz.1&#45;&gt;qux.1</title>
<path fill="none" stroke="black" d="M46.2946,-758.073C46.3864,-749.999 46.4893,-740.943 46.5875,-732.296"/>
<polygon fill="black" stroke="black" points="50.0901,-732.085 46.704,-722.046 43.0905,-732.005 50.0901,-732.085"/>
</g>
<!-- pub.2 -->
<g id="node11" class="node"><title>pub.2</title>
<ellipse fill="none" stroke="black" cx="126" cy="-594" rx="31.1693" ry="26.7407"/>
<text text-anchor="middle" x="126" y="-597.8" font-family="sans" font-size="14.00">pub</text>
<text text-anchor="middle" x="126" y="-582.8" font-family="sans" font-size="14.00">2</text>
</g>
<!-- wop.1&#45;&gt;pub.2 -->
<g id="edge17" class="edge"><title>wop.1&#45;&gt;pub.2</title>
<path fill="none" stroke="black" d="M126.863,-758.117C126.689,-725.267 126.388,-668.417 126.192,-631.26"/>
<polygon fill="black" stroke="black" points="129.69,-630.855 126.137,-620.873 122.69,-630.892 129.69,-630.855"/>
</g>
<!-- pub.1 -->
<g id="node5" class="node"><title>pub.1</title>
<ellipse fill="none" stroke="black" cx="51" cy="-965" rx="31.1693" ry="26.7407"/>
<text text-anchor="middle" x="51" y="-968.8" font-family="sans" font-size="14.00">pub</text>
<text text-anchor="middle" x="51" y="-953.8" font-family="sans" font-size="14.00">1</text>
</g>
<!-- pub.1&#45;&gt;bar.1 -->
<g id="edge4" class="edge"><title>pub.1&#45;&gt;bar.1</title>
<path fill="none" stroke="black" d="M61.5851,-939.487C65.6125,-930.161 70.272,-919.37 74.5941,-909.361"/>
<polygon fill="black" stroke="black" points="77.8518,-910.645 78.603,-900.077 71.4253,-907.87 77.8518,-910.645"/>
</g>
<!-- foo.2 -->
<g id="node7" class="node"><title>foo.2</title>
<ellipse fill="none" stroke="black" cx="48" cy="-594" rx="27.9291" ry="26.7407"/>
<text text-anchor="middle" x="48" y="-597.8" font-family="sans" font-size="14.00">foo</text>
<text text-anchor="middle" x="48" y="-582.8" font-family="sans" font-size="14.00">2</text>
</g>
<!-- qux.1&#45;&gt;foo.2 -->
<g id="edge14" class="edge"><title>qux.1&#45;&gt;foo.2</title>
<path fill="none" stroke="black" d="M47.2627,-667.989C47.3755,-656.823 47.5093,-643.581 47.6317,-631.462"/>
<polygon fill="black" stroke="black" points="51.1343,-631.216 47.7355,-621.181 44.1346,-631.145 51.1343,-631.216"/>
</g>
<!-- bar.2 -->
<g id="node8" class="node"><title>bar.2</title>
<ellipse fill="none" stroke="black" cx="49" cy="-504" rx="28.4872" ry="26.7407"/>
<text text-anchor="middle" x="49" y="-507.8" font-family="sans" font-size="14.00">bar</text>
<text text-anchor="middle" x="49" y="-492.8" font-family="sans" font-size="14.00">2</text>
</g>
<!-- foo.2&#45;&gt;bar.2 -->
<g id="edge5" class="edge"><title>foo.2&#45;&gt;bar.2</title>
<path fill="none" stroke="black" d="M48.2946,-567.073C48.3864,-558.999 48.4893,-549.943 48.5875,-541.296"/>
<polygon fill="black" stroke="black" points="52.0901,-541.085 48.704,-531.046 45.0905,-541.005 52.0901,-541.085"/>
</g>
<!-- wop.2 -->
<g id="node10" class="node"><title>wop.2</title>
<ellipse fill="none" stroke="black" cx="49" cy="-414" rx="33.3519" ry="26.7407"/>
<text text-anchor="middle" x="49" y="-417.8" font-family="sans" font-size="14.00">wop</text>
<text text-anchor="middle" x="49" y="-402.8" font-family="sans" font-size="14.00">2</text>
</g>
<!-- bar.2&#45;&gt;wop.2 -->
<g id="edge6" class="edge"><title>bar.2&#45;&gt;wop.2</title>
<path fill="none" stroke="black" d="M49,-477.073C49,-468.999 49,-459.943 49,-451.296"/>
<polygon fill="black" stroke="black" points="52.5001,-451.046 49,-441.046 45.5001,-451.046 52.5001,-451.046"/>
</g>
<!-- baz.2 -->
<g id="node9" class="node"><title>baz.2</title>
<ellipse fill="none" stroke="black" cx="130" cy="-414" rx="29.5467" ry="26.7407"/>
<text text-anchor="middle" x="130" y="-417.8" font-family="sans" font-size="14.00">baz</text>
<text text-anchor="middle" x="130" y="-402.8" font-family="sans" font-size="14.00">2</text>
</g>
<!-- bar.2&#45;&gt;baz.2 -->
<g id="edge7" class="edge"><title>bar.2&#45;&gt;baz.2</title>
<path fill="none" stroke="black" d="M67.3802,-483.031C78.3834,-471.077 92.529,-455.709 104.591,-442.605"/>
<polygon fill="black" stroke="black" points="107.215,-444.922 111.412,-435.194 102.065,-440.181 107.215,-444.922"/>
</g>
<!-- foo.3 -->
<g id="node12" class="node"><title>foo.3</title>
<ellipse fill="none" stroke="black" cx="128" cy="-313" rx="27.9291" ry="26.7407"/>
<text text-anchor="middle" x="128" y="-316.8" font-family="sans" font-size="14.00">foo</text>
<text text-anchor="middle" x="128" y="-301.8" font-family="sans" font-size="14.00">3</text>
</g>
<!-- baz.2&#45;&gt;foo.3 -->
<g id="edge16" class="edge"><title>baz.2&#45;&gt;foo.3</title>
<path fill="none" stroke="black" d="M129.475,-386.989C129.249,-375.823 128.981,-362.581 128.737,-350.462"/>
<polygon fill="black" stroke="black" points="132.23,-350.108 128.529,-340.181 125.232,-350.25 132.23,-350.108"/>
</g>
<!-- pub.3 -->
<g id="node16" class="node"><title>pub.3</title>
<ellipse fill="none" stroke="black" cx="49" cy="-313" rx="31.1693" ry="26.7407"/>
<text text-anchor="middle" x="49" y="-316.8" font-family="sans" font-size="14.00">pub</text>
<text text-anchor="middle" x="49" y="-301.8" font-family="sans" font-size="14.00">3</text>
</g>
<!-- wop.2&#45;&gt;pub.3 -->
<g id="edge18" class="edge"><title>wop.2&#45;&gt;pub.3</title>
<path fill="none" stroke="black" d="M49,-386.989C49,-375.823 49,-362.581 49,-350.462"/>
<polygon fill="black" stroke="black" points="52.5001,-350.181 49,-340.181 45.5001,-350.181 52.5001,-350.181"/>
</g>
<!-- pub.2&#45;&gt;bar.2 -->
<g id="edge8" class="edge"><title>pub.2&#45;&gt;bar.2</title>
<path fill="none" stroke="black" d="M107.752,-572.145C97.5137,-560.444 84.604,-545.69 73.4953,-532.995"/>
<polygon fill="black" stroke="black" points="76.0704,-530.623 66.8513,-525.402 70.8024,-535.232 76.0704,-530.623"/>
</g>
<!-- bar.3 -->
<g id="node13" class="node"><title>bar.3</title>
<ellipse fill="none" stroke="black" cx="49" cy="-223" rx="28.4872" ry="26.7407"/>
<text text-anchor="middle" x="49" y="-226.8" font-family="sans" font-size="14.00">bar</text>
<text text-anchor="middle" x="49" y="-211.8" font-family="sans" font-size="14.00">3</text>
</g>
<!-- foo.3&#45;&gt;bar.3 -->
<g id="edge9" class="edge"><title>foo.3&#45;&gt;bar.3</title>
<path fill="none" stroke="black" d="M110.074,-292.031C99.4424,-280.189 85.8034,-264.996 74.1122,-251.973"/>
<polygon fill="black" stroke="black" points="76.4137,-249.297 67.1288,-244.194 71.2047,-253.974 76.4137,-249.297"/>
</g>
<!-- wop.3 -->
<g id="node15" class="node"><title>wop.3</title>
<ellipse fill="none" stroke="black" cx="49" cy="-133" rx="33.3519" ry="26.7407"/>
<text text-anchor="middle" x="49" y="-136.8" font-family="sans" font-size="14.00">wop</text>
<text text-anchor="middle" x="49" y="-121.8" font-family="sans" font-size="14.00">3</text>
</g>
<!-- bar.3&#45;&gt;wop.3 -->
<g id="edge10" class="edge"><title>bar.3&#45;&gt;wop.3</title>
<path fill="none" stroke="black" d="M49,-196.073C49,-187.999 49,-178.943 49,-170.296"/>
<polygon fill="black" stroke="black" points="52.5001,-170.046 49,-160.046 45.5001,-170.046 52.5001,-170.046"/>
</g>
<!-- baz.3 -->
<g id="node14" class="node"><title>baz.3</title>
<ellipse fill="none" stroke="black" cx="130" cy="-133" rx="29.5467" ry="26.7407"/>
<text text-anchor="middle" x="130" y="-136.8" font-family="sans" font-size="14.00">baz</text>
<text text-anchor="middle" x="130" y="-121.8" font-family="sans" font-size="14.00">3</text>
</g>
<!-- bar.3&#45;&gt;baz.3 -->
<g id="edge11" class="edge"><title>bar.3&#45;&gt;baz.3</title>
<path fill="none" stroke="black" d="M67.3802,-202.031C78.3834,-190.077 92.529,-174.709 104.591,-161.605"/>
<polygon fill="black" stroke="black" points="107.215,-163.922 111.412,-154.194 102.065,-159.181 107.215,-163.922"/>
</g>
<!-- qux.3 -->
<g id="node17" class="node"><title>qux.3</title>
<ellipse fill="none" stroke="black" cx="130" cy="-43" rx="30.1093" ry="26.7407"/>
<text text-anchor="middle" x="130" y="-46.8" font-family="sans" font-size="14.00">qux</text>
<text text-anchor="middle" x="130" y="-31.8" font-family="sans" font-size="14.00">3</text>
</g>
<!-- baz.3&#45;&gt;qux.3 -->
<g id="edge15" class="edge"><title>baz.3&#45;&gt;qux.3</title>
<path fill="none" stroke="black" d="M130,-106.073C130,-97.9993 130,-88.9428 130,-80.2961"/>
<polygon fill="black" stroke="black" points="133.5,-80.0457 130,-70.0457 126.5,-80.0458 133.5,-80.0457"/>
</g>
<!-- pub.3&#45;&gt;bar.3 -->
<g id="edge12" class="edge"><title>pub.3&#45;&gt;bar.3</title>
<path fill="none" stroke="black" d="M49,-286.073C49,-277.999 49,-268.943 49,-260.296"/>
<polygon fill="black" stroke="black" points="52.5001,-260.046 49,-250.046 45.5001,-260.046 52.5001,-260.046"/>
</g>
</g>
</svg>
