<?xml version="1.0" encoding="UTF-8" standalone="no"?>
<!DOCTYPE svg PUBLIC "-//W3C//DTD SVG 1.1//EN"
 "http://www.w3.org/Graphics/SVG/1.1/DTD/svg11.dtd">
<!-- Generated by graphviz version 2.30.1 (20170916.1124)
 -->
<!-- Title: Mini_Cylc Pages: 1 -->
<svg width="364pt" height="116pt"
 viewBox="0.00 0.00 364.00 116.00" xmlns="http://www.w3.org/2000/svg" xmlns:xlink="http://www.w3.org/1999/xlink">
<g id="graph0" class="graph" transform="scale(1 1) rotate(0) translate(4 112)">
<title>Mini_Cylc</title>
<polygon fill="none" stroke="none" points="-4,5 -4,-112 361,-112 361,5 -4,5"/>
<!-- bar_foo3 -->
<g id="node1" class="node"><title>bar_foo3</title>
<ellipse fill="none" stroke="black" cx="53" cy="-90" rx="51.4931" ry="18"/>
<text text-anchor="middle" x="53" y="-86.3" font-family="sans" font-size="14.00">bar_foo3</text>
</g>
<!-- baz_foo3 -->
<g id="node2" class="node"><title>baz_foo3</title>
<ellipse fill="none" stroke="black" cx="53" cy="-18" rx="52.9443" ry="18"/>
<text text-anchor="middle" x="53" y="-14.3" font-family="sans" font-size="14.00">baz_foo3</text>
</g>
<!-- bar_foo3&#45;&gt;baz_foo3 -->
<g id="edge1" class="edge"><title>bar_foo3&#45;&gt;baz_foo3</title>
<path fill="none" stroke="black" d="M53,-71.6966C53,-63.9827 53,-54.7125 53,-46.1124"/>
<polygon fill="black" stroke="black" points="56.5001,-46.1043 53,-36.1043 49.5001,-46.1044 56.5001,-46.1043"/>
</g>
<!-- bar_foo1 -->
<g id="node3" class="node"><title>bar_foo1</title>
<ellipse fill="none" stroke="black" cx="178" cy="-90" rx="51.4931" ry="18"/>
<text text-anchor="middle" x="178" y="-86.3" font-family="sans" font-size="14.00">bar_foo1</text>
</g>
<!-- baz_foo1 -->
<g id="node4" class="node"><title>baz_foo1</title>
<ellipse fill="none" stroke="black" cx="178" cy="-18" rx="52.9443" ry="18"/>
<text text-anchor="middle" x="178" y="-14.3" font-family="sans" font-size="14.00">baz_foo1</text>
</g>
<!-- bar_foo1&#45;&gt;baz_foo1 -->
<g id="edge2" class="edge"><title>bar_foo1&#45;&gt;baz_foo1</title>
<path fill="none" stroke="black" d="M178,-71.6966C178,-63.9827 178,-54.7125 178,-46.1124"/>
<polygon fill="black" stroke="black" points="181.5,-46.1043 178,-36.1043 174.5,-46.1044 181.5,-46.1043"/>
</g>
<!-- bar_foo2 -->
<g id="node5" class="node"><title>bar_foo2</title>
<ellipse fill="none" stroke="black" cx="303" cy="-90" rx="51.4931" ry="18"/>
<text text-anchor="middle" x="303" y="-86.3" font-family="sans" font-size="14.00">bar_foo2</text>
</g>
<!-- baz_foo2 -->
<g id="node6" class="node"><title>baz_foo2</title>
<ellipse fill="none" stroke="black" cx="303" cy="-18" rx="52.9443" ry="18"/>
<text text-anchor="middle" x="303" y="-14.3" font-family="sans" font-size="14.00">baz_foo2</text>
</g>
<!-- bar_foo2&#45;&gt;baz_foo2 -->
<g id="edge3" class="edge"><title>bar_foo2&#45;&gt;baz_foo2</title>
<path fill="none" stroke="black" d="M303,-71.6966C303,-63.9827 303,-54.7125 303,-46.1124"/>
<polygon fill="black" stroke="black" points="306.5,-46.1043 303,-36.1043 299.5,-46.1044 306.5,-46.1043"/>
</g>
</g>
</svg>
