<?xml version="1.0" encoding="UTF-8" standalone="no"?>
<!DOCTYPE svg PUBLIC "-//W3C//DTD SVG 1.1//EN"
 "http://www.w3.org/Graphics/SVG/1.1/DTD/svg11.dtd">
<!-- Generated by graphviz version 2.26.0 (20091210.2329)
 -->
<!-- Title: bakery Pages: 1 -->
<svg width="382pt" height="268pt"
 viewBox="0.00 0.00 382.00 268.00" xmlns="http://www.w3.org/2000/svg" xmlns:xlink="http://www.w3.org/1999/xlink">
<g id="graph1" class="graph" transform="scale(1 1) rotate(0) translate(4 264)">
<title>bakery</title>
<polygon fill="none" stroke="none" points="-4,5 -4,-264 379,-264 379,5 -4,5"/>
<!-- purchase ingredients -->
<g id="node1" class="node"><title>purchase ingredients</title>
<ellipse fill="none" stroke="black" cx="119" cy="-241" rx="119.001" ry="18.3848"/>
<text text-anchor="middle" x="119" y="-237.4" font-family="sans" font-size="14.00">purchase ingredients</text>
</g>
<!-- make dough -->
<g id="node3" class="node"><title>make dough</title>
<ellipse fill="none" stroke="black" cx="119" cy="-167" rx="73.0388" ry="18.3848"/>
<text text-anchor="middle" x="119" y="-163.4" font-family="sans" font-size="14.00">make dough</text>
</g>
<!-- purchase ingredients&#45;&gt;make dough -->
<g id="edge2" class="edge"><title>purchase ingredients&#45;&gt;make dough</title>
<path fill="none" stroke="black" d="M119,-222.327C119,-214.264 119,-204.648 119,-195.711"/>
<polygon fill="black" stroke="black" points="122.5,-195.667 119,-185.667 115.5,-195.667 122.5,-195.667"/>
</g>
<!-- bake bread -->
<g id="node4" class="node"><title>bake bread</title>
<ellipse fill="none" stroke="black" cx="205" cy="-93" rx="67.8823" ry="18.3848"/>
<text text-anchor="middle" x="205" y="-89.4" font-family="sans" font-size="14.00">bake bread</text>
</g>
<!-- make dough&#45;&gt;bake bread -->
<g id="edge3" class="edge"><title>make dough&#45;&gt;bake bread</title>
<path fill="none" stroke="black" d="M139.818,-149.087C150.91,-139.543 164.713,-127.665 176.758,-117.301"/>
<polygon fill="black" stroke="black" points="179.076,-119.924 184.374,-110.748 174.511,-114.618 179.076,-119.924"/>
</g>
<!-- sell bread -->
<g id="node5" class="node"><title>sell bread</title>
<ellipse fill="none" stroke="black" cx="132" cy="-19" rx="62.2254" ry="18.3848"/>
<text text-anchor="middle" x="132" y="-15.4" font-family="sans" font-size="14.00">sell bread</text>
</g>
<!-- bake bread&#45;&gt;sell bread -->
<g id="edge4" class="edge"><title>bake bread&#45;&gt;sell bread</title>
<path fill="none" stroke="black" d="M187.329,-75.0867C178.093,-65.7244 166.642,-54.117 156.558,-43.8949"/>
<polygon fill="black" stroke="black" points="159.023,-41.4094 149.509,-36.7484 154.04,-46.3254 159.023,-41.4094"/>
</g>
<!-- clean oven -->
<g id="node7" class="node"><title>clean oven</title>
<ellipse fill="none" stroke="black" cx="278" cy="-19" rx="65.9683" ry="18.3848"/>
<text text-anchor="middle" x="278" y="-15.4" font-family="sans" font-size="14.00">clean oven</text>
</g>
<!-- bake bread&#45;&gt;clean oven -->
<g id="edge6" class="edge"><title>bake bread&#45;&gt;clean oven</title>
<path fill="none" stroke="black" d="M222.671,-75.0867C231.75,-65.8835 242.969,-54.5108 252.926,-44.4171"/>
<polygon fill="black" stroke="black" points="255.707,-46.5819 260.238,-37.0049 250.724,-41.6659 255.707,-46.5819"/>
</g>
<!-- pre&#45;heat oven -->
<g id="node8" class="node"><title>pre&#45;heat oven</title>
<ellipse fill="none" stroke="black" cx="292" cy="-167" rx="82.2301" ry="18.3848"/>
<text text-anchor="middle" x="292" y="-163.4" font-family="sans" font-size="14.00">pre&#45;heat oven</text>
</g>
<!-- pre&#45;heat oven&#45;&gt;bake bread -->
<g id="edge8" class="edge"><title>pre&#45;heat oven&#45;&gt;bake bread</title>
<path fill="none" stroke="black" d="M270.94,-149.087C259.719,-139.543 245.755,-127.665 233.57,-117.301"/>
<polygon fill="black" stroke="black" points="235.751,-114.561 225.866,-110.748 231.216,-119.893 235.751,-114.561"/>
</g>
</g>
</svg>
