<?xml version="1.0" encoding="UTF-8" standalone="no"?>
<!DOCTYPE svg PUBLIC "-//W3C//DTD SVG 1.1//EN"
 "http://www.w3.org/Graphics/SVG/1.1/DTD/svg11.dtd">
<!-- Generated by graphviz version 2.26.0 (20091210.2329)
 -->
<!-- Title: Example Pages: 1 -->
<svg width="146pt" height="216pt"
 viewBox="0.00 0.00 146.17 216.00" xmlns="http://www.w3.org/2000/svg" xmlns:xlink="http://www.w3.org/1999/xlink">
<g id="graph1" class="graph" transform="scale(0.81203 0.81203) rotate(0) translate(4 262)">
<title>Example</title>
<polygon fill="none" stroke="none" points="-4,5 -4,-262 177,-262 177,5 -4,5"/>
<!-- foo.1 -->
<g id="node1" class="node"><title>foo.1</title>
<ellipse fill="none" stroke="black" cx="86" cy="-227" rx="85.7684" ry="31.1127"/>
<text text-anchor="middle" x="86" y="-232.4" font-family="sans" font-size="14.00">foo</text>
<text text-anchor="middle" x="86" y="-214.4" font-family="sans" font-size="14.00">2000&#45;01&#45;01T00</text>
</g>
<!-- foo.2 -->
<g id="node2" class="node"><title>foo.2</title>
<ellipse fill="none" stroke="black" cx="86" cy="-129" rx="85.7684" ry="31.1127"/>
<text text-anchor="middle" x="86" y="-134.4" font-family="sans" font-size="14.00">foo</text>
<text text-anchor="middle" x="86" y="-116.4" font-family="sans" font-size="14.00">2000&#45;01&#45;02T00</text>
</g>
<!-- foo.1&#45;&gt;foo.2 -->
<g id="edge2" class="edge"><title>foo.1&#45;&gt;foo.2</title>
<path fill="none" stroke="black" d="M86,-195.992C86,-187.859 86,-178.959 86,-170.378"/>
<polygon fill="black" stroke="black" points="89.5001,-170.142 86,-160.142 82.5001,-170.142 89.5001,-170.142"/>
</g>
<!-- foo.3 -->
<g id="node3" class="node"><title>foo.3</title>
<ellipse fill="none" stroke="black" cx="86" cy="-31" rx="85.0596" ry="31.1127"/>
<text text-anchor="middle" x="86" y="-36.4" font-family="sans" font-size="14.00">foo</text>
<text text-anchor="middle" x="86" y="-18.4" font-family="sans" font-size="14.00">2000&#45;01&#45;03T00</text>
</g>
<!-- foo.2&#45;&gt;foo.3 -->
<g id="edge3" class="edge"><title>foo.2&#45;&gt;foo.3</title>
<path fill="none" stroke="black" d="M86,-97.9922C86,-89.8594 86,-80.9587 86,-72.3777"/>
<polygon fill="black" stroke="black" points="89.5001,-72.1424 86,-62.1425 82.5001,-72.1425 89.5001,-72.1424"/>
</g>
</g>
</svg>
