<?xml version="1.0" encoding="UTF-8" standalone="no"?>
<!DOCTYPE svg PUBLIC "-//W3C//DTD SVG 1.1//EN"
 "http://www.w3.org/Graphics/SVG/1.1/DTD/svg11.dtd">
<!-- Generated by graphviz version 2.26.0 (20091210.2329)
 -->
<!-- Title: example Pages: 1 -->
<svg width="504pt" height="90pt"
 viewBox="0.00 0.00 504.00 90.20" xmlns="http://www.w3.org/2000/svg" xmlns:xlink="http://www.w3.org/1999/xlink">
<g id="graph1" class="graph" transform="scale(0.464945 0.464945) rotate(0) translate(4 190)">
<title>example</title>
<polygon fill="none" stroke="none" points="-4,5 -4,-190 1081,-190 1081,5 -4,5"/>
<!-- get_observations_belmullet -->
<g id="node1" class="node"><title>get_observations_belmullet</title>
<ellipse fill="none" stroke="black" cx="152" cy="-167" rx="152.234" ry="18.3848"/>
<text text-anchor="middle" x="152" y="-163.4" font-family="sans" font-size="14.00">get_observations_belmullet</text>
</g>
<!-- consolidate_observations -->
<g id="node3" class="node"><title>consolidate_observations</title>
<ellipse fill="none" stroke="black" cx="432" cy="-19" rx="138.801" ry="18.3848"/>
<text text-anchor="middle" x="432" y="-15.4" font-family="sans" font-size="14.00">consolidate_observations</text>
</g>
<!-- get_observations_belmullet&#45;&gt;consolidate_observations -->
<g id="edge2" class="edge"><title>get_observations_belmullet&#45;&gt;consolidate_observations</title>
<path fill="none" stroke="black" d="M178.842,-148.771C208.496,-129.039 258.019,-97.2763 303,-74 326.756,-61.7073 353.88,-49.836 377.106,-40.2884"/>
<polygon fill="black" stroke="black" points="378.523,-43.4908 386.466,-36.4793 375.884,-37.0072 378.523,-43.4908"/>
</g>
<!-- hidden -->
<!-- get_observations_belmullet&#45;&gt;hidden -->
<!-- get_observations_camborne -->
<g id="node4" class="node"><title>get_observations_camborne</title>
<ellipse fill="none" stroke="black" cx="476" cy="-167" rx="154.149" ry="18.3848"/>
<text text-anchor="middle" x="476" y="-163.4" font-family="sans" font-size="14.00">get_observations_camborne</text>
</g>
<!-- get_observations_camborne&#45;&gt;consolidate_observations -->
<g id="edge4" class="edge"><title>get_observations_camborne&#45;&gt;consolidate_observations</title>
<path fill="none" stroke="black" d="M466.243,-148.329C461.106,-137.875 455.05,-124.47 451,-112 444.159,-90.9391 439.265,-66.3645 436.158,-47.7676"/>
<polygon fill="black" stroke="black" points="439.607,-47.1699 434.575,-37.8464 432.695,-48.273 439.607,-47.1699"/>
</g>
<!-- get_observations_camborne&#45;&gt;hidden -->
<!-- get_observations_heathrow -->
<g id="node6" class="node"><title>get_observations_heathrow</title>
<ellipse fill="none" stroke="black" cx="611" cy="-93" rx="150.821" ry="18.3848"/>
<text text-anchor="middle" x="611" y="-89.4" font-family="sans" font-size="14.00">get_observations_heathrow</text>
</g>
<!-- get_observations_heathrow&#45;&gt;consolidate_observations -->
<g id="edge6" class="edge"><title>get_observations_heathrow&#45;&gt;consolidate_observations</title>
<path fill="none" stroke="black" d="M567.669,-75.0867C542.512,-64.6865 510.653,-51.5157 484.13,-40.5511"/>
<polygon fill="black" stroke="black" points="485.201,-37.2066 474.623,-36.6206 482.527,-43.6756 485.201,-37.2066"/>
</g>
<!-- get_observations_shetland -->
<g id="node8" class="node"><title>get_observations_shetland</title>
<ellipse fill="none" stroke="black" cx="928" cy="-93" rx="147.785" ry="18.3848"/>
<text text-anchor="middle" x="928" y="-89.4" font-family="sans" font-size="14.00">get_observations_shetland</text>
</g>
<!-- get_observations_shetland&#45;&gt;consolidate_observations -->
<g id="edge8" class="edge"><title>get_observations_shetland&#45;&gt;consolidate_observations</title>
<path fill="none" stroke="black" d="M832.66,-78.7759C747.308,-66.0419 622.473,-47.4174 534.889,-34.3504"/>
<polygon fill="black" stroke="black" points="535.34,-30.879 524.933,-32.865 534.307,-37.8024 535.34,-30.879"/>
</g>
<!-- hidden&#45;&gt;consolidate_observations -->
</g>
</svg>
