<?xml version="1.0" encoding="UTF-8" standalone="no"?>
<!DOCTYPE svg PUBLIC "-//W3C//DTD SVG 1.1//EN"
 "http://www.w3.org/Graphics/SVG/1.1/DTD/svg11.dtd">
<!-- Generated by graphviz version 2.26.0 (20091210.2329)
 -->
<!-- Title: Example Pages: 1 -->
<svg width="66pt" height="194pt"
 viewBox="0.00 0.00 66.00 194.00" xmlns="http://www.w3.org/2000/svg" xmlns:xlink="http://www.w3.org/1999/xlink">
<g id="graph1" class="graph" transform="scale(1 1) rotate(0) translate(4 190)">
<title>Example</title>
<polygon fill="none" stroke="none" points="-4,5 -4,-190 63,-190 63,5 -4,5"/>
<!-- foo -->
<g id="node1" class="node"><title>foo</title>
<ellipse fill="#ada5a5" stroke="#ada5a5" cx="29" cy="-167" rx="27" ry="18.3848"/>
<text text-anchor="middle" x="29" y="-163.4" font-family="sans" font-size="14.00">foo</text>
</g>
<!-- bar -->
<g id="node2" class="node"><title>bar</title>
<ellipse fill="#ff0000" stroke="#ff0000" cx="29" cy="-93" rx="27.7881" ry="18.3848"/>
<text text-anchor="middle" x="29" y="-89.4" font-family="sans" font-size="14.00" fill="white">bar</text>
</g>
<!-- foo&#45;&gt;bar -->
<g id="edge2" class="edge"><title>foo&#45;&gt;bar</title>
<path fill="none" stroke="black" d="M29,-148.327C29,-140.264 29,-130.648 29,-121.711"/>
<polygon fill="black" stroke="black" points="32.5001,-121.667 29,-111.667 25.5001,-121.667 32.5001,-121.667"/>
</g>
<!-- baz -->
<g id="node3" class="node"><title>baz</title>
<ellipse fill="none" stroke="#88c6ff" cx="29" cy="-19" rx="28.9914" ry="18.3848"/>
<text text-anchor="middle" x="29" y="-15.4" font-family="sans" font-size="14.00">baz</text>
</g>
<!-- bar&#45;&gt;baz -->
<g id="edge3" class="edge"><title>bar&#45;&gt;baz</title>
<path fill="none" stroke="black" d="M29,-74.3267C29,-66.2639 29,-56.6477 29,-47.7115"/>
<polygon fill="black" stroke="black" points="32.5001,-47.6673 29,-37.6674 25.5001,-47.6674 32.5001,-47.6673"/>
</g>
</g>
</svg>
