<?xml version="1.0" encoding="UTF-8" standalone="no"?>
<!DOCTYPE svg PUBLIC "-//W3C//DTD SVG 1.1//EN"
 "http://www.w3.org/Graphics/SVG/1.1/DTD/svg11.dtd">
<!-- Generated by graphviz version 7.1.0 (20230122.1345)
 -->
<!-- Title: Example Pages: 1 -->
<svg width="208pt" height="188pt"
 viewBox="0.00 0.00 208.18 188.00" xmlns="http://www.w3.org/2000/svg" xmlns:xlink="http://www.w3.org/1999/xlink">
<g id="graph0" class="graph" transform="scale(1 1) rotate(0) translate(4 184)">
<title>Example</title>
<polygon fill="none" stroke="none" points="-4,4 -4,-184 204.18,-184 204.18,4 -4,4"/>
<!-- fcm_make_spaceship -->
<g id="node1" class="node">
<title>fcm_make_spaceship</title>
<ellipse fill="none" stroke="black" cx="100.09" cy="-162" rx="100.18" ry="18"/>
<text text-anchor="middle" x="100.09" y="-158.3" font-family="sans" font-size="14.00">fcm_make_spaceship</text>
</g>
<!-- spaceship -->
<g id="node2" class="node">
<title>spaceship</title>
<ellipse fill="none" stroke="black" cx="100.09" cy="-90" rx="53.09" ry="18"/>
<text text-anchor="middle" x="100.09" y="-86.3" font-family="sans" font-size="14.00">spaceship</text>
</g>
<!-- fcm_make_spaceship&#45;&gt;spaceship -->
<g id="edge1" class="edge">
<title>fcm_make_spaceship&#45;&gt;spaceship</title>
<path fill="none" stroke="black" d="M100.09,-143.7C100.09,-136.41 100.09,-127.73 100.09,-119.54"/>
<polygon fill="black" stroke="black" points="103.59,-119.62 100.09,-109.62 96.59,-119.62 103.59,-119.62"/>
</g>
<!-- rose_ana_position -->
<g id="node3" class="node">
<title>rose_ana_position</title>
<ellipse fill="none" stroke="black" cx="100.09" cy="-18" rx="87.99" ry="18"/>
<text text-anchor="middle" x="100.09" y="-14.3" font-family="sans" font-size="14.00">rose_ana_position</text>
</g>
<!-- spaceship&#45;&gt;rose_ana_position -->
<g id="edge2" class="edge">
<title>spaceship&#45;&gt;rose_ana_position</title>
<path fill="none" stroke="black" d="M100.09,-71.7C100.09,-64.41 100.09,-55.73 100.09,-47.54"/>
<polygon fill="black" stroke="black" points="103.59,-47.62 100.09,-37.62 96.59,-47.62 103.59,-47.62"/>
</g>
</g>
</svg>
