<?xml version="1.0" encoding="UTF-8" standalone="no"?>
<!DOCTYPE svg PUBLIC "-//W3C//DTD SVG 1.1//EN"
 "http://www.w3.org/Graphics/SVG/1.1/DTD/svg11.dtd">
<!-- Generated by graphviz version 2.42.3 (20191010.1750)
 -->
<!-- Title: Example Pages: 1 -->
<svg width="206pt" height="188pt"
 viewBox="0.00 0.00 205.58 188.00" xmlns="http://www.w3.org/2000/svg" xmlns:xlink="http://www.w3.org/1999/xlink">
<g id="graph0" class="graph" transform="scale(1 1) rotate(0) translate(4 184)">
<title>Example</title>
<polygon fill="transparent" stroke="transparent" points="-4,4 -4,-184 201.58,-184 201.58,4 -4,4"/>
<!-- fcm_make_spaceship -->
<g id="node1" class="node">
<title>fcm_make_spaceship</title>
<ellipse fill="none" stroke="black" cx="98.79" cy="-162" rx="98.58" ry="18"/>
<text text-anchor="middle" x="98.79" y="-158.3" font-family="sans" font-size="14.00">fcm_make_spaceship</text>
</g>
<!-- spaceship -->
<g id="node2" class="node">
<title>spaceship</title>
<ellipse fill="none" stroke="black" cx="98.79" cy="-90" rx="51.99" ry="18"/>
<text text-anchor="middle" x="98.79" y="-86.3" font-family="sans" font-size="14.00">spaceship</text>
</g>
<!-- fcm_make_spaceship&#45;&gt;spaceship -->
<g id="edge1" class="edge">
<title>fcm_make_spaceship&#45;&gt;spaceship</title>
<path fill="none" stroke="black" d="M98.79,-143.7C98.79,-135.98 98.79,-126.71 98.79,-118.11"/>
<polygon fill="black" stroke="black" points="102.29,-118.1 98.79,-108.1 95.29,-118.1 102.29,-118.1"/>
</g>
<!-- rose_ana_position -->
<g id="node3" class="node">
<title>rose_ana_position</title>
<ellipse fill="none" stroke="black" cx="98.79" cy="-18" rx="85.29" ry="18"/>
<text text-anchor="middle" x="98.79" y="-14.3" font-family="sans" font-size="14.00">rose_ana_position</text>
</g>
<!-- spaceship&#45;&gt;rose_ana_position -->
<g id="edge2" class="edge">
<title>spaceship&#45;&gt;rose_ana_position</title>
<path fill="none" stroke="black" d="M98.79,-71.7C98.79,-63.98 98.79,-54.71 98.79,-46.11"/>
<polygon fill="black" stroke="black" points="102.29,-46.1 98.79,-36.1 95.29,-46.1 102.29,-46.1"/>
</g>
</g>
</svg>
