<?xml version="1.0" encoding="UTF-8" standalone="no"?>
<!DOCTYPE svg PUBLIC "-//W3C//DTD SVG 1.1//EN"
 "http://www.w3.org/Graphics/SVG/1.1/DTD/svg11.dtd">
<!-- Generated by graphviz version 2.42.3 (20191010.1750)
 -->
<!-- Title: Mini_Cylc Pages: 1 -->
<svg width="332pt" height="116pt"
 viewBox="0.00 0.00 332.19 116.00" xmlns="http://www.w3.org/2000/svg" xmlns:xlink="http://www.w3.org/1999/xlink">
<g id="graph0" class="graph" transform="scale(1 1) rotate(0) translate(4 112)">
<title>Mini_Cylc</title>
<polygon fill="transparent" stroke="transparent" points="-4,4 -4,-112 328.19,-112 328.19,4 -4,4"/>
<!-- bar_foo1 -->
<g id="node1" class="node">
<title>bar_foo1</title>
<ellipse fill="none" stroke="black" cx="48.1" cy="-90" rx="46.59" ry="18"/>
<text text-anchor="middle" x="48.1" y="-86.3" font-family="sans" font-size="14.00">bar_foo1</text>
</g>
<!-- baz_foo1 -->
<g id="node2" class="node">
<title>baz_foo1</title>
<ellipse fill="none" stroke="black" cx="48.1" cy="-18" rx="48.19" ry="18"/>
<text text-anchor="middle" x="48.1" y="-14.3" font-family="sans" font-size="14.00">baz_foo1</text>
</g>
<!-- bar_foo1&#45;&gt;baz_foo1 -->
<g id="edge1" class="edge">
<title>bar_foo1&#45;&gt;baz_foo1</title>
<path fill="none" stroke="black" d="M48.1,-71.7C48.1,-63.98 48.1,-54.71 48.1,-46.11"/>
<polygon fill="black" stroke="black" points="51.6,-46.1 48.1,-36.1 44.6,-46.1 51.6,-46.1"/>
</g>
<!-- baz_foo2 -->
<g id="node3" class="node">
<title>baz_foo2</title>
<ellipse fill="none" stroke="black" cx="162.1" cy="-18" rx="48.19" ry="18"/>
<text text-anchor="middle" x="162.1" y="-14.3" font-family="sans" font-size="14.00">baz_foo2</text>
</g>
<!-- baz_foo3 -->
<g id="node4" class="node">
<title>baz_foo3</title>
<ellipse fill="none" stroke="black" cx="276.1" cy="-18" rx="48.19" ry="18"/>
<text text-anchor="middle" x="276.1" y="-14.3" font-family="sans" font-size="14.00">baz_foo3</text>
</g>
<!-- bar_foo2 -->
<g id="node5" class="node">
<title>bar_foo2</title>
<ellipse fill="none" stroke="black" cx="162.1" cy="-90" rx="46.59" ry="18"/>
<text text-anchor="middle" x="162.1" y="-86.3" font-family="sans" font-size="14.00">bar_foo2</text>
</g>
<!-- bar_foo2&#45;&gt;baz_foo2 -->
<g id="edge2" class="edge">
<title>bar_foo2&#45;&gt;baz_foo2</title>
<path fill="none" stroke="black" d="M162.1,-71.7C162.1,-63.98 162.1,-54.71 162.1,-46.11"/>
<polygon fill="black" stroke="black" points="165.6,-46.1 162.1,-36.1 158.6,-46.1 165.6,-46.1"/>
</g>
<!-- bar_foo3 -->
<g id="node6" class="node">
<title>bar_foo3</title>
<ellipse fill="none" stroke="black" cx="276.1" cy="-90" rx="46.59" ry="18"/>
<text text-anchor="middle" x="276.1" y="-86.3" font-family="sans" font-size="14.00">bar_foo3</text>
</g>
<!-- bar_foo3&#45;&gt;baz_foo3 -->
<g id="edge3" class="edge">
<title>bar_foo3&#45;&gt;baz_foo3</title>
<path fill="none" stroke="black" d="M276.1,-71.7C276.1,-63.98 276.1,-54.71 276.1,-46.11"/>
<polygon fill="black" stroke="black" points="279.6,-46.1 276.1,-36.1 272.6,-46.1 279.6,-46.1"/>
</g>
</g>
</svg>
