<?xml version="1.0" encoding="UTF-8" standalone="no"?>
<!DOCTYPE svg PUBLIC "-//W3C//DTD SVG 1.1//EN"
 "http://www.w3.org/Graphics/SVG/1.1/DTD/svg11.dtd">
<!-- Generated by graphviz version 2.26.0 (20091210.2329)
 -->
<!-- Title: example Pages: 1 -->
<svg width="288pt" height="86pt"
 viewBox="0.00 0.00 288.00 85.73" xmlns="http://www.w3.org/2000/svg" xmlns:xlink="http://www.w3.org/1999/xlink">
<g id="graph1" class="graph" transform="scale(0.669767 0.669767) rotate(0) translate(4 124)">
<title>example</title>
<polygon fill="none" stroke="none" points="-4,5 -4,-124 427,-124 427,5 -4,5"/>
<g id="graph2" class="cluster"><title>cluster_T06</title>
<polygon fill="none" stroke="black" stroke-dasharray="5,2" points="8,-8 8,-112 130,-112 130,-8 8,-8"/>
<text text-anchor="middle" x="69" y="-95.4" font-family="sans" font-size="14.00">T06</text>
</g>
<g id="graph3" class="cluster"><title>cluster_T12</title>
<polygon fill="none" stroke="black" stroke-dasharray="5,2" points="150,-8 150,-112 272,-112 272,-8 150,-8"/>
<text text-anchor="middle" x="211" y="-95.4" font-family="sans" font-size="14.00">T12</text>
</g>
<g id="graph4" class="cluster"><title>cluster_T18</title>
<polygon fill="none" stroke="black" stroke-dasharray="5,2" points="292,-8 292,-112 414,-112 414,-8 292,-8"/>
<text text-anchor="middle" x="353" y="-95.4" font-family="sans" font-size="14.00">T18</text>
</g>
<!-- forecast.t06 -->
<g id="node2" class="node"><title>forecast.t06</title>
<ellipse fill="none" stroke="black" cx="69" cy="-47" rx="51.8276" ry="31.1127"/>
<text text-anchor="middle" x="69" y="-52.4" font-family="sans" font-size="14.00">forecast</text>
<text text-anchor="middle" x="69" y="-34.4" font-family="sans" font-size="14.00">T06</text>
</g>
<!-- forecast.t12 -->
<g id="node4" class="node"><title>forecast.t12</title>
<ellipse fill="none" stroke="black" cx="211" cy="-47" rx="51.8276" ry="31.1127"/>
<text text-anchor="middle" x="211" y="-52.4" font-family="sans" font-size="14.00">forecast</text>
<text text-anchor="middle" x="211" y="-34.4" font-family="sans" font-size="14.00">T12</text>
</g>
<!-- forecast.t06&#45;&gt;forecast.t12 -->
<g id="edge5" class="edge"><title>forecast.t06&#45;&gt;forecast.t12</title>
<path fill="none" stroke="black" d="M121.876,-47C130.377,-47 139.25,-47 147.961,-47"/>
<polygon fill="black" stroke="black" points="148.08,-50.5001 158.08,-47 148.08,-43.5001 148.08,-50.5001"/>
</g>
<!-- forecast.t18 -->
<g id="node6" class="node"><title>forecast.t18</title>
<ellipse fill="none" stroke="black" cx="353" cy="-47" rx="51.8276" ry="31.1127"/>
<text text-anchor="middle" x="353" y="-52.4" font-family="sans" font-size="14.00">forecast</text>
<text text-anchor="middle" x="353" y="-34.4" font-family="sans" font-size="14.00">T18</text>
</g>
<!-- forecast.t12&#45;&gt;forecast.t18 -->
<g id="edge6" class="edge"><title>forecast.t12&#45;&gt;forecast.t18</title>
<path fill="none" stroke="black" d="M263.876,-47C272.377,-47 281.25,-47 289.961,-47"/>
<polygon fill="black" stroke="black" points="290.08,-50.5001 300.08,-47 290.08,-43.5001 290.08,-50.5001"/>
</g>
</g>
</svg>
