<?xml version="1.0" encoding="UTF-8" standalone="no"?>
<!DOCTYPE svg PUBLIC "-//W3C//DTD SVG 1.1//EN"
 "http://www.w3.org/Graphics/SVG/1.1/DTD/svg11.dtd">
<!-- Generated by graphviz version 2.26.0 (20091210.2329)
 -->
<!-- Title: Example Pages: 1 -->
<svg width="218pt" height="332pt"
 viewBox="0.00 0.00 218.00 332.00" xmlns="http://www.w3.org/2000/svg" xmlns:xlink="http://www.w3.org/1999/xlink">
<g id="graph1" class="graph" transform="scale(1 1) rotate(0) translate(4 328)">
<title>Example</title>
<polygon fill="none" stroke="none" points="-4,5 -4,-328 215,-328 215,5 -4,5"/>
<!-- AIRPLANE -->
<g id="node1" class="node"><title>AIRPLANE</title>
<polygon fill="powderblue" stroke="royalblue" points="86,-108 4.26326e-14,-108 0,-72 86,-72 86,-108"/>
<text text-anchor="middle" x="43" y="-86.4" font-family="sans" font-size="14.00">AIRPLANE</text>
</g>
<!-- v22 -->
<g id="node2" class="node"><title>v22</title>
<polygon fill="powderblue" stroke="royalblue" points="127,-36 73,-36 73,-1.77636e-14 127,-3.55271e-15 127,-36"/>
<text text-anchor="middle" x="100" y="-14.4" font-family="sans" font-size="14.00">v22</text>
</g>
<!-- AIRPLANE&#45;&gt;v22 -->
<g id="edge2" class="edge"><title>AIRPLANE&#45;&gt;v22</title>
<path fill="none" stroke="royalblue" d="M57.3835,-71.8314C63.9486,-63.5386 71.8507,-53.557 79.0578,-44.4533"/>
<polygon fill="royalblue" stroke="royalblue" points="81.9599,-46.4262 85.4228,-36.4133 76.4716,-42.0813 81.9599,-46.4262"/>
</g>
<!-- a380 -->
<g id="node4" class="node"><title>a380</title>
<polygon fill="powderblue" stroke="royalblue" points="55,-36 1,-36 1,-1.77636e-14 55,-3.55271e-15 55,-36"/>
<text text-anchor="middle" x="28" y="-14.4" font-family="sans" font-size="14.00">a380</text>
</g>
<!-- AIRPLANE&#45;&gt;a380 -->
<g id="edge4" class="edge"><title>AIRPLANE&#45;&gt;a380</title>
<path fill="none" stroke="royalblue" d="M39.2149,-71.8314C37.6106,-64.131 35.703,-54.9743 33.9201,-46.4166"/>
<polygon fill="royalblue" stroke="royalblue" points="37.3021,-45.4892 31.8361,-36.4133 30.4493,-46.9169 37.3021,-45.4892"/>
</g>
<!-- HELICOPTER -->
<g id="node6" class="node"><title>HELICOPTER</title>
<polygon fill="powderblue" stroke="royalblue" points="210,-108 104,-108 104,-72 210,-72 210,-108"/>
<text text-anchor="middle" x="157" y="-86.4" font-family="sans" font-size="14.00">HELICOPTER</text>
</g>
<!-- HELICOPTER&#45;&gt;v22 -->
<g id="edge6" class="edge"><title>HELICOPTER&#45;&gt;v22</title>
<path fill="none" stroke="royalblue" d="M142.616,-71.8314C136.051,-63.5386 128.149,-53.557 120.942,-44.4533"/>
<polygon fill="royalblue" stroke="royalblue" points="123.528,-42.0813 114.577,-36.4133 118.04,-46.4262 123.528,-42.0813"/>
</g>
<!-- r44 -->
<g id="node8" class="node"><title>r44</title>
<polygon fill="powderblue" stroke="royalblue" points="199,-36 145,-36 145,-1.77636e-14 199,-3.55271e-15 199,-36"/>
<text text-anchor="middle" x="172" y="-14.4" font-family="sans" font-size="14.00">r44</text>
</g>
<!-- HELICOPTER&#45;&gt;r44 -->
<g id="edge8" class="edge"><title>HELICOPTER&#45;&gt;r44</title>
<path fill="none" stroke="royalblue" d="M160.785,-71.8314C162.389,-64.131 164.297,-54.9743 166.08,-46.4166"/>
<polygon fill="royalblue" stroke="royalblue" points="169.551,-46.9169 168.164,-36.4133 162.698,-45.4892 169.551,-46.9169"/>
</g>
<!-- root -->
<g id="node10" class="node"><title>root</title>
<polygon fill="powderblue" stroke="royalblue" points="127,-324 73,-324 73,-288 127,-288 127,-324"/>
<text text-anchor="middle" x="100" y="-302.4" font-family="sans" font-size="14.00">root</text>
</g>
<!-- VEHICLE -->
<g id="node11" class="node"><title>VEHICLE</title>
<polygon fill="powderblue" stroke="royalblue" points="138,-252 62,-252 62,-216 138,-216 138,-252"/>
<text text-anchor="middle" x="100" y="-230.4" font-family="sans" font-size="14.00">VEHICLE</text>
</g>
<!-- root&#45;&gt;VEHICLE -->
<g id="edge10" class="edge"><title>root&#45;&gt;VEHICLE</title>
<path fill="none" stroke="royalblue" d="M100,-287.831C100,-280.131 100,-270.974 100,-262.417"/>
<polygon fill="royalblue" stroke="royalblue" points="103.5,-262.413 100,-252.413 96.5001,-262.413 103.5,-262.413"/>
</g>
<!-- AIR_VEHICLE -->
<g id="node13" class="node"><title>AIR_VEHICLE</title>
<polygon fill="powderblue" stroke="royalblue" points="154,-180 46,-180 46,-144 154,-144 154,-180"/>
<text text-anchor="middle" x="100" y="-158.4" font-family="sans" font-size="14.00">AIR_VEHICLE</text>
</g>
<!-- VEHICLE&#45;&gt;AIR_VEHICLE -->
<g id="edge12" class="edge"><title>VEHICLE&#45;&gt;AIR_VEHICLE</title>
<path fill="none" stroke="royalblue" d="M100,-215.831C100,-208.131 100,-198.974 100,-190.417"/>
<polygon fill="royalblue" stroke="royalblue" points="103.5,-190.413 100,-180.413 96.5001,-190.413 103.5,-190.413"/>
</g>
<!-- AIR_VEHICLE&#45;&gt;AIRPLANE -->
<g id="edge14" class="edge"><title>AIR_VEHICLE&#45;&gt;AIRPLANE</title>
<path fill="none" stroke="royalblue" d="M85.6165,-143.831C79.0514,-135.539 71.1493,-125.557 63.9422,-116.453"/>
<polygon fill="royalblue" stroke="royalblue" points="66.5284,-114.081 57.5772,-108.413 61.0401,-118.426 66.5284,-114.081"/>
</g>
<!-- AIR_VEHICLE&#45;&gt;HELICOPTER -->
<g id="edge16" class="edge"><title>AIR_VEHICLE&#45;&gt;HELICOPTER</title>
<path fill="none" stroke="royalblue" d="M114.384,-143.831C120.949,-135.539 128.851,-125.557 136.058,-116.453"/>
<polygon fill="royalblue" stroke="royalblue" points="138.96,-118.426 142.423,-108.413 133.472,-114.081 138.96,-118.426"/>
</g>
</g>
</svg>
