<?xml version="1.0" encoding="UTF-8" standalone="no"?>
<!DOCTYPE svg PUBLIC "-//W3C//DTD SVG 1.1//EN"
 "http://www.w3.org/Graphics/SVG/1.1/DTD/svg11.dtd">
<!-- Generated by graphviz version 2.26.0 (20091210.2329)
 -->
<!-- Title: example Pages: 1 -->
<svg width="504pt" height="192pt"
 viewBox="0.00 0.00 504.00 191.96" xmlns="http://www.w3.org/2000/svg" xmlns:xlink="http://www.w3.org/1999/xlink">
<g id="graph1" class="graph" transform="scale(0.454874 0.454874) rotate(0) translate(4 418)">
<title>example</title>
<polygon fill="none" stroke="none" points="-4,5 -4,-418 1105,-418 1105,5 -4,5"/>
<g id="graph2" class="cluster"><title>cluster_1</title>
<polygon fill="none" stroke="black" stroke-dasharray="5,2" points="8,-8 8,-406 364,-406 364,-8 8,-8"/>
<text text-anchor="middle" x="186" y="-389.4" font-family="sans" font-size="14.00">1</text>
</g>
<g id="graph3" class="cluster"><title>cluster_2</title>
<polygon fill="none" stroke="black" stroke-dasharray="5,2" points="372,-8 372,-406 728,-406 728,-8 372,-8"/>
<text text-anchor="middle" x="550" y="-389.4" font-family="sans" font-size="14.00">2</text>
</g>
<g id="graph4" class="cluster"><title>cluster_3</title>
<polygon fill="none" stroke="black" stroke-dasharray="5,2" points="736,-8 736,-406 1092,-406 1092,-8 736,-8"/>
<text text-anchor="middle" x="914" y="-389.4" font-family="sans" font-size="14.00">3</text>
</g>
<!-- pur.1 -->
<g id="node2" class="node"><title>pur.1</title>
<ellipse fill="none" stroke="black" cx="235" cy="-341" rx="121.122" ry="31.1127"/>
<text text-anchor="middle" x="235" y="-346.4" font-family="sans" font-size="14.00">purchase_ingredients</text>
<text text-anchor="middle" x="235" y="-328.4" font-family="sans" font-size="14.00">1</text>
</g>
<!-- mak.1 -->
<g id="node3" class="node"><title>mak.1</title>
<ellipse fill="none" stroke="black" cx="281" cy="-243" rx="75.1594" ry="31.1127"/>
<text text-anchor="middle" x="281" y="-248.4" font-family="sans" font-size="14.00">make_dough</text>
<text text-anchor="middle" x="281" y="-230.4" font-family="sans" font-size="14.00">1</text>
</g>
<!-- pur.1&#45;&gt;mak.1 -->
<g id="edge5" class="edge"><title>pur.1&#45;&gt;mak.1</title>
<path fill="none" stroke="black" d="M249.555,-309.992C253.618,-301.335 258.09,-291.809 262.354,-282.723"/>
<polygon fill="black" stroke="black" points="265.617,-284.01 266.697,-273.471 259.28,-281.036 265.617,-284.01"/>
</g>
<!-- bak.1 -->
<g id="node4" class="node"><title>bak.1</title>
<ellipse fill="none" stroke="black" cx="166" cy="-145" rx="70.0036" ry="31.1127"/>
<text text-anchor="middle" x="166" y="-150.4" font-family="sans" font-size="14.00">bake_bread</text>
<text text-anchor="middle" x="166" y="-132.4" font-family="sans" font-size="14.00">1</text>
</g>
<!-- mak.1&#45;&gt;bak.1 -->
<g id="edge6" class="edge"><title>mak.1&#45;&gt;bak.1</title>
<path fill="none" stroke="black" d="M248.046,-214.917C235.063,-203.853 220.024,-191.038 206.396,-179.425"/>
<polygon fill="black" stroke="black" points="208.443,-176.57 198.562,-172.748 203.903,-181.898 208.443,-176.57"/>
</g>
<!-- sel.1 -->
<g id="node5" class="node"><title>sel.1</title>
<ellipse fill="none" stroke="black" cx="109" cy="-47" rx="63.8479" ry="31.1127"/>
<text text-anchor="middle" x="109" y="-52.4" font-family="sans" font-size="14.00">sell_bread</text>
<text text-anchor="middle" x="109" y="-34.4" font-family="sans" font-size="14.00">1</text>
</g>
<!-- bak.1&#45;&gt;sel.1 -->
<g id="edge7" class="edge"><title>bak.1&#45;&gt;sel.1</title>
<path fill="none" stroke="black" d="M148.433,-114.797C143.074,-105.583 137.106,-95.3228 131.469,-85.6302"/>
<polygon fill="black" stroke="black" points="134.464,-83.8192 126.411,-76.9347 128.413,-87.3386 134.464,-83.8192"/>
</g>
<!-- cle.1 -->
<g id="node6" class="node"><title>cle.1</title>
<ellipse fill="none" stroke="black" cx="259" cy="-47" rx="68.0887" ry="31.1127"/>
<text text-anchor="middle" x="259" y="-52.4" font-family="sans" font-size="14.00">clean_oven</text>
<text text-anchor="middle" x="259" y="-34.4" font-family="sans" font-size="14.00">1</text>
</g>
<!-- bak.1&#45;&gt;cle.1 -->
<g id="edge10" class="edge"><title>bak.1&#45;&gt;cle.1</title>
<path fill="none" stroke="black" d="M193.149,-116.391C203.081,-105.925 214.447,-93.9485 224.908,-82.9247"/>
<polygon fill="black" stroke="black" points="227.633,-85.1382 231.978,-75.4752 222.555,-80.3197 227.633,-85.1382"/>
</g>
<!-- pre.1 -->
<g id="node7" class="node"><title>pre.1</title>
<ellipse fill="none" stroke="black" cx="102" cy="-243" rx="85.7684" ry="31.1127"/>
<text text-anchor="middle" x="102" y="-248.4" font-family="sans" font-size="14.00">pre_heat_oven</text>
<text text-anchor="middle" x="102" y="-230.4" font-family="sans" font-size="14.00">1</text>
</g>
<!-- pre.1&#45;&gt;bak.1 -->
<g id="edge9" class="edge"><title>pre.1&#45;&gt;bak.1</title>
<path fill="none" stroke="black" d="M121.724,-212.797C127.803,-203.489 134.579,-193.113 140.966,-183.334"/>
<polygon fill="black" stroke="black" points="143.913,-185.221 146.451,-174.935 138.052,-181.394 143.913,-185.221"/>
</g>
<!-- pur.2 -->
<g id="node9" class="node"><title>pur.2</title>
<ellipse fill="none" stroke="black" cx="599" cy="-341" rx="121.122" ry="31.1127"/>
<text text-anchor="middle" x="599" y="-346.4" font-family="sans" font-size="14.00">purchase_ingredients</text>
<text text-anchor="middle" x="599" y="-328.4" font-family="sans" font-size="14.00">2</text>
</g>
<!-- mak.2 -->
<g id="node10" class="node"><title>mak.2</title>
<ellipse fill="none" stroke="black" cx="645" cy="-243" rx="75.1594" ry="31.1127"/>
<text text-anchor="middle" x="645" y="-248.4" font-family="sans" font-size="14.00">make_dough</text>
<text text-anchor="middle" x="645" y="-230.4" font-family="sans" font-size="14.00">2</text>
</g>
<!-- pur.2&#45;&gt;mak.2 -->
<g id="edge12" class="edge"><title>pur.2&#45;&gt;mak.2</title>
<path fill="none" stroke="black" d="M613.555,-309.992C617.618,-301.335 622.09,-291.809 626.354,-282.723"/>
<polygon fill="black" stroke="black" points="629.617,-284.01 630.697,-273.471 623.28,-281.036 629.617,-284.01"/>
</g>
<!-- bak.2 -->
<g id="node11" class="node"><title>bak.2</title>
<ellipse fill="none" stroke="black" cx="530" cy="-145" rx="70.0036" ry="31.1127"/>
<text text-anchor="middle" x="530" y="-150.4" font-family="sans" font-size="14.00">bake_bread</text>
<text text-anchor="middle" x="530" y="-132.4" font-family="sans" font-size="14.00">2</text>
</g>
<!-- mak.2&#45;&gt;bak.2 -->
<g id="edge13" class="edge"><title>mak.2&#45;&gt;bak.2</title>
<path fill="none" stroke="black" d="M612.046,-214.917C599.063,-203.853 584.024,-191.038 570.396,-179.425"/>
<polygon fill="black" stroke="black" points="572.443,-176.57 562.562,-172.748 567.903,-181.898 572.443,-176.57"/>
</g>
<!-- sel.2 -->
<g id="node12" class="node"><title>sel.2</title>
<ellipse fill="none" stroke="black" cx="473" cy="-47" rx="63.8479" ry="31.1127"/>
<text text-anchor="middle" x="473" y="-52.4" font-family="sans" font-size="14.00">sell_bread</text>
<text text-anchor="middle" x="473" y="-34.4" font-family="sans" font-size="14.00">2</text>
</g>
<!-- bak.2&#45;&gt;sel.2 -->
<g id="edge14" class="edge"><title>bak.2&#45;&gt;sel.2</title>
<path fill="none" stroke="black" d="M512.433,-114.797C507.074,-105.583 501.106,-95.3228 495.469,-85.6302"/>
<polygon fill="black" stroke="black" points="498.464,-83.8192 490.411,-76.9347 492.413,-87.3386 498.464,-83.8192"/>
</g>
<!-- cle.2 -->
<g id="node13" class="node"><title>cle.2</title>
<ellipse fill="none" stroke="black" cx="623" cy="-47" rx="68.0887" ry="31.1127"/>
<text text-anchor="middle" x="623" y="-52.4" font-family="sans" font-size="14.00">clean_oven</text>
<text text-anchor="middle" x="623" y="-34.4" font-family="sans" font-size="14.00">2</text>
</g>
<!-- bak.2&#45;&gt;cle.2 -->
<g id="edge17" class="edge"><title>bak.2&#45;&gt;cle.2</title>
<path fill="none" stroke="black" d="M557.149,-116.391C567.081,-105.925 578.447,-93.9485 588.908,-82.9247"/>
<polygon fill="black" stroke="black" points="591.633,-85.1382 595.978,-75.4752 586.555,-80.3197 591.633,-85.1382"/>
</g>
<!-- pre.2 -->
<g id="node14" class="node"><title>pre.2</title>
<ellipse fill="none" stroke="black" cx="466" cy="-243" rx="85.7684" ry="31.1127"/>
<text text-anchor="middle" x="466" y="-248.4" font-family="sans" font-size="14.00">pre_heat_oven</text>
<text text-anchor="middle" x="466" y="-230.4" font-family="sans" font-size="14.00">2</text>
</g>
<!-- pre.2&#45;&gt;bak.2 -->
<g id="edge16" class="edge"><title>pre.2&#45;&gt;bak.2</title>
<path fill="none" stroke="black" d="M485.724,-212.797C491.803,-203.489 498.579,-193.113 504.966,-183.334"/>
<polygon fill="black" stroke="black" points="507.913,-185.221 510.451,-174.935 502.052,-181.394 507.913,-185.221"/>
</g>
<!-- pur.3 -->
<g id="node16" class="node"><title>pur.3</title>
<ellipse fill="none" stroke="black" cx="963" cy="-341" rx="121.122" ry="31.1127"/>
<text text-anchor="middle" x="963" y="-346.4" font-family="sans" font-size="14.00">purchase_ingredients</text>
<text text-anchor="middle" x="963" y="-328.4" font-family="sans" font-size="14.00">3</text>
</g>
<!-- mak.3 -->
<g id="node17" class="node"><title>mak.3</title>
<ellipse fill="none" stroke="black" cx="1009" cy="-243" rx="75.1594" ry="31.1127"/>
<text text-anchor="middle" x="1009" y="-248.4" font-family="sans" font-size="14.00">make_dough</text>
<text text-anchor="middle" x="1009" y="-230.4" font-family="sans" font-size="14.00">3</text>
</g>
<!-- pur.3&#45;&gt;mak.3 -->
<g id="edge19" class="edge"><title>pur.3&#45;&gt;mak.3</title>
<path fill="none" stroke="black" d="M977.555,-309.992C981.618,-301.335 986.09,-291.809 990.354,-282.723"/>
<polygon fill="black" stroke="black" points="993.617,-284.01 994.697,-273.471 987.28,-281.036 993.617,-284.01"/>
</g>
<!-- bak.3 -->
<g id="node18" class="node"><title>bak.3</title>
<ellipse fill="none" stroke="black" cx="894" cy="-145" rx="70.0036" ry="31.1127"/>
<text text-anchor="middle" x="894" y="-150.4" font-family="sans" font-size="14.00">bake_bread</text>
<text text-anchor="middle" x="894" y="-132.4" font-family="sans" font-size="14.00">3</text>
</g>
<!-- mak.3&#45;&gt;bak.3 -->
<g id="edge20" class="edge"><title>mak.3&#45;&gt;bak.3</title>
<path fill="none" stroke="black" d="M976.046,-214.917C963.063,-203.853 948.024,-191.038 934.396,-179.425"/>
<polygon fill="black" stroke="black" points="936.443,-176.57 926.562,-172.748 931.903,-181.898 936.443,-176.57"/>
</g>
<!-- sel.3 -->
<g id="node19" class="node"><title>sel.3</title>
<ellipse fill="none" stroke="black" cx="837" cy="-47" rx="63.8479" ry="31.1127"/>
<text text-anchor="middle" x="837" y="-52.4" font-family="sans" font-size="14.00">sell_bread</text>
<text text-anchor="middle" x="837" y="-34.4" font-family="sans" font-size="14.00">3</text>
</g>
<!-- bak.3&#45;&gt;sel.3 -->
<g id="edge21" class="edge"><title>bak.3&#45;&gt;sel.3</title>
<path fill="none" stroke="black" d="M876.433,-114.797C871.074,-105.583 865.106,-95.3228 859.469,-85.6302"/>
<polygon fill="black" stroke="black" points="862.464,-83.8192 854.411,-76.9347 856.413,-87.3386 862.464,-83.8192"/>
</g>
<!-- cle.3 -->
<g id="node20" class="node"><title>cle.3</title>
<ellipse fill="none" stroke="black" cx="987" cy="-47" rx="68.0887" ry="31.1127"/>
<text text-anchor="middle" x="987" y="-52.4" font-family="sans" font-size="14.00">clean_oven</text>
<text text-anchor="middle" x="987" y="-34.4" font-family="sans" font-size="14.00">3</text>
</g>
<!-- bak.3&#45;&gt;cle.3 -->
<g id="edge24" class="edge"><title>bak.3&#45;&gt;cle.3</title>
<path fill="none" stroke="black" d="M921.149,-116.391C931.081,-105.925 942.447,-93.9485 952.908,-82.9247"/>
<polygon fill="black" stroke="black" points="955.633,-85.1382 959.978,-75.4752 950.555,-80.3197 955.633,-85.1382"/>
</g>
<!-- pre.3 -->
<g id="node21" class="node"><title>pre.3</title>
<ellipse fill="none" stroke="black" cx="830" cy="-243" rx="85.7684" ry="31.1127"/>
<text text-anchor="middle" x="830" y="-248.4" font-family="sans" font-size="14.00">pre_heat_oven</text>
<text text-anchor="middle" x="830" y="-230.4" font-family="sans" font-size="14.00">3</text>
</g>
<!-- pre.3&#45;&gt;bak.3 -->
<g id="edge23" class="edge"><title>pre.3&#45;&gt;bak.3</title>
<path fill="none" stroke="black" d="M849.724,-212.797C855.803,-203.489 862.579,-193.113 868.966,-183.334"/>
<polygon fill="black" stroke="black" points="871.913,-185.221 874.451,-174.935 866.052,-181.394 871.913,-185.221"/>
</g>
</g>
</svg>
