<?xml version="1.0" encoding="UTF-8" standalone="no"?>
<!DOCTYPE svg PUBLIC "-//W3C//DTD SVG 1.1//EN"
 "http://www.w3.org/Graphics/SVG/1.1/DTD/svg11.dtd">
<!-- Generated by graphviz version 2.26.0 (20091210.2329)
 -->
<!-- Title: Example Pages: 1 -->
<svg width="309pt" height="194pt"
 viewBox="0.00 0.00 309.00 194.00" xmlns="http://www.w3.org/2000/svg" xmlns:xlink="http://www.w3.org/1999/xlink">
<g id="graph1" class="graph" transform="scale(1 1) rotate(0) translate(4 190)">
<title>Example</title>
<polygon fill="none" stroke="none" points="-4,5 -4,-190 306,-190 306,5 -4,5"/>
<!-- make_cake_mixture -->
<g id="node1" class="node"><title>make_cake_mixture</title>
<ellipse fill="none" stroke="black" cx="190" cy="-167" rx="111.222" ry="18.3848"/>
<text text-anchor="middle" x="190" y="-163.4" font-family="sans" font-size="14.00">make_cake_mixture</text>
</g>
<!-- bake_cake -->
<g id="node3" class="node"><title>bake_cake</title>
<ellipse fill="none" stroke="black" cx="190" cy="-93" rx="63.1385" ry="18.3848"/>
<text text-anchor="middle" x="190" y="-89.4" font-family="sans" font-size="14.00">bake_cake</text>
</g>
<!-- make_cake_mixture&#45;&gt;bake_cake -->
<g id="edge2" class="edge"><title>make_cake_mixture&#45;&gt;bake_cake</title>
<path fill="none" stroke="black" d="M190,-148.327C190,-140.264 190,-130.648 190,-121.711"/>
<polygon fill="black" stroke="black" points="193.5,-121.667 190,-111.667 186.5,-121.667 193.5,-121.667"/>
</g>
<!-- sell_cake -->
<g id="node5" class="node"><title>sell_cake</title>
<ellipse fill="none" stroke="black" cx="58" cy="-19" rx="57.9828" ry="18.3848"/>
<text text-anchor="middle" x="58" y="-15.4" font-family="sans" font-size="14.00">sell_cake</text>
</g>
<!-- bake_cake&#45;&gt;sell_cake -->
<g id="edge4" class="edge"><title>bake_cake&#45;&gt;sell_cake</title>
<path fill="none" stroke="black" stroke-dasharray="5,2" d="M160.705,-76.577C141.001,-65.5311 114.899,-50.8977 93.9392,-39.1477"/>
<ellipse fill="black" stroke="black" cx="90.2482" cy="-37.0785" rx="4.00002" ry="4.00002"/>
</g>
<!-- eat_cake -->
<g id="node7" class="node"><title>eat_cake</title>
<ellipse fill="none" stroke="black" cx="190" cy="-19" rx="56.0679" ry="18.3848"/>
<text text-anchor="middle" x="190" y="-15.4" font-family="sans" font-size="14.00">eat_cake</text>
</g>
<!-- bake_cake&#45;&gt;eat_cake -->
<g id="edge6" class="edge"><title>bake_cake&#45;&gt;eat_cake</title>
<path fill="none" stroke="black" stroke-dasharray="5,2" d="M184.048,-74.3267C183.219,-65.5841 183.036,-55.0153 183.499,-45.4673"/>
<ellipse fill="black" stroke="black" cx="183.789" cy="-41.4009" rx="4" ry="4"/>
</g>
<!-- eat_cake&#45;&gt;bake_cake -->
<g id="edge8" class="edge"><title>eat_cake&#45;&gt;bake_cake</title>
<path fill="none" stroke="black" stroke-dasharray="5,2" d="M195.927,-37.411C196.769,-46.1166 196.965,-56.6771 196.515,-66.2453"/>
<ellipse fill="black" stroke="black" cx="196.23" cy="-70.3363" rx="4" ry="4"/>
</g>
</g>
</svg>
