<?xml version="1.0" encoding="UTF-8" standalone="no"?>
<!DOCTYPE svg PUBLIC "-//W3C//DTD SVG 1.1//EN"
 "http://www.w3.org/Graphics/SVG/1.1/DTD/svg11.dtd">
<!-- Generated by graphviz version 2.26.0 (20091210.2329)
 -->
<!-- Title: Example Pages: 1 -->
<svg width="149pt" height="216pt"
 viewBox="0.00 0.00 149.41 216.00" xmlns="http://www.w3.org/2000/svg" xmlns:xlink="http://www.w3.org/1999/xlink">
<g id="graph1" class="graph" transform="scale(0.81203 0.81203) rotate(0) translate(4 262)">
<title>Example</title>
<polygon fill="none" stroke="none" points="-4,5 -4,-262 181,-262 181,5 -4,5"/>
<!-- foo.1 -->
<g id="node1" class="node"><title>foo.1</title>
<ellipse fill="none" stroke="black" cx="88" cy="-227" rx="87.889" ry="31.1127"/>
<text text-anchor="middle" x="88" y="-232.4" font-family="sans" font-size="14.00">foo</text>
<text text-anchor="middle" x="88" y="-214.4" font-family="sans" font-size="14.00">2000&#45;01&#45;01T12</text>
</g>
<!-- foo.2 -->
<g id="node2" class="node"><title>foo.2</title>
<ellipse fill="none" stroke="black" cx="88" cy="-129" rx="87.1802" ry="31.1127"/>
<text text-anchor="middle" x="88" y="-134.4" font-family="sans" font-size="14.00">foo</text>
<text text-anchor="middle" x="88" y="-116.4" font-family="sans" font-size="14.00">2000&#45;01&#45;02T12</text>
</g>
<!-- foo.1&#45;&gt;foo.2 -->
<g id="edge2" class="edge"><title>foo.1&#45;&gt;foo.2</title>
<path fill="none" stroke="black" d="M88,-195.992C88,-187.859 88,-178.959 88,-170.378"/>
<polygon fill="black" stroke="black" points="91.5001,-170.142 88,-160.142 84.5001,-170.142 91.5001,-170.142"/>
</g>
<!-- foo.3 -->
<g id="node3" class="node"><title>foo.3</title>
<ellipse fill="none" stroke="black" cx="88" cy="-31" rx="86.9741" ry="31.1127"/>
<text text-anchor="middle" x="88" y="-36.4" font-family="sans" font-size="14.00">foo</text>
<text text-anchor="middle" x="88" y="-18.4" font-family="sans" font-size="14.00">2000&#45;01&#45;03T12</text>
</g>
<!-- foo.2&#45;&gt;foo.3 -->
<g id="edge3" class="edge"><title>foo.2&#45;&gt;foo.3</title>
<path fill="none" stroke="black" d="M88,-97.9922C88,-89.8594 88,-80.9587 88,-72.3777"/>
<polygon fill="black" stroke="black" points="91.5001,-72.1424 88,-62.1425 84.5001,-72.1425 91.5001,-72.1424"/>
</g>
</g>
</svg>
