<?xml version="1.0" encoding="UTF-8" standalone="no"?>
<!DOCTYPE svg PUBLIC "-//W3C//DTD SVG 1.1//EN"
 "http://www.w3.org/Graphics/SVG/1.1/DTD/svg11.dtd">
<!-- Generated by graphviz version 2.26.0 (20091210.2329)
 -->
<!-- Title: Example Pages: 1 -->
<svg width="292pt" height="236pt"
 viewBox="0.00 0.00 292.00 236.00" xmlns="http://www.w3.org/2000/svg" xmlns:xlink="http://www.w3.org/1999/xlink">
<g id="graph1" class="graph" transform="scale(1 1) rotate(0) translate(4 232)">
<title>Example</title>
<polygon fill="none" stroke="none" points="-4,5 -4,-232 289,-232 289,5 -4,5"/>
<g id="graph2" class="cluster"><title>cluster_1</title>
<polygon fill="none" stroke="green" stroke-dasharray="5,2" points="8,-8 8,-88 140,-88 140,-8 8,-8"/>
<text text-anchor="middle" x="74" y="-17.4" font-family="sans" font-size="14.00" fill="green">:succeed</text>
</g>
<g id="graph3" class="cluster"><title>cluster_2</title>
<polygon fill="none" stroke="red" stroke-dasharray="5,2" points="148,-8 148,-88 276,-88 276,-8 148,-8"/>
<text text-anchor="middle" x="212" y="-17.4" font-family="sans" font-size="14.00" fill="red">:fail</text>
</g>
<!-- make_cake_mixture -->
<g id="node1" class="node"><title>make_cake_mixture</title>
<ellipse fill="none" stroke="black" cx="143" cy="-209" rx="111.222" ry="18.3848"/>
<text text-anchor="middle" x="143" y="-205.4" font-family="sans" font-size="14.00">make_cake_mixture</text>
</g>
<!-- bake_cake -->
<g id="node2" class="node"><title>bake_cake</title>
<ellipse fill="none" stroke="black" cx="143" cy="-135" rx="63.1385" ry="18.3848"/>
<text text-anchor="middle" x="143" y="-131.4" font-family="sans" font-size="14.00">bake_cake</text>
</g>
<!-- make_cake_mixture&#45;&gt;bake_cake -->
<g id="edge4" class="edge"><title>make_cake_mixture&#45;&gt;bake_cake</title>
<path fill="none" stroke="black" d="M143,-190.327C143,-182.264 143,-172.648 143,-163.711"/>
<polygon fill="black" stroke="black" points="146.5,-163.667 143,-153.667 139.5,-163.667 146.5,-163.667"/>
</g>
<!-- sell_cake -->
<g id="node4" class="node"><title>sell_cake</title>
<ellipse fill="none" stroke="black" cx="74" cy="-61" rx="57.9828" ry="18.3848"/>
<text text-anchor="middle" x="74" y="-57.4" font-family="sans" font-size="14.00">sell_cake</text>
</g>
<!-- bake_cake&#45;&gt;sell_cake -->
<g id="edge6" class="edge"><title>bake_cake&#45;&gt;sell_cake</title>
<path fill="none" stroke="black" d="M126.297,-117.087C117.652,-107.815 106.954,-96.3422 97.4908,-86.193"/>
<polygon fill="black" stroke="black" points="99.9287,-83.6753 90.5492,-78.7484 94.809,-88.4491 99.9287,-83.6753"/>
</g>
<!-- eat_cake -->
<g id="node6" class="node"><title>eat_cake</title>
<ellipse fill="none" stroke="black" cx="212" cy="-61" rx="56.0679" ry="18.3848"/>
<text text-anchor="middle" x="212" y="-57.4" font-family="sans" font-size="14.00">eat_cake</text>
</g>
<!-- bake_cake&#45;&gt;eat_cake -->
<g id="edge8" class="edge"><title>bake_cake&#45;&gt;eat_cake</title>
<path fill="none" stroke="black" d="M159.703,-117.087C168.348,-107.815 179.046,-96.3422 188.509,-86.193"/>
<polygon fill="black" stroke="black" points="191.191,-88.4491 195.451,-78.7484 186.071,-83.6753 191.191,-88.4491"/>
</g>
</g>
</svg>
