<?xml version="1.0" encoding="UTF-8" standalone="no"?>
<!DOCTYPE svg PUBLIC "-//W3C//DTD SVG 1.1//EN"
 "http://www.w3.org/Graphics/SVG/1.1/DTD/svg11.dtd">
<!-- Generated by graphviz version 2.26.0 (20091210.2329)
 -->
<!-- Title: example Pages: 1 -->
<svg width="504pt" height="95pt"
 viewBox="0.00 0.00 504.00 94.76" xmlns="http://www.w3.org/2000/svg" xmlns:xlink="http://www.w3.org/1999/xlink">
<g id="graph1" class="graph" transform="scale(0.419301 0.419301) rotate(0) translate(4 222)">
<title>example</title>
<polygon fill="none" stroke="none" points="-4,5 -4,-222 1199,-222 1199,5 -4,5"/>
<g id="graph2" class="cluster"><title>cluster_1</title>
<polygon fill="none" stroke="black" stroke-dasharray="5,2" points="8,-8 8,-210 474,-210 474,-8 8,-8"/>
<text text-anchor="middle" x="241" y="-193.4" font-family="sans" font-size="14.00">2000&#45;01&#45;01T00:00Z</text>
</g>
<g id="graph3" class="cluster"><title>cluster_2</title>
<polygon fill="none" stroke="black" stroke-dasharray="5,2" points="482,-106 482,-210 716,-210 716,-106 482,-106"/>
<text text-anchor="middle" x="599" y="-193.4" font-family="sans" font-size="14.00">2000&#45;01&#45;01T12:00Z</text>
</g>
<g id="graph4" class="cluster"><title>cluster_3</title>
<polygon fill="none" stroke="black" stroke-dasharray="5,2" points="724,-8 724,-210 1186,-210 1186,-8 724,-8"/>
<text text-anchor="middle" x="955" y="-193.4" font-family="sans" font-size="14.00">2000&#45;01&#45;02T00:00Z</text>
</g>
<!-- foo.01T00 -->
<g id="node2" class="node"><title>foo.01T00</title>
<ellipse fill="none" stroke="black" cx="358" cy="-145" rx="108.187" ry="31.1127"/>
<text text-anchor="middle" x="358" y="-150.4" font-family="sans" font-size="14.00">foo</text>
<text text-anchor="middle" x="358" y="-132.4" font-family="sans" font-size="14.00">2000&#45;01&#45;01T00:00Z</text>
</g>
<!-- bar.01T00 -->
<g id="node3" class="node"><title>bar.01T00</title>
<ellipse fill="none" stroke="black" cx="358" cy="-47" rx="108.187" ry="31.1127"/>
<text text-anchor="middle" x="358" y="-52.4" font-family="sans" font-size="14.00">bar</text>
<text text-anchor="middle" x="358" y="-34.4" font-family="sans" font-size="14.00">2000&#45;01&#45;01T00:00Z</text>
</g>
<!-- foo.01T00&#45;&gt;bar.01T00 -->
<g id="edge5" class="edge"><title>foo.01T00&#45;&gt;bar.01T00</title>
<path fill="none" stroke="black" d="M358,-113.992C358,-105.859 358,-96.9587 358,-88.3777"/>
<polygon fill="black" stroke="black" points="361.5,-88.1424 358,-78.1425 354.5,-88.1425 361.5,-88.1424"/>
</g>
<!-- baz.01T00 -->
<g id="node4" class="node"><title>baz.01T00</title>
<ellipse fill="none" stroke="black" cx="124" cy="-145" rx="108.187" ry="31.1127"/>
<text text-anchor="middle" x="124" y="-150.4" font-family="sans" font-size="14.00">baz</text>
<text text-anchor="middle" x="124" y="-132.4" font-family="sans" font-size="14.00">2000&#45;01&#45;01T00:00Z</text>
</g>
<!-- baz.01T12 -->
<g id="node6" class="node"><title>baz.01T12</title>
<ellipse fill="none" stroke="black" cx="599" cy="-145" rx="109.101" ry="31.1127"/>
<text text-anchor="middle" x="599" y="-150.4" font-family="sans" font-size="14.00">baz</text>
<text text-anchor="middle" x="599" y="-132.4" font-family="sans" font-size="14.00">2000&#45;01&#45;01T12:00Z</text>
</g>
<!-- foo.02T00 -->
<g id="node8" class="node"><title>foo.02T00</title>
<ellipse fill="none" stroke="black" cx="1071" cy="-145" rx="106.98" ry="31.1127"/>
<text text-anchor="middle" x="1071" y="-150.4" font-family="sans" font-size="14.00">foo</text>
<text text-anchor="middle" x="1071" y="-132.4" font-family="sans" font-size="14.00">2000&#45;01&#45;02T00:00Z</text>
</g>
<!-- bar.02T00 -->
<g id="node9" class="node"><title>bar.02T00</title>
<ellipse fill="none" stroke="black" cx="1071" cy="-47" rx="106.98" ry="31.1127"/>
<text text-anchor="middle" x="1071" y="-52.4" font-family="sans" font-size="14.00">bar</text>
<text text-anchor="middle" x="1071" y="-34.4" font-family="sans" font-size="14.00">2000&#45;01&#45;02T00:00Z</text>
</g>
<!-- foo.02T00&#45;&gt;bar.02T00 -->
<g id="edge7" class="edge"><title>foo.02T00&#45;&gt;bar.02T00</title>
<path fill="none" stroke="black" d="M1071,-113.992C1071,-105.859 1071,-96.9587 1071,-88.3777"/>
<polygon fill="black" stroke="black" points="1074.5,-88.1424 1071,-78.1425 1067.5,-88.1425 1074.5,-88.1424"/>
</g>
<!-- baz.02T00 -->
<g id="node10" class="node"><title>baz.02T00</title>
<ellipse fill="none" stroke="black" cx="839" cy="-145" rx="106.98" ry="31.1127"/>
<text text-anchor="middle" x="839" y="-150.4" font-family="sans" font-size="14.00">baz</text>
<text text-anchor="middle" x="839" y="-132.4" font-family="sans" font-size="14.00">2000&#45;01&#45;02T00:00Z</text>
</g>
</g>
</svg>
