<?xml version="1.0" encoding="UTF-8" standalone="no"?>
<!DOCTYPE svg PUBLIC "-//W3C//DTD SVG 1.1//EN"
 "http://www.w3.org/Graphics/SVG/1.1/DTD/svg11.dtd">
<!-- Generated by graphviz version 2.26.0 (20091210.2329)
 -->
<!-- Title: Example Pages: 1 -->
<svg width="248pt" height="348pt"
 viewBox="0.00 0.00 248.00 348.00" xmlns="http://www.w3.org/2000/svg" xmlns:xlink="http://www.w3.org/1999/xlink">
<g id="graph1" class="graph" transform="scale(1 1) rotate(0) translate(4 344)">
<title>Example</title>
<polygon fill="none" stroke="none" points="-4,5 -4,-344 245,-344 245,5 -4,5"/>
<g id="graph2" class="cluster"><title>cluster_1</title>
<polygon fill="none" stroke="green" stroke-dasharray="5,2" points="8,-66 8,-220 150,-220 150,-66 8,-66"/>
<text text-anchor="middle" x="79" y="-203.4" font-family="sans" font-size="14.00" fill="green">:success</text>
</g>
<g id="graph3" class="cluster"><title>cluster_2</title>
<polygon fill="none" stroke="red" stroke-dasharray="5,2" points="158,-66 158,-220 232,-220 232,-66 158,-66"/>
<text text-anchor="middle" x="195" y="-203.4" font-family="sans" font-size="14.00" fill="red">:fail</text>
</g>
<!-- foo -->
<g id="node1" class="node"><title>foo</title>
<ellipse fill="none" stroke="black" cx="115" cy="-321" rx="27" ry="18.3848"/>
<text text-anchor="middle" x="115" y="-317.4" font-family="sans" font-size="14.00">foo</text>
</g>
<!-- bar -->
<g id="node3" class="node"><title>bar</title>
<ellipse fill="none" stroke="black" cx="115" cy="-247" rx="27.7881" ry="18.3848"/>
<text text-anchor="middle" x="115" y="-243.4" font-family="sans" font-size="14.00">bar</text>
</g>
<!-- foo&#45;&gt;bar -->
<g id="edge2" class="edge"><title>foo&#45;&gt;bar</title>
<path fill="none" stroke="black" d="M115,-302.327C115,-294.264 115,-284.648 115,-275.711"/>
<polygon fill="black" stroke="black" points="118.5,-275.667 115,-265.667 111.5,-275.667 118.5,-275.667"/>
</g>
<!-- tar -->
<g id="node5" class="node"><title>tar</title>
<ellipse fill="none" stroke="black" cx="115" cy="-167" rx="27" ry="18.3848"/>
<text text-anchor="middle" x="115" y="-163.4" font-family="sans" font-size="14.00">tar</text>
</g>
<!-- bar&#45;&gt;tar -->
<g id="edge4" class="edge"><title>bar&#45;&gt;tar</title>
<path fill="none" stroke="black" d="M115,-228.445C115,-218.821 115,-206.846 115,-196.03"/>
<polygon fill="black" stroke="black" points="118.5,-195.731 115,-185.731 111.5,-195.731 118.5,-195.731"/>
</g>
<!-- jar -->
<g id="node8" class="node"><title>jar</title>
<ellipse fill="none" stroke="black" cx="43" cy="-167" rx="27" ry="18.3848"/>
<text text-anchor="middle" x="43" y="-163.4" font-family="sans" font-size="14.00">jar</text>
</g>
<!-- bar&#45;&gt;jar -->
<g id="edge7" class="edge"><title>bar&#45;&gt;jar</title>
<path fill="none" stroke="black" d="M94.9692,-233.804C89.4833,-229.719 83.7462,-224.974 79,-220 71.2826,-211.912 64.0763,-202.007 58.1692,-192.957"/>
<polygon fill="black" stroke="black" points="61.0082,-190.896 52.7244,-184.291 55.0811,-194.62 61.0082,-190.896"/>
</g>
<!-- baz -->
<g id="node10" class="node"><title>baz</title>
<ellipse fill="none" stroke="black" cx="195" cy="-167" rx="28.9914" ry="18.3848"/>
<text text-anchor="middle" x="195" y="-163.4" font-family="sans" font-size="14.00">baz</text>
</g>
<!-- bar&#45;&gt;baz -->
<g id="edge10" class="edge"><title>bar&#45;&gt;baz</title>
<path fill="none" stroke="black" d="M135.742,-234.374C141.92,-230.167 148.503,-225.214 154,-220 162.571,-211.871 170.794,-201.851 177.595,-192.72"/>
<polygon fill="black" stroke="black" points="180.636,-194.487 183.646,-184.329 174.959,-190.393 180.636,-194.487"/>
</g>
<!-- par -->
<g id="node6" class="node"><title>par</title>
<ellipse fill="none" stroke="black" cx="64" cy="-93" rx="27.7881" ry="18.3848"/>
<text text-anchor="middle" x="64" y="-89.4" font-family="sans" font-size="14.00">par</text>
</g>
<!-- tar&#45;&gt;par -->
<g id="edge5" class="edge"><title>tar&#45;&gt;par</title>
<path fill="none" stroke="black" d="M103.427,-150.208C96.9526,-140.814 88.7497,-128.911 81.5049,-118.399"/>
<polygon fill="black" stroke="black" points="84.2601,-116.229 75.7034,-109.981 78.4963,-120.202 84.2601,-116.229"/>
</g>
<!-- pub -->
<g id="node15" class="node"><title>pub</title>
<ellipse fill="none" stroke="black" cx="160" cy="-19" rx="31.1127" ry="18.3848"/>
<text text-anchor="middle" x="160" y="-15.4" font-family="sans" font-size="14.00">pub</text>
</g>
<!-- tar&#45;&gt;pub -->
<g id="edge15" class="edge"><title>tar&#45;&gt;pub</title>
<path fill="none" stroke="black" d="M120.518,-148.852C128.244,-123.443 142.356,-77.0292 151.449,-47.124"/>
<polygon fill="none" stroke="black" points="154.877,-47.8819 154.437,-37.2961 148.179,-45.8455 154.877,-47.8819"/>
</g>
<!-- jar&#45;&gt;par -->
<g id="edge8" class="edge"><title>jar&#45;&gt;par</title>
<path fill="none" stroke="black" d="M48.191,-148.708C50.5636,-140.347 53.4271,-130.257 56.0614,-120.974"/>
<polygon fill="black" stroke="black" points="59.4329,-121.914 58.7959,-111.338 52.6988,-120.003 59.4329,-121.914"/>
</g>
<!-- jaz -->
<g id="node11" class="node"><title>jaz</title>
<ellipse fill="none" stroke="black" cx="194" cy="-93" rx="27" ry="18.3848"/>
<text text-anchor="middle" x="194" y="-89.4" font-family="sans" font-size="14.00">jaz</text>
</g>
<!-- baz&#45;&gt;jaz -->
<g id="edge11" class="edge"><title>baz&#45;&gt;jaz</title>
<path fill="none" stroke="black" d="M194.748,-148.327C194.639,-140.264 194.509,-130.648 194.388,-121.711"/>
<polygon fill="black" stroke="black" points="197.887,-121.619 194.252,-111.667 190.888,-121.714 197.887,-121.619"/>
</g>
<!-- jaz&#45;&gt;pub -->
<g id="edge17" class="edge"><title>jaz&#45;&gt;pub</title>
<path fill="none" stroke="black" d="M185.77,-75.0867C181.79,-66.4248 176.927,-55.8412 172.502,-46.2109"/>
<polygon fill="none" stroke="black" points="175.628,-44.6304 168.273,-37.0049 169.267,-47.5529 175.628,-44.6304"/>
</g>
</g>
</svg>
