<?xml version="1.0" encoding="UTF-8" standalone="no"?>
<!DOCTYPE svg PUBLIC "-//W3C//DTD SVG 1.1//EN"
 "http://www.w3.org/Graphics/SVG/1.1/DTD/svg11.dtd">
<!-- Generated by graphviz version 2.26.0 (20091210.2329)
 -->
<!-- Title: Example Pages: 1 -->
<svg width="286pt" height="200pt"
 viewBox="0.00 0.00 286.00 200.00" xmlns="http://www.w3.org/2000/svg" xmlns:xlink="http://www.w3.org/1999/xlink">
<g id="graph1" class="graph" transform="scale(1 1) rotate(0) translate(4 196)">
<title>Example</title>
<polygon fill="none" stroke="none" points="-4,5 -4,-196 283,-196 283,5 -4,5"/>
<g id="graph2" class="cluster"><title>cluster_1</title>
<polygon fill="none" stroke="green" stroke-dasharray="5,2" points="8,-66 8,-146 96,-146 96,-66 8,-66"/>
<text text-anchor="middle" x="52" y="-129.4" font-family="sans" font-size="14.00" fill="green">:good</text>
</g>
<g id="graph3" class="cluster"><title>cluster_2</title>
<polygon fill="none" stroke="red" stroke-dasharray="5,2" points="104,-66 104,-146 180,-146 180,-66 104,-66"/>
<text text-anchor="middle" x="142" y="-129.4" font-family="sans" font-size="14.00" fill="red">:bad</text>
</g>
<g id="graph4" class="cluster"><title>cluster_3</title>
<polygon fill="none" stroke="purple" stroke-dasharray="5,2" points="188,-66 188,-146 270,-146 270,-66 188,-66"/>
<text text-anchor="middle" x="229" y="-129.4" font-family="sans" font-size="14.00" fill="purple">:ugly</text>
</g>
<!-- good -->
<g id="node2" class="node"><title>good</title>
<ellipse fill="none" stroke="black" cx="52" cy="-93" rx="36.0624" ry="18.3848"/>
<text text-anchor="middle" x="52" y="-89.4" font-family="sans" font-size="14.00">good</text>
</g>
<!-- fin -->
<g id="node12" class="node"><title>fin</title>
<ellipse fill="none" stroke="black" cx="142" cy="-19" rx="27" ry="18.3848"/>
<text text-anchor="middle" x="142" y="-15.4" font-family="sans" font-size="14.00">fin</text>
</g>
<!-- good&#45;&gt;fin -->
<g id="edge11" class="edge"><title>good&#45;&gt;fin</title>
<path fill="none" stroke="black" d="M71.0867,-77.3065C84.2855,-66.4541 101.996,-51.892 116.416,-40.0357"/>
<polygon fill="none" stroke="black" points="118.965,-42.4707 124.467,-33.4161 114.52,-37.0637 118.965,-42.4707"/>
</g>
<!-- bad -->
<g id="node4" class="node"><title>bad</title>
<ellipse fill="none" stroke="black" cx="142" cy="-93" rx="29.9071" ry="18.3848"/>
<text text-anchor="middle" x="142" y="-89.4" font-family="sans" font-size="14.00">bad</text>
</g>
<!-- bad&#45;&gt;fin -->
<g id="edge13" class="edge"><title>bad&#45;&gt;fin</title>
<path fill="none" stroke="black" d="M142,-74.3267C142,-66.2639 142,-56.6477 142,-47.7115"/>
<polygon fill="none" stroke="black" points="145.5,-47.6673 142,-37.6674 138.5,-47.6674 145.5,-47.6673"/>
</g>
<!-- ugly -->
<g id="node6" class="node"><title>ugly</title>
<ellipse fill="none" stroke="black" cx="229" cy="-93" rx="33.234" ry="18.3848"/>
<text text-anchor="middle" x="229" y="-89.4" font-family="sans" font-size="14.00">ugly</text>
</g>
<!-- ugly&#45;&gt;fin -->
<g id="edge15" class="edge"><title>ugly&#45;&gt;fin</title>
<path fill="none" stroke="black" d="M210.55,-77.3065C197.791,-66.4541 180.67,-51.892 166.731,-40.0357"/>
<polygon fill="none" stroke="black" points="168.834,-37.2291 158.949,-33.4161 164.298,-42.5612 168.834,-37.2291"/>
</g>
<!-- showdown -->
<g id="node7" class="node"><title>showdown</title>
<ellipse fill="none" stroke="black" cx="142" cy="-173" rx="63.1385" ry="18.3848"/>
<text text-anchor="middle" x="142" y="-169.4" font-family="sans" font-size="14.00">showdown</text>
</g>
<!-- showdown&#45;&gt;good -->
<g id="edge5" class="edge"><title>showdown&#45;&gt;good</title>
<path fill="none" stroke="black" d="M113.704,-156.272C108.973,-153.068 104.232,-149.587 100,-146 90.1852,-137.681 80.4502,-127.411 72.339,-118.133"/>
<polygon fill="black" stroke="black" points="74.8194,-115.648 65.6677,-110.31 69.4929,-120.19 74.8194,-115.648"/>
</g>
<!-- showdown&#45;&gt;bad -->
<g id="edge7" class="edge"><title>showdown&#45;&gt;bad</title>
<path fill="none" stroke="black" d="M142,-154.445C142,-144.821 142,-132.846 142,-122.03"/>
<polygon fill="black" stroke="black" points="145.5,-121.731 142,-111.731 138.5,-121.731 145.5,-121.731"/>
</g>
<!-- showdown&#45;&gt;ugly -->
<g id="edge9" class="edge"><title>showdown&#45;&gt;ugly</title>
<path fill="none" stroke="black" d="M170.394,-156.385C175.114,-153.169 179.826,-149.654 184,-146 193.413,-137.76 202.579,-127.505 210.157,-118.217"/>
<polygon fill="black" stroke="black" points="212.901,-120.389 216.373,-110.379 207.417,-116.039 212.901,-120.389"/>
</g>
</g>
</svg>
