<?xml version="1.0" encoding="UTF-8" standalone="no"?>
<!DOCTYPE svg PUBLIC "-//W3C//DTD SVG 1.1//EN"
 "http://www.w3.org/Graphics/SVG/1.1/DTD/svg11.dtd">
<!-- Generated by graphviz version 2.26.0 (20091210.2329)
 -->
<!-- Title: Example Pages: 1 -->
<svg width="360pt" height="64pt"
 viewBox="0.00 0.00 360.00 63.85" xmlns="http://www.w3.org/2000/svg" xmlns:xlink="http://www.w3.org/1999/xlink">
<g id="graph1" class="graph" transform="scale(0.550459 0.550459) rotate(0) translate(4 112)">
<title>Example</title>
<polygon fill="none" stroke="none" points="-4,5 -4,-112 651,-112 651,5 -4,5"/>
<!-- ENGINE -->
<g id="node1" class="node"><title>ENGINE</title>
<polygon fill="powderblue" stroke="royalblue" points="376,-108 278,-108 278,-72 376,-72 376,-108"/>
<text text-anchor="middle" x="327" y="-86.4" font-family="sans" font-size="14.00">ENGINE</text>
</g>
<!-- TURBINE_ENGINE -->
<g id="node2" class="node"><title>TURBINE_ENGINE</title>
<polygon fill="powderblue" stroke="royalblue" points="168,-36 8.52651e-14,-36 0,-1.77636e-14 168,-3.55271e-15 168,-36"/>
<text text-anchor="middle" x="84" y="-14.4" font-family="sans" font-size="14.00">TURBINE_ENGINE</text>
</g>
<!-- ENGINE&#45;&gt;TURBINE_ENGINE -->
<g id="edge2" class="edge"><title>ENGINE&#45;&gt;TURBINE_ENGINE</title>
<path fill="none" stroke="black" d="M277.825,-75.4297C242.539,-64.9746 194.457,-50.7281 155.011,-39.0404"/>
<polygon fill="black" stroke="black" points="155.764,-35.6131 145.182,-36.128 153.776,-42.3247 155.764,-35.6131"/>
</g>
<!-- INTERNAL_COMBUSTION_ENGINE -->
<g id="node3" class="node"><title>INTERNAL_COMBUSTION_ENGINE</title>
<polygon fill="powderblue" stroke="royalblue" points="468,-36 186,-36 186,-1.77636e-14 468,-3.55271e-15 468,-36"/>
<text text-anchor="middle" x="327" y="-14.4" font-family="sans" font-size="14.00">INTERNAL_COMBUSTION_ENGINE</text>
</g>
<!-- ENGINE&#45;&gt;INTERNAL_COMBUSTION_ENGINE -->
<g id="edge4" class="edge"><title>ENGINE&#45;&gt;INTERNAL_COMBUSTION_ENGINE</title>
<path fill="none" stroke="black" d="M327,-71.8314C327,-64.131 327,-54.9743 327,-46.4166"/>
<polygon fill="black" stroke="black" points="330.5,-46.4132 327,-36.4133 323.5,-46.4133 330.5,-46.4132"/>
</g>
<!-- HUMAN_ENGINE -->
<g id="node4" class="node"><title>HUMAN_ENGINE</title>
<polygon fill="powderblue" stroke="royalblue" points="646,-36 486,-36 486,-1.77636e-14 646,-3.55271e-15 646,-36"/>
<text text-anchor="middle" x="566" y="-14.4" font-family="sans" font-size="14.00">HUMAN_ENGINE</text>
</g>
<!-- ENGINE&#45;&gt;HUMAN_ENGINE -->
<g id="edge6" class="edge"><title>ENGINE&#45;&gt;HUMAN_ENGINE</title>
<path fill="none" stroke="black" d="M376.231,-75.1689C410.874,-64.7326 457.736,-50.6152 496.223,-39.0207"/>
<polygon fill="black" stroke="black" points="497.25,-42.3669 505.815,-36.131 495.23,-35.6644 497.25,-42.3669"/>
</g>
</g>
</svg>
