/* XPM */
static char * change_icon_xpm[] = {
"12 19 56 1",
" 	c None",
".	c #0E2171",
"+	c #1C3282",
"@	c #445CA3",
"#	c #5268AC",
"$	c #435AA2",
"%	c #1D3486",
"&	c #1D3284",
"*	c #647CBA",
"=	c #97ABD4",
"-	c #9EB1D8",
";	c #96AAD4",
">	c #637AB9",
",	c #253E90",
"'	c #122778",
")	c #344E9E",
"!	c #88A0D0",
"~	c #95ABD5",
"{	c #93A9D4",
"]	c #859ECF",
"^	c #354E9F",
"/	c #485FA7",
"(	c #14297A",
"_	c #334DA0",
":	c #6985C3",
"<	c #6E89C5",
"[	c #6D89C5",
"}	c #6A87C4",
"|	c #6481C1",
"1	c #304A9D",
"2	c #1B3285",
"3	c #132879",
"4	c #274198",
"5	c #3B56A8",
"6	c #415DAD",
"7	c #3F5BAC",
"8	c #3752A5",
"9	c #253E95",
"0	c #1B3185",
"a	c #1D358A",
"b	c #253F96",
"c	c #29439A",
"d	c #29449B",
"e	c #223B92",
"f	c #1D368B",
"g	c #162D81",
"h	c #1C348B",
"i	c #1F388F",
"j	c #1E368D",
"k	c #1A3187",
"l	c #1E3589",
"m	c #273E8E",
"n	c #20388C",
"o	c #182E83",
"p	c #1C3389",
"q	c #22398A",
"            ",
"            ",
"            ",
"            ",
"            ",
"      .     ",
"    +@#$%   ",
"   &*=-;>,  ",
"  ')!~~{]^/ ",
"  (_:<[}|12 ",
"  345667890 ",
"   abcd4ef  ",
"   ghiijkl  ",
"    mnopq   ",
"            ",
"            ",
"            ",
"            ",
"            "};
