/* XPM */
static char * error_icon_xpm[] = {
"14 20 73 1",
" 	c None",
".	c #9D7A77",
"+	c #9D7773",
"@	c #B0A8A6",
"#	c #F66662",
"$	c #F52121",
"%	c #B4A4A2",
"&	c #BB847D",
"*	c #FF2127",
"=	c #FF1D23",
"-	c #BB3D3D",
";	c #AA9794",
">	c #F85E5A",
",	c #B31919",
"'	c #B22020",
")	c #F73D3D",
"!	c #AA8988",
"~	c #D1736B",
"{	c #FD2D2D",
"]	c #1A0606",
"^	c #1B0909",
"/	c #FD5955",
"(	c #CF504D",
"_	c #AA7F7C",
":	c #FF4747",
"<	c #FF3939",
"[	c #2A0F0E",
"}	c #2B1817",
"|	c #FE716A",
"1	c #FE6966",
"2	c #A67370",
"3	c #E65E5A",
"4	c #FF3131",
"5	c #FF4545",
"6	c #3D1917",
"7	c #3F2B27",
"8	c #FE807A",
"9	c #E6726C",
"0	c #AD6461",
"a	c #FF3333",
"b	c #FF524D",
"c	c #A24A46",
"d	c #A4655E",
"e	c #FF8E85",
"f	c #FF978F",
"g	c #AD6A67",
"h	c #F64040",
"i	c #FF2929",
"j	c #FF3D3D",
"k	c #FF5551",
"l	c #49201F",
"m	c #4A3732",
"n	c #FF9C91",
"o	c #FEACA2",
"p	c #F68F88",
"q	c #AD4D4B",
"r	c #FF191F",
"s	c #FF5753",
"t	c #F8716A",
"u	c #F78F87",
"v	c #FEAEA4",
"w	c #FEB0A6",
"x	c #FF9E93",
"y	c #AC6764",
"z	c #BF7171",
"A	c #BF7979",
"B	c #BF7F7F",
"C	c #BF8785",
"D	c #BF8F8D",
"E	c #BF9693",
"F	c #BF9D99",
"G	c #BFA19D",
"H	c #BFA39F",
"              ",
"              ",
"              ",
"              ",
"              ",
"      .+      ",
"     @#$%     ",
"     &*=-     ",
"    ;>,')!    ",
"    ~{]^/(    ",
"   _:<[}|12   ",
"   34567889   ",
"  0a<bcdeffg  ",
"  hijklmnoop  ",
" qrijstunvwxy ",
"  zABCDEFGHF  ",
"              ",
"              ",
"              ",
"              "};
