<?xml version="1.0" encoding="UTF-8" standalone="no"?>
<!DOCTYPE svg PUBLIC "-//W3C//DTD SVG 1.1//EN"
 "http://www.w3.org/Graphics/SVG/1.1/DTD/svg11.dtd">
<!-- Generated by graphviz version 2.42.3 (20191010.1750)
 -->
<!-- Title: example Pages: 1 -->
<svg width="191pt" height="360pt"
 viewBox="0.00 0.00 191.32 360.00" xmlns="http://www.w3.org/2000/svg" xmlns:xlink="http://www.w3.org/1999/xlink">
<g id="graph0" class="graph" transform="scale(1.34 1.34) rotate(0) translate(4 477.7)">
<title>example</title>
<polygon fill="transparent" stroke="transparent" points="-4,4 -4,-477.7 252,-477.7 252,4 -4,4"/>
<g id="clust1" class="cluster">
<title>cluster_1</title>
<polygon fill="transparent" stroke="black" stroke-dasharray="5,2" points="8,-187.48 8,-465.7 80,-465.7 80,-187.48 8,-187.48"/>
<text text-anchor="middle" x="44" y="-450.5" font-family="sans" font-size="14.00">1</text>
</g>
<g id="clust2" class="cluster">
<title>cluster_2</title>
<polygon fill="transparent" stroke="black" stroke-dasharray="5,2" points="88,-97.74 88,-372.96 160,-372.96 160,-97.74 88,-97.74"/>
<text text-anchor="middle" x="124" y="-357.76" font-family="sans" font-size="14.00">2</text>
</g>
<g id="clust3" class="cluster">
<title>cluster_3</title>
<polygon fill="transparent" stroke="black" stroke-dasharray="5,2" points="168,-8 168,-280.22 240,-280.22 240,-8 168,-8"/>
<text text-anchor="middle" x="204" y="-265.02" font-family="sans" font-size="14.00">3</text>
</g>
<!-- foo.1 -->
<g id="node1" class="node">
<title>foo.1</title>
<ellipse fill="none" stroke="black" cx="44" cy="-407.83" rx="27" ry="26.74"/>
<text text-anchor="middle" x="44" y="-411.63" font-family="sans" font-size="14.00">foo</text>
<text text-anchor="middle" x="44" y="-396.63" font-family="sans" font-size="14.00">1</text>
</g>
<!-- bar.1 -->
<g id="node2" class="node">
<title>bar.1</title>
<ellipse fill="none" stroke="black" cx="44" cy="-315.09" rx="27" ry="26.74"/>
<text text-anchor="middle" x="44" y="-318.89" font-family="sans" font-size="14.00">bar</text>
<text text-anchor="middle" x="44" y="-303.89" font-family="sans" font-size="14.00">1</text>
</g>
<!-- foo.1&#45;&gt;bar.1 -->
<g id="edge1" class="edge">
<title>foo.1&#45;&gt;bar.1</title>
<path fill="none" stroke="black" d="M44,-380.58C44,-371.67 44,-361.54 44,-352"/>
<polygon fill="black" stroke="black" points="47.5,-351.96 44,-341.96 40.5,-351.96 47.5,-351.96"/>
</g>
<!-- baz.1 -->
<g id="node3" class="node">
<title>baz.1</title>
<ellipse fill="none" stroke="black" cx="44" cy="-222.35" rx="27.65" ry="26.74"/>
<text text-anchor="middle" x="44" y="-226.15" font-family="sans" font-size="14.00">baz</text>
<text text-anchor="middle" x="44" y="-211.15" font-family="sans" font-size="14.00">1</text>
</g>
<!-- bar.1&#45;&gt;baz.1 -->
<g id="edge2" class="edge">
<title>bar.1&#45;&gt;baz.1</title>
<path fill="none" stroke="black" d="M44,-287.84C44,-278.93 44,-268.8 44,-259.26"/>
<polygon fill="black" stroke="black" points="47.5,-259.22 44,-249.22 40.5,-259.22 47.5,-259.22"/>
</g>
<!-- bar.2 -->
<g id="node5" class="node">
<title>bar.2</title>
<ellipse fill="none" stroke="black" cx="124" cy="-222.35" rx="27" ry="26.74"/>
<text text-anchor="middle" x="124" y="-226.15" font-family="sans" font-size="14.00">bar</text>
<text text-anchor="middle" x="124" y="-211.15" font-family="sans" font-size="14.00">2</text>
</g>
<!-- bar.1&#45;&gt;bar.2 -->
<g id="edge7" class="edge">
<title>bar.1&#45;&gt;bar.2</title>
<path fill="none" stroke="black" d="M65.26,-297.81C71.6,-292.51 78.35,-286.4 84,-280.22 91.27,-272.27 98.33,-262.95 104.45,-254.18"/>
<polygon fill="black" stroke="black" points="107.5,-255.91 110.22,-245.67 101.71,-251.98 107.5,-255.91"/>
</g>
<!-- foo.2 -->
<g id="node4" class="node">
<title>foo.2</title>
<ellipse fill="none" stroke="black" cx="124" cy="-315.09" rx="27" ry="26.74"/>
<text text-anchor="middle" x="124" y="-318.89" font-family="sans" font-size="14.00">foo</text>
<text text-anchor="middle" x="124" y="-303.89" font-family="sans" font-size="14.00">2</text>
</g>
<!-- foo.2&#45;&gt;bar.2 -->
<g id="edge3" class="edge">
<title>foo.2&#45;&gt;bar.2</title>
<path fill="none" stroke="black" d="M124,-287.84C124,-278.93 124,-268.8 124,-259.26"/>
<polygon fill="black" stroke="black" points="127.5,-259.22 124,-249.22 120.5,-259.22 127.5,-259.22"/>
</g>
<!-- baz.2 -->
<g id="node6" class="node">
<title>baz.2</title>
<ellipse fill="none" stroke="black" cx="124" cy="-132.61" rx="27.65" ry="26.74"/>
<text text-anchor="middle" x="124" y="-136.41" font-family="sans" font-size="14.00">baz</text>
<text text-anchor="middle" x="124" y="-121.41" font-family="sans" font-size="14.00">2</text>
</g>
<!-- bar.2&#45;&gt;baz.2 -->
<g id="edge4" class="edge">
<title>bar.2&#45;&gt;baz.2</title>
<path fill="none" stroke="black" d="M124,-195.03C124,-187.06 124,-178.17 124,-169.68"/>
<polygon fill="black" stroke="black" points="127.5,-169.61 124,-159.61 120.5,-169.61 127.5,-169.61"/>
</g>
<!-- bar.3 -->
<g id="node8" class="node">
<title>bar.3</title>
<ellipse fill="none" stroke="black" cx="203" cy="-132.61" rx="27" ry="26.74"/>
<text text-anchor="middle" x="203" y="-136.41" font-family="sans" font-size="14.00">bar</text>
<text text-anchor="middle" x="203" y="-121.41" font-family="sans" font-size="14.00">3</text>
</g>
<!-- bar.2&#45;&gt;bar.3 -->
<g id="edge8" class="edge">
<title>bar.2&#45;&gt;bar.3</title>
<path fill="none" stroke="black" d="M141.53,-201.88C152.4,-189.81 166.52,-174.12 178.49,-160.83"/>
<polygon fill="black" stroke="black" points="181.15,-163.1 185.24,-153.33 175.95,-158.42 181.15,-163.1"/>
</g>
<!-- foo.3 -->
<g id="node7" class="node">
<title>foo.3</title>
<ellipse fill="none" stroke="black" cx="203" cy="-222.35" rx="27" ry="26.74"/>
<text text-anchor="middle" x="203" y="-226.15" font-family="sans" font-size="14.00">foo</text>
<text text-anchor="middle" x="203" y="-211.15" font-family="sans" font-size="14.00">3</text>
</g>
<!-- foo.3&#45;&gt;bar.3 -->
<g id="edge5" class="edge">
<title>foo.3&#45;&gt;bar.3</title>
<path fill="none" stroke="black" d="M203,-195.03C203,-187.06 203,-178.17 203,-169.68"/>
<polygon fill="black" stroke="black" points="206.5,-169.61 203,-159.61 199.5,-169.61 206.5,-169.61"/>
</g>
<!-- baz.3 -->
<g id="node9" class="node">
<title>baz.3</title>
<ellipse fill="none" stroke="black" cx="204" cy="-42.87" rx="27.65" ry="26.74"/>
<text text-anchor="middle" x="204" y="-46.67" font-family="sans" font-size="14.00">baz</text>
<text text-anchor="middle" x="204" y="-31.67" font-family="sans" font-size="14.00">3</text>
</g>
<!-- bar.3&#45;&gt;baz.3 -->
<g id="edge6" class="edge">
<title>bar.3&#45;&gt;baz.3</title>
<path fill="none" stroke="black" d="M203.3,-105.29C203.39,-97.32 203.49,-88.43 203.59,-79.94"/>
<polygon fill="black" stroke="black" points="207.09,-79.91 203.7,-69.87 200.09,-79.83 207.09,-79.91"/>
</g>
</g>
</svg>
