<?xml version="1.0" encoding="UTF-8" standalone="no"?>
<!DOCTYPE svg PUBLIC "-//W3C//DTD SVG 1.1//EN"
 "http://www.w3.org/Graphics/SVG/1.1/DTD/svg11.dtd">
<!-- Generated by graphviz version 2.42.3 (20191010.1750)
 -->
<!-- Title: Example Pages: 1 -->
<svg width="407pt" height="360pt"
 viewBox="0.00 0.00 407.21 360.00" xmlns="http://www.w3.org/2000/svg" xmlns:xlink="http://www.w3.org/1999/xlink">
<g id="graph0" class="graph" transform="scale(1.19 1.19) rotate(0) translate(4 423)">
<title>Example</title>
<polygon fill="transparent" stroke="transparent" points="-4,4 -4,-423 479,-423 479,4 -4,4"/>
<g id="clust1" class="cluster">
<title>cluster_suite_directory</title>
<polygon fill="transparent" stroke="black" stroke-dasharray="5,2" points="2,-218 2,-405 139,-405 139,-218 2,-218"/>
<text text-anchor="middle" x="70.5" y="-387.4" font-family="sanz bold" font-size="17.00">Suite Directory</text>
</g>
<g id="clust2" class="cluster">
<title>cluster_run_directory</title>
<polygon fill="transparent" stroke="black" stroke-dasharray="5,2" points="341,-8 341,-411 470,-411 470,-8 341,-8"/>
<text text-anchor="middle" x="405.5" y="-393.4" font-family="sanz bold" font-size="17.00">Run Directory</text>
</g>
<!-- suite_rc_suite_dir -->
<g id="node1" class="node">
<title>suite_rc_suite_dir</title>
<text text-anchor="middle" x="70" y="-348.3" font-family="sans" font-size="14.00">suite.rc</text>
</g>
<!-- jinja2 -->
<g id="node11" class="node">
<title>jinja2</title>
<polygon fill="none" stroke="blue" points="295,-370 185,-370 185,-334 295,-334 295,-370"/>
<text text-anchor="middle" x="240" y="-348.3" font-family="sans" font-size="14.00" fill="blue">Prepend Jinja2</text>
</g>
<!-- suite_rc_suite_dir&#45;&gt;jinja2 -->
<g id="edge1" class="edge">
<title>suite_rc_suite_dir&#45;&gt;jinja2</title>
<path fill="none" stroke="blue" d="M101.04,-352C121.44,-352 149.22,-352 174.5,-352"/>
<polygon fill="blue" stroke="blue" points="174.78,-355.5 184.78,-352 174.78,-348.5 174.78,-355.5"/>
</g>
<!-- rose_suite_conf_suite_dir -->
<g id="node2" class="node">
<title>rose_suite_conf_suite_dir</title>
<text text-anchor="middle" x="70" y="-294.3" font-family="sans" font-size="14.00">rose&#45;suite.conf</text>
</g>
<!-- rose_suite_conf_run_dir -->
<g id="node5" class="node">
<title>rose_suite_conf_run_dir</title>
<text text-anchor="middle" x="405" y="-300.3" font-family="sans" font-size="14.00">rose&#45;suite.conf</text>
</g>
<!-- rose_suite_conf_suite_dir&#45;&gt;rose_suite_conf_run_dir -->
<g id="edge4" class="edge">
<title>rose_suite_conf_suite_dir&#45;&gt;rose_suite_conf_run_dir</title>
<path fill="none" stroke="blue" d="M124.13,-298.96C183.01,-300.02 277.91,-301.73 340.62,-302.86"/>
<polygon fill="blue" stroke="blue" points="340.72,-306.36 350.78,-303.04 340.85,-299.36 340.72,-306.36"/>
</g>
<!-- rose_suite_conf_suite_dir&#45;&gt;jinja2 -->
<g id="edge3" class="edge">
<title>rose_suite_conf_suite_dir&#45;&gt;jinja2</title>
<path fill="none" stroke="blue" stroke-dasharray="5,2" d="M124.16,-315.09C140.31,-320.28 158.23,-326.04 175.01,-331.43"/>
<polygon fill="none" stroke="blue" points="174.15,-334.83 184.75,-334.56 176.3,-328.17 174.15,-334.83"/>
</g>
<!-- install_files -->
<g id="node12" class="node">
<title>install_files</title>
<polygon fill="none" stroke="blue" points="283.5,-270 196.5,-270 196.5,-234 283.5,-234 283.5,-270"/>
<text text-anchor="middle" x="240" y="-248.3" font-family="sans" font-size="14.00" fill="blue">Install Files</text>
</g>
<!-- rose_suite_conf_suite_dir&#45;&gt;install_files -->
<g id="edge5" class="edge">
<title>rose_suite_conf_suite_dir&#45;&gt;install_files</title>
<path fill="none" stroke="blue" stroke-dasharray="5,2" d="M124.16,-283.45C144.06,-278 166.64,-271.81 186.48,-266.38"/>
<polygon fill="none" stroke="blue" points="187.56,-269.71 196.28,-263.7 185.71,-262.96 187.56,-269.71"/>
</g>
<!-- bin_suite_dir -->
<g id="node3" class="node">
<title>bin_suite_dir</title>
<text text-anchor="middle" x="70" y="-240.3" font-family="sans" font-size="14.00">bin/</text>
</g>
<!-- bin_run_dir -->
<g id="node7" class="node">
<title>bin_run_dir</title>
<text text-anchor="middle" x="405" y="-192.3" font-family="sans" font-size="14.00">bin/</text>
</g>
<!-- bin_suite_dir&#45;&gt;bin_run_dir -->
<g id="edge7" class="edge">
<title>bin_suite_dir&#45;&gt;bin_run_dir</title>
<path fill="none" stroke="blue" d="M97.22,-239.37C120.3,-235.36 154.84,-229.51 185,-225 249.13,-215.41 324.07,-205.84 367.57,-200.45"/>
<polygon fill="blue" stroke="blue" points="368.17,-203.9 377.67,-199.2 367.31,-196.95 368.17,-203.9"/>
</g>
<!-- suite_rc_run_dir -->
<g id="node4" class="node">
<title>suite_rc_run_dir</title>
<text text-anchor="middle" x="405" y="-354.3" font-family="sans" font-size="14.00">suite.rc</text>
</g>
<!-- files_run_dir -->
<g id="node6" class="node">
<title>files_run_dir</title>
<text text-anchor="middle" x="405" y="-246.3" font-family="sans" font-size="14.00">installed files</text>
</g>
<!-- work -->
<g id="node8" class="node">
<title>work</title>
<text text-anchor="middle" x="405" y="-138.3" font-family="sans" font-size="14.00">work/</text>
</g>
<!-- share -->
<g id="node9" class="node">
<title>share</title>
<text text-anchor="middle" x="405" y="-84.3" font-family="sans" font-size="14.00">share/</text>
</g>
<!-- log -->
<g id="node10" class="node">
<title>log</title>
<text text-anchor="middle" x="405" y="-30.3" font-family="sans" font-size="14.00">log/</text>
</g>
<!-- jinja2&#45;&gt;suite_rc_run_dir -->
<g id="edge2" class="edge">
<title>jinja2&#45;&gt;suite_rc_run_dir</title>
<path fill="none" stroke="blue" d="M295.28,-354C317.62,-354.82 343.04,-355.76 363.69,-356.52"/>
<polygon fill="blue" stroke="blue" points="363.58,-360.01 373.7,-356.88 363.84,-353.02 363.58,-360.01"/>
</g>
<!-- install_files&#45;&gt;files_run_dir -->
<g id="edge6" class="edge">
<title>install_files&#45;&gt;files_run_dir</title>
<path fill="none" stroke="blue" d="M283.83,-251.47C302.87,-251.24 325.58,-250.96 346.1,-250.71"/>
<polygon fill="blue" stroke="blue" points="346.34,-254.21 356.29,-250.59 346.25,-247.21 346.34,-254.21"/>
</g>
</g>
</svg>
