<?xml version="1.0" encoding="UTF-8" standalone="no"?>
<!DOCTYPE svg PUBLIC "-//W3C//DTD SVG 1.1//EN"
 "http://www.w3.org/Graphics/SVG/1.1/DTD/svg11.dtd">
<!-- Generated by graphviz version 2.42.3 (20191010.1750)
 -->
<!-- Title: example Pages: 1 -->
<svg width="504pt" height="93pt"
 viewBox="0.00 0.00 504.00 93.42" xmlns="http://www.w3.org/2000/svg" xmlns:xlink="http://www.w3.org/1999/xlink">
<g id="graph0" class="graph" transform="scale(2.21 2.21) rotate(0) translate(4 202.48)">
<title>example</title>
<polygon fill="transparent" stroke="transparent" points="-4,4 -4,-202.48 1110,-202.48 1110,4 -4,4"/>
<g id="clust1" class="cluster">
<title>cluster_1</title>
<polygon fill="transparent" stroke="black" stroke-dasharray="5,2" points="8,-8 8,-190.48 438,-190.48 438,-8 8,-8"/>
<text text-anchor="middle" x="223" y="-175.28" font-family="sans" font-size="14.00">2000&#45;01&#45;01T00:00Z</text>
</g>
<g id="clust2" class="cluster">
<title>cluster_2</title>
<polygon fill="transparent" stroke="black" stroke-dasharray="5,2" points="446,-97.74 446,-190.48 660,-190.48 660,-97.74 446,-97.74"/>
<text text-anchor="middle" x="553" y="-175.28" font-family="sans" font-size="14.00">2000&#45;01&#45;01T12:00Z</text>
</g>
<g id="clust3" class="cluster">
<title>cluster_3</title>
<polygon fill="transparent" stroke="black" stroke-dasharray="5,2" points="668,-8 668,-190.48 1098,-190.48 1098,-8 668,-8"/>
<text text-anchor="middle" x="883" y="-175.28" font-family="sans" font-size="14.00">2000&#45;01&#45;02T00:00Z</text>
</g>
<!-- foo.01T00 -->
<g id="node1" class="node">
<title>foo.01T00</title>
<ellipse fill="none" stroke="black" cx="331" cy="-132.61" rx="98.99" ry="26.74"/>
<text text-anchor="middle" x="331" y="-136.41" font-family="sans" font-size="14.00">foo</text>
<text text-anchor="middle" x="331" y="-121.41" font-family="sans" font-size="14.00">2000&#45;01&#45;01T00:00Z</text>
</g>
<!-- bar.01T00 -->
<g id="node2" class="node">
<title>bar.01T00</title>
<ellipse fill="none" stroke="black" cx="331" cy="-42.87" rx="98.99" ry="26.74"/>
<text text-anchor="middle" x="331" y="-46.67" font-family="sans" font-size="14.00">bar</text>
<text text-anchor="middle" x="331" y="-31.67" font-family="sans" font-size="14.00">2000&#45;01&#45;01T00:00Z</text>
</g>
<!-- foo.01T00&#45;&gt;bar.01T00 -->
<g id="edge1" class="edge">
<title>foo.01T00&#45;&gt;bar.01T00</title>
<path fill="none" stroke="black" d="M331,-105.29C331,-97.32 331,-88.43 331,-79.94"/>
<polygon fill="black" stroke="black" points="334.5,-79.87 331,-69.87 327.5,-79.87 334.5,-79.87"/>
</g>
<!-- baz.01T00 -->
<g id="node3" class="node">
<title>baz.01T00</title>
<ellipse fill="none" stroke="black" cx="115" cy="-132.61" rx="98.99" ry="26.74"/>
<text text-anchor="middle" x="115" y="-136.41" font-family="sans" font-size="14.00">baz</text>
<text text-anchor="middle" x="115" y="-121.41" font-family="sans" font-size="14.00">2000&#45;01&#45;01T00:00Z</text>
</g>
<!-- baz.01T12 -->
<g id="node4" class="node">
<title>baz.01T12</title>
<ellipse fill="none" stroke="black" cx="553" cy="-132.61" rx="98.99" ry="26.74"/>
<text text-anchor="middle" x="553" y="-136.41" font-family="sans" font-size="14.00">baz</text>
<text text-anchor="middle" x="553" y="-121.41" font-family="sans" font-size="14.00">2000&#45;01&#45;01T12:00Z</text>
</g>
<!-- foo.02T00 -->
<g id="node5" class="node">
<title>foo.02T00</title>
<ellipse fill="none" stroke="black" cx="991" cy="-132.61" rx="98.99" ry="26.74"/>
<text text-anchor="middle" x="991" y="-136.41" font-family="sans" font-size="14.00">foo</text>
<text text-anchor="middle" x="991" y="-121.41" font-family="sans" font-size="14.00">2000&#45;01&#45;02T00:00Z</text>
</g>
<!-- bar.02T00 -->
<g id="node6" class="node">
<title>bar.02T00</title>
<ellipse fill="none" stroke="black" cx="991" cy="-42.87" rx="98.99" ry="26.74"/>
<text text-anchor="middle" x="991" y="-46.67" font-family="sans" font-size="14.00">bar</text>
<text text-anchor="middle" x="991" y="-31.67" font-family="sans" font-size="14.00">2000&#45;01&#45;02T00:00Z</text>
</g>
<!-- foo.02T00&#45;&gt;bar.02T00 -->
<g id="edge2" class="edge">
<title>foo.02T00&#45;&gt;bar.02T00</title>
<path fill="none" stroke="black" d="M991,-105.29C991,-97.32 991,-88.43 991,-79.94"/>
<polygon fill="black" stroke="black" points="994.5,-79.87 991,-69.87 987.5,-79.87 994.5,-79.87"/>
</g>
<!-- baz.02T00 -->
<g id="node7" class="node">
<title>baz.02T00</title>
<ellipse fill="none" stroke="black" cx="775" cy="-132.61" rx="98.99" ry="26.74"/>
<text text-anchor="middle" x="775" y="-136.41" font-family="sans" font-size="14.00">baz</text>
<text text-anchor="middle" x="775" y="-121.41" font-family="sans" font-size="14.00">2000&#45;01&#45;02T00:00Z</text>
</g>
</g>
</svg>
