<?xml version="1.0" encoding="UTF-8" standalone="no"?>
<!DOCTYPE svg PUBLIC "-//W3C//DTD SVG 1.1//EN"
 "http://www.w3.org/Graphics/SVG/1.1/DTD/svg11.dtd">
<!-- Generated by graphviz version 2.48.0 (20210717.2242)
 -->
<!-- Title: example Pages: 1 -->
<svg width="196pt" height="360pt"
 viewBox="0.00 0.00 195.81 360.00" xmlns="http://www.w3.org/2000/svg" xmlns:xlink="http://www.w3.org/1999/xlink">
<g id="graph0" class="graph" transform="scale(0.75 0.75) rotate(0) translate(4 477.7)">
<title>example</title>
<polygon fill="transparent" stroke="transparent" points="-4,4 -4,-477.7 258,-477.7 258,4 -4,4"/>
<g id="clust1" class="cluster">
<title>cluster_1</title>
<polygon fill="transparent" stroke="black" stroke-dasharray="5,2" points="8,-187.48 8,-465.7 82,-465.7 82,-187.48 8,-187.48"/>
<text text-anchor="middle" x="45" y="-450.5" font-family="sans" font-size="14.00">1</text>
</g>
<g id="clust2" class="cluster">
<title>cluster_2</title>
<polygon fill="transparent" stroke="black" stroke-dasharray="5,2" points="90,-97.74 90,-372.96 164,-372.96 164,-97.74 90,-97.74"/>
<text text-anchor="middle" x="127" y="-357.76" font-family="sans" font-size="14.00">2</text>
</g>
<g id="clust3" class="cluster">
<title>cluster_3</title>
<polygon fill="transparent" stroke="black" stroke-dasharray="5,2" points="172,-8 172,-280.22 246,-280.22 246,-8 172,-8"/>
<text text-anchor="middle" x="209" y="-265.02" font-family="sans" font-size="14.00">3</text>
</g>
<!-- foo.1 -->
<g id="node1" class="node">
<title>foo.1</title>
<ellipse fill="none" stroke="black" cx="45" cy="-407.83" rx="27" ry="26.74"/>
<text text-anchor="middle" x="45" y="-411.63" font-family="sans" font-size="14.00">foo</text>
<text text-anchor="middle" x="45" y="-396.63" font-family="sans" font-size="14.00">1</text>
</g>
<!-- bar.1 -->
<g id="node2" class="node">
<title>bar.1</title>
<ellipse fill="none" stroke="black" cx="45" cy="-315.09" rx="28.07" ry="26.74"/>
<text text-anchor="middle" x="45" y="-318.89" font-family="sans" font-size="14.00">bar</text>
<text text-anchor="middle" x="45" y="-303.89" font-family="sans" font-size="14.00">1</text>
</g>
<!-- foo.1&#45;&gt;bar.1 -->
<g id="edge1" class="edge">
<title>foo.1&#45;&gt;bar.1</title>
<path fill="none" stroke="black" d="M45,-380.58C45,-371.67 45,-361.54 45,-352"/>
<polygon fill="black" stroke="black" points="48.5,-351.96 45,-341.96 41.5,-351.96 48.5,-351.96"/>
</g>
<!-- baz.1 -->
<g id="node3" class="node">
<title>baz.1</title>
<ellipse fill="none" stroke="black" cx="45" cy="-222.35" rx="28.98" ry="26.74"/>
<text text-anchor="middle" x="45" y="-226.15" font-family="sans" font-size="14.00">baz</text>
<text text-anchor="middle" x="45" y="-211.15" font-family="sans" font-size="14.00">1</text>
</g>
<!-- bar.1&#45;&gt;baz.1 -->
<g id="edge2" class="edge">
<title>bar.1&#45;&gt;baz.1</title>
<path fill="none" stroke="black" d="M45,-287.84C45,-278.93 45,-268.8 45,-259.26"/>
<polygon fill="black" stroke="black" points="48.5,-259.22 45,-249.22 41.5,-259.22 48.5,-259.22"/>
</g>
<!-- bar.2 -->
<g id="node5" class="node">
<title>bar.2</title>
<ellipse fill="none" stroke="black" cx="127" cy="-222.35" rx="28.07" ry="26.74"/>
<text text-anchor="middle" x="127" y="-226.15" font-family="sans" font-size="14.00">bar</text>
<text text-anchor="middle" x="127" y="-211.15" font-family="sans" font-size="14.00">2</text>
</g>
<!-- bar.1&#45;&gt;bar.2 -->
<g id="edge7" class="edge">
<title>bar.1&#45;&gt;bar.2</title>
<path fill="none" stroke="black" d="M66.77,-297.83C73.27,-292.54 80.19,-286.42 86,-280.22 93.5,-272.21 100.81,-262.78 107.12,-253.94"/>
<polygon fill="black" stroke="black" points="110.02,-255.9 112.85,-245.7 104.27,-251.91 110.02,-255.9"/>
</g>
<!-- foo.2 -->
<g id="node4" class="node">
<title>foo.2</title>
<ellipse fill="none" stroke="black" cx="127" cy="-315.09" rx="27" ry="26.74"/>
<text text-anchor="middle" x="127" y="-318.89" font-family="sans" font-size="14.00">foo</text>
<text text-anchor="middle" x="127" y="-303.89" font-family="sans" font-size="14.00">2</text>
</g>
<!-- foo.2&#45;&gt;bar.2 -->
<g id="edge3" class="edge">
<title>foo.2&#45;&gt;bar.2</title>
<path fill="none" stroke="black" d="M127,-287.84C127,-278.93 127,-268.8 127,-259.26"/>
<polygon fill="black" stroke="black" points="130.5,-259.22 127,-249.22 123.5,-259.22 130.5,-259.22"/>
</g>
<!-- baz.2 -->
<g id="node6" class="node">
<title>baz.2</title>
<ellipse fill="none" stroke="black" cx="127" cy="-132.61" rx="28.98" ry="26.74"/>
<text text-anchor="middle" x="127" y="-136.41" font-family="sans" font-size="14.00">baz</text>
<text text-anchor="middle" x="127" y="-121.41" font-family="sans" font-size="14.00">2</text>
</g>
<!-- bar.2&#45;&gt;baz.2 -->
<g id="edge4" class="edge">
<title>bar.2&#45;&gt;baz.2</title>
<path fill="none" stroke="black" d="M127,-195.03C127,-187.06 127,-178.17 127,-169.68"/>
<polygon fill="black" stroke="black" points="130.5,-169.61 127,-159.61 123.5,-169.61 130.5,-169.61"/>
</g>
<!-- bar.3 -->
<g id="node8" class="node">
<title>bar.3</title>
<ellipse fill="none" stroke="black" cx="208" cy="-132.61" rx="28.07" ry="26.74"/>
<text text-anchor="middle" x="208" y="-136.41" font-family="sans" font-size="14.00">bar</text>
<text text-anchor="middle" x="208" y="-121.41" font-family="sans" font-size="14.00">3</text>
</g>
<!-- bar.2&#45;&gt;bar.3 -->
<g id="edge8" class="edge">
<title>bar.2&#45;&gt;bar.3</title>
<path fill="none" stroke="black" d="M145.38,-201.44C156.46,-189.44 170.73,-173.98 182.85,-160.86"/>
<polygon fill="black" stroke="black" points="185.48,-163.16 189.69,-153.44 180.34,-158.41 185.48,-163.16"/>
</g>
<!-- foo.3 -->
<g id="node7" class="node">
<title>foo.3</title>
<ellipse fill="none" stroke="black" cx="208" cy="-222.35" rx="27" ry="26.74"/>
<text text-anchor="middle" x="208" y="-226.15" font-family="sans" font-size="14.00">foo</text>
<text text-anchor="middle" x="208" y="-211.15" font-family="sans" font-size="14.00">3</text>
</g>
<!-- foo.3&#45;&gt;bar.3 -->
<g id="edge5" class="edge">
<title>foo.3&#45;&gt;bar.3</title>
<path fill="none" stroke="black" d="M208,-195.03C208,-187.06 208,-178.17 208,-169.68"/>
<polygon fill="black" stroke="black" points="211.5,-169.61 208,-159.61 204.5,-169.61 211.5,-169.61"/>
</g>
<!-- baz.3 -->
<g id="node9" class="node">
<title>baz.3</title>
<ellipse fill="none" stroke="black" cx="209" cy="-42.87" rx="28.98" ry="26.74"/>
<text text-anchor="middle" x="209" y="-46.67" font-family="sans" font-size="14.00">baz</text>
<text text-anchor="middle" x="209" y="-31.67" font-family="sans" font-size="14.00">3</text>
</g>
<!-- bar.3&#45;&gt;baz.3 -->
<g id="edge6" class="edge">
<title>bar.3&#45;&gt;baz.3</title>
<path fill="none" stroke="black" d="M208.3,-105.29C208.39,-97.32 208.49,-88.43 208.59,-79.94"/>
<polygon fill="black" stroke="black" points="212.09,-79.91 208.7,-69.87 205.09,-79.83 212.09,-79.91"/>
</g>
</g>
</svg>
