<?xml version="1.0" encoding="UTF-8" standalone="no"?>
<!DOCTYPE svg PUBLIC "-//W3C//DTD SVG 1.1//EN"
 "http://www.w3.org/Graphics/SVG/1.1/DTD/svg11.dtd">
<!-- Generated by graphviz version 2.48.0 (20210717.2242)
 -->
<!-- Title: Mini_Cylc Pages: 1 -->
<svg width="353pt" height="116pt"
 viewBox="0.00 0.00 352.69 116.00" xmlns="http://www.w3.org/2000/svg" xmlns:xlink="http://www.w3.org/1999/xlink">
<g id="graph0" class="graph" transform="scale(1 1) rotate(0) translate(4 112)">
<title>Mini_Cylc</title>
<polygon fill="transparent" stroke="transparent" points="-4,4 -4,-112 348.69,-112 348.69,4 -4,4"/>
<!-- baz_foo3 -->
<g id="node1" class="node">
<title>baz_foo3</title>
<ellipse fill="none" stroke="black" cx="51.35" cy="-18" rx="51.19" ry="18"/>
<text text-anchor="middle" x="51.35" y="-14.3" font-family="sans" font-size="14.00">baz_foo3</text>
</g>
<!-- baz_foo1 -->
<g id="node2" class="node">
<title>baz_foo1</title>
<ellipse fill="none" stroke="black" cx="172.35" cy="-18" rx="51.19" ry="18"/>
<text text-anchor="middle" x="172.35" y="-14.3" font-family="sans" font-size="14.00">baz_foo1</text>
</g>
<!-- bar_foo3 -->
<g id="node3" class="node">
<title>bar_foo3</title>
<ellipse fill="none" stroke="black" cx="51.35" cy="-90" rx="50.09" ry="18"/>
<text text-anchor="middle" x="51.35" y="-86.3" font-family="sans" font-size="14.00">bar_foo3</text>
</g>
<!-- bar_foo3&#45;&gt;baz_foo3 -->
<g id="edge1" class="edge">
<title>bar_foo3&#45;&gt;baz_foo3</title>
<path fill="none" stroke="black" d="M51.35,-71.7C51.35,-63.98 51.35,-54.71 51.35,-46.11"/>
<polygon fill="black" stroke="black" points="54.85,-46.1 51.35,-36.1 47.85,-46.1 54.85,-46.1"/>
</g>
<!-- bar_foo1 -->
<g id="node4" class="node">
<title>bar_foo1</title>
<ellipse fill="none" stroke="black" cx="172.35" cy="-90" rx="50.09" ry="18"/>
<text text-anchor="middle" x="172.35" y="-86.3" font-family="sans" font-size="14.00">bar_foo1</text>
</g>
<!-- bar_foo1&#45;&gt;baz_foo1 -->
<g id="edge2" class="edge">
<title>bar_foo1&#45;&gt;baz_foo1</title>
<path fill="none" stroke="black" d="M172.35,-71.7C172.35,-63.98 172.35,-54.71 172.35,-46.11"/>
<polygon fill="black" stroke="black" points="175.85,-46.1 172.35,-36.1 168.85,-46.1 175.85,-46.1"/>
</g>
<!-- baz_foo2 -->
<g id="node5" class="node">
<title>baz_foo2</title>
<ellipse fill="none" stroke="black" cx="293.35" cy="-18" rx="51.19" ry="18"/>
<text text-anchor="middle" x="293.35" y="-14.3" font-family="sans" font-size="14.00">baz_foo2</text>
</g>
<!-- bar_foo2 -->
<g id="node6" class="node">
<title>bar_foo2</title>
<ellipse fill="none" stroke="black" cx="293.35" cy="-90" rx="50.09" ry="18"/>
<text text-anchor="middle" x="293.35" y="-86.3" font-family="sans" font-size="14.00">bar_foo2</text>
</g>
<!-- bar_foo2&#45;&gt;baz_foo2 -->
<g id="edge3" class="edge">
<title>bar_foo2&#45;&gt;baz_foo2</title>
<path fill="none" stroke="black" d="M293.35,-71.7C293.35,-63.98 293.35,-54.71 293.35,-46.11"/>
<polygon fill="black" stroke="black" points="296.85,-46.1 293.35,-36.1 289.85,-46.1 296.85,-46.1"/>
</g>
</g>
</svg>
