<?xml version="1.0" encoding="UTF-8" standalone="no"?>
<!DOCTYPE svg PUBLIC "-//W3C//DTD SVG 1.1//EN"
 "http://www.w3.org/Graphics/SVG/1.1/DTD/svg11.dtd">
<!-- Generated by graphviz version 2.48.0 (20210717.2242)
 -->
<!-- Title: Example Pages: 1 -->
<svg width="444pt" height="360pt"
 viewBox="0.00 0.00 444.31 360.00" xmlns="http://www.w3.org/2000/svg" xmlns:xlink="http://www.w3.org/1999/xlink">
<g id="graph0" class="graph" transform="scale(0.84 0.84) rotate(0) translate(4 423)">
<title>Example</title>
<polygon fill="transparent" stroke="transparent" points="-4,4 -4,-423 523,-423 523,4 -4,4"/>
<g id="clust1" class="cluster">
<title>cluster_suite_directory</title>
<polygon fill="transparent" stroke="black" stroke-dasharray="5,2" points="0,-218 0,-405 161,-405 161,-218 0,-218"/>
<text text-anchor="middle" x="80.5" y="-387.4" font-family="sanz bold" font-size="17.00">Suite Directory</text>
</g>
<g id="clust2" class="cluster">
<title>cluster_run_directory</title>
<polygon fill="transparent" stroke="black" stroke-dasharray="5,2" points="369,-8 369,-411 518,-411 518,-8 369,-8"/>
<text text-anchor="middle" x="443.5" y="-393.4" font-family="sanz bold" font-size="17.00">Run Directory</text>
</g>
<!-- suite_rc_suite_dir -->
<g id="node1" class="node">
<title>suite_rc_suite_dir</title>
<text text-anchor="middle" x="80.5" y="-348.3" font-family="sans" font-size="14.00">suite.rc</text>
</g>
<!-- jinja2 -->
<g id="node11" class="node">
<title>jinja2</title>
<polygon fill="none" stroke="blue" points="323,-370 207,-370 207,-334 323,-334 323,-370"/>
<text text-anchor="middle" x="265" y="-348.3" font-family="sans" font-size="14.00" fill="blue">Prepend Jinja2</text>
</g>
<!-- suite_rc_suite_dir&#45;&gt;jinja2 -->
<g id="edge1" class="edge">
<title>suite_rc_suite_dir&#45;&gt;jinja2</title>
<path fill="none" stroke="blue" d="M114.55,-352C137.42,-352 168.66,-352 196.67,-352"/>
<polygon fill="blue" stroke="blue" points="196.82,-355.5 206.82,-352 196.82,-348.5 196.82,-355.5"/>
</g>
<!-- rose_suite_conf_suite_dir -->
<g id="node2" class="node">
<title>rose_suite_conf_suite_dir</title>
<text text-anchor="middle" x="80.5" y="-294.3" font-family="sans" font-size="14.00">rose&#45;suite.conf</text>
</g>
<!-- rose_suite_conf_run_dir -->
<g id="node5" class="node">
<title>rose_suite_conf_run_dir</title>
<text text-anchor="middle" x="443.5" y="-300.3" font-family="sans" font-size="14.00">rose&#45;suite.conf</text>
</g>
<!-- rose_suite_conf_suite_dir&#45;&gt;rose_suite_conf_run_dir -->
<g id="edge4" class="edge">
<title>rose_suite_conf_suite_dir&#45;&gt;rose_suite_conf_run_dir</title>
<path fill="none" stroke="blue" d="M140.3,-298.98C204.16,-300.04 306.04,-301.73 373.6,-302.85"/>
<polygon fill="blue" stroke="blue" points="373.66,-306.36 383.72,-303.02 373.78,-299.36 373.66,-306.36"/>
</g>
<!-- rose_suite_conf_suite_dir&#45;&gt;jinja2 -->
<g id="edge3" class="edge">
<title>rose_suite_conf_suite_dir&#45;&gt;jinja2</title>
<path fill="none" stroke="blue" stroke-dasharray="5,2" d="M140.25,-315.38C158.44,-320.77 178.61,-326.73 197.3,-332.26"/>
<polygon fill="none" stroke="blue" points="196.34,-335.63 206.92,-335.11 198.32,-328.92 196.34,-335.63"/>
</g>
<!-- install_files -->
<g id="node12" class="node">
<title>install_files</title>
<polygon fill="none" stroke="blue" points="311.5,-270 218.5,-270 218.5,-234 311.5,-234 311.5,-270"/>
<text text-anchor="middle" x="265" y="-248.3" font-family="sans" font-size="14.00" fill="blue">Install Files</text>
</g>
<!-- rose_suite_conf_suite_dir&#45;&gt;install_files -->
<g id="edge5" class="edge">
<title>rose_suite_conf_suite_dir&#45;&gt;install_files</title>
<path fill="none" stroke="blue" stroke-dasharray="5,2" d="M140.25,-283.19C162.11,-277.68 186.83,-271.45 208.4,-266.01"/>
<polygon fill="none" stroke="blue" points="209.54,-269.34 218.38,-263.5 207.83,-262.55 209.54,-269.34"/>
</g>
<!-- bin_suite_dir -->
<g id="node3" class="node">
<title>bin_suite_dir</title>
<text text-anchor="middle" x="80.5" y="-240.3" font-family="sans" font-size="14.00">bin/</text>
</g>
<!-- bin_run_dir -->
<g id="node7" class="node">
<title>bin_run_dir</title>
<text text-anchor="middle" x="443.5" y="-192.3" font-family="sans" font-size="14.00">bin/</text>
</g>
<!-- bin_suite_dir&#45;&gt;bin_run_dir -->
<g id="edge7" class="edge">
<title>bin_suite_dir&#45;&gt;bin_run_dir</title>
<path fill="none" stroke="blue" d="M107.91,-239.78C133.29,-235.78 172.72,-229.7 207,-225 277.42,-215.33 359.91,-205.52 406.2,-200.15"/>
<polygon fill="blue" stroke="blue" points="406.8,-203.61 416.33,-198.98 406,-196.65 406.8,-203.61"/>
</g>
<!-- suite_rc_run_dir -->
<g id="node4" class="node">
<title>suite_rc_run_dir</title>
<text text-anchor="middle" x="443.5" y="-354.3" font-family="sans" font-size="14.00">suite.rc</text>
</g>
<!-- files_run_dir -->
<g id="node6" class="node">
<title>files_run_dir</title>
<text text-anchor="middle" x="443.5" y="-246.3" font-family="sans" font-size="14.00">installed files</text>
</g>
<!-- work -->
<g id="node8" class="node">
<title>work</title>
<text text-anchor="middle" x="443.5" y="-138.3" font-family="sans" font-size="14.00">work/</text>
</g>
<!-- share -->
<g id="node9" class="node">
<title>share</title>
<text text-anchor="middle" x="443.5" y="-84.3" font-family="sans" font-size="14.00">share/</text>
</g>
<!-- log -->
<g id="node10" class="node">
<title>log</title>
<text text-anchor="middle" x="443.5" y="-30.3" font-family="sans" font-size="14.00">log/</text>
</g>
<!-- jinja2&#45;&gt;suite_rc_run_dir -->
<g id="edge2" class="edge">
<title>jinja2&#45;&gt;suite_rc_run_dir</title>
<path fill="none" stroke="blue" d="M323.3,-353.95C348.01,-354.79 376.41,-355.75 399.3,-356.53"/>
<polygon fill="blue" stroke="blue" points="399.28,-360.03 409.39,-356.87 399.52,-353.04 399.28,-360.03"/>
</g>
<!-- install_files&#45;&gt;files_run_dir -->
<g id="edge6" class="edge">
<title>install_files&#45;&gt;files_run_dir</title>
<path fill="none" stroke="blue" d="M311.91,-251.48C332.46,-251.25 357.03,-250.97 379.27,-250.72"/>
<polygon fill="blue" stroke="blue" points="379.35,-254.22 389.31,-250.6 379.27,-247.22 379.35,-254.22"/>
</g>
</g>
</svg>
