<?xml version="1.0" encoding="UTF-8" standalone="no"?>
<!DOCTYPE svg PUBLIC "-//W3C//DTD SVG 1.1//EN"
 "http://www.w3.org/Graphics/SVG/1.1/DTD/svg11.dtd">
<!-- Generated by graphviz version 2.48.0 (20210717.2242)
 -->
<!-- Title: Example Pages: 1 -->
<svg width="62pt" height="188pt"
 viewBox="0.00 0.00 62.00 188.00" xmlns="http://www.w3.org/2000/svg" xmlns:xlink="http://www.w3.org/1999/xlink">
<g id="graph0" class="graph" transform="scale(1 1) rotate(0) translate(4 184)">
<title>Example</title>
<polygon fill="transparent" stroke="transparent" points="-4,4 -4,-184 58,-184 58,4 -4,4"/>
<!-- foo -->
<g id="node1" class="node">
<title>foo</title>
<ellipse fill="#ada5a5" stroke="#ada5a5" cx="27" cy="-162" rx="27" ry="18"/>
<text text-anchor="middle" x="27" y="-158.3" font-family="sans" font-size="14.00">foo</text>
</g>
<!-- bar -->
<g id="node2" class="node">
<title>bar</title>
<ellipse fill="#ff0000" stroke="#ff0000" cx="27" cy="-90" rx="27" ry="18"/>
<text text-anchor="middle" x="27" y="-86.3" font-family="sans" font-size="14.00" fill="white">bar</text>
</g>
<!-- foo&#45;&gt;bar -->
<g id="edge1" class="edge">
<title>foo&#45;&gt;bar</title>
<path fill="none" stroke="black" d="M27,-143.7C27,-135.98 27,-126.71 27,-118.11"/>
<polygon fill="black" stroke="black" points="30.5,-118.1 27,-108.1 23.5,-118.1 30.5,-118.1"/>
</g>
<!-- baz -->
<g id="node3" class="node">
<title>baz</title>
<ellipse fill="none" stroke="#88c6ff" cx="27" cy="-18" rx="27" ry="18"/>
<text text-anchor="middle" x="27" y="-14.3" font-family="sans" font-size="14.00">baz</text>
</g>
<!-- bar&#45;&gt;baz -->
<g id="edge2" class="edge">
<title>bar&#45;&gt;baz</title>
<path fill="none" stroke="black" d="M27,-71.7C27,-63.98 27,-54.71 27,-46.11"/>
<polygon fill="black" stroke="black" points="30.5,-46.1 27,-36.1 23.5,-46.1 30.5,-46.1"/>
</g>
</g>
</svg>
