<?xml version="1.0" encoding="UTF-8" standalone="no"?>
<!DOCTYPE svg PUBLIC "-//W3C//DTD SVG 1.1//EN"
 "http://www.w3.org/Graphics/SVG/1.1/DTD/svg11.dtd">
<!-- Generated by graphviz version 2.30.1 (20170916.1124)
 -->
<!-- Title: Example Pages: 1 -->
<svg width="286pt" height="188pt"
 viewBox="0.00 0.00 286.00 188.00" xmlns="http://www.w3.org/2000/svg" xmlns:xlink="http://www.w3.org/1999/xlink">
<g id="graph0" class="graph" transform="scale(1 1) rotate(0) translate(4 184)">
<title>Example</title>
<polygon fill="none" stroke="none" points="-4,5 -4,-184 283,-184 283,5 -4,5"/>
<!-- make_cake_mixture -->
<g id="node1" class="node"><title>make_cake_mixture</title>
<ellipse fill="none" stroke="black" cx="175" cy="-162" rx="103.486" ry="18"/>
<text text-anchor="middle" x="175" y="-158.3" font-family="sans" font-size="14.00">make_cake_mixture</text>
</g>
<!-- bake_cake -->
<g id="node2" class="node"><title>bake_cake</title>
<ellipse fill="none" stroke="black" cx="175" cy="-90" rx="59.1941" ry="18"/>
<text text-anchor="middle" x="175" y="-86.3" font-family="sans" font-size="14.00">bake_cake</text>
</g>
<!-- make_cake_mixture&#45;&gt;bake_cake -->
<g id="edge1" class="edge"><title>make_cake_mixture&#45;&gt;bake_cake</title>
<path fill="none" stroke="black" d="M175,-143.697C175,-135.983 175,-126.712 175,-118.112"/>
<polygon fill="black" stroke="black" points="178.5,-118.104 175,-108.104 171.5,-118.104 178.5,-118.104"/>
</g>
<!-- sell_cake -->
<g id="node3" class="node"><title>sell_cake</title>
<ellipse fill="none" stroke="black" cx="52" cy="-18" rx="52.4675" ry="18"/>
<text text-anchor="middle" x="52" y="-14.3" font-family="sans" font-size="14.00">sell_cake</text>
</g>
<!-- bake_cake&#45;&gt;sell_cake -->
<g id="edge2" class="edge"><title>bake_cake&#45;&gt;sell_cake</title>
<path fill="none" stroke="black" stroke-dasharray="5,2" d="M148.311,-73.811C129.684,-63.2107 104.706,-48.9952 84.8546,-37.6977"/>
<ellipse fill="black" stroke="black" cx="81.2707" cy="-35.6581" rx="4.00002" ry="4.00002"/>
</g>
<!-- eat_cake -->
<g id="node4" class="node"><title>eat_cake</title>
<ellipse fill="none" stroke="black" cx="175" cy="-18" rx="51.4931" ry="18"/>
<text text-anchor="middle" x="175" y="-14.3" font-family="sans" font-size="14.00">eat_cake</text>
</g>
<!-- bake_cake&#45;&gt;eat_cake -->
<g id="edge3" class="edge"><title>bake_cake&#45;&gt;eat_cake</title>
<path fill="none" stroke="black" stroke-dasharray="5,2" d="M169.122,-72.055C168.241,-63.7526 168.028,-53.5837 168.482,-44.3778"/>
<ellipse fill="black" stroke="black" cx="168.789" cy="-40.2642" rx="4" ry="4"/>
</g>
<!-- eat_cake&#45;&gt;bake_cake -->
<g id="edge4" class="edge"><title>eat_cake&#45;&gt;bake_cake</title>
<path fill="none" stroke="black" stroke-dasharray="5,2" d="M180.913,-36.2753C181.776,-44.6265 181.972,-54.8068 181.5,-63.9868"/>
<ellipse fill="black" stroke="black" cx="181.185" cy="-68.0668" rx="4" ry="4"/>
</g>
</g>
</svg>
