<?xml version="1.0" encoding="UTF-8" standalone="no"?>
<!DOCTYPE svg PUBLIC "-//W3C//DTD SVG 1.1//EN"
 "http://www.w3.org/Graphics/SVG/1.1/DTD/svg11.dtd">
<!-- Generated by graphviz version 2.30.1 (20170916.1124)
 -->
<!-- Title: Mini_Cylc Pages: 1 -->
<svg width="366pt" height="260pt"
 viewBox="0.00 0.00 366.00 260.00" xmlns="http://www.w3.org/2000/svg" xmlns:xlink="http://www.w3.org/1999/xlink">
<g id="graph0" class="graph" transform="scale(1 1) rotate(0) translate(4 256)">
<title>Mini_Cylc</title>
<polygon fill="none" stroke="none" points="-4,5 -4,-256 363,-256 363,5 -4,5"/>
<!-- pre_heat_oven -->
<g id="node1" class="node"><title>pre_heat_oven</title>
<ellipse fill="none" stroke="black" cx="79" cy="-162" rx="79.4147" ry="18"/>
<text text-anchor="middle" x="79" y="-158.3" font-family="sans" font-size="14.00">pre_heat_oven</text>
</g>
<!-- bake_bread -->
<g id="node2" class="node"><title>bake_bread</title>
<ellipse fill="none" stroke="black" cx="163" cy="-90" rx="65.4659" ry="18"/>
<text text-anchor="middle" x="163" y="-86.3" font-family="sans" font-size="14.00">bake_bread</text>
</g>
<!-- pre_heat_oven&#45;&gt;bake_bread -->
<g id="edge1" class="edge"><title>pre_heat_oven&#45;&gt;bake_bread</title>
<path fill="none" stroke="black" d="M98.9068,-144.411C109.865,-135.279 123.629,-123.809 135.59,-113.842"/>
<polygon fill="black" stroke="black" points="138.084,-116.319 143.526,-107.228 133.603,-110.942 138.084,-116.319"/>
</g>
<!-- clean_oven -->
<g id="node3" class="node"><title>clean_oven</title>
<ellipse fill="none" stroke="black" cx="93" cy="-18" rx="63.5411" ry="18"/>
<text text-anchor="middle" x="93" y="-14.3" font-family="sans" font-size="14.00">clean_oven</text>
</g>
<!-- bake_bread&#45;&gt;clean_oven -->
<g id="edge2" class="edge"><title>bake_bread&#45;&gt;clean_oven</title>
<path fill="none" stroke="black" d="M146.411,-72.411C137.519,-63.519 126.411,-52.4107 116.631,-42.6309"/>
<polygon fill="black" stroke="black" points="119.016,-40.0662 109.47,-35.4699 114.066,-45.0159 119.016,-40.0662"/>
</g>
<!-- sell_bread -->
<g id="node4" class="node"><title>sell_bread</title>
<ellipse fill="none" stroke="black" cx="233" cy="-18" rx="58.2422" ry="18"/>
<text text-anchor="middle" x="233" y="-14.3" font-family="sans" font-size="14.00">sell_bread</text>
</g>
<!-- bake_bread&#45;&gt;sell_bread -->
<g id="edge3" class="edge"><title>bake_bread&#45;&gt;sell_bread</title>
<path fill="none" stroke="black" d="M179.589,-72.411C188.481,-63.519 199.589,-52.4107 209.369,-42.6309"/>
<polygon fill="black" stroke="black" points="211.934,-45.0159 216.53,-35.4699 206.984,-40.0662 211.934,-45.0159"/>
</g>
<!-- purchase_ingredients -->
<g id="node5" class="node"><title>purchase_ingredients</title>
<ellipse fill="none" stroke="black" cx="248" cy="-234" rx="110.235" ry="18"/>
<text text-anchor="middle" x="248" y="-230.3" font-family="sans" font-size="14.00">purchase_ingredients</text>
</g>
<!-- make_dough -->
<g id="node6" class="node"><title>make_dough</title>
<ellipse fill="none" stroke="black" cx="248" cy="-162" rx="70.2668" ry="18"/>
<text text-anchor="middle" x="248" y="-158.3" font-family="sans" font-size="14.00">make_dough</text>
</g>
<!-- purchase_ingredients&#45;&gt;make_dough -->
<g id="edge4" class="edge"><title>purchase_ingredients&#45;&gt;make_dough</title>
<path fill="none" stroke="black" d="M248,-215.697C248,-207.983 248,-198.712 248,-190.112"/>
<polygon fill="black" stroke="black" points="251.5,-190.104 248,-180.104 244.5,-190.104 251.5,-190.104"/>
</g>
<!-- make_dough&#45;&gt;bake_bread -->
<g id="edge5" class="edge"><title>make_dough&#45;&gt;bake_bread</title>
<path fill="none" stroke="black" d="M227.856,-144.411C216.767,-135.279 202.84,-123.809 190.736,-113.842"/>
<polygon fill="black" stroke="black" points="192.65,-110.884 182.706,-107.228 188.2,-116.287 192.65,-110.884"/>
</g>
</g>
</svg>
