<?xml version="1.0" encoding="UTF-8" standalone="no"?>
<!DOCTYPE svg PUBLIC "-//W3C//DTD SVG 1.1//EN"
 "http://www.w3.org/Graphics/SVG/1.1/DTD/svg11.dtd">
<!-- Generated by graphviz version 2.30.1 (20170916.1124)
 -->
<!-- Title: Example Pages: 1 -->
<svg width="274pt" height="227pt"
 viewBox="0.00 0.00 274.00 227.00" xmlns="http://www.w3.org/2000/svg" xmlns:xlink="http://www.w3.org/1999/xlink">
<g id="graph0" class="graph" transform="scale(1 1) rotate(0) translate(4 223)">
<title>Example</title>
<polygon fill="none" stroke="none" points="-4,5 -4,-223 271,-223 271,5 -4,5"/>
<g id="clust1" class="cluster"><title>cluster_1</title>
<polygon fill="none" stroke="green" stroke-dasharray="5,2" points="8,-8 8,-83 130,-83 130,-8 8,-8"/>
<text text-anchor="middle" x="69" y="-15.8" font-family="sans" font-size="14.00" fill="green">:succeed</text>
</g>
<g id="clust2" class="cluster"><title>cluster_2</title>
<polygon fill="none" stroke="red" stroke-dasharray="5,2" points="138,-8 138,-83 258,-83 258,-8 138,-8"/>
<text text-anchor="middle" x="198" y="-15.8" font-family="sans" font-size="14.00" fill="red">:fail</text>
</g>
<!-- make_cake_mixture -->
<g id="node1" class="node"><title>make_cake_mixture</title>
<ellipse fill="none" stroke="black" cx="133" cy="-201" rx="103.486" ry="18"/>
<text text-anchor="middle" x="133" y="-197.3" font-family="sans" font-size="14.00">make_cake_mixture</text>
</g>
<!-- bake_cake -->
<g id="node2" class="node"><title>bake_cake</title>
<ellipse fill="none" stroke="black" cx="133" cy="-129" rx="59.1941" ry="18"/>
<text text-anchor="middle" x="133" y="-125.3" font-family="sans" font-size="14.00">bake_cake</text>
</g>
<!-- make_cake_mixture&#45;&gt;bake_cake -->
<g id="edge1" class="edge"><title>make_cake_mixture&#45;&gt;bake_cake</title>
<path fill="none" stroke="black" d="M133,-182.697C133,-174.983 133,-165.712 133,-157.112"/>
<polygon fill="black" stroke="black" points="136.5,-157.104 133,-147.104 129.5,-157.104 136.5,-157.104"/>
</g>
<!-- sell_cake -->
<g id="node3" class="node"><title>sell_cake</title>
<ellipse fill="none" stroke="black" cx="69" cy="-57" rx="52.4675" ry="18"/>
<text text-anchor="middle" x="69" y="-53.3" font-family="sans" font-size="14.00">sell_cake</text>
</g>
<!-- bake_cake&#45;&gt;sell_cake -->
<g id="edge2" class="edge"><title>bake_cake&#45;&gt;sell_cake</title>
<path fill="none" stroke="black" d="M117.833,-111.411C109.783,-102.606 99.7458,-91.6282 90.8687,-81.9189"/>
<polygon fill="black" stroke="black" points="93.3891,-79.4886 84.0582,-74.4699 88.2229,-84.212 93.3891,-79.4886"/>
</g>
<!-- eat_cake -->
<g id="node4" class="node"><title>eat_cake</title>
<ellipse fill="none" stroke="black" cx="198" cy="-57" rx="51.4931" ry="18"/>
<text text-anchor="middle" x="198" y="-53.3" font-family="sans" font-size="14.00">eat_cake</text>
</g>
<!-- bake_cake&#45;&gt;eat_cake -->
<g id="edge3" class="edge"><title>bake_cake&#45;&gt;eat_cake</title>
<path fill="none" stroke="black" d="M148.404,-111.411C156.58,-102.606 166.774,-91.6282 175.79,-81.9189"/>
<polygon fill="black" stroke="black" points="178.467,-84.1795 182.706,-74.4699 173.337,-79.4163 178.467,-84.1795"/>
</g>
</g>
</svg>
