<?xml version="1.0" encoding="UTF-8" standalone="no"?>
<!DOCTYPE svg PUBLIC "-//W3C//DTD SVG 1.1//EN"
 "http://www.w3.org/Graphics/SVG/1.1/DTD/svg11.dtd">
<!-- Generated by graphviz version 2.30.1 (20170916.1124)
 -->
<!-- Title: Example Pages: 1 -->
<svg width="214pt" height="188pt"
 viewBox="0.00 0.00 214.00 188.00" xmlns="http://www.w3.org/2000/svg" xmlns:xlink="http://www.w3.org/1999/xlink">
<g id="graph0" class="graph" transform="scale(1 1) rotate(0) translate(4 184)">
<title>Example</title>
<polygon fill="none" stroke="none" points="-4,5 -4,-184 211,-184 211,5 -4,5"/>
<!-- make_cake_mixture -->
<g id="node1" class="node"><title>make_cake_mixture</title>
<ellipse fill="#ada5a5" stroke="#ada5a5" cx="103" cy="-162" rx="103.486" ry="18"/>
<text text-anchor="middle" x="103" y="-158.3" font-family="sans" font-size="14.00">make_cake_mixture</text>
</g>
<!-- bake_cake -->
<g id="node2" class="node"><title>bake_cake</title>
<ellipse fill="#ff0000" stroke="#ff0000" cx="103" cy="-90" rx="59.1941" ry="18"/>
<text text-anchor="middle" x="103" y="-86.3" font-family="sans" font-size="14.00" fill="white">bake_cake</text>
</g>
<!-- make_cake_mixture&#45;&gt;bake_cake -->
<g id="edge1" class="edge"><title>make_cake_mixture&#45;&gt;bake_cake</title>
<path fill="none" stroke="black" d="M103,-143.697C103,-135.983 103,-126.712 103,-118.112"/>
<polygon fill="black" stroke="black" points="106.5,-118.104 103,-108.104 99.5001,-118.104 106.5,-118.104"/>
</g>
<!-- sell_cake -->
<g id="node3" class="node"><title>sell_cake</title>
<ellipse fill="none" stroke="#88c6ff" cx="103" cy="-18" rx="52.4675" ry="18"/>
<text text-anchor="middle" x="103" y="-14.3" font-family="sans" font-size="14.00">sell_cake</text>
</g>
<!-- bake_cake&#45;&gt;sell_cake -->
<g id="edge2" class="edge"><title>bake_cake&#45;&gt;sell_cake</title>
<path fill="none" stroke="black" d="M103,-71.6966C103,-63.9827 103,-54.7125 103,-46.1124"/>
<polygon fill="black" stroke="black" points="106.5,-46.1043 103,-36.1043 99.5001,-46.1044 106.5,-46.1043"/>
</g>
</g>
</svg>
